<svg width="52" height="65" viewBox="0 0 52 65" fill="none" xmlns="http://www.w3.org/2000/svg">
<path d="M26.6592 4.49078C26.6592 6.05685 26.6853 7.53591 26.6592 9.05413C26.6331 10.2461 26.8202 11.4554 26.4025 12.6213C26.359 12.7474 26.2764 12.9475 26.3286 12.9998C27.1769 13.8698 26.1676 14.8355 26.4417 15.8274C26.7419 16.8975 26.5243 18.1547 26.3503 19.3075C26.2276 20.1948 26.2423 21.0957 26.3938 21.9785C26.4092 22.5601 26.3787 23.1419 26.3025 23.7186C26.3025 24.6452 26.3634 25.5718 26.3677 26.494C26.3677 27.1379 26.3155 27.7773 26.2851 28.4212L26.0328 28.5691C26.4896 28.7765 26.9572 28.9595 27.4335 29.1172C28.4003 29.3376 29.4058 29.3227 30.3656 29.0737C31.601 28.8388 32.9452 29.2477 34.2242 29.139C35.303 29.052 36.421 29.5218 37.4738 28.9214C37.6043 28.8475 37.9088 29.052 38.1568 29.1433C38.2133 29.1042 38.383 28.891 38.5396 28.8997C40.3319 28.9737 42.1241 29.0824 43.9121 29.1825C44.0469 29.1825 44.2383 29.2825 44.3036 29.2216C45.5564 28.1297 46.9137 29.0911 48.2188 28.9824C48.5972 28.9519 48.9496 29.1651 49.3629 28.817C49.6152 28.6082 50.2329 28.6996 50.6157 28.817C50.7984 28.8779 50.9376 29.3608 50.9289 29.6479C50.8854 31.9274 50.7984 34.2069 50.7332 36.4821C50.7425 36.6198 50.7628 36.7565 50.7941 36.891C50.9159 37.6958 51.042 38.4571 50.6592 39.2793C50.3286 39.9927 50.6244 40.8105 50.7462 41.5892C50.8376 42.1721 50.6462 42.7899 50.6462 43.3945C50.6462 43.76 50.9115 44.1732 50.8028 44.4777C50.433 45.5392 50.8376 46.5571 50.8376 47.5925C50.8564 47.9922 50.8242 48.3928 50.7419 48.7844C50.6518 49.274 50.6878 49.7785 50.8463 50.2504C50.9289 50.6376 50.6853 51.0944 50.5679 51.6077C50.646 51.8404 50.7056 52.079 50.7462 52.3211C50.7977 52.7454 50.821 53.1727 50.8158 53.6001C50.8479 54.3987 50.8188 55.1985 50.7288 55.9927C50.6636 56.3842 50.2285 56.7061 50.0197 57.0933C49.6195 57.8372 49.2628 58.6071 48.8843 59.3641C48.8553 59.4505 48.8095 59.5303 48.7495 59.599C48.0317 60.2211 47.3009 60.8257 46.5744 61.4478C46.1442 61.8949 45.6786 62.3066 45.1823 62.6789C43.8773 63.4663 42.6636 64.3711 40.9931 64.1841C39.574 64.0376 38.1477 63.9737 36.7212 63.9927C35.6815 63.9927 34.6375 64.245 33.5978 64.258C32.7777 64.2256 31.9609 64.1369 31.153 63.9927C31.0529 63.9927 30.9528 63.8926 30.8615 63.91C28.3819 64.3451 25.8892 64.2102 23.4009 64.071C21.9131 63.9883 20.421 63.9231 18.9333 63.8317C17.6938 63.8265 16.4569 63.7173 15.2356 63.5055C14.1437 63.2444 13.1127 63.649 12.0948 63.5055C10.8898 63.3402 9.61516 63.288 8.63636 62.2309C8.09694 61.6479 7.1747 61.4391 6.46127 60.9823C6.01916 60.6739 5.63235 60.293 5.31717 59.8557C5.06376 59.4368 4.8399 59.0007 4.64724 58.5506C3.87963 57.2348 3.51934 55.7209 3.61189 54.2004C3.6902 53.2173 3.90336 52.2385 3.91206 51.2597C3.91206 49.9329 3.72935 48.6017 3.7424 47.2749C3.75545 45.9481 3.94686 44.6082 4.02951 43.2727C4.05996 42.7377 3.99471 42.1982 3.99471 41.6632C3.99471 40.8584 4.02951 40.0492 4.01646 39.2445C3.95297 38.6419 3.92392 38.0363 3.92946 37.4304C3.99985 36.5163 3.98966 35.5978 3.89901 34.6855C3.82505 33.5283 3.99906 32.3538 4.01646 31.2053C4.01646 30.1569 3.93381 29.1042 3.97296 28.0558C4.02081 26.7507 4.19482 25.4804 4.24702 24.1884C4.27747 23.5011 4.14262 22.8094 4.13392 22.1178C4.12522 21.4261 4.17307 20.6517 4.19917 19.9427C4.19917 19.9166 4.19917 19.8861 4.19917 19.86C3.9597 18.7063 3.92436 17.5196 4.09476 16.3537C4.23397 15.1661 3.71195 13.9046 3.81635 12.7039C3.94291 11.6266 4.29733 10.5886 4.85605 9.65881C5.27979 8.93437 5.8025 8.27256 6.40907 7.69252C7.16165 6.97909 7.67932 5.95244 8.90608 5.69143C9.61951 5.54788 10.2111 4.9345 10.9159 4.61694C11.2972 4.47069 11.704 4.40263 12.1122 4.41683C12.8996 4.41683 13.6956 4.49513 14.4743 4.41683C14.9883 4.30413 15.4865 4.12881 15.9577 3.8948C16.1448 3.8252 16.3406 3.65989 16.5146 3.68164C18.5548 3.93396 20.5907 4.22107 22.6309 4.48208C22.7827 4.47492 22.9312 4.43484 23.0659 4.36462C23.7794 4.10796 24.458 4.30372 25.1627 4.46903C25.6594 4.52856 26.161 4.53585 26.6592 4.49078ZM38.7788 56.1623C38.5669 55.9474 38.3814 55.7079 38.2264 55.4489C37.7043 54.1439 36.6951 53.0433 36.4863 51.5903C36.4863 51.4076 36.3514 51.1161 36.234 51.0944C35.5988 50.9682 35.6249 50.407 35.4553 49.9894C35.2856 49.5718 35.3291 49.0628 34.7462 48.8888C34.6157 48.8497 34.5679 48.5147 34.4982 48.3102C34.185 47.4098 33.8631 46.5093 33.5804 45.6001C33.4042 45.1246 33.1232 44.6949 32.7582 44.3429C32.2666 43.7904 32.1187 42.9421 31.7707 42.2504C31.1268 40.9715 30.4178 39.7273 29.787 38.4484C29.5216 37.9002 29.4477 37.2608 29.1736 36.7083C28.8996 36.1558 28.3427 35.7512 28.1644 35.1988C28.0723 34.8832 27.8692 34.6117 27.5926 34.4342C27.3159 34.2567 26.9844 34.1852 26.6592 34.233C26.3781 34.2949 26.1131 34.4146 25.8809 34.5847C25.6487 34.7547 25.4545 34.9713 25.3106 35.2205C24.6973 36.3037 24.2753 37.4913 23.7533 38.6267C23.2313 39.7621 22.5961 40.8018 22.2742 41.9894C22.1002 42.6463 21.7217 43.2466 21.4912 43.8905C21.2606 44.5343 21.1562 45.0824 20.4602 45.3478C20.2992 45.4087 20.1992 45.7262 20.1513 45.9437C20.1425 46.2729 20.1031 46.6006 20.0339 46.9225C19.5379 48.0188 18.8898 49.0498 18.4678 50.1678C17.9426 51.6413 17.3177 53.0773 16.5972 54.4658C16.036 55.5055 15.8098 56.7279 15.4705 57.8807C15.414 58.0721 15.5401 58.3157 15.5793 58.5419C15.8316 58.4897 16.2579 58.829 16.2753 58.22C16.2753 58.1417 16.5407 57.9938 16.6451 58.0199C16.7495 58.046 16.8408 58.2417 17.0801 58.5419C17.6513 58.1023 18.1814 57.6116 18.6636 57.0759C18.8941 56.7757 18.7027 56.1754 18.8985 55.8143C19.2446 55.0156 19.5452 54.1979 19.799 53.3652C21.4303 53.3652 23.0964 53.3652 24.7582 53.3652C26.0023 53.3652 27.2291 53.6305 28.4993 53.3652C29.2345 53.2129 30.0524 53.4478 30.831 53.5131C30.9789 53.5653 31.1573 53.3956 31.3531 53.3652C31.9447 53.2738 32.619 53.3652 33.1279 53.1433C33.6369 52.9215 33.9501 52.9519 34.1763 53.2999C34.6766 54.0569 35.0855 54.879 35.5336 55.6708C35.7993 56.0258 36.0158 56.415 36.1774 56.8279C36.4428 57.9677 37.3302 58.3374 38.1263 58.7246C38.8832 58.2591 39.1181 57.7589 38.7353 57.0106C38.6135 56.8105 38.7571 56.4234 38.7788 56.1623ZM41.5934 45.2869C42.8985 45.2216 43.1464 45.0128 43.2769 44.0079C43.3291 43.599 43.4292 43.1944 43.5075 42.7855C43.3509 42.3505 43.1421 41.7937 43.3204 41.4326C43.4335 41.1933 44.1035 41.202 44.5298 41.1411C44.8082 41.102 45.1562 41.2368 45.3607 41.1107C45.9219 40.767 46.831 40.6757 46.6266 39.636C46.6266 39.5316 46.7266 39.4011 46.7788 39.2836L45.9697 38.7572L45.9044 38.9834C45.4927 38.8913 45.0758 38.8245 44.6559 38.7833C44.2558 38.7854 43.8562 38.813 43.4596 38.866C43.3037 38.2853 43.219 37.6879 43.2073 37.0868C43.3161 36.1732 43.2073 35.4163 42.4808 34.8421C41.6108 35.09 41.5238 35.8209 41.3454 36.4734C41.2932 36.6735 41.402 36.9084 41.3802 37.1216C41.3714 37.5454 41.3086 37.9664 41.1932 38.3744C41.0757 38.7007 40.8191 39.1879 40.5755 39.2183C39.9529 39.22 39.331 39.1808 38.7136 39.1009C38.3592 39.0721 38.0045 39.151 37.6956 39.3271C37.3589 39.6593 37.0664 40.0336 36.8256 40.4408C37.3512 40.7839 37.9223 41.0519 38.5222 41.2368C39.1051 41.3456 39.7489 41.0889 40.371 41.0367C40.5798 41.0367 40.9626 41.0802 40.9887 41.1803C41.1105 41.6545 41.315 42.22 41.1671 42.6333C41.0073 43.0725 40.9615 43.545 41.0337 44.0067C41.106 44.4685 41.2941 44.9044 41.5804 45.2738L41.5934 45.2869Z" fill="#BFEDE6"/>
<path d="M34.9087 13.3415C34.7889 13.0641 34.7083 12.7712 34.6694 12.4715C34.6694 11.2404 35.0044 9.93969 34.7129 8.78689C34.4886 7.64113 34.3952 6.47359 34.4345 5.30674C34.4464 5.13308 34.4682 4.96024 34.4998 4.78906C34.9348 5.32414 35.3176 5.75481 35.6917 6.17677C35.8309 6.33338 36.018 6.44649 36.1659 6.61179C36.9576 7.39483 37.9756 7.9995 38.2279 9.22191C38.2383 9.27473 38.259 9.32497 38.2889 9.36976C38.3187 9.41455 38.3571 9.45301 38.4019 9.48292C39.9897 10.4661 41.0381 11.9712 42.2736 13.3067C42.8402 13.847 43.3384 14.4548 43.757 15.1164C43.9614 15.4818 44.5139 15.6384 44.8619 15.9386C45.4297 16.4151 45.9714 16.9219 46.4845 17.4568C47.2415 18.2616 47.9506 19.1055 48.7727 20.0408C44.1137 20.0408 39.5547 19.2447 34.826 19.8538C34.826 18.1137 34.826 16.5302 34.826 14.9424C34.826 14.7336 34.6564 14.5074 34.6825 14.316C34.732 13.9857 34.8076 13.6599 34.9087 13.3415Z" fill="#FD7D73"/>
<path d="M0.233851 26.4656C0.277353 25.2954 0.368707 23.8163 0.368707 22.3372C0.368707 21.8631 0.0902948 21.3976 0.00764123 20.9147C-0.0159129 20.6345 0.0151112 20.3523 0.0989952 20.0838C0.244068 19.7553 0.35486 19.4128 0.42961 19.0615C0.42961 18.0175 0.390458 16.9647 0.386108 15.9207C0.386108 14.6156 0.386108 13.3367 0.386108 12.0447C0.386108 10.9484 0.43396 9.84783 0.477462 8.75158C0.477462 8.64718 0.607967 8.55147 0.66017 8.43837C0.901056 7.82345 1.18151 7.22477 1.49976 6.64609C2.00582 5.88796 2.55788 5.16157 3.15283 4.471C3.50084 4.03598 3.94456 3.71841 4.30998 3.31819C4.41119 3.13556 4.48034 2.93692 4.51444 2.73092C5.10606 2.68307 5.78469 2.63522 5.84995 1.86088C6.69037 1.67484 7.51172 1.41125 8.30346 1.0735C9.07344 0.664578 9.85647 0.681979 10.6526 0.638477C11.9576 0.542773 13.2888 0.455769 14.6069 0.420968C15.3725 0.420968 16.1512 0.612376 16.8951 0.512322C17.9043 0.364415 18.8962 0.434018 19.888 0.394867C20.8799 0.355715 21.9805 0.455769 23.0245 0.447069C23.7808 0.458868 24.5336 0.55369 25.2692 0.729831C25.403 0.774189 25.5246 0.849209 25.6243 0.948907C25.724 1.0486 25.7991 1.17022 25.8434 1.30406C25.9696 2.3742 26.0174 3.47915 26.074 4.53625C26.1088 5.17138 26.1175 5.81085 26.1088 6.45033C26.1088 7.18116 25.9957 7.912 26.0261 8.62543C26.0566 9.33886 26.2219 10.1132 26.2784 10.8571C26.2784 11.1094 26.0609 11.3965 26.1262 11.6184C26.5612 13.2236 25.8304 14.8854 26.3872 16.4993C26.5351 16.9343 26.2654 17.4737 26.248 17.9696C26.248 18.2219 26.3654 18.4786 26.2958 18.7092V25.0387C27.3529 25.0387 28.4057 25.0387 29.4628 25.0387C29.789 25.0387 30.1197 24.9908 30.4459 24.9908C31.5204 24.9908 32.5949 24.9908 33.6694 24.9908L36.9669 25.0256C38.1023 25.0256 39.3421 25.3302 40.3383 24.9604C41.4215 24.5602 42.3263 25.1518 43.3051 24.9604C43.788 24.8603 44.2882 24.8386 44.8668 24.769C45.0452 24.8255 45.3627 25.03 45.6368 24.9821C46.6634 24.8168 47.7466 25.0256 48.6819 24.2339C49.2735 23.738 50.3219 24.5558 50.335 25.465C50.3785 27.8837 50.422 30.3024 50.4176 32.7211C50.4176 34.0262 50.1827 35.3313 50.3089 36.6102C50.3872 37.3497 50.5221 38.098 50.5308 38.8462C50.5308 40.2774 50.3611 41.726 50.5308 43.1355C50.6047 43.775 50.3828 44.3709 50.4568 44.8756C50.6352 46.0197 50.4133 47.1377 50.5047 48.26C50.5569 48.8516 50.3045 49.4172 50.6569 50.0436C51.4225 51.4139 50.7831 52.819 50.5525 54.198C50.4437 54.8636 50.3263 55.564 49.6825 55.986C49.6825 55.986 49.6346 56.0382 49.639 56.0556C49.9087 57.2823 48.4557 57.6303 48.3035 58.6657C48.3035 58.7353 47.7466 58.757 47.751 58.7831C47.8119 59.962 46.4068 59.949 46.0849 60.8625C45.9457 61.254 45.3149 61.4672 44.9234 61.7761C44.7189 61.937 44.5449 62.1284 44.31 62.3546C44.2708 62.3546 44.0446 62.1502 43.9968 62.1893C43.1746 62.8462 42.1653 63.0594 41.23 63.4248C40.7313 63.601 40.206 63.6908 39.677 63.6901C38.807 63.7467 37.9065 63.3813 37.0669 64.0034C36.9277 64.1078 36.5927 63.912 36.3491 63.9251C35.975 63.9251 35.6009 64.0164 35.2616 64.0034C34.7961 63.9599 34.335 63.8903 33.8695 63.8816C32.9995 63.8598 32.1729 63.8816 31.3247 63.8816H27.8445C27.6618 63.8816 27.4834 63.9294 27.3007 63.9207C26.2306 63.8598 25.1604 63.7554 24.0859 63.738C23.1855 63.738 22.2806 63.8207 21.3801 63.8207C20.8755 63.8207 20.3752 63.7032 19.875 63.651C19.0919 63.5683 18.348 63.9164 17.5302 63.7598C16.347 63.5379 15.0593 63.7076 13.9413 63.3247C12.8233 62.9419 11.7401 63.0898 10.6178 63.0594C9.49541 63.0289 8.33391 62.4155 7.16806 62.1893C6.30198 61.9932 5.47634 61.6488 4.7276 61.1714C3.60286 60.4563 2.68025 59.4648 2.04788 58.2916C1.68246 57.6651 1.14304 57.1214 0.89943 56.4558C0.675834 55.7069 0.552949 54.9315 0.534014 54.1502C0.468761 53.4019 0.694971 52.5754 0.455711 51.9098C-0.0837128 50.4264 0.238201 48.9169 0.146847 47.4161C0.094645 46.5852 0.185999 45.7413 0.2034 44.906C0.229501 43.8098 0.43396 42.6787 0.2034 41.6347C-0.00540934 40.4819 0.325205 39.3987 0.251252 38.2807C0.217414 38.0137 0.154694 37.7511 0.0641937 37.4976C0.142497 36.7233 0.251252 36.1012 0.259952 35.4748C0.281703 33.7956 0.259952 32.1165 0.259952 30.4329C0.201993 30.1096 0.167104 29.7825 0.155548 29.4541C0.251252 28.7103 0.44266 27.9794 0.551415 27.2355C0.564466 27.0659 0.403509 26.8701 0.233851 26.4656ZM24.6602 2.49166C24.1576 2.53765 23.6517 2.53036 23.1507 2.46991C22.4459 2.3046 21.7673 2.10884 21.0539 2.3655C20.9191 2.43572 20.7706 2.4758 20.6188 2.48296C18.5786 2.22195 16.5427 1.93483 14.5025 1.68252C14.3285 1.66077 14.1327 1.82608 13.9457 1.89568C13.4746 2.13119 12.9764 2.30797 12.4622 2.42206C11.6836 2.50471 10.8875 2.42206 10.1001 2.42206C9.69717 2.40545 9.29497 2.46903 8.91683 2.60911C8.22515 2.92668 7.61177 3.54005 6.90704 3.68361C5.68029 3.92722 5.16697 4.98867 4.41003 5.6847C3.80347 6.26474 3.28076 6.92655 2.85702 7.65099C2.2983 8.58075 1.94388 9.6188 1.81732 10.6961C1.71292 11.8968 2.25234 13.1583 2.09573 14.3459C1.93825 15.4883 1.97798 16.6493 2.21319 17.7782C2.21319 17.8043 2.21319 17.8348 2.21319 17.8609C2.18709 18.5917 2.13923 19.3269 2.14793 20.036C2.15664 20.7451 2.29149 21.4193 2.26104 22.1067C2.20884 23.4117 2.03483 24.6863 1.98698 25.974C1.94783 27.0224 2.04788 28.0751 2.03048 29.1235C2.03048 30.2894 1.83907 31.4639 1.91302 32.6037C2.00368 33.516 2.01387 34.4345 1.94348 35.3487C1.93794 35.9545 1.96699 36.5602 2.03048 37.1627C2.03048 37.9675 2.00873 38.7766 2.00873 39.5814C2.00873 40.1165 2.07398 40.6559 2.04353 41.191C1.94783 42.583 1.76077 43.9359 1.73467 45.241C1.70857 46.546 1.91737 47.899 1.90432 49.2258C1.90432 50.2046 1.68246 51.1833 1.60416 52.1665C1.50724 53.6996 1.87082 55.2266 2.64821 56.5515C2.84087 57.0016 3.06473 57.4376 3.31814 57.8565C3.64152 58.2945 4.03727 58.6741 4.48834 58.9789C5.18437 59.4139 6.10661 59.6445 6.66343 60.2274C7.64223 61.2845 8.91683 61.3367 10.1436 61.502C11.1615 61.6412 12.1925 61.2366 13.2844 61.502C14.5057 61.7139 15.7426 61.823 16.9821 61.8283C18.4698 61.9196 19.962 61.9849 21.4497 62.0675C23.938 62.2067 26.4307 62.3503 28.9103 61.9066C29.0017 61.9066 29.1017 61.9762 29.2018 61.9892C30.0097 62.1335 30.8265 62.2221 31.6466 62.2546C32.6863 62.2546 33.7303 61.9979 34.77 61.9892C36.1965 61.9702 37.6228 62.0341 39.0419 62.1806C40.7124 62.3677 41.9478 61.4628 43.2311 60.6755C43.7274 60.3031 44.193 59.8914 44.6232 59.4444C45.341 58.8223 46.0718 58.2176 46.7983 57.5955C46.8583 57.5269 46.9041 57.447 46.9331 57.3606C47.3116 56.6037 47.6683 55.8337 48.0685 55.0898C48.2774 54.7027 48.7124 54.3807 48.7776 53.9892C48.8676 53.1951 48.8967 52.3952 48.8646 51.5966C48.8698 51.1692 48.8465 50.742 48.795 50.3177C48.7544 50.0755 48.6948 49.837 48.6167 49.6042C48.7341 49.0909 48.9777 48.6341 48.8951 48.247C48.7366 47.7751 48.7006 47.2706 48.7907 46.781C48.873 46.3893 48.9052 45.9888 48.8864 45.589C48.8864 44.5537 48.4818 43.5357 48.8516 42.4743C48.9603 42.1698 48.695 41.7565 48.695 41.3911C48.695 40.7864 48.8864 40.1687 48.795 39.5857C48.6732 38.8071 48.36 37.9892 48.708 37.2758C49.0908 36.4536 48.9647 35.6923 48.8429 34.8875C48.8117 34.7531 48.7913 34.6163 48.782 34.4786C48.8472 32.2035 48.9342 29.924 48.9777 27.6445C48.9777 27.3573 48.8472 26.8745 48.6645 26.8136C48.273 26.6831 47.664 26.5917 47.4117 26.8136C46.9766 27.1616 46.646 26.9484 46.2676 26.9789C44.9625 27.0876 43.5965 26.1088 42.3524 27.2181C42.2871 27.279 42.0957 27.1877 41.9609 27.179C40.1164 27.0659 38.3241 26.9702 36.5362 26.8832C36.3796 26.8832 36.2099 27.0876 36.1534 27.1268C35.888 27.0354 35.6009 26.831 35.4704 26.9049C34.4176 27.5053 33.2953 27.0354 32.2208 27.1224C30.9418 27.2312 29.6107 26.8223 28.3622 27.0572C27.4024 27.3061 26.3969 27.3211 25.4302 27.1007C24.952 26.9374 24.483 26.7486 24.025 26.5352L24.2774 26.3873C24.3078 25.7434 24.36 25.0822 24.36 24.4601C24.36 23.5379 24.2948 22.6113 24.2948 21.6847C24.3709 21.108 24.4015 20.5261 24.3861 19.9446C24.2345 19.0618 24.2199 18.1609 24.3426 17.2736C24.5166 16.1252 24.7341 14.868 24.434 13.7935C24.1599 12.8016 25.1691 11.8533 24.3209 10.9658C24.2687 10.9136 24.3513 10.7135 24.3948 10.5874C24.8298 9.42151 24.6254 8.21216 24.6515 7.02021C24.6863 5.55854 24.6602 4.05773 24.6602 2.49166Z" fill="#064149"/>
<path d="M31.5287 0C31.8549 0.282762 32.1638 0.591626 32.5118 0.839587C32.7728 1.02665 33.1122 1.10495 33.3819 1.27461C33.6761 1.51511 33.9564 1.77219 34.2215 2.04459C34.5095 2.28127 34.7826 2.53551 35.0393 2.80587C35.6962 3.58021 36.3226 4.38064 36.9621 5.16803C37.0447 5.26808 37.1535 5.43339 37.2361 5.42904C37.6712 5.39424 37.9844 5.45949 38.0801 5.98151C38.0801 6.07722 38.4846 6.10767 38.7239 6.17292C38.9458 6.65579 38.9762 7.29962 39.7679 7.47798C40.0768 7.55193 40.2856 8.01305 40.5466 8.29146C40.9295 8.70473 41.3166 9.118 41.7125 9.52692C41.843 9.66612 42.0126 9.77053 42.1475 9.92279C42.4268 10.3666 42.7318 10.7936 43.061 11.2017C43.9311 12.0718 44.8838 12.907 45.7538 13.8119C46.2584 14.3295 46.6238 14.956 47.1285 15.4954C47.6046 16.0433 48.1208 16.5552 48.6728 17.0266C49.3601 17.5878 49.7299 18.3622 49.4993 19.0843C49.2383 19.9021 48.6293 20.1501 47.8202 20.0848C46.6978 19.9891 45.5798 19.8543 44.4575 19.8108C43.6962 19.7847 42.9349 19.8978 42.1736 19.9152C41.8125 19.9152 41.3775 19.6933 41.1035 19.8325C40.5292 20.124 40.0638 19.8108 39.5504 19.7673C38.7544 19.702 37.9496 19.7368 37.1535 19.6759C36.7185 19.6455 36.3095 19.4019 35.9006 19.428C34.9692 19.4539 34.0379 19.3722 33.1252 19.1843C32.7598 19.1234 32.3335 19.4062 31.7853 19.5846C31.6461 19.2496 31.259 18.758 31.2981 18.2795C31.3373 17.801 30.3889 17.3529 31.2024 16.7787L30.7021 16.3437H30.8979C30.9458 15.3127 31.0241 14.286 31.0328 13.255C31.0328 11.7412 31.0328 10.2316 31.0328 8.71778C31.0328 7.9652 31.0719 7.20827 31.1024 6.45568C31.1763 4.66776 31.2677 2.87983 31.3329 1.0919C31.3278 0.767343 31.3031 0.443393 31.259 0.121805L31.5287 0ZM32.9077 11.3409C32.7992 11.6586 32.7163 11.9845 32.6597 12.3154C32.6336 12.5155 32.8033 12.7504 32.8033 12.9418C32.8033 14.5296 32.8033 16.1131 32.8033 17.8532C37.5319 17.2442 42.091 18.0272 46.75 18.0402C45.9278 17.105 45.2187 16.261 44.4618 15.4562C43.9519 14.9156 43.4132 14.403 42.8479 13.9206C42.4999 13.6204 41.9474 13.4638 41.7429 13.0984C41.327 12.4452 40.8332 11.8448 40.2726 11.3105C39.0371 9.97499 37.9887 8.46982 36.4009 7.48668C36.3561 7.45677 36.3177 7.41831 36.2879 7.37352C36.258 7.32873 36.2373 7.27849 36.2269 7.22567C35.9746 6.01196 34.9566 5.40729 34.1649 4.61555C34.017 4.4633 33.8299 4.35019 33.6907 4.18053C33.3166 3.74551 32.9555 3.3105 32.4988 2.79282C32.4672 2.964 32.4454 3.13684 32.4335 3.3105C32.3942 4.47735 32.4876 5.64489 32.7119 6.79065C33.0034 7.94345 32.6858 9.24416 32.6684 10.4753C32.7077 10.7735 32.7883 11.0649 32.9077 11.3409Z" fill="#064149"/>
<path d="M36.7807 54.1646C36.7807 54.4256 36.6154 54.7997 36.7372 55.0346C37.12 55.7829 36.8851 56.2831 36.1282 56.7486C35.3321 56.3614 34.4446 55.9917 34.1793 54.8519C34.0177 54.439 33.8011 54.0498 33.5354 53.6948C33.1004 52.903 32.6654 52.0808 32.1782 51.3239C31.952 50.9759 31.617 50.928 31.1298 51.1673C30.6426 51.4066 29.9465 51.2978 29.3549 51.3892C29.1591 51.4196 28.9808 51.5893 28.8329 51.5371C28.0542 51.4718 27.2364 51.2369 26.5012 51.3892C25.2309 51.6502 24.0042 51.3892 22.76 51.3892C21.0982 51.3631 19.4321 51.3892 17.8008 51.3892C17.5471 52.2219 17.2464 53.0396 16.9003 53.8383C16.7046 54.1994 16.9003 54.7997 16.6654 55.0999C16.1826 55.6311 15.6526 56.1174 15.0819 56.5528C14.847 56.2527 14.7687 56.0569 14.6469 56.0308C14.5251 56.0047 14.2815 56.1526 14.2771 56.2309C14.2771 56.8399 13.8421 56.5006 13.5811 56.5528C13.542 56.331 13.4158 56.083 13.4724 55.8916C13.8117 54.7388 14.0379 53.5164 14.5991 52.4767C15.3195 51.0882 15.9445 49.6522 16.4696 48.1787C16.9047 47.0607 17.5398 46.0297 18.0357 44.9335C18.105 44.6115 18.1443 44.2839 18.1532 43.9547C18.201 43.7372 18.3011 43.4196 18.462 43.3587C19.1581 43.0933 19.2799 42.4887 19.493 41.9014C19.7062 41.3141 20.1021 40.6572 20.2761 40.0004C20.598 38.7954 21.2462 37.747 21.7551 36.6377C22.2641 35.5284 22.6991 34.3147 23.3125 33.2315C23.4563 32.9822 23.6505 32.7656 23.8827 32.5956C24.1149 32.4256 24.38 32.3058 24.6611 32.244C24.9862 32.1962 25.3178 32.2676 25.5944 32.4451C25.8711 32.6226 26.0742 32.8942 26.1662 33.2097C26.3446 33.7622 26.9014 34.1798 27.1755 34.7192C27.4495 35.2587 27.5235 35.8981 27.7888 36.4593C28.4196 37.7383 29.1287 38.9824 29.7725 40.2614C30.1205 40.9531 30.2684 41.8013 30.76 42.3538C31.125 42.7058 31.406 43.1355 31.5822 43.611C31.865 44.5202 32.1869 45.4207 32.5001 46.3212C32.5697 46.5257 32.6175 46.8606 32.7481 46.8998C33.331 47.0738 33.2918 47.5827 33.4571 48.0004C33.6224 48.418 33.6007 48.9792 34.2358 49.1053C34.3533 49.1053 34.4664 49.4185 34.4881 49.6012C34.6926 51.0542 35.7018 52.1504 36.2282 53.4599C36.3838 53.7158 36.5693 53.9524 36.7807 54.1646ZM30.8209 48.5093C28.7067 44.2549 26.6056 40.0221 24.4566 35.6719C24.3607 35.7682 24.272 35.8715 24.1912 35.9808C23.7562 36.9596 23.8128 38.1559 22.8557 38.9041C22.7513 38.9868 22.9079 39.3957 22.9384 39.6567C22.7389 39.9051 22.5654 40.1733 22.4207 40.4571C21.9857 41.536 21.6203 42.6322 21.1504 43.7111C20.6154 44.9248 19.9976 46.1037 19.4104 47.3C19.3253 47.4611 19.2652 47.6342 19.232 47.8133C19.145 48.3353 19.0841 48.8573 19.0232 49.2967L24.2043 48.9922C24.7606 48.9343 25.3199 48.9111 25.8791 48.9226C27.3319 49.046 28.7948 48.8774 30.1814 48.4267C30.3642 48.3614 30.5904 48.4745 30.8209 48.518V48.5093Z" fill="#064149"/>
<path d="M39.5811 43.2768C39.2889 42.908 39.0957 42.4708 39.0195 42.0064C38.9434 41.5421 38.987 41.066 39.1461 40.6232C39.294 40.21 39.0895 39.6444 38.9677 39.1703C38.9416 39.0702 38.5588 39.0049 38.35 39.0267C37.7279 39.0789 37.0841 39.3356 36.5012 39.2268C35.8983 39.0426 35.3242 38.7746 34.7959 38.4307C35.0367 38.0236 35.3292 37.6493 35.6659 37.3171C35.9748 37.1409 36.3295 37.0621 36.6839 37.0909C37.3013 37.1707 37.9232 37.21 38.5458 37.2083C38.7894 37.1779 39.046 36.6906 39.1635 36.3644C39.2789 35.9564 39.3417 35.5354 39.3505 35.1115C39.3505 34.8984 39.2635 34.6765 39.3157 34.4634C39.4941 33.8108 39.5898 33.08 40.4511 32.832C41.1559 33.4063 41.2864 34.1632 41.1776 35.0767C41.1893 35.6778 41.274 36.2753 41.4299 36.856C41.8265 36.8029 42.2261 36.7753 42.6262 36.7733C43.0461 36.8145 43.463 36.8813 43.8747 36.9734L43.94 36.7472L44.8013 37.2736C44.7491 37.391 44.6273 37.5215 44.6491 37.6259C44.8535 38.6569 43.9443 38.757 43.3832 39.1007C43.1787 39.2268 42.8307 39.1007 42.5523 39.1311C42.1173 39.192 41.456 39.1833 41.3429 39.4226C41.1646 39.7836 41.3734 40.3361 41.53 40.7755C41.4517 41.1844 41.3516 41.589 41.2994 41.9979C41.1472 43.0028 40.8862 43.2116 39.5811 43.2768Z" fill="#064149"/>
<path d="M30.8198 48.5166C30.5893 48.4731 30.3848 48.36 30.1934 48.4165C28.8067 48.8672 27.3439 49.0358 25.8911 48.9124C25.3319 48.9009 24.7725 48.9241 24.2162 48.982L19.0352 49.2866C19.0961 48.8515 19.157 48.3252 19.244 47.8031C19.2771 47.624 19.3372 47.4509 19.4223 47.2898C19.9965 46.0935 20.6143 44.9146 21.1624 43.7009C21.6322 42.6351 21.9933 41.5258 22.4327 40.447C22.5781 40.1677 22.7516 39.9038 22.9503 39.6596C22.9199 39.3986 22.7633 38.9897 22.8677 38.907C23.8247 38.1501 23.7812 36.9625 24.2032 35.9837C24.284 35.8744 24.3726 35.7711 24.4685 35.6748C26.6045 40.0206 28.7056 44.2534 30.8198 48.5166Z" fill="#BFEDE6"/>
</svg>
