<svg width="73" height="65" viewBox="0 0 73 65" fill="none" xmlns="http://www.w3.org/2000/svg">
<path d="M19.7124 14.6418L18.9397 13.5465L19.3009 13.2785C19.0257 12.6362 18.5956 12.0169 18.9784 11.2112C19.083 10.989 18.7834 10.6047 18.7963 10.3008C18.8309 9.60443 18.9037 8.91047 19.0142 8.22205C19.1057 7.66442 19.2253 7.11177 19.3726 6.56621C19.6163 5.62575 20.2701 4.96055 20.8923 4.25234C21.4299 3.63874 21.9746 3.2359 22.809 3.07533C23.8943 2.86745 24.9466 2.47177 26.0031 2.12483C26.5465 1.94706 27.0511 1.60873 27.6045 1.50981C28.1866 1.40515 28.813 1.56429 29.4051 1.4883C30.1775 1.36481 30.9431 1.20212 31.6989 1.00087C31.8953 0.954994 32.129 0.735649 32.2595 0.795861C33.2344 1.26322 34.1074 0.718446 35.0221 0.575083C35.5439 0.487632 36.0815 0.506269 36.6077 0.43172C36.8153 0.380158 37.0143 0.298534 37.1983 0.189437C37.2786 0.152163 37.3532 0.0460743 37.4234 0.054676C38.328 0.127791 39.2369 0.175101 40.1315 0.315596C40.6605 0.398747 41.1193 0.212375 41.5795 0.172233C42.2863 0.093384 43.1751 -0.285094 43.8561 0.418817C43.9995 0.56218 44.1801 0.778658 44.355 0.791561C45.3585 0.860375 45.7972 1.70908 46.4739 2.23379C46.9771 2.62374 47.5477 2.9291 48.0781 3.28464C48.1943 3.36205 48.352 3.49682 48.3534 3.60864C48.3634 4.31685 48.881 4.46881 49.3842 4.63942C49.3698 4.78278 49.2695 5.0566 49.3483 5.12972C50.2787 5.98989 49.5433 7.20848 50.0336 8.18334C50.3576 8.82561 50.4436 9.58973 50.607 10.3051C50.6839 10.5473 50.7012 10.8046 50.6572 11.0549C50.3705 12.0699 50.706 12.6047 51.7138 12.5573C51.9776 12.5444 52.2443 12.1803 52.4837 12.2061C52.7819 12.2376 53.0571 12.6606 53.3338 12.6462C54.0635 12.6075 54.7674 12.3122 55.5287 12.5029C55.6477 12.5315 55.8398 12.262 56.0032 12.1258C56.6727 12.5086 57.3594 12.7079 58.0949 12.285C58.1551 12.2505 58.2741 12.209 58.2942 12.2333C58.7572 12.7537 59.3536 12.1057 59.8712 12.4254C60.0919 12.5688 60.5019 12.5229 60.7758 12.4254C61.7951 12.0527 62.4617 12.7738 63.2531 13.1351C63.471 13.234 63.7577 13.2082 64.01 13.1996C64.7369 13.1752 65.3734 13.1007 65.815 13.9867C66.1017 14.5601 66.8529 14.8942 67.3776 15.3558C67.964 15.8733 68.6679 16.3292 69.0707 16.9686C69.5496 17.727 69.8134 18.6402 70.0442 19.519C70.0857 19.6782 69.8062 20.0925 70.027 20.3032C70.2477 20.514 70.6219 20.6129 70.9689 20.7806C70.4972 21.5118 70.6578 22.1827 71.2556 22.7877C71.3093 22.8322 71.3458 22.8941 71.3588 22.9626C71.323 23.8013 71.3201 24.6443 71.2154 25.4758C71.1595 25.9345 71.1595 26.2585 71.452 26.6958C71.7445 27.133 71.6068 27.7896 71.7502 28.3272C71.8376 28.657 72.1975 28.9265 72.2434 29.2519C72.2892 29.5774 71.9566 29.9917 72.0498 30.2841C72.2564 30.8843 72.2533 31.5368 72.0412 32.135C71.7545 32.9722 72.0512 33.7894 72.3193 34.5893C72.3337 34.6323 72.3882 34.6839 72.3767 34.7126C72.0512 35.5642 72.7107 36.5075 72.09 37.3677C71.8835 37.6544 71.8692 38.2279 72.0082 38.5791C72.295 39.3031 72.1516 39.9626 72.0369 40.6679C72.0025 40.8787 71.9251 41.2743 72.4068 41.4034C72.5286 41.4363 72.5874 42.1044 72.4985 42.4327C72.3853 42.847 72.0441 43.1954 72.4183 43.6499C72.4613 43.7015 72.262 43.9509 72.2491 43.9739C72.3322 44.305 72.4383 44.5272 72.4355 44.748C72.4283 45.482 72.3709 46.2146 72.3537 46.9486C72.3303 47.4892 72.3399 48.0307 72.3824 48.5701C72.4197 48.9485 72.5674 49.317 72.6835 49.76C72.6018 49.8833 72.4312 50.1456 72.2462 50.428L72.7523 50.7019C72.4656 51.8717 71.8247 52.9082 72.3609 54.1311C72.4326 54.296 72.315 54.554 72.2606 54.7633C72.1685 55.1554 72.0536 55.5417 71.9165 55.9203C71.7433 56.392 71.5273 56.8469 71.2714 57.2794C70.9947 57.718 70.5631 58.065 70.3209 58.5166C70.0442 59.0327 69.5539 58.9094 69.1582 59.0585C68.9933 59.1201 68.7396 59.0155 68.6177 59.1087C68.2708 59.371 68.017 59.7982 67.64 59.9688C67.154 60.1939 66.5791 60.2226 66.0501 60.3659C65.7652 60.4646 65.487 60.5814 65.2171 60.7158C65.0594 60.6054 64.777 60.2642 64.4616 60.2312C64.1247 60.1939 63.762 60.5308 63.3979 60.5581C62.4732 60.6254 61.5413 60.591 60.6152 60.6426C60.2482 60.6641 59.8869 60.8075 59.5242 60.8978C59.4568 60.915 59.3808 60.9838 59.3292 60.9638C58.1451 60.419 56.9939 61.2978 55.7523 61.0039C54.9853 60.8233 54.0592 61.3351 53.2019 61.5243C53.0744 61.5668 52.9366 61.5668 52.8091 61.5243C52.1038 61.1329 51.3626 61.1889 50.6056 61.2777C50.2658 61.3193 49.9189 61.2777 49.5763 61.2964C49.3852 61.321 49.1979 61.3692 49.0186 61.4397C48.9369 61.4684 48.8595 61.5931 48.7964 61.5831C48.2545 61.4899 47.7197 61.3222 47.1749 61.2835C46.7649 61.2534 46.3463 61.401 45.9291 61.4268C45.7133 61.4532 45.4946 61.4111 45.3041 61.3064C44.8224 60.9609 44.5098 61.0312 44.2604 61.6576L43.9593 61.1315C42.2114 61.3858 40.4451 61.4923 38.6793 61.4498C36.9259 61.3853 35.1669 61.4354 33.286 61.4354C32.9849 61.6992 32.5577 62.3056 32.1391 61.3595C32.1219 61.3207 32.0158 61.3093 31.9498 61.3035C31.0337 61.2304 30.1348 60.9437 29.2044 61.3982C28.7743 61.6075 28.2009 61.6232 27.712 61.5702C27.0919 61.4844 26.4611 61.6118 25.9229 61.9315C25.4512 62.1938 24.7329 62.0003 24.1251 62.0361C23.4513 62.0777 22.7746 61.8541 22.0965 62.2368C21.7338 62.4418 21.2191 62.3802 20.7704 62.4318C20.0536 62.5035 19.3368 62.5307 18.6286 62.6268C17.7483 62.7472 16.8781 62.9278 16.0007 63.0655C15.6566 63.1185 15.304 63.1228 14.9556 63.1587C14.7548 63.1717 14.556 63.2053 14.3621 63.259C14.1069 63.3436 13.8876 63.712 13.5922 63.2791C13.542 63.2074 13.112 63.2533 13.0761 63.3379C12.7191 64.1694 12.1973 63.5156 11.7744 63.5128C11.6439 63.6862 11.5192 63.8482 11.3959 64.0117L11.1235 63.7049L11.1379 63.864C10.9006 63.8689 10.6635 63.8472 10.4311 63.7995C10.1931 63.7264 9.98808 63.4827 9.75727 63.464C9.12934 63.411 8.49424 63.4568 7.86488 63.4196C7.69715 63.4095 7.53658 63.2461 7.38031 63.1429C7.31007 63.097 7.26562 63.011 7.19681 62.9666C6.642 62.6024 6.09005 62.234 5.52233 61.8913C5.29346 61.7833 5.05897 61.6876 4.81986 61.6046C4.69721 61.5621 4.5886 61.4867 4.50589 61.3867C4.10017 60.7373 3.69876 60.0821 3.32602 59.4126C3.22853 59.2377 3.2314 59.004 3.19412 58.7961C3.06223 58.0793 2.95614 57.3625 2.79414 56.6557C2.67451 56.1591 2.52026 55.6714 2.33251 55.1963C2.21251 54.9547 2.07096 54.7243 1.90959 54.5081C2.01138 54.154 2.13037 53.7426 2.24936 53.3268C1.59993 53.2437 1.58989 52.6602 1.76766 52.4151C2.20492 51.8115 2.06729 51.1807 2.09883 50.5513C2.14184 49.6725 2.17481 48.7951 2.21639 47.8131C1.92966 47.6597 1.62 47.4576 2.03718 46.8884C2.23503 46.6189 2.08449 46.067 2.03718 45.6498C1.99191 45.2375 1.84404 44.8432 1.6071 44.5029C1.11393 43.786 1.69311 43.0692 1.83648 42.3711C1.88789 42.194 1.90169 42.0082 1.877 41.8255C1.85231 41.6427 1.78967 41.4672 1.69311 41.3102C1.46517 40.893 1.42503 40.3453 1.40639 39.8507C1.37628 39.207 1.38058 38.5906 0.884548 38.4515C0.705345 37.9282 0.527575 37.6157 0.500336 37.2888C0.453026 36.7498 0.322566 36.1061 0.551947 35.6818C0.913221 35.0137 0.513239 34.4431 0.58492 33.8324C0.610152 33.5269 0.54217 33.221 0.389947 32.955C-0.0401416 32.1923 0.348371 31.4741 0.460194 30.7486C0.533309 30.2684 0.217911 29.1846 0 29.0914C0.159133 28.2584 0.318265 27.4556 0.463062 26.6542C0.481699 26.5467 0.463062 26.3675 0.399982 26.3187C-0.349805 25.7754 0.197841 25.4069 0.543345 24.9683C1.00641 24.3704 1.31034 23.7124 0.973433 23.0759C1.26016 22.6329 1.6114 22.3046 1.68021 21.929C1.90242 20.6889 2.59773 19.8187 3.5683 19.0918C3.80055 18.9183 3.93961 18.6173 4.11451 18.375C4.28941 18.1327 4.35536 17.6223 4.87577 17.9679C4.92308 17.9994 5.08078 17.942 5.13239 17.8804C5.82483 17.0561 6.8212 17.1234 7.74159 16.8883C8.33224 16.7378 8.9272 16.7249 9.51212 16.6016C10.5157 16.3894 11.6181 16.4783 12.5672 16.1342C13.3786 15.8475 14.3664 16.2776 15.0431 15.4791C15.1248 15.3816 15.5434 15.6224 15.7957 15.6009C16.881 15.492 17.9662 15.3673 19.0429 15.1852C19.2694 15.1192 19.473 14.8296 19.7124 14.6418ZM68.6765 56.746C68.5088 56.217 68.6077 55.9719 69.0894 55.6479C69.4213 55.4396 69.6846 55.1382 69.8465 54.7813C70.0084 54.4244 70.0617 54.0278 69.9997 53.6408C69.9681 53.4204 70.0068 53.1957 70.1101 52.9985C70.3725 52.5211 70.5044 52.1126 69.9983 51.6868C69.8549 51.5692 69.8549 51.2567 69.8406 51.0273C69.7789 50.2245 69.7488 49.4188 69.68 48.6159C69.6255 47.9765 69.4908 47.3414 69.4693 46.702C69.4277 45.4433 69.5109 44.176 69.399 42.9244C69.3431 42.3065 69.3317 41.7861 69.6012 41.5109C69.5281 41.065 69.4679 40.7941 69.4435 40.5288C69.4076 40.1332 69.756 39.6042 69.2026 39.4995C69.3102 39.0121 69.432 38.5433 69.508 38.0659C69.5338 37.9053 69.4349 37.7261 69.4062 37.5526C69.313 37.0007 69.1295 36.4416 69.1639 35.8954C69.1983 35.3492 69.4507 34.8359 69.6098 34.304C69.6284 34.241 69.6356 34.1291 69.5997 34.1019C69.2428 33.8266 69.465 33.5284 69.5467 33.2302C69.5718 33.0986 69.5718 32.9634 69.5467 32.8317C69.4822 32.3471 69.4033 31.8654 69.3245 31.3178L68.9317 31.206C68.9317 30.6555 68.9059 30.1752 68.9388 29.6992C68.9661 29.3021 69.141 28.9036 69.1137 28.5165C69.0363 27.4484 68.6249 26.4205 68.7181 25.3295C68.7338 25.1446 68.8184 24.8636 68.7338 24.7919C68.0629 24.2299 68.4629 23.4672 68.3238 22.8135C68.2005 22.23 68.1561 21.6308 68.0199 21.0516C67.9149 20.6856 67.7732 20.3311 67.597 19.9936C67.4178 19.6051 67.0766 19.2409 67.0422 18.8467C66.969 18.008 66.5619 17.5335 65.9053 17.3041C65.7304 17.8388 65.3161 18.4338 65.448 18.861C65.6358 19.4646 65.3204 19.8803 65.1311 20.2172C64.5734 21.2021 63.6674 21.9619 63.3434 23.1275C63.269 23.3489 63.1509 23.5532 62.996 23.728C62.841 23.9029 62.6525 24.0448 62.4416 24.1454C61.3062 24.5941 60.8001 25.5517 60.2238 26.4908C60.0389 26.7947 59.7522 27.037 59.507 27.3051C59.1027 27.7567 58.6884 28.1982 58.2985 28.6613C58.0117 29.0068 57.7436 29.3781 57.4684 29.7408C57.3035 29.8741 57.249 30.2053 57.1042 30.2497C56.3229 30.4935 55.9 31.2174 55.2104 31.5787C54.8248 31.7809 54.4936 32.0962 54.1438 32.3615C54.0672 32.4144 53.997 32.4759 53.9345 32.545C53.47 33.1184 53.0026 33.6704 52.2643 33.9012C52.1511 33.9356 51.959 34.0015 51.9561 34.0603C51.926 34.7571 51.1791 34.6037 50.8622 34.9993C50.4049 35.5728 49.7827 36.0029 49.2179 36.5161C48.9138 36.5547 48.6123 36.6107 48.3147 36.6839C47.1864 37.0179 46.7879 37.6286 46.9069 38.7884C46.9341 39.0479 47.0588 39.3619 46.9585 39.5568C46.6445 40.1862 46.385 40.9905 45.8445 41.3202C45.2266 41.7059 44.3478 41.7173 43.5722 41.7976C42.7407 41.8822 41.8935 41.8248 41.0591 41.8965C40.51 41.9438 39.9724 42.1962 39.4291 42.2033C38.6076 42.2148 37.8435 42.6248 36.9704 42.3926C36.5819 42.2893 35.9238 42.5087 35.6543 42.814C35.3002 43.2183 35.0637 42.923 34.7855 42.9001C34.1519 42.8485 33.511 42.6664 32.8917 42.7252C32.3269 42.7782 31.785 43.0793 31.2416 43.2685C31.2416 42.966 31.1742 42.7596 30.7155 42.9617C30.5105 43.052 30.2137 42.9402 29.9599 42.9072C29.8252 42.89 29.6445 42.7639 29.5686 42.8227C28.7442 43.3861 28.2052 42.9058 27.8124 42.2779C27.4812 41.7517 27.3622 41.0951 27.0468 40.5575C26.849 40.2206 26.7802 39.4622 26.0246 39.931C25.9487 39.9783 25.801 39.9124 25.6863 39.8952C25.0741 39.8063 24.4577 39.7432 23.8527 39.6214C22.6929 39.3877 21.4786 39.3834 20.412 38.7368C20.1855 38.5934 19.8471 38.6322 19.559 38.6207C19.3886 38.6327 19.2203 38.6645 19.0572 38.7153C19.0457 38.5447 19.0343 38.3741 19.0214 38.1877C18.4278 37.8867 17.9017 37.2989 17.0659 37.6143C16.9225 37.6716 16.6014 37.4437 16.4394 37.2745C15.7943 36.5993 15.4703 36.5806 14.9341 37.2458C14.8925 37.2272 14.8524 37.2071 14.8108 37.1914C14.2159 36.9692 14.0037 36.2609 13.3585 36.0803C12.9858 35.9756 12.6417 35.7534 12.2116 35.5513L12.1314 35.6101C11.469 34.975 10.897 34.3513 10.2418 33.8338C9.88056 33.5471 9.38166 33.4496 8.9401 33.2604C8.73366 33.1672 8.49424 33.0883 8.34801 32.9306C8.01828 32.5751 7.80897 32.0704 7.42332 31.811C6.33377 31.0941 5.27288 30.3558 4.35249 29.424C4.21468 29.302 4.059 29.202 3.89086 29.1272C3.77044 28.7115 3.68012 28.3961 3.53819 27.9086C3.18409 28.1954 2.77694 28.3688 2.7798 28.5409C2.78697 28.9423 2.99055 29.3394 3.08373 29.6376C3.08373 30.0218 3.07656 30.3372 3.08373 30.6512C3.09664 31.1113 3.12101 31.573 3.14251 32.0332L2.9289 32.0776L3.32888 32.4346L3.1081 32.4776C3.23426 33.8266 3.36186 35.1771 3.49375 36.5864L4.14462 36.9491L3.77187 37.1225C3.71596 37.8394 3.67009 38.43 3.61704 39.1067L3.91524 40.0328L4.42847 40.3038C4.31809 40.5661 4.17759 40.7339 4.19193 40.9002C4.24354 41.4836 4.25071 42.0987 4.44855 42.6377C4.90874 43.8835 4.61628 45.1652 4.74531 46.4239C4.81986 47.1608 4.76108 47.9106 4.80409 48.6518C4.81986 48.9385 4.96322 49.2252 5.01626 49.512C5.04495 49.657 5.0274 49.8075 4.96609 49.942C4.49442 50.7692 4.5575 51.1205 5.30155 51.6624C5.28865 52.4108 4.78401 53.1204 5.17396 53.8946C5.21267 53.9691 5.06214 54.1225 5.04063 54.2472C4.93885 54.8508 4.6937 55.4859 4.79692 56.055C4.92738 56.7718 5.30729 57.4614 5.65709 58.1223C5.96246 58.7087 6.00833 59.4857 6.77246 59.7753C6.83554 59.7982 6.84987 59.9488 6.88715 60.0405C7.01187 60.3358 7.77886 60.6498 7.92796 60.429C8.30357 59.8756 8.58886 60.2971 8.72076 60.5308C9.05479 61.1258 9.54796 61.1043 10.0942 61.0469C10.5773 60.9967 11.2167 60.753 11.5278 60.9681C12.5442 61.6849 13.4116 60.5624 14.3492 60.8792C14.3841 60.8756 14.4176 60.8631 14.4464 60.8431C14.4752 60.823 14.4985 60.796 14.514 60.7645C14.58 60.1308 14.9972 60.4663 15.2925 60.4778C15.4359 60.4778 15.6452 60.5624 15.6882 60.5064C16.081 59.9832 16.6172 60.1194 17.139 60.1337C17.2213 60.1387 17.3038 60.1272 17.3816 60.0998C17.4594 60.0725 17.5309 60.0299 17.592 59.9746C17.9576 59.4914 18.4063 59.6678 18.8823 59.7065C19.5274 59.761 20.2314 59.8498 20.8206 59.6549C21.6162 59.3925 22.1911 59.2879 22.7044 59.6907C23.1187 59.5201 23.5115 59.2721 23.9315 59.209C24.6039 59.1072 25.2949 59.1316 25.9788 59.1015C26.5336 59.0771 27.0898 59.0642 27.6432 59.0226C28.2167 58.9782 28.8059 58.9237 29.3836 58.842C29.8797 58.7718 30.4187 58.4807 30.8474 58.6055C31.4409 58.7775 31.8896 58.6728 32.4387 58.5037C33.0336 58.3216 33.729 58.2169 34.321 58.3603C34.9131 58.5037 35.574 57.7066 36.0314 58.5667C36.0457 58.594 36.2005 58.5495 36.2894 58.5366L37.9409 58.3144C38.3037 57.8585 38.8456 58.3417 39.3674 58.4879L39.9409 58.0248L40.2835 58.475L41.4562 58.5481C41.5107 58.3732 41.5709 58.1825 41.611 58.0506L42.95 58.1467C43.4504 58.8707 43.988 58.9209 44.5915 58.6055C45.0016 58.3904 45.2955 58.4334 45.5951 58.6341C46.1055 58.9825 46.5427 58.9094 47.0172 58.5782C47.2109 58.4287 47.4465 58.3435 47.6911 58.3345C48.438 58.3933 49.1792 58.5223 49.9232 58.6141C50.2867 58.6709 50.6536 58.703 51.0214 58.7101C51.7195 58.7029 52.3948 58.5882 53.1173 58.7603C53.7911 58.9209 54.5395 58.7875 55.2534 58.7503C55.3753 58.7431 55.4871 58.5667 55.6376 58.4392L55.7079 58.7531C56.1036 58.7531 56.4591 58.7718 56.8118 58.7531C57.3308 58.7187 57.8526 58.8664 58.3056 58.3402C58.6468 57.9431 59.1658 58.1969 59.3163 58.7144C59.4282 58.6528 59.5371 58.5424 59.6547 58.5338C60.889 58.4377 62.1248 58.3689 63.3577 58.2686C63.6304 58.2352 63.8975 58.1658 64.152 58.0621C64.7111 57.86 65.2745 57.4327 65.8135 57.4672C66.8716 57.5388 67.769 57.1948 68.6765 56.746ZM46.2574 36.3298C46.5915 35.9799 46.7664 35.7563 46.9742 35.5857C47.5749 35.0897 48.1871 34.608 48.7992 34.1291C49.0806 33.885 49.3834 33.6667 49.7039 33.4768C50.62 32.9951 51.5848 32.6439 52.2686 31.7565C52.7618 31.1142 53.4628 30.6196 54.1123 30.1121C54.4119 29.8784 54.8119 29.7723 54.9939 29.682L55.08 28.8806C55.6792 28.9838 55.6419 28.6656 55.5258 28.247C55.5029 28.1624 55.6348 27.9803 55.7394 27.9258C56.191 27.6878 56.6799 27.5129 57.1129 27.2477C57.3179 27.123 57.5429 26.8592 57.563 26.6384C57.6777 25.5259 58.7099 25.0815 59.2275 24.2672C59.3163 24.1238 59.735 24.1482 59.7737 24.0249C60.1077 22.9597 61.5041 22.7633 61.7148 21.6164C61.7148 21.5892 61.8137 21.5849 61.8338 21.5519C62.1205 21.0975 62.4588 20.6674 62.6495 20.1771C62.9362 19.4474 62.7671 18.5227 63.6817 18.0797C63.8136 18.0152 63.8165 17.6725 63.8681 17.456C63.8968 17.3342 63.8882 17.2023 63.9211 17.0819C64.0158 16.7349 64.1233 16.3894 64.2451 15.9751L61.6876 15.0074C61.2159 15.0074 60.7442 15.0289 60.2754 15.0074C59.8453 14.9816 59.4153 14.8468 58.9966 14.8727C58.7773 14.887 58.5666 15.1436 58.3601 15.2898C58.2856 15.4418 58.2167 15.5938 58.1393 15.7457C58.0318 15.492 57.9257 15.2382 57.8784 15.125C57.3752 15.0533 56.9322 14.9945 56.4892 14.9271C56.2799 14.8956 56.0362 14.7594 55.8713 14.8268C54.8492 15.2483 53.8356 14.4168 52.8005 14.8497C52.3948 15.0189 51.8988 14.9773 51.4414 15.0189C50.9841 15.0605 50.521 15.0691 50.0651 15.1307C49.6351 15.188 49.215 15.2956 48.7892 15.3816C48.4451 15.4647 47.9591 15.6984 47.8287 15.5708C47.2696 15.0275 47.0158 15.4848 46.7262 15.826C46.1155 15.3787 45.3127 15.3572 45.036 15.7257C44.9127 15.8905 44.712 15.998 44.4525 16.2074C44.4209 15.8332 44.4066 15.6812 44.3923 15.512C44.3102 15.527 44.2296 15.549 44.1514 15.578C43.5235 15.8805 42.9543 16.3708 42.1615 15.9421C41.8226 15.7892 41.4491 15.7288 41.0792 15.7672C40.2677 15.8231 39.4577 16.054 38.6535 16.021C37.8879 15.9966 37.0951 16.755 36.3453 15.9737C36.321 15.9479 36.179 16.0296 36.093 16.064L35.131 16.4453L34.9676 16.1256C34.3368 16.2991 33.6487 16.7378 33.21 16.5557C32.2566 16.1672 31.4337 16.6546 30.5621 16.669C29.484 16.6876 28.4116 16.9858 27.3092 16.8353C26.5838 16.7364 25.8383 16.6518 25.1587 17.1034C25.0641 17.165 24.8562 17.0704 24.7057 17.0317C24.5552 16.993 24.3831 16.8611 24.2484 16.8883C23.5803 17.0417 22.9223 17.2439 22.2556 17.4087C22.125 17.417 21.9942 17.3939 21.8743 17.3414C21.6478 17.2754 21.4284 17.1478 21.2005 17.1363C20.951 17.1234 20.6944 17.2625 20.4435 17.251C19.6579 17.2152 18.8665 17.0661 18.0909 17.1005C17.3397 17.1349 16.6573 17.5306 15.8574 17.5306C15.2395 17.5306 14.6216 17.8015 13.9048 17.975L13.7083 18.4194C13.5277 18.3019 13.3886 18.1327 13.2525 18.1327C12.5356 18.1456 11.8074 18.1772 11.0891 18.2546C10.8024 18.2847 10.3723 18.3979 10.3106 18.5757C10.1673 18.937 10.0239 18.8825 9.7372 18.8624C9.19529 18.8352 8.5903 18.7019 8.20178 19.2811C8.14444 19.3642 7.96667 19.4689 7.92222 19.4402C7.45916 19.1535 7.25846 19.6208 6.94019 19.747C6.53734 19.9075 6.11442 20.0136 5.71157 20.1771C5.55553 20.2486 5.42176 20.3611 5.32449 20.5025C5.22701 20.6287 5.23131 20.858 5.11662 20.9412C4.83998 21.1284 4.61628 21.3837 4.46711 21.6825C4.31794 21.9814 4.24835 22.3136 4.26504 22.6472C4.26504 22.8278 4.0457 23.0601 3.86793 23.1834C3.53963 23.4128 3.18982 24.9855 3.45217 25.2865C3.55253 25.4026 3.71596 25.5933 3.80628 25.5732C4.67936 25.3568 4.50732 26.0908 4.63348 26.4951C4.85283 27.1846 5.3589 27.6534 5.8664 27.5631C5.95385 27.7337 5.99973 27.943 6.13019 28.0506C6.48 28.3373 6.88858 28.5466 7.23122 28.8376C7.79463 29.315 8.18028 30.0146 8.97021 30.1996C9.27844 30.2727 9.63398 30.2655 9.8863 30.4246C10.3522 30.7214 10.7235 31.1744 11.1995 31.4511C11.793 31.7966 12.2116 32.6812 13.1449 32.1823C13.2109 32.1464 13.4188 32.3099 13.5191 32.4202C13.7571 32.684 13.9349 33.0152 14.2044 33.2388C14.4739 33.4625 14.8452 33.6087 15.1692 33.7894C15.3461 33.8476 15.5181 33.9195 15.6839 34.0044C16.3003 34.2653 16.9971 34.413 17.5132 34.8029C18.0293 35.1929 18.4594 35.709 19.1877 35.7147C19.2352 35.7167 19.2818 35.7286 19.3245 35.7495C19.3672 35.7705 19.4051 35.8002 19.4357 35.8366C19.9432 36.5878 20.6944 36.0717 21.318 36.2065C21.513 36.248 21.7883 36.2294 21.8915 36.3498C22.4205 37.0107 23.0384 37.3734 23.9158 37.1899C24.0543 37.1722 24.195 37.1884 24.3258 37.2372C24.9322 37.425 25.5343 37.6329 26.1436 37.8107C26.32 37.8623 26.5508 37.9139 26.7013 37.8451C27.411 37.5182 28.0833 37.1068 28.8059 36.8129C29.1858 36.6595 29.57 36.2394 30.0718 36.6222C30.1607 36.691 30.4416 36.6423 30.5377 36.5491C30.985 36.1118 31.5025 36.119 32.0817 36.1333C32.7985 36.1477 33.5153 36.0101 34.2236 35.9269C34.5662 35.8853 34.906 35.8165 35.2472 35.7606C35.5672 35.8393 35.8976 35.8674 36.2263 35.8438C36.545 35.7872 36.8572 35.6989 37.1582 35.58C37.455 35.481 37.746 35.3678 38.0384 35.256C38.5775 35.0495 39.0076 34.5535 39.6613 34.6538C40.0914 34.7212 40.5315 34.8173 40.9702 34.8416C41.5594 34.8732 42.1515 34.8503 42.7436 34.8416C43.0647 34.8416 43.416 34.9119 43.7013 34.8072C44.4037 34.5492 44.8582 35.4165 45.5392 35.1599C45.5463 35.1599 45.5965 35.2818 45.6338 35.342C45.8245 35.6531 46.0223 35.9613 46.2574 36.3298ZM21.2406 11.4879C21.1962 11.571 20.9826 11.7746 21.0055 11.9538C21.0844 12.5645 21.2464 13.1652 21.374 13.7688C21.4442 14.0928 21.5087 14.4182 21.6019 14.8727H23.8255C23.6692 13.8218 23.3954 12.7839 23.3954 11.7473C23.3954 10.9359 23.7509 10.1245 23.9502 9.31017C23.9502 9.29154 23.986 9.28007 24.0018 9.26287C24.2885 8.94317 24.5752 8.60626 24.8878 8.3052C25.1401 8.06005 25.4985 7.61849 25.6963 7.67441C26.7214 7.96113 27.3952 7.04218 28.3313 7.02211C29.0826 7.00634 29.9184 6.49166 30.5578 6.69524C31.4581 6.98196 32.0817 6.53611 32.8272 6.39848C33.3291 6.32402 33.8353 6.28188 34.3425 6.27232C34.5848 6.25942 34.8558 6.36264 35.0694 6.28665C36.0385 5.94832 36.9804 5.7132 38.0399 5.97412C38.6133 6.11749 39.3774 6.13756 39.8534 5.86373C40.4957 5.49242 40.7666 5.84796 41.1566 6.12322C41.2001 6.16106 41.2391 6.20388 41.2727 6.25081L41.6799 6.05871C42.9586 6.3612 43.5937 7.56402 44.9471 7.65147C44.9863 7.83961 45.0535 8.02083 45.1464 8.18908C45.36 8.51308 45.813 8.78833 45.8345 9.1066C45.8875 9.9252 46.0166 10.6836 46.4194 11.4104C46.4997 11.5538 46.2517 11.8592 46.2345 12.0957C46.2173 12.3323 46.2159 12.6477 46.3535 12.781C47.0474 13.4562 47.6552 12.5358 48.3448 12.6047C48.5082 12.6204 48.7921 12.3509 48.8681 12.1531C49.0845 11.5911 48.6788 10.7194 48.2946 10.5273C48.2229 10.0557 48.19 9.68579 48.1068 9.32881C48.0423 9.04209 47.8932 8.77973 47.8201 8.49731C47.7702 8.23148 47.7362 7.96291 47.7183 7.69304C47.6911 7.45793 47.9219 7.1497 47.8488 6.95616C47.6681 6.42243 47.3927 5.92562 47.0359 5.48956C46.5003 4.92148 45.9182 4.39925 45.2955 3.92834C44.9571 3.65451 44.5485 3.46814 44.0697 3.18285C44.0812 2.76136 43.8876 2.48037 43.1866 2.53342C42.411 2.5922 41.6211 2.43593 40.8369 2.40439C40.5502 2.39292 40.1674 2.61083 39.9767 2.49041C39.0004 1.88255 38.0513 2.36568 37.1094 2.49041C36.5919 2.55779 36.1059 2.85455 35.5826 2.89613C34.6838 2.96781 33.772 2.86459 32.8731 2.9377C31.2502 3.06959 29.6288 3.2359 28.0174 3.46814C27.0769 3.6029 26.1422 3.80791 25.3652 4.47885C25.1129 4.69676 24.5595 4.83009 24.2813 4.7025C23.7652 4.46451 23.4757 4.75554 23.1187 4.94048C22.9524 5.0265 22.8133 5.26018 22.6614 5.26161C21.8012 5.26161 21.632 5.99706 21.4227 6.53897C21.0313 7.55972 20.8923 8.64067 21.2464 9.72879C21.2951 9.87216 21.2464 10.0571 21.2464 10.222C21.2392 10.5947 21.2406 10.966 21.2406 11.4879ZM36.1934 13.4863C36.7338 13.5279 37.2213 13.6827 37.637 13.5695C38.1832 13.4261 38.6692 13.1996 39.2757 13.3229C39.7315 13.4161 40.229 13.3114 40.7093 13.277C41.0935 13.2483 41.6512 13.3387 41.8275 13.1251C42.3078 12.5416 42.6676 12.9229 43.0561 13.1251C43.4977 13.3616 43.8934 13.4777 44.1414 12.9731C44.0734 12.6977 44.0321 12.4163 44.0181 12.133C43.9665 11.7359 43.945 11.3173 43.8002 10.9531C43.6697 10.6262 43.1637 10.3037 43.2267 10.0772C43.3959 9.39619 42.9242 9.70586 42.7006 9.65568C42.5701 8.82561 42.2218 8.61057 41.3587 8.78547C41.2283 8.81271 40.9946 8.80697 40.9573 8.73816C40.5573 7.99267 39.8663 8.2751 39.2914 8.20485V8.80697L38.9818 9.04495L38.7682 8.18478L38.5273 8.36828L38.3194 9.14387C38.0012 8.74676 37.8076 8.31667 37.4851 8.17331C37.2958 8.09016 36.903 8.47437 36.6951 8.59479C34.3841 8.40412 32.1219 8.67221 29.765 9.03635C29.6833 9.18832 29.5886 9.46644 29.1084 9.20982C28.7672 9.03349 28.2396 9.05642 27.8511 9.17398C27.2576 9.35175 26.7042 9.68435 26.1494 9.96104C26.0006 10.0341 25.8622 10.1267 25.7379 10.2363C24.9982 10.8958 24.9867 11.7086 25.2089 12.5975C25.2849 12.9 25.3523 13.3473 25.1946 13.5351C24.7559 14.0583 25.1057 14.2763 25.4684 14.639C25.53 14.3809 25.5716 14.2003 25.5759 14.1816C26.1494 14.282 26.6597 14.4225 27.1687 14.444C27.6418 14.4641 28.1206 14.3135 28.6023 14.3164C29.1256 14.3164 29.6603 14.4383 29.8596 13.8161C30.6768 13.9351 31.471 14.3637 32.1534 13.4691L32.5003 14.1243C32.6294 13.8017 32.7082 13.601 32.7871 13.419C33.23 13.5394 33.6945 13.73 34.1748 13.7831C34.7784 13.8476 35.3948 13.7974 36.0686 13.7974L36.1934 13.4863ZM45.1206 38.9088C44.8711 38.4974 44.6245 38.2551 44.5729 37.977C44.4195 37.1627 43.7127 36.6681 42.9285 36.8774C42.53 36.9849 41.9795 37.2587 41.7401 37.0967C41.0318 36.6179 40.5415 36.843 40.0197 37.3577C39.1466 36.7512 38.47 37.0308 37.9352 37.8709L37.6915 37.5942C37.27 37.5942 37.0206 37.5541 36.7897 37.6028C35.9826 37.7705 35.1798 37.9641 34.3798 38.1619C34.1576 38.2178 33.9497 38.3497 33.729 38.3899C33.544 38.4243 33.3404 38.3426 33.1555 38.3669C32.3785 38.4659 31.6058 38.6537 30.8273 38.6766C30.1234 38.701 29.5069 38.9504 29.3392 39.5454C29.1614 40.1819 29.4825 40.6306 29.8997 40.926C30.2567 40.8356 30.5191 40.7124 30.7814 40.7124C31.6932 40.7124 32.6595 41.1883 33.4695 40.3611C33.5254 40.3038 33.696 40.3611 33.8121 40.3611C34.4429 40.3797 35.0737 40.4199 35.7045 40.4127C36.3754 40.4056 37.0492 40.3783 37.7116 40.3138C38.2635 40.2608 39.0018 40.569 39.1165 39.8722C39.7502 39.8006 40.3021 39.7533 40.8483 39.6744C41.2483 39.6156 41.6497 39.4278 42.0383 39.4565C42.9673 39.5253 43.8905 39.6902 44.7837 39.8106C44.9586 39.3461 45.0632 39.0622 45.1206 38.9088Z" fill="#064149"/>
<path d="M68.6764 56.7461C67.769 57.1948 66.8715 57.5389 65.7905 57.4715C65.2515 57.4371 64.6881 57.8643 64.129 58.0664C63.8745 58.1701 63.6075 58.2395 63.3347 58.2729C62.1018 58.3732 60.866 58.442 59.6317 58.5381C59.5141 58.5467 59.4052 58.6571 59.2933 58.7187C59.1414 58.1998 58.6238 57.9474 58.2826 58.3446C57.8296 58.8707 57.3078 58.723 56.7888 58.7574C56.4361 58.7804 56.0806 58.7574 55.6849 58.7574L55.6147 58.4435C55.4713 58.5711 55.3523 58.7474 55.2304 58.7546C54.5136 58.7918 53.7681 58.9252 53.0943 58.7646C52.3775 58.5926 51.6966 58.7073 50.9984 58.7144C50.6306 58.7073 50.2637 58.6753 49.9002 58.6184C49.1562 58.5266 48.415 58.3976 47.6681 58.3388C47.4235 58.3478 47.1879 58.433 46.9943 58.5825C46.5197 58.9137 46.0825 58.9868 45.5721 58.6385C45.2782 58.4377 44.9843 58.3947 44.5686 58.6098C43.965 58.9252 43.4217 58.875 42.9271 58.151L41.588 58.055C41.5479 58.1869 41.4877 58.3775 41.4332 58.5524L40.2605 58.4793L39.9179 58.0292L39.3444 58.4922C38.8226 58.3489 38.2807 57.8629 37.918 58.3187L36.2664 58.541C36.1775 58.5539 36.0227 58.5983 36.0084 58.5711C35.551 57.7109 34.8715 58.4965 34.2981 58.3646C33.7246 58.2327 33.0078 58.3288 32.4157 58.508C31.8666 58.6772 31.4122 58.7818 30.8244 58.6098C30.3943 58.4851 29.8567 58.7761 29.3606 58.8463C28.7872 58.928 28.2008 58.9825 27.6202 59.027C27.0668 59.0685 26.5106 59.0814 25.9558 59.1058C25.2719 59.1359 24.5809 59.1058 23.9086 59.2133C23.4885 59.2764 23.0957 59.5244 22.6814 59.695C22.1681 59.2922 21.5932 59.3968 20.7976 59.6592C20.2084 59.8542 19.5073 59.7653 18.8593 59.7108C18.3848 59.6721 17.9361 59.4958 17.5691 59.9789C17.5079 60.0342 17.4364 60.0768 17.3586 60.1041C17.2808 60.1315 17.1983 60.143 17.116 60.138C16.5942 60.1237 16.058 59.9947 15.6652 60.5108C15.6222 60.5667 15.4057 60.4864 15.2695 60.4821C14.9742 60.4706 14.5527 60.1352 14.4911 60.7688C14.4755 60.8003 14.4522 60.8273 14.4234 60.8474C14.3946 60.8675 14.3611 60.8799 14.3262 60.8835C13.3886 60.5667 12.5213 61.6949 11.5048 60.9724C11.2009 60.7574 10.5615 61.0011 10.0712 61.0512C9.52497 61.1072 9.0318 61.1301 8.69777 60.5351C8.56587 60.3015 8.28058 59.88 7.90497 60.4333C7.76161 60.6541 6.98888 60.3402 6.86416 60.0448C6.82688 59.9531 6.81255 59.8026 6.74947 59.7796C5.98534 59.4929 5.93947 58.713 5.63411 58.1266C5.2886 57.4657 4.90869 56.779 4.77393 56.0593C4.67071 55.4859 4.91729 54.8551 5.01765 54.2515C5.03915 54.1268 5.18968 53.9734 5.15097 53.8989C4.76103 53.1247 5.26566 52.4151 5.27857 51.6667C4.53451 51.1205 4.47143 50.7693 4.9431 49.9464C5.00441 49.8118 5.02196 49.6614 4.99327 49.5163C4.94023 49.2296 4.79687 48.9428 4.7811 48.6561C4.73809 47.9149 4.79687 47.1651 4.72232 46.4282C4.59329 45.1695 4.88575 43.8879 4.42556 42.642C4.22772 42.103 4.22055 41.4951 4.16894 40.9045C4.1546 40.7439 4.2951 40.5704 4.40549 40.3081L3.89225 40.0371L3.59405 39.111C3.6471 38.4343 3.69297 37.8408 3.74889 37.1269L4.12163 36.9534L3.49227 36.5792C3.36037 35.17 3.23278 33.8195 3.10662 32.4704L3.3274 32.4274L2.92742 32.0705L3.14103 32.026C3.11952 31.5658 3.09515 31.1042 3.08225 30.644C3.07221 30.33 3.08225 30.0146 3.08225 29.6304C2.98906 29.3322 2.78549 28.9351 2.77832 28.5337C2.77832 28.3617 3.1826 28.1825 3.53671 27.9015C3.68007 28.3889 3.76896 28.7043 3.88938 29.1201C4.05752 29.1948 4.2132 29.2949 4.35101 29.4168C5.29147 30.3444 6.34519 31.0827 7.44191 31.7995C7.82756 32.0533 8.03687 32.5636 8.3666 32.9192C8.50996 33.0769 8.75225 33.1557 8.95869 33.2489C9.38878 33.4424 9.89915 33.5356 10.2604 33.8224C10.9156 34.3399 11.4876 34.9693 12.1499 35.5986L12.2302 35.5398C12.6603 35.742 12.9972 35.9699 13.3771 36.0689C14.0223 36.2495 14.2373 36.9577 14.8294 37.1799C14.871 37.1957 14.9111 37.2158 14.9527 37.233C15.4889 36.5692 15.8129 36.5878 16.458 37.2631C16.62 37.4322 16.9368 37.6602 17.0845 37.6028C17.9203 37.286 18.4464 37.8738 19.04 38.1763C19.0529 38.3627 19.0643 38.5333 19.0758 38.7039C19.2388 38.653 19.4072 38.6213 19.5776 38.6092C19.8643 38.6207 20.2041 38.5877 20.4306 38.7254C21.4929 39.3719 22.7072 39.3762 23.8713 39.6099C24.4763 39.7318 25.0927 39.7949 25.7049 39.8837C25.8196 39.9009 25.9672 39.9669 26.0432 39.9196C26.7987 39.4508 26.8676 40.2063 27.0654 40.5461C27.3808 41.0851 27.4955 41.7417 27.831 42.2664C28.2238 42.8944 28.7628 43.3746 29.5872 42.8112C29.6631 42.7596 29.8438 42.8786 29.9785 42.8958C30.2323 42.9288 30.529 43.0391 30.7341 42.9503C31.1928 42.7481 31.2616 42.9503 31.2602 43.2571C31.8035 43.0678 32.3455 42.7668 32.9103 42.7137C33.5296 42.6549 34.1705 42.837 34.8041 42.8886C35.0822 42.9116 35.3188 43.2069 35.6729 42.8026C35.9424 42.4972 36.6005 42.2779 36.989 42.3811C37.8621 42.6134 38.6262 42.2033 39.4476 42.1919C39.991 42.1847 40.5286 41.9324 41.0777 41.8851C41.912 41.8134 42.7593 41.8707 43.5908 41.7862C44.3664 41.7059 45.2452 41.6944 45.8631 41.3088C46.3979 40.9762 46.6631 40.1748 46.9771 39.5454C47.0774 39.3476 46.9527 39.0365 46.9254 38.777C46.8065 37.6172 47.2122 37.0064 48.3333 36.6724C48.6309 36.5992 48.9324 36.5432 49.2365 36.5047C49.8013 35.9972 50.4235 35.5585 50.8808 34.9879C51.1977 34.5922 51.9446 34.7456 51.9747 34.0489C51.9747 33.9901 52.1697 33.9241 52.2829 33.8897C53.0212 33.6589 53.4886 33.0998 53.9531 32.5335C54.0191 32.4664 54.0927 32.4072 54.1724 32.3572C54.5265 32.092 54.8534 31.7766 55.239 31.5744C55.9286 31.2132 56.3515 30.4892 57.1329 30.2455C57.2762 30.201 57.3321 29.8698 57.497 29.7365C57.7723 29.3752 58.0346 29.0025 58.3271 28.657C58.717 28.1939 59.1313 27.7524 59.5356 27.3008C59.7765 27.0327 60.0632 26.7904 60.2524 26.4865C60.8259 25.5475 61.3348 24.5898 62.4703 24.1411C62.6812 24.0406 62.8697 23.8986 63.0246 23.7238C63.1795 23.5489 63.2976 23.3447 63.372 23.1232C63.696 21.9577 64.6021 21.1978 65.1598 20.2129C65.349 19.876 65.6644 19.4603 65.4766 18.8567C65.3447 18.4266 65.7633 17.8345 65.9339 17.2998C66.5905 17.5292 66.9977 18.0037 67.0708 18.8424C67.1052 19.2381 67.4464 19.6022 67.6256 19.9893C67.8018 20.3268 67.9435 20.6813 68.0485 21.0473C68.1919 21.6208 68.2291 22.2257 68.3524 22.8092C68.4958 23.463 68.0915 24.2257 68.7625 24.7876C68.847 24.8593 68.7625 25.1403 68.7467 25.3252C68.6535 26.4162 69.065 27.4441 69.1424 28.5122C69.1696 28.8993 68.999 29.2978 68.9675 29.6949C68.9345 30.1709 68.9603 30.6512 68.9603 31.2017L69.3531 31.3135C69.4348 31.8612 69.5108 32.3429 69.5753 32.8274C69.6004 32.9591 69.6004 33.0943 69.5753 33.226C69.4936 33.5256 69.2714 33.8224 69.6284 34.0976C69.6642 34.1249 69.657 34.241 69.6384 34.2998C69.485 34.8316 69.227 35.3535 69.1926 35.8911C69.1581 36.4287 69.3359 36.9964 69.4348 37.5484C69.4635 37.7218 69.5624 37.901 69.5366 38.0616C69.4606 38.5376 69.3388 39.0064 69.2313 39.4952C69.7846 39.5999 69.4363 40.1289 69.4721 40.5246C69.4965 40.7941 69.5567 41.0607 69.6298 41.5066C69.3603 41.7819 69.3717 42.3023 69.4277 42.9202C69.5395 44.1717 69.4563 45.439 69.4979 46.6978C69.5194 47.3372 69.6542 47.9723 69.7086 48.6117C69.7775 49.4145 69.8076 50.2202 69.8692 51.023C69.8879 51.251 69.8864 51.5649 70.0269 51.6825C70.533 52.1126 70.4011 52.5169 70.1387 52.9943C70.0354 53.1914 69.9967 53.4162 70.0284 53.6365C70.0903 54.0235 70.037 54.4201 69.8751 54.777C69.7132 55.1339 69.4499 55.4353 69.118 55.6436C68.6076 55.9719 68.5144 56.2171 68.6764 56.7461Z" fill="white"/>
<path d="M46.2579 36.3299C46.0228 35.9614 45.8278 35.6532 45.63 35.3436C45.5927 35.2833 45.5425 35.1586 45.5354 35.1615C44.8544 35.4181 44.3999 34.5508 43.6975 34.8088C43.4107 34.9135 43.0609 34.8418 42.7398 34.8432C42.1477 34.8432 41.5556 34.869 40.9664 34.8432C40.5277 34.8188 40.0933 34.7228 39.6575 34.6554C39.0038 34.5551 38.5737 35.0511 38.0346 35.2575C37.7479 35.3694 37.4511 35.4826 37.1544 35.5815C36.8534 35.7004 36.5412 35.7888 36.2225 35.8453C35.8938 35.8689 35.5634 35.8409 35.2433 35.7622C34.9021 35.8181 34.5624 35.8869 34.2197 35.9285C33.5029 36.0116 32.7861 36.1493 32.0779 36.1349C31.5044 36.122 30.9812 36.1134 30.5339 36.5507C30.4378 36.6439 30.1568 36.694 30.068 36.6238C29.5662 36.2367 29.182 36.6611 28.8021 36.8145C28.0852 37.1084 27.4071 37.5198 26.6975 37.8467C26.547 37.9155 26.3162 37.8639 26.1398 37.8123C25.5305 37.6316 24.9284 37.4237 24.322 37.2388C24.1912 37.19 24.0504 37.1738 23.912 37.1915C23.0389 37.375 22.4167 37.0123 21.8877 36.3514C21.7888 36.2295 21.5135 36.2482 21.3142 36.208C20.6906 36.0733 19.9394 36.5894 19.4319 35.8382C19.4013 35.8017 19.3634 35.7721 19.3207 35.7511C19.278 35.7301 19.2314 35.7183 19.1839 35.7163C18.4556 35.7163 18.037 35.2031 17.5094 34.8045C16.9818 34.406 16.2965 34.2669 15.6801 34.006C15.5143 33.9211 15.3423 33.8492 15.1654 33.7909C14.8414 33.6103 14.4816 33.4727 14.2006 33.2404C13.9196 33.0082 13.7533 32.6856 13.5153 32.4218C13.4149 32.3114 13.2071 32.148 13.1411 32.1838C12.2078 32.6827 11.7892 31.7982 11.1957 31.4527C10.7197 31.176 10.3484 30.723 9.88248 30.4262C9.63016 30.2671 9.27462 30.2743 8.96639 30.2011C8.17646 30.0162 7.79082 29.3166 7.2274 28.8392C6.88476 28.5525 6.47618 28.336 6.12638 28.0521C5.99592 27.9446 5.95004 27.7353 5.86259 27.5647C5.35508 27.655 4.84901 27.1862 4.62967 26.4966C4.50351 26.0924 4.67555 25.3583 3.80247 25.5748C3.71215 25.5963 3.54871 25.4057 3.44836 25.2881C3.18601 24.987 3.53581 23.4144 3.86411 23.185C4.04188 23.0617 4.26409 22.8294 4.26123 22.6488C4.24323 22.3132 4.31264 21.9786 4.46265 21.6778C4.61267 21.377 4.83817 21.1203 5.1171 20.9327C5.23179 20.8496 5.22749 20.6202 5.32498 20.4941C5.42524 20.3623 5.55817 20.259 5.71062 20.1944C6.11347 20.0367 6.53639 19.9306 6.93924 19.7643C7.25751 19.6382 7.45822 19.1651 7.92128 19.4575C7.96572 19.4862 8.14349 19.3816 8.20084 19.2984C8.59508 18.725 9.19434 18.8525 9.73625 18.8798C10.023 18.8941 10.1792 18.9486 10.3097 18.5931C10.3785 18.4096 10.8086 18.3063 11.0882 18.2719C11.805 18.1945 12.5304 18.163 13.2515 18.1501C13.3949 18.1501 13.5268 18.3135 13.7074 18.4368L13.9038 17.9924C14.6206 17.8189 15.2385 17.5494 15.8564 17.548C16.6506 17.548 17.3388 17.1465 18.09 17.1179C18.8699 17.0835 19.657 17.2326 20.4426 17.2684C20.6935 17.2799 20.9501 17.1408 21.1995 17.1537C21.4275 17.1652 21.6468 17.2971 21.8733 17.3587C21.9933 17.4113 22.124 17.4344 22.2547 17.4261C22.9213 17.2612 23.5794 17.0591 24.2474 16.9057C24.3822 16.8756 24.5485 17.006 24.7048 17.049C24.861 17.0921 25.0632 17.1824 25.1578 17.1207C25.8345 16.6691 26.5799 16.7537 27.3082 16.8526C28.4121 16.996 29.483 16.7093 30.5611 16.6863C31.4328 16.672 32.2557 16.1846 33.209 16.5731C33.6477 16.7509 34.3359 16.3122 34.9667 16.143L35.1315 16.4627L36.0935 16.0814C36.1795 16.0469 36.3214 15.9652 36.3458 15.991C37.0956 16.7724 37.8884 16.014 38.6539 16.0383C39.4582 16.0641 40.2682 15.8405 41.0796 15.7846C41.4496 15.7462 41.823 15.8065 42.162 15.9595C42.9548 16.3896 43.524 15.8978 44.1519 15.5954C44.2301 15.5664 44.3107 15.5443 44.3928 15.5294C44.4071 15.6986 44.4214 15.8505 44.453 16.2247C44.7125 16.0154 44.9132 15.9079 45.0365 15.743C45.3131 15.3746 46.116 15.3961 46.7267 15.8434C47.0134 15.5022 47.2701 15.0448 47.8292 15.5882C47.9596 15.7158 48.4456 15.4821 48.7897 15.3989C49.2198 15.3129 49.637 15.2054 50.0656 15.1481C50.5215 15.0864 50.9846 15.0792 51.4419 15.0362C51.8992 14.9932 52.3953 15.0362 52.801 14.8671C53.8361 14.437 54.8496 15.2656 55.8718 14.8441C56.0367 14.7768 56.2804 14.9129 56.4897 14.9445C56.9327 15.0119 57.3757 15.0706 57.8789 15.1423C57.9262 15.2556 58.0323 15.5093 58.1398 15.7631C58.2129 15.6111 58.2832 15.4592 58.3606 15.3072C58.5728 15.1638 58.7778 14.9043 58.9971 14.89C59.4186 14.8642 59.8473 14.999 60.2759 15.0248C60.7447 15.052 61.2164 15.0248 61.688 15.0248L64.2456 15.9925C64.1238 16.4068 64.0163 16.7523 63.9216 17.0992C63.8887 17.2197 63.8973 17.3515 63.8686 17.4734C63.817 17.6899 63.8141 18.0325 63.6822 18.097C62.7676 18.54 62.9353 19.4647 62.65 20.1944C62.4593 20.6847 62.1153 21.1148 61.8343 21.5693C61.8142 21.6022 61.721 21.6065 61.7153 21.6338C61.5045 22.7807 60.1082 22.9771 59.7741 24.0423C59.7354 24.1656 59.3168 24.1426 59.2279 24.2846C58.7118 25.0989 57.6782 25.5433 57.5635 26.6558C57.542 26.8766 57.3183 27.1403 57.1133 27.2651C56.6832 27.5303 56.1915 27.7052 55.7399 27.9432C55.6353 27.9977 55.5034 28.1797 55.5263 28.2643C55.6424 28.6829 55.6797 29.0012 55.0805 28.898L54.9944 29.6994C54.8124 29.784 54.4124 29.89 54.1128 30.1295C53.4633 30.637 52.7623 31.133 52.2691 31.7738C51.5853 32.6612 50.6204 33.0125 49.7043 33.4942C49.3838 33.684 49.0811 33.9023 48.7997 34.1465C48.1876 34.6253 47.5754 35.107 46.9747 35.603C46.7668 35.7607 46.5919 35.9858 46.2579 36.3299Z" fill="#BFEDE6"/>
<path d="M21.2407 11.4876C21.2407 10.9658 21.2407 10.5945 21.2407 10.2217C21.2407 10.0569 21.288 9.87765 21.2407 9.72855C20.8866 8.64043 21.0257 7.55947 21.4171 6.53873C21.6264 5.99682 21.7913 5.26567 22.6557 5.26137C22.8077 5.26137 22.9425 5.02625 23.1131 4.94024C23.47 4.7553 23.7596 4.46427 24.2757 4.70225C24.5539 4.82985 25.1072 4.70225 25.3596 4.47861C26.1366 3.80767 27.0713 3.60266 28.0118 3.47507C29.6232 3.24282 31.2446 3.07652 32.8675 2.94463C33.7663 2.87151 34.6781 2.97473 35.577 2.90305C36.0931 2.86148 36.5806 2.56472 37.1038 2.49734C38.0515 2.37261 39.0005 1.88948 39.9711 2.49734C40.1646 2.61776 40.5445 2.39985 40.8313 2.41132C41.6155 2.44286 42.4083 2.59912 43.181 2.54034C43.882 2.4873 44.0756 2.76829 44.0641 3.18978C44.5429 3.4765 44.9515 3.66144 45.2899 3.93526C45.9126 4.40618 46.4947 4.92841 47.0303 5.49648C47.3871 5.93254 47.6625 6.42935 47.8431 6.96309C47.9163 7.15662 47.6854 7.46485 47.7127 7.69997C47.7306 7.96984 47.7646 8.2384 47.8145 8.50423C47.8847 8.79096 48.0338 9.05188 48.1012 9.33574C48.1843 9.69271 48.2173 10.0626 48.289 10.5343C48.6718 10.7235 49.0775 11.598 48.8625 12.16C48.7865 12.3578 48.5026 12.6273 48.3392 12.6116C47.6496 12.5428 47.0417 13.4632 46.3479 12.7879C46.2045 12.6546 46.2117 12.332 46.2289 12.1026C46.2461 11.8733 46.4941 11.565 46.4138 11.4174C46.011 10.6905 45.8819 9.93213 45.8289 9.11353C45.8074 8.79526 45.3544 8.52 45.1408 8.196C45.0498 8.02885 44.9841 7.84912 44.9458 7.66269C43.5924 7.57524 42.9573 6.37243 41.6785 6.06994L41.2757 6.25487C41.2421 6.20794 41.2031 6.16512 41.1596 6.12728C40.7696 5.85202 40.4987 5.49648 39.8564 5.86779C39.3804 6.14162 38.6163 6.11868 38.0429 5.97818C36.9834 5.72013 36.0358 5.95238 35.0724 6.29071C34.8588 6.3667 34.5878 6.26347 34.3455 6.27638C33.8382 6.28594 33.3321 6.32808 32.8302 6.40254C32.0847 6.5459 31.4611 6.98746 30.5608 6.6993C29.9199 6.49572 29.0899 7.01039 28.3329 7.02616C27.3967 7.04624 26.7229 7.96232 25.6979 7.67846C25.5 7.62255 25.1416 8.06411 24.8893 8.30926C24.5768 8.61032 24.2972 8.94722 24.0033 9.26692C23.9876 9.28413 23.956 9.2956 23.9517 9.31423C23.7525 10.1242 23.4012 10.9357 23.3969 11.7514C23.3969 12.7879 23.6693 13.8259 23.827 14.8767H21.602C21.5088 14.4222 21.4443 14.0968 21.3741 13.7728C21.2465 13.1693 21.0873 12.5686 21.0056 11.9578C20.9827 11.7772 21.1963 11.5708 21.2407 11.4876Z" fill="white"/>
<path d="M36.1937 13.4867L36.0503 13.795C35.3765 13.795 34.76 13.8452 34.1565 13.7806C33.6762 13.7276 33.2117 13.5369 32.7687 13.4165C32.6956 13.5986 32.6168 13.7993 32.482 14.1218L32.1351 13.4667C31.4541 14.3613 30.6598 13.9326 29.8412 13.8136C29.642 14.4358 29.1072 14.3168 28.584 14.314C28.108 14.314 27.6292 14.4573 27.1503 14.4415C26.6414 14.42 26.1368 14.2795 25.5576 14.1792C25.5576 14.1978 25.5117 14.3785 25.45 14.6365C25.0873 14.2738 24.7332 14.0631 25.1762 13.5326C25.3339 13.3448 25.2665 12.8975 25.1906 12.595C24.9683 11.7062 24.9798 10.8933 25.7196 10.2338C25.8439 10.1242 25.9822 10.0316 26.131 9.95859C26.6916 9.6819 27.2392 9.34929 27.8327 9.17152C28.2212 9.05397 28.7488 9.02816 29.09 9.20737C29.5703 9.45682 29.6635 9.18586 29.7466 9.0339C32.1035 8.66976 34.3658 8.40167 36.6768 8.59234C36.8847 8.47191 37.2775 8.0877 37.4667 8.17085C37.7893 8.31422 37.9828 8.7443 38.2996 9.14572L38.5075 8.37013L38.7484 8.18662L38.962 9.0468L39.263 8.81455V8.21243C39.8365 8.28268 40.5289 8.00025 40.9289 8.74574C40.9662 8.81455 41.1999 8.82029 41.3303 8.79305C42.1905 8.61814 42.5418 8.83319 42.6722 9.66326C42.8959 9.71344 43.3675 9.40377 43.1984 10.0847C43.1424 10.3113 43.6485 10.6338 43.7718 10.9607C43.9152 11.3248 43.9381 11.7435 43.9897 12.1406C44.0038 12.4239 44.045 12.7052 44.113 12.9807C43.865 13.4853 43.4693 13.3692 43.0278 13.1326C42.6392 12.9248 42.2794 12.5434 41.7991 13.1326C41.6228 13.3463 41.0651 13.2559 40.6809 13.2846C40.2035 13.319 39.706 13.428 39.2473 13.3305C38.6409 13.2072 38.1549 13.4265 37.6086 13.5771C37.2216 13.6832 36.7341 13.5283 36.1937 13.4867Z" fill="white"/>
<path d="M45.1209 38.9091C45.0636 39.0625 44.9589 39.3463 44.784 39.8151C43.8909 39.6947 42.9676 39.5284 42.0386 39.461C41.6501 39.4323 41.2487 39.6202 40.8487 39.6789C40.3025 39.7578 39.7505 39.8051 39.1169 39.8768C39.0022 40.5735 38.2639 40.2653 37.7119 40.3183C37.0424 40.3828 36.3686 40.4101 35.7048 40.4172C35.074 40.4172 34.4432 40.3843 33.8124 40.3656C33.6963 40.3656 33.5257 40.304 33.4698 40.3656C32.6598 41.1928 31.6935 40.7154 30.7818 40.7169C30.5194 40.7169 30.257 40.8402 29.9001 40.9305C29.4786 40.6352 29.1618 40.1864 29.3395 39.5499C29.5073 38.9549 30.1237 38.7055 30.8276 38.6811C31.6061 38.6539 32.3788 38.4704 33.1558 38.3715C33.3437 38.3471 33.5472 38.4288 33.7293 38.3944C33.9515 38.3543 34.1594 38.2224 34.3802 38.1665C35.1801 37.9686 35.983 37.7751 36.7901 37.6073C37.0209 37.5586 37.2704 37.5987 37.6918 37.5987L37.9456 37.8754C38.4803 37.0353 39.157 36.7558 40.0301 37.3622C40.5462 36.8475 41.0336 36.6224 41.7504 37.1013C41.9899 37.2633 42.5404 36.9894 42.9389 36.8819C43.7246 36.6726 44.4299 37.1686 44.5833 37.9815C44.6249 38.2553 44.8715 38.4976 45.1209 38.9091Z" fill="#FD7D73"/>
</svg>
