<svg width="82" height="75" viewBox="0 0 82 75" fill="none" xmlns="http://www.w3.org/2000/svg">
<g clip-path="url(#clip0_6837_1117)">
<path d="M66.8564 20.229C66.6935 23.8046 64.866 25.1829 62.2019 25.2402C59.4586 25.2974 57.2877 23.0384 57.3581 19.639C57.3933 17.4372 59.7668 14.9801 61.7616 15.0021C62.4417 15.0025 63.1149 15.1389 63.7416 15.4034C64.3682 15.6679 64.9356 16.055 65.4103 16.5421C65.8851 17.0291 66.2576 17.6062 66.5059 18.2394C66.7543 18.8726 66.8734 19.5491 66.8564 20.229Z" fill="#FD7D73"/>
<path d="M71.8103 53.4974C71.3964 54.039 70.9648 55.0034 70.2251 55.4877C69.1133 56.236 67.8726 56.7719 66.5658 57.0686C63.4901 57.7213 60.3039 57.6398 57.2656 56.8308C55.0639 56.2407 52.9062 55.4789 50.9995 54.1094C50.6949 53.9321 50.4581 53.6583 50.3265 53.3314C50.195 53.0044 50.1761 52.6429 50.2729 52.304C51.4222 47.0771 52.4746 41.7841 55.4822 37.2309C56.8473 35.1745 58.4017 33.1709 61.2464 32.9419C63.087 32.7878 64.4213 33.6333 65.5882 34.8663C67.8516 37.2573 69.0009 40.2781 69.9917 43.3077C70.6566 45.3113 70.8724 47.4646 71.2555 49.5607C71.48 50.7232 71.5945 51.8989 71.8103 53.4974Z" fill="#FD7D73"/>
<path d="M20.7565 33.7246C22.7557 33.8699 24.2793 35.3143 25.4638 37.0933C27.4472 40.0169 28.7641 43.3406 29.3213 46.8293C29.6295 48.8461 30.0654 50.8409 30.3429 52.8577C30.6203 54.8745 29.7748 56.31 27.8945 57.0322C26.5889 57.5556 25.2262 57.9237 23.8345 58.1287C20.5451 58.569 17.2734 58.4193 14.1777 57.041C12.6937 56.3805 11.289 55.5438 9.80506 54.8833C8.92436 54.4914 8.92436 53.8353 9.07848 53.1219C9.63773 50.7528 10.2674 48.4014 10.8399 46.0279C11.4979 43.2049 12.6519 40.5212 14.2482 38.1017C15.6925 35.8691 17.3834 33.7951 20.7565 33.7246Z" fill="#BFEDE6"/>
<path d="M26.0224 20.8363C25.8551 24.522 23.9616 25.94 21.2315 25.9972C18.4044 26.0544 16.1675 23.7118 16.2247 20.2286C16.2643 17.9829 18.7083 15.4289 20.7603 15.4553C21.4621 15.4527 22.1574 15.591 22.8048 15.862C23.4522 16.133 24.0386 16.5312 24.5293 17.033C25.02 17.5348 25.405 18.13 25.6615 18.7833C25.918 19.4366 26.0407 20.1347 26.0224 20.8363Z" fill="#BFEDE6"/>
<path d="M70.715 63.5034C67.1174 63.5034 63.4889 63.477 59.8649 63.5034C57.3153 63.5299 54.7656 63.6752 52.216 63.6928C49.869 63.6928 47.5263 63.6047 45.1705 63.5915C39.8863 63.5607 34.5581 63.5607 29.2519 63.5299C23.3131 63.5064 17.3787 63.4667 11.4486 63.411C9.60799 63.411 7.75853 63.4858 5.93549 63.3053C3.52239 63.0763 0.461972 60.3285 0.365095 57.4046C0.290236 55.0532 0.404727 52.6973 0.387113 50.3591C0.351885 46.3959 0.263816 42.4328 0.224184 38.4697C0.224184 36.2107 0.255009 33.9473 0.224184 31.6883C0.188956 28.8921 0.0744661 26.1267 0.0348348 23.3614C0.00841393 21.4238 0.0348348 19.4863 0.0348348 17.5532C0.0348348 14.9551 -0.106076 12.3527 0.0876765 9.77223C0.268219 7.38114 0.831864 5.09573 2.72976 3.26829C4.27538 1.79753 5.80339 0.467681 7.95669 0.260718C9.05315 0.155034 10.1848 0.494102 11.3033 0.498505C15.7552 0.524926 20.2116 0.498505 24.6635 0.498505C29.6042 0.480892 34.5449 0.44126 39.4812 0.44126C44.2722 0.44126 49.0646 0.44126 53.8585 0.44126C56.941 0.44126 60.0454 0.533733 63.1366 0.44126C65.9064 0.384015 68.6938 0.0757718 71.446 0.000912701C74.4184 -0.0739464 76.6201 1.32196 78.3815 3.69543C79.5113 5.18777 80.1567 6.99042 80.2309 8.86071C80.2794 10.1817 80.1737 11.5028 80.1913 12.8503C80.2397 16.373 80.3498 19.8958 80.3718 23.4186C80.4071 28.9009 80.3718 34.3788 80.4027 39.8568C80.4027 42.195 80.526 44.5289 80.5568 46.8671C80.5832 48.6285 80.5084 50.4295 80.5568 52.2129C80.5832 52.8911 81.0368 53.5692 80.9971 54.2341C81.0039 55.3023 80.8067 56.362 80.4159 57.3562C79.8963 58.5503 79.1311 59.6215 78.1701 60.5003C76.0564 62.2705 73.7358 63.7941 70.715 63.5034ZM1.39111 54.0272H1.22377C1.22377 54.4675 1.22377 54.9079 1.16212 55.3482C0.81425 57.9903 3.00718 61.6099 5.53037 61.927C8.41286 62.2967 11.313 62.5128 14.2184 62.5743C17.4286 62.6404 20.6475 62.4114 23.862 62.3761C28.3624 62.3233 32.8627 62.3453 37.3675 62.3189C41.1237 62.2969 44.8798 62.2396 48.636 62.2176C52.9954 62.1912 57.3534 62.1809 61.7099 62.1868C62.5378 62.1868 63.3656 62.3013 64.1935 62.3145C66.6462 62.3585 69.099 62.3938 71.5517 62.3938C72.066 62.3952 72.5768 62.3088 73.0621 62.1384C74.5798 61.5965 75.9556 60.7189 77.0869 59.5711C78.7778 57.9066 79.8522 56.2333 79.3723 53.807C79.3054 53.4232 79.2759 53.0339 79.2842 52.6445C79.3106 49.562 79.3899 46.4796 79.3634 43.3972C79.3282 38.7119 79.1829 34.0266 79.1653 29.3413C79.1389 24.2949 79.2225 19.2441 79.2269 14.1977C79.2269 11.058 79.5176 7.88313 77.7254 5.00766C76.2942 2.70905 74.2862 1.34838 71.6177 1.18545C70.5125 1.1194 69.3764 1.70506 68.2491 1.70946C63.2247 1.73588 58.2003 1.65222 53.1716 1.61258L48.3982 1.58176C46.0159 1.58176 43.6381 1.53332 41.2602 1.52011C39.5634 1.52011 37.8651 1.52011 36.1654 1.52011C34.3599 1.52011 32.5501 1.59937 30.7403 1.59057C27.0237 1.56855 23.3116 1.51571 19.5951 1.47608C17.1071 1.44966 14.6191 1.47608 12.1356 1.38801C9.41424 1.28232 6.80738 1.55534 4.64968 3.38278C3.08204 4.71263 1.68173 6.30229 1.44835 8.39394C1.24857 10.75 1.18094 13.1155 1.24579 15.4791C1.24579 18.1608 1.36468 20.8426 1.36028 23.5243C1.35588 26.206 1.22377 28.9406 1.23258 31.6443C1.23258 35.4929 1.35588 39.3372 1.3867 43.1858C1.41312 46.8011 1.39111 50.4119 1.39111 54.0272Z" fill="#064149"/>
<path d="M52.6618 74.5782H38.5266C35.6643 74.5782 32.8021 74.5386 29.9442 74.6178C27.9583 74.6707 25.9811 75.0318 24.0039 74.9965C23.1629 74.9965 21.9519 74.5078 21.6084 73.8693C21.4144 73.4109 21.3145 72.9182 21.3145 72.4205C21.3145 71.9228 21.4144 71.4301 21.6084 70.9718C22.106 69.8709 23.1761 69.4173 24.5896 69.5671C26.4153 69.6903 28.2475 69.6815 30.0719 69.5406C33.5243 69.4085 36.9722 69.2104 40.4245 69.1003C44.3172 68.9506 48.2142 68.8713 52.1069 68.704C52.8292 68.6201 53.5388 68.4501 54.2206 68.1976C55.1629 67.9246 56.823 68.5366 57.4483 69.3909C57.7742 69.8313 58.2982 70.188 58.4567 70.6723C58.9191 72.0858 57.8182 73.8296 56.3255 74.0718C55.1101 74.27 53.8727 74.3052 52.6441 74.4109L52.6618 74.5782ZM22.8987 70.6723C22.591 70.9284 22.3798 71.2817 22.2997 71.6739C22.2197 72.0661 22.2756 72.4739 22.4583 72.83C22.8018 73.4201 23.7794 73.8296 24.5059 73.9617C25.2325 74.0938 26.0516 73.7239 26.831 73.6667C29.2 73.4994 31.5691 73.332 33.9382 73.2528C35.6996 73.1911 37.5094 73.3012 39.2928 73.2528C42.2167 73.1867 45.1362 73.0282 48.0601 72.9621C50.6362 72.9005 53.2166 72.9621 55.7882 72.8476C56.103 72.7907 56.4015 72.6659 56.6631 72.4819C56.9247 72.2978 57.1431 72.059 57.303 71.782C57.4704 71.4738 57.0784 70.7208 56.757 70.3068C55.9115 69.206 54.771 69.4261 53.5248 69.5318C49.3636 69.8577 45.1847 69.9722 41.0146 70.1879C38.4914 70.3068 35.9726 70.4478 33.4538 70.5534C30.935 70.6591 28.5439 70.7296 26.0912 70.7824C25.1929 70.8088 24.277 70.7252 22.8987 70.6723Z" fill="#064149"/>
<path d="M22.8965 70.6726C24.2572 70.7255 25.1731 70.8091 26.089 70.7915C28.5403 70.7387 30.9945 70.6623 33.4516 70.5625C35.9704 70.4568 38.4892 70.3159 41.0124 70.197C45.1825 69.9901 49.379 69.8668 53.5227 69.5409C54.7688 69.444 55.9093 69.2151 56.7548 70.3159C57.0763 70.7299 57.4682 71.4829 57.3008 71.7911C57.1409 72.0681 56.9225 72.3069 56.6609 72.4909C56.3993 72.675 56.1008 72.7998 55.786 72.8567C53.2144 72.9844 50.634 72.9096 48.0579 72.9712C45.134 73.0373 42.2145 73.1958 39.2906 73.2619C37.5292 73.3015 35.7194 73.1914 33.936 73.2619C31.5669 73.3411 29.1979 73.5085 26.8288 73.6758C26.0494 73.733 25.2391 74.1161 24.5038 73.9708C23.7684 73.8255 22.7996 73.4292 22.4561 72.8391C22.2712 72.482 22.214 72.0723 22.2941 71.6782C22.3742 71.284 22.5868 70.9292 22.8965 70.6726Z" fill="white"/>
<path d="M59.4779 56.7792C57.307 56.198 55.0744 55.7708 52.974 54.9782C51.5149 54.3441 50.1514 53.5097 48.9228 52.4991C48.6573 52.2787 48.4445 52.0019 48.2997 51.6888C48.155 51.3757 48.082 51.0342 48.0861 50.6892C48.5529 47.6817 48.9404 44.6212 49.8475 41.7326C50.7282 38.9496 52.0933 36.3163 53.3703 33.6874C54.2049 32.06 55.5966 30.7867 57.2916 30.0996C58.9866 29.4125 60.8721 29.3575 62.6044 29.9445C64.2645 30.5345 65.3081 31.9216 66.1888 33.3263C67.2385 34.8772 68.0934 36.5513 68.734 38.3111C69.6896 41.279 70.3325 44.3482 71.0546 47.391C71.2352 48.1572 71.1251 48.9939 71.31 49.7601C71.9309 52.2877 70.3765 53.7849 68.5623 54.736C66.8009 55.6564 64.7709 56.0571 62.8377 56.4974C61.7897 56.7308 60.636 56.5414 59.5484 56.5414L59.4779 56.7792ZM70.306 51.3586C70.0903 49.7645 69.9758 48.5844 69.7644 47.4219C69.3901 45.3258 69.1655 43.1725 68.5006 41.1689C67.4966 38.1393 66.3473 35.1185 64.0971 32.7275C62.9302 31.4945 61.596 30.649 59.7553 30.8031C56.9107 31.0321 55.3518 33.0357 53.9912 35.0921C50.9704 39.6453 49.9312 44.9383 48.7819 50.1652C48.685 50.5041 48.7039 50.8656 48.8355 51.1926C48.9671 51.5195 49.2039 51.7933 49.5084 51.9706C51.4151 53.3401 53.564 54.1019 55.7746 54.692C58.8129 55.501 61.9991 55.5825 65.0747 54.9298C66.3816 54.6331 67.6222 54.0972 68.734 53.3489C69.4606 52.8646 69.8921 51.9002 70.306 51.3586Z" fill="#064149"/>
<path d="M30.1449 50.6409C30.6689 52.2526 29.9247 53.5076 28.7974 54.4279C27.7267 55.346 26.503 56.0689 25.1822 56.5636C19.5898 58.4703 14.3144 57.2153 9.24602 54.6041C7.35693 53.6177 6.46302 52.1337 6.89016 49.8659C7.55068 46.3432 8.10552 42.8204 9.69957 39.5442C10.5318 37.8444 11.2716 36.1007 12.1655 34.4362C13.019 32.7967 14.4416 31.5253 16.1661 30.8604C17.8907 30.1956 19.7986 30.1831 21.5317 30.8253C23.117 31.4286 24.0197 32.8201 24.9444 34.0971C27.9123 38.1835 28.9075 43.0053 29.8102 47.8403C29.982 48.7739 30.0348 49.7162 30.1449 50.6409ZM19.2507 31.5871C15.8776 31.6576 14.1867 33.7316 12.7248 35.9554C11.1285 38.3749 9.97449 41.0586 9.31647 43.8816C8.76163 46.2551 8.13194 48.6065 7.55508 50.9756C7.38775 51.6934 7.39215 52.3495 8.28165 52.737C9.76563 53.3975 11.1703 54.2342 12.6543 54.8947C15.7367 56.273 19.0217 56.4051 22.3111 55.9824C23.7028 55.7773 25.0655 55.4093 26.3711 54.8859C28.2514 54.1637 29.0969 52.6842 28.8195 50.7114C28.542 48.7386 28.1061 46.6998 27.7979 44.683C27.2407 41.1943 25.9238 37.8706 23.9404 34.947C22.7779 33.1768 21.2499 31.7324 19.2507 31.5871Z" fill="#064149"/>
<path d="M37.6228 11.9834C37.7329 12.8377 37.9047 13.6919 37.9355 14.5462C38.0676 17.796 38.1469 21.0458 38.2481 24.2955C38.3362 27.055 38.4287 29.816 38.5256 32.5785C38.596 34.5072 38.7413 36.4271 38.7457 38.3514C38.7457 40.5047 38.552 42.658 38.5828 44.8113C38.6445 49.435 38.8074 54.0586 38.8955 58.6911C38.8955 58.9245 38.5784 59.1622 38.4111 59.4C38.1204 59.105 37.5832 58.8232 37.57 58.5193C37.4863 56.3616 37.5304 54.1951 37.4951 52.033C37.4379 48.5455 37.3498 45.0535 37.2706 41.5615C37.1561 36.863 37.0284 32.1645 36.9227 27.4704C36.8522 24.1737 36.7979 20.8755 36.7598 17.5758C36.7598 15.9906 36.7862 14.4097 36.8302 12.8245C36.8799 12.5363 36.9688 12.2563 37.0944 11.9922L37.6228 11.9834Z" fill="#064149"/>
<path d="M54.915 18.0551C55.2629 15.9326 55.4391 13.6516 57.7597 12.2601C61.1548 10.2169 64.9946 12.6564 66.1527 15.5055C67.3549 18.469 66.5138 20.8469 64.5498 22.8769C63.2288 24.242 61.4982 24.5899 59.4154 24.1011C56.8438 23.489 55.0427 20.2921 54.915 18.0551ZM65.3513 18.0947C65.3689 17.413 65.2497 16.7345 65.0005 16.0997C64.7513 15.4648 64.3773 14.8864 63.9007 14.3986C63.424 13.9108 62.8543 13.5236 62.2253 13.2599C61.5963 12.9963 60.9209 12.8614 60.2388 12.8634C58.2485 12.8414 55.875 15.3206 55.8354 17.5003C55.7781 20.8821 57.949 23.1587 60.6792 23.1015C63.3609 23.0442 65.1707 21.666 65.3513 18.0903V18.0947Z" fill="#064149"/>
<path d="M20.4637 13.7395C20.219 13.7594 19.9731 13.7594 19.7284 13.7395C16.9013 13.2992 13.4886 16.7823 14.8845 20.3711C15.9458 23.0881 17.8613 24.2946 20.7191 23.7971C22.322 23.5196 23.8016 21.8903 24.0129 20.1334C24.2507 17.9624 23.8148 16.0205 22.0094 14.563C21.8112 14.4044 21.8156 14.0037 21.7143 13.6823C23.9469 13.5722 24.9289 15.8003 25.334 17.7423C25.6004 19.186 25.3637 20.6774 24.6633 21.9676C23.9629 23.2578 22.8412 24.2688 21.4854 24.8319C19.6403 25.6245 17.0334 24.9948 15.6552 23.4316C14.816 22.5498 14.2261 21.4609 13.946 20.2764C13.666 19.0918 13.7057 17.854 14.0611 16.6898C14.3213 15.5882 14.8682 14.5749 15.6463 13.7527C17.1435 12.1675 18.7992 12.4317 20.4637 13.7395Z" fill="#064149"/>
</g>
<defs>
<clipPath id="clip0_6837_1117">
<rect width="81.0019" height="75" fill="white"/>
</clipPath>
</defs>
</svg>
