<svg width="53" height="65" viewBox="0 0 53 65" fill="none" xmlns="http://www.w3.org/2000/svg">
<path d="M49.7256 19.0044L35.7329 18.5694C35.7329 17.3777 35.7329 16.0815 35.7329 14.7809C35.7329 14.2242 35.5894 13.6674 35.6155 13.115C35.6765 12.854 35.7905 12.6082 35.9504 12.393C35.8169 12.118 35.7246 11.8249 35.6764 11.5231C35.6764 10.2878 36.02 8.98293 35.7199 7.83898C35.4415 6.76463 35.5415 5.73813 35.4328 4.69857C35.4304 4.39286 35.4522 4.08743 35.498 3.78516C35.9634 4.32886 36.3158 4.75077 36.6811 5.15963C36.8628 5.3892 37.0767 5.59137 37.3162 5.75987C38.1153 6.42532 38.7683 7.24864 39.2343 8.17825C39.2634 8.30724 39.3336 8.42327 39.4344 8.50882C41.0046 9.47008 42.1312 10.8663 43.2142 12.3104C43.3609 12.4503 43.5319 12.5624 43.7188 12.6409C43.8232 12.7018 43.9928 12.7236 44.0276 12.8062C44.7192 14.4417 46.3677 15.1637 47.4507 16.4251C48.1815 17.2776 48.9383 18.1127 49.7256 19.0044Z" fill="#FD7D73"/>
<path d="M26.9912 28.5622L29.0964 29.3407C29.6618 29.3407 30.0315 29.4408 30.3099 29.3407C31.2364 28.9449 32.1802 29.2624 33.1111 29.2146C34.5247 29.1363 35.947 29.2494 37.365 29.2537C37.5824 29.2537 37.7999 29.0798 38.0174 29.0493C38.3654 29.0015 38.722 29.0102 39.0744 28.9928V29.1972C39.2396 29.0928 39.4093 28.8971 39.5746 28.9014C41.3622 28.9797 43.1543 29.0885 44.942 29.1885C45.0768 29.1885 45.2682 29.2798 45.3334 29.2189C46.5905 28.1402 47.9432 29.0754 49.2481 29.0015C49.6308 29.0015 49.9788 29.145 50.3833 28.797C50.5318 28.6911 50.7066 28.6279 50.8886 28.6145C51.0705 28.6011 51.2526 28.6379 51.4151 28.7209C51.5776 28.8039 51.7141 28.93 51.8098 29.0853C51.9055 29.2406 51.9567 29.4193 51.9579 29.6017C51.9579 31.6112 51.9579 33.6207 51.9231 35.6303C51.9231 36.3305 51.9535 37.0395 51.897 37.7398C51.8535 38.314 51.6882 38.8838 51.6012 39.4796C51.5403 40.1774 51.5887 40.8803 51.7447 41.5631C51.8448 42.1721 51.6578 42.8201 51.6578 43.4508C51.6578 43.7901 51.9231 44.1685 51.8361 44.4556C51.536 45.4255 51.7404 46.3607 51.8361 47.322C51.8547 47.9388 51.8344 48.5563 51.7752 49.1706C51.7849 49.4443 51.8096 49.7173 51.8491 49.9883C51.9013 50.5668 52.1188 51.1975 51.5186 51.441C51.6221 51.7243 51.7036 52.0151 51.7621 52.311C51.8295 52.8157 51.8644 53.3242 51.8665 53.8333C51.8665 54.5771 51.9883 55.3992 51.723 56.0516C51.3098 57.0868 50.4877 57.9567 50.0788 58.9919C49.7135 59.9228 48.9219 60.4186 48.339 61.0537C47.5343 61.9236 46.3469 62.3585 45.4335 63.1415C44.2243 64.1593 42.7759 64.2941 41.3449 64.3507C40.2314 64.3942 39.1092 64.0592 37.987 64.0418C36.8648 64.0244 35.8165 64.1984 34.7509 64.1984C33.877 64.1675 33.0056 64.0862 32.1411 63.9548C32.0367 63.9548 31.9323 63.8766 31.841 63.894C29.3878 64.3289 26.9259 64.1941 24.4467 64.0592C22.9025 63.9722 21.3628 63.8983 19.8187 63.7983C18.6338 63.7782 17.452 63.6721 16.2825 63.4807C15.1733 63.2372 14.1077 63.5895 13.0638 63.4807C11.8459 63.3764 10.5627 63.2372 9.62322 62.1759C9.29265 61.8061 8.61412 61.7626 8.15741 61.4712C7.78244 61.1828 7.43973 60.8546 7.13525 60.4926C7.08741 60.4447 7.10046 60.3055 7.05261 60.2838C5.61724 59.6705 5.48675 58.109 4.9648 56.9911C4.44787 55.8449 4.38568 54.5452 4.79082 53.3549C5.07354 52.4849 4.79082 51.4541 4.76037 50.4928C4.76037 50.2493 4.65598 50.0013 4.66903 49.7621C4.75602 48.5138 4.88651 47.2698 4.96045 46.0214C5.0344 44.7731 5.09964 43.5857 5.08659 42.3678C5.08659 41.5805 4.88216 40.8019 4.84736 40.0146C4.80387 38.9403 4.64293 37.8094 4.91261 36.8046C5.09094 36.1479 4.91261 35.6694 4.87346 35.104C4.83866 34.6124 5.00395 34.1079 4.98655 33.612C4.95175 32.4855 4.82562 31.3546 4.80387 30.2281C4.80387 29.2885 4.87346 28.349 4.92131 27.4095C4.95175 26.7614 4.98655 26.1046 5.02135 25.4696C5.02135 25.226 5.06049 24.9781 5.06484 24.7345C5.06484 23.8385 5.06484 22.9381 5.09529 22.0378C5.09529 21.3288 5.13009 20.6198 5.15184 19.9108C5.15184 19.8021 5.23448 19.6585 5.19098 19.5933C4.66468 18.8712 4.9996 18.0144 4.9909 17.2227C4.9909 15.7047 4.74732 14.178 4.81692 12.6861C4.86476 11.6509 5.46066 10.6375 5.84342 9.6414C5.87822 9.55441 6.16094 9.55875 6.20444 9.40217C6.40452 9.1238 6.59155 8.83672 6.80903 8.56705C6.88733 8.46701 7.1135 8.41916 7.1222 8.33217C7.24834 7.25347 8.26615 6.90115 8.89249 6.27916C9.51883 5.65716 10.3409 5.40924 11.1021 5.03517C11.5031 4.79336 11.9456 4.62817 12.407 4.54802C13.4378 4.45668 14.4774 4.49147 15.5126 4.45233C15.8388 4.45233 16.2825 4.48712 16.4695 4.30009C17.496 3.26923 18.7269 3.72159 19.8622 3.82163C21.141 3.93037 22.3936 4.27834 23.6594 4.50887C23.7851 4.50793 23.9082 4.47339 24.016 4.40883C24.7511 4.08261 25.4558 4.35228 26.1908 4.49147C26.6959 4.5357 27.2038 4.5357 27.7089 4.49147C27.6219 5.79635 27.4914 7.10123 27.474 8.36696C27.474 9.19774 27.6219 10.0242 27.6741 10.8549C27.6741 11.129 27.5653 11.4073 27.5697 11.6814C27.5697 12.3642 27.0608 13.008 27.6262 13.7692C27.8524 14.0693 27.4348 14.7957 27.4131 15.335C27.3696 16.4181 27.4131 17.5098 27.387 18.5885C27.3243 18.941 27.2267 19.2863 27.0956 19.6194C27.0777 19.7243 27.0929 19.8323 27.1391 19.9282C27.1869 20.0543 27.3304 20.1674 27.3261 20.2805C27.3261 21.1504 27.2521 22.0204 27.2435 22.9207C27.2435 23.4514 27.3565 23.9951 27.3043 24.5214C27.1521 25.8263 27.8567 27.1572 26.9912 28.5622ZM25.6167 37.07C25.5645 37.1091 25.2731 37.2048 25.1817 37.3875C24.8816 38.0747 24.6511 38.7924 24.3988 39.5014L24.1248 40.2365C24.712 40.4453 24.3597 40.8759 24.3466 41.2151C24.2901 42.3982 23.9726 43.5552 24.0726 44.7644C24.169 46.1294 24.1893 47.4988 24.1335 48.8661C24.09 50.1362 23.9204 51.4019 23.8116 52.6676C23.8146 52.7728 23.8262 52.8775 23.8464 52.9808C23.8986 53.8507 23.9117 54.6858 24.0204 55.5253C24.1086 56.1588 24.2632 56.7814 24.4815 57.3826C24.5423 57.5479 25.0165 57.761 25.0817 57.7088C25.708 57.1477 26.3431 57.4435 27.0086 57.5696C27.529 57.6588 28.06 57.6676 28.5831 57.5957C29.3791 57.5 30.1664 57.2913 30.9624 57.1608C31.3037 57.1101 31.6193 56.95 31.8617 56.7045C32.1041 56.4589 32.2602 56.1413 32.3064 55.7993C32.3064 54.725 32.3455 53.6245 32.4151 52.5763C32.4423 51.9616 32.4132 51.3458 32.3281 50.7364C32.1231 49.6681 32.014 48.5837 32.0019 47.496C32.0541 46.1432 31.9671 44.7818 31.9671 43.4247C31.9671 42.4678 32.0063 41.5066 32.0585 40.5496C32.1107 39.5927 32.2498 38.6706 32.2542 37.7311C32.2542 37.5136 32.3281 36.9308 31.6974 37.0352C31.3079 37.1125 30.9085 37.1271 30.5143 37.0787C29.0007 36.8394 27.4957 36.4567 25.9908 37.0787C25.8662 37.0905 25.7406 37.0876 25.6167 37.07ZM12.4505 57.8045C12.5201 56.6954 12.5983 55.695 12.6505 54.6945C12.7071 53.5723 12.781 52.4502 12.7767 51.328C12.7767 50.8451 12.9159 50.6712 13.3726 50.6755C14.099 50.6755 14.821 50.6755 15.5474 50.6755C15.9464 50.6493 16.3471 50.6624 16.7435 50.7147C18.1919 51.0061 19.4446 50.1144 19.3881 48.6834C19.3576 47.87 19.1793 47.0827 19.4751 46.2781C19.5993 45.9319 19.664 45.5672 19.6664 45.1994C19.6664 44.2555 19.6056 43.316 19.5795 42.3721C19.5314 41.9487 19.5314 41.5212 19.5795 41.0977C19.7317 40.3583 20.0144 39.6406 20.1667 38.9229C20.2129 38.7506 20.2181 38.5698 20.182 38.3951C20.1459 38.2204 20.0694 38.0565 19.9587 37.9166C19.848 37.7767 19.7061 37.6647 19.5443 37.5894C19.3825 37.5141 19.2054 37.4778 19.0271 37.4832C17.9397 37.4832 16.8523 37.4832 15.7692 37.4527C15.0646 37.4527 14.3599 37.3353 13.6597 37.3657C13.3932 37.3414 13.1252 37.3915 12.8856 37.5105C12.646 37.6296 12.4441 37.8129 12.3026 38.0399C12.1025 38.3879 11.524 38.5662 11.4327 38.9099C11.298 39.5004 11.2715 40.1105 11.3544 40.7106C11.4196 41.3978 11.7893 42.0155 11.3544 42.7679C11.1541 43.2003 11.1215 43.6917 11.263 44.1468C11.4856 44.7195 11.5251 45.3471 11.3761 45.9431C11.2396 46.5684 11.1928 47.2099 11.2369 47.8483C11.2369 48.5486 11.2848 49.2445 11.3109 49.9448C11.3457 50.7495 11.4066 51.5498 11.4196 52.3545C11.4457 53.8942 11.4196 55.4383 11.4675 56.9781C11.4819 57.3065 11.5973 57.6225 11.798 57.8828C11.8676 57.9828 12.2591 57.835 12.4505 57.8045ZM43.3805 47.0827C43.5153 46.8087 43.6458 46.5303 43.8154 46.2128C43.6501 45.9258 43.4805 45.3125 43.2456 45.2864C42.152 45.1725 41.0515 45.1391 39.953 45.1863C39.4252 45.2419 38.903 45.3408 38.3915 45.4821V40.4975C37.9565 40.119 38.0522 39.5492 38.1696 38.9533C38.2523 38.5184 38.3654 38.327 38.9134 38.3531C40.3618 38.4227 41.8146 38.3531 43.263 38.3531C43.6453 38.3854 44.0238 38.4524 44.3939 38.5532L45.9859 37.157L45.9206 36.7959C45.1421 36.5915 44.3722 36.3349 43.5805 36.1957C43.2152 36.1348 42.8107 36.361 42.4279 36.3523C41.6451 36.2637 40.8582 36.2158 40.0704 36.2087C39.3202 36.3259 38.58 36.5004 37.8565 36.7307C37.0692 36.9177 36.2428 37.7355 36.4168 38.3488C36.6255 39.1143 36.4516 39.8189 36.4168 40.5583C36.3776 41.4283 36.5777 42.2982 36.5994 43.1681C36.6299 44.2468 36.5994 45.3429 36.5603 46.4042C36.5603 46.5347 36.4211 46.7043 36.4646 46.7913C36.8996 47.7004 36.4646 48.4964 36.1993 49.3706L36.5168 49.7056V54.1943C36.7082 54.9903 36.8561 55.5949 36.9779 56.0821C37.3663 56.0937 37.7547 56.0586 38.1348 55.9777C38.2491 55.923 38.3483 55.8413 38.4241 55.7398C38.4999 55.6383 38.5499 55.5199 38.5698 55.3948C38.5698 54.4597 38.4263 53.5245 38.4089 52.5893C38.4089 52.1544 38.6394 51.6933 38.622 51.2497C38.5983 50.0859 38.5112 48.9243 38.361 47.77C38.274 47.1784 38.2827 46.9001 38.9613 47.0306C39.344 47.1001 39.8312 47.3481 40.0965 47.1915C41.2013 46.4956 42.2844 47.8744 43.3805 47.0827Z" fill="#BFEDE6"/>
<path d="M27.2975 24.9175C28.3757 25.1742 29.499 25.1742 30.5771 24.9175C30.7555 24.8609 30.9445 24.846 31.1295 24.874C32.3605 25.309 33.5914 25.0306 34.831 24.961C35.8445 24.9045 36.8666 24.961 37.8758 24.9915C38.9806 24.9915 40.0854 25.0437 41.1902 25.0306C41.4582 24.9763 41.7214 24.9007 41.9774 24.8044C42.241 24.7609 42.5099 24.7609 42.7734 24.8044C43.7912 24.9741 44.8134 25.2394 45.6702 24.7087C46.0312 24.8175 46.3488 25.0219 46.6228 24.9784C47.6537 24.8218 48.7324 25.0219 49.6675 24.2346C50.2591 23.7344 51.3073 24.5521 51.3247 25.4612C51.3682 27.8796 51.4117 30.298 51.4074 32.7163C51.4074 34.0212 51.1725 35.3261 51.2986 36.6049C51.3726 37.3443 51.5117 38.0925 51.5204 38.8406C51.5204 40.2716 51.3508 41.7157 51.5204 43.1293C51.59 43.7687 51.3726 44.3646 51.4465 44.8691C51.6161 46.0131 51.3987 47.1266 51.4943 48.2531C51.5465 48.8447 51.2943 49.4058 51.6422 50.0364C52.4034 51.4066 51.7814 52.8115 51.5422 54.1903C51.4248 54.8515 51.316 55.5561 50.6723 55.978C50.6723 55.978 50.6244 56.0302 50.6288 56.0476C50.9028 57.2742 49.4457 57.6222 49.2891 58.6574C49.2891 58.727 48.7367 58.7487 48.7411 58.7748C48.8063 59.9535 47.397 59.9405 47.0752 60.8539C46.936 61.2454 46.3096 61.4585 45.9138 61.7673C45.7137 61.9239 45.5441 62.1109 45.2962 62.3458C45.2614 62.3241 45.0352 62.1414 44.9873 62.1805C44.1696 62.8417 43.1649 63.0504 42.2167 63.4115C41.7218 63.5923 41.1994 63.6865 40.6725 63.6898C39.8026 63.7246 38.8979 63.368 38.0628 63.9987C37.941 64.0944 37.6278 63.9204 37.4277 63.9291C37.0232 63.9291 36.6231 64.0074 36.2534 63.9987C35.7879 63.9552 35.3269 63.8812 34.8615 63.8725C33.9916 63.8508 33.1651 63.8725 32.317 63.8725H28.8373C28.659 63.8725 28.4763 63.9204 28.2936 63.9117C27.2236 63.8551 26.1536 63.7507 25.0792 63.729C24.1789 63.729 23.2785 63.816 22.3738 63.8116C21.8176 63.7875 21.2631 63.7352 20.7122 63.655C19.9815 63.5811 19.2943 63.9073 18.5374 63.7551C17.3587 63.5202 16.0756 63.6985 14.9534 63.3201C13.8727 63.0118 12.7407 62.926 11.6259 63.0678C10.7908 63.12 9.92523 62.7155 9.08141 62.4894C8.73902 62.3405 8.38565 62.2184 8.02446 62.124C6.78917 61.9978 5.8801 61.2236 4.93189 60.5712C4.32426 60.1439 3.82278 59.5829 3.46608 58.9314C2.99197 58.0876 2.28733 57.3568 1.90022 56.4782C1.6553 55.7357 1.52906 54.9591 1.52615 54.1773C1.46526 53.4291 1.69144 52.6027 1.44786 51.9372C0.912861 50.4366 1.34782 48.8925 1.09989 47.431C0.934609 46.448 1.27823 45.539 1.23908 44.5951C1.19558 43.1641 1.11729 41.7548 1.09989 40.3238C1.09989 39.6453 1.23908 38.9711 1.24778 38.2925C1.2265 38.0168 1.16496 37.7457 1.0651 37.4879C1.14339 36.7267 1.25648 36.1047 1.26518 35.4783C1.28693 33.7994 1.26518 32.1161 1.26518 30.4372C1.20723 30.1138 1.17234 29.7868 1.16079 29.4585C1.25648 28.7147 1.44786 27.984 1.55225 27.2359C1.57835 27.0706 1.41741 26.8748 1.23473 26.7748C1.29128 25.3003 1.38262 23.8214 1.38262 22.3426C1.37392 21.8684 1.09554 21.3987 0.999853 20.9202C0.974357 20.6386 1.00541 20.3546 1.09119 20.0851C1.2394 19.7582 1.35451 19.4172 1.43481 19.0673C1.43481 18.0234 1.39567 16.9621 1.38697 15.9269C1.38697 14.622 1.38697 13.3432 1.38697 12.0514C1.35481 10.9325 1.38967 9.81262 1.49136 8.69786C1.5566 8.20201 2.11335 7.78444 2.28733 7.27989C2.82234 5.69664 4.02717 4.67013 5.11022 3.48704C5.29755 3.2492 5.46901 2.99929 5.62348 2.73891C6.09758 2.69106 6.77612 2.64757 6.85006 1.90814C7.57751 1.71267 8.291 1.46854 8.98572 1.1774C10.395 0.472768 11.9043 0.77724 13.3658 0.607606C14.7909 0.466279 16.2251 0.440096 17.6545 0.529313C19.0681 0.594557 20.5209 0.094353 21.9084 0.281386C23.061 0.424923 24.2311 0.34663 25.3881 0.607606C26.6929 0.907728 27.2453 1.64281 27.1583 3.21737C27.0887 4.39176 27.1583 5.5705 27.1148 6.74489C27.1148 7.39733 27.0018 8.04977 27.0322 8.69351C27.0713 9.44164 27.2279 10.1811 27.2888 10.9249C27.2888 11.1728 27.0714 11.4642 27.1322 11.686C27.5672 13.291 26.8365 14.9526 27.3976 16.5663C27.5411 17.0012 27.2758 17.5406 27.2584 18.0364C27.2584 18.2887 27.3715 18.5454 27.3062 18.7759L27.2975 24.9175ZM24.9922 26.5617C25.8622 25.1567 25.1532 23.8258 25.2793 22.5339C25.3315 22.0076 25.2097 21.4639 25.2184 20.9333C25.2184 20.0634 25.2837 19.1934 25.3011 18.2931C25.3011 18.18 25.1619 18.0669 25.114 17.9408C25.0679 17.8448 25.0527 17.7369 25.0705 17.6319C25.2002 17.2987 25.2964 16.9534 25.3576 16.6011C25.3968 15.518 25.3576 14.4263 25.3837 13.3476C25.3837 12.8082 25.8187 12.0818 25.5968 11.7817C25.0314 11.0205 25.5533 10.3768 25.5403 9.69392C25.5403 9.41989 25.6621 9.14152 25.6447 8.86749C25.5925 8.03672 25.4316 7.2103 25.4446 6.37952C25.4446 5.09639 25.5925 3.80891 25.6795 2.50403C25.1744 2.54826 24.6665 2.54826 24.1615 2.50403C23.4394 2.36484 22.7348 2.09517 21.9867 2.42139C21.8788 2.48595 21.7557 2.52049 21.63 2.52143C20.3643 2.2909 19.1116 1.94293 17.8328 1.83419C16.6976 1.73415 15.4666 1.28179 14.4401 2.31265C14.2531 2.49968 13.8094 2.45619 13.4832 2.46488C12.448 2.50403 11.4084 2.46488 10.3776 2.56058C9.91621 2.64073 9.47374 2.80592 9.07271 3.04773C8.31153 3.4305 7.43726 3.71322 6.86311 4.29172C6.28897 4.87021 5.21896 5.26603 5.09283 6.34473C5.09283 6.43172 4.85795 6.47956 4.77965 6.57961C4.56217 6.84928 4.37514 7.13635 4.17506 7.41473C4.13156 7.57131 3.84884 7.56697 3.81404 7.65396C3.43128 8.66306 2.83538 9.67652 2.78754 10.6987C2.73969 12.1775 2.97457 13.7129 2.99197 15.2223C2.99197 16.0052 2.66575 16.8621 3.2138 17.6102C3.25729 17.6754 3.179 17.819 3.17465 17.9277C3.17465 18.6367 3.12681 19.3457 3.11811 20.0547C3.11811 20.955 3.11811 21.8554 3.08766 22.7514C3.08766 22.995 3.05721 23.2429 3.04416 23.4865C3.00937 24.1346 2.97457 24.7914 2.94412 25.4264C2.89628 26.3659 2.81364 27.3054 2.82668 28.245C2.82668 29.3715 2.97457 30.5024 3.00937 31.6289C3.00937 32.1248 2.86148 32.6294 2.89628 33.1209C2.93542 33.6863 3.11376 34.1648 2.93542 34.8216C2.66575 35.835 2.82668 36.9703 2.87018 38.0403C2.90498 38.8275 3.10071 39.6061 3.10941 40.3934C3.10941 41.6113 3.05721 42.8292 2.98327 44.0471C2.90933 45.2649 2.77884 46.5394 2.69185 47.7877C2.69185 48.0269 2.77449 48.2749 2.78319 48.5184C2.82233 49.4797 3.09636 50.5236 2.81364 51.3805C2.4085 52.5708 2.47069 53.8706 2.98762 55.0167C3.50957 56.152 3.64006 57.6961 5.07543 58.3094C5.12327 58.3311 5.11022 58.4703 5.15807 58.5182C5.46255 58.8802 5.80525 59.2084 6.18023 59.4968C6.63693 59.7882 7.31547 59.8317 7.64604 60.2015C8.58555 61.2671 9.86869 61.4063 11.0866 61.5063C12.1392 61.602 13.1961 61.2497 14.3053 61.5063C15.4748 61.6977 16.6566 61.8038 17.8415 61.8239C19.3856 61.9239 20.9254 61.9979 22.4695 62.0848C24.9357 62.2197 27.3976 62.3415 29.8638 61.9196C29.9551 61.9196 30.0595 61.9718 30.1639 61.9804C31.0284 62.1118 31.8998 62.1931 32.7737 62.224C33.848 62.224 34.918 61.9761 35.9837 61.9935C37.0493 62.0109 38.2281 62.3458 39.3416 62.3023C40.7726 62.2458 42.221 62.1109 43.4302 61.0931C44.3436 60.3276 45.5311 59.8578 46.3357 59.0053C46.9403 58.3703 47.7319 57.8744 48.0756 56.9436C48.4844 55.9084 49.3065 55.0385 49.7197 54.0033C49.985 53.3508 49.8545 52.5288 49.8632 51.785C49.8611 51.2758 49.8262 50.7673 49.7589 50.2626C49.7003 49.9668 49.6189 49.6759 49.5153 49.3927C50.1155 49.1491 49.898 48.5228 49.8459 47.9399C49.8063 47.6689 49.7816 47.3959 49.7719 47.1222C49.8311 46.5079 49.8514 45.8905 49.8328 45.2736C49.7328 44.3124 49.5283 43.3772 49.8328 42.4073C49.9198 42.1202 49.6545 41.7418 49.6545 41.4025C49.6545 40.7718 49.8415 40.1237 49.7415 39.5148C49.5854 38.832 49.537 38.129 49.5979 37.4313C49.6849 36.8572 49.8502 36.2874 49.8937 35.6915C49.9502 34.9912 49.9154 34.2822 49.9198 33.5819C49.9198 31.5724 49.9502 29.5629 49.9546 27.5534C49.9535 27.3709 49.9022 27.1923 49.8065 27.037C49.7108 26.8817 49.5743 26.7556 49.4118 26.6726C49.2494 26.5896 49.0672 26.5527 48.8853 26.5662C48.7033 26.5796 48.5286 26.6427 48.38 26.7487C47.9755 27.0967 47.6276 26.9314 47.2448 26.9531C45.9399 27.0271 44.5828 26.0832 43.3302 27.1706C43.2649 27.2315 43.0735 27.1706 42.9387 27.1402C41.151 27.0401 39.359 26.9314 37.5713 26.8531C37.406 26.8531 37.2364 27.0445 37.0711 27.1489V26.9662C36.7188 26.9662 36.3621 26.9662 36.0141 27.0227C35.7923 27.0532 35.5792 27.2272 35.3617 27.2272C33.9437 27.2272 32.5214 27.1097 31.1078 27.188C30.177 27.2359 29.2331 26.9183 28.3066 27.3141C28.0283 27.4316 27.6585 27.3141 27.0931 27.3141L24.9922 26.5617Z" fill="#064149"/>
<path d="M32.547 0C32.8732 0.287074 33.182 0.600245 33.53 0.86992C33.791 1.0613 34.1346 1.13525 34.3999 1.30488C34.6968 1.54079 34.9719 1.80281 35.222 2.08781C35.5482 2.42708 35.8614 2.78374 36.1658 3.14041C36.7618 3.89991 37.3993 4.62595 38.0753 5.31521C38.593 5.68637 39.1557 5.99037 39.7499 6.21993C39.78 6.49712 39.8844 6.76104 40.0521 6.98383C40.2197 7.20661 40.4444 7.37999 40.7025 7.48566C41.0154 7.69459 41.288 7.95836 41.5071 8.26424C41.9421 8.6992 42.3771 9.13416 42.7816 9.61261C43.347 10.2477 43.869 10.9175 44.4475 11.5438C45.1086 12.2615 45.8176 12.9444 46.5005 13.6403C46.7093 13.8491 46.905 14.0753 47.1094 14.2754C47.6009 14.7843 48.1229 15.2714 48.5796 15.8108C49.2364 16.5894 50.2194 17.1157 50.5065 18.19C50.7718 19.1948 50.1759 20.0864 49.145 20.0517C47.9098 20.0082 46.6832 19.8211 45.4522 19.7733C44.6954 19.7428 43.9299 19.8777 43.1687 19.8951C42.8077 19.8951 42.364 19.6645 42.0987 19.8081C41.5463 20.1082 41.1157 19.8081 40.6242 19.7472C39.8021 19.6732 38.9713 19.7167 38.1493 19.6558C37.7534 19.6254 37.3576 19.3644 36.9749 19.3949C36.0178 19.4165 35.0611 19.3348 34.1215 19.1513C33.7518 19.1034 33.3343 19.3818 32.8167 19.5558C32.6731 19.2078 32.299 18.7163 32.3251 18.2509C32.3512 17.7855 31.4074 17.3245 32.2556 16.759C31.7293 16.5198 31.7423 16.1979 31.9293 15.676C32.1164 15.154 31.9598 14.5842 31.9772 14.0275C31.9772 13.7578 32.0685 13.4881 32.0685 13.2184C32.0685 11.7048 32.0381 10.1955 32.0424 8.6818C32.0424 7.92932 32.0946 7.17684 32.1251 6.42436C32.199 4.63667 32.2816 2.84464 32.3469 1.05695C32.3359 0.7411 32.3083 0.426043 32.2643 0.11309L32.547 0ZM47.7227 18.003C46.9354 17.1331 46.1786 16.2632 45.4479 15.4237C44.3648 14.1623 42.7163 13.4403 42.0248 11.8048C41.99 11.7222 41.8203 11.7004 41.7159 11.6395C41.529 11.561 41.358 11.4489 41.2114 11.309C40.1283 9.86489 39.0018 8.46867 37.4316 7.50741C37.3308 7.42186 37.2605 7.30583 37.2315 7.17684C36.7629 6.24642 36.1069 5.42304 35.3046 4.75846C35.0652 4.58995 34.8513 4.38779 34.6696 4.15822C34.3042 3.74935 33.9519 3.32744 33.4865 2.78374C33.4407 3.08602 33.4189 3.39144 33.4212 3.69716C33.53 4.73671 33.4212 5.76322 33.7083 6.83757C34.0084 7.98151 33.6779 9.28639 33.6648 10.5217C33.713 10.8235 33.8054 11.1166 33.9388 11.3916C33.7846 11.6095 33.6765 11.8567 33.6213 12.118C33.5952 12.6704 33.7301 13.2271 33.7388 13.7839C33.7388 15.0888 33.7388 16.3936 33.7388 17.5724L47.7227 18.003Z" fill="#064149"/>
<path d="M23.6182 35.0703C23.7455 35.0962 23.8755 35.1064 24.0053 35.1007C25.5103 34.47 27.0152 34.8528 28.5289 35.1007C28.9231 35.1492 29.3225 35.1345 29.712 35.0572C30.3427 34.9528 30.2687 35.5357 30.2687 35.7532C30.2687 36.6927 30.1252 37.6322 30.073 38.5717C30.0208 39.5112 29.986 40.4899 29.9817 41.4468C29.9817 42.8039 30.0687 44.1653 30.0165 45.518C30.0285 46.6057 30.1377 47.6902 30.3427 48.7585C30.4278 49.3678 30.4569 49.9837 30.4297 50.5983C30.3601 51.6683 30.3296 52.747 30.3209 53.8214C30.2747 54.1633 30.1186 54.481 29.8762 54.7265C29.6338 54.9721 29.3182 55.1322 28.9769 55.1828C28.1809 55.3003 27.3937 55.509 26.5977 55.6178C26.0746 55.6896 25.5436 55.6808 25.0231 55.5917C24.3576 55.4655 23.7182 55.1567 23.0963 55.7309C23.031 55.7831 22.5569 55.5699 22.496 55.4046C22.2777 54.8034 22.1232 54.1809 22.035 53.5474C21.9262 52.7079 21.9132 51.851 21.861 51.0029C21.8408 50.8996 21.8292 50.7949 21.8262 50.6897C21.9349 49.424 22.1045 48.1582 22.148 46.8881C22.2039 45.5208 22.1836 44.1515 22.0871 42.7865C21.9871 41.5773 22.3046 40.4203 22.3612 39.2372C22.3612 38.8979 22.7265 38.4673 22.1393 38.2585L22.4134 37.5234C22.6656 36.8145 22.8962 36.0968 23.1963 35.4095C23.292 35.2051 23.5834 35.1094 23.6182 35.0703ZM28.3288 53.3386C29.0378 52.1468 28.007 51.042 28.5681 49.7937C28.9073 49.0325 28.5681 47.9581 28.5028 47.0273C28.455 46.3009 28.294 45.5746 28.3158 44.8525C28.3419 43.9043 27.9765 42.9604 28.3158 42.0079C28.3593 41.8861 27.9591 41.6338 27.9722 41.4598C28.0262 40.2928 28.1555 39.1305 28.3593 37.9802C28.4046 37.8589 28.4207 37.7287 28.4062 37.6C28.3917 37.4714 28.347 37.348 28.2758 37.2399C28.2046 37.1318 28.1088 37.042 27.9963 36.9779C27.8839 36.9138 27.7578 36.8772 27.6285 36.871C26.6313 36.6611 25.6215 36.5158 24.6056 36.436C24.4484 36.4443 24.2958 36.492 24.162 36.5749C24.0282 36.6578 23.9174 36.7731 23.84 36.9102C23.758 37.4545 23.7477 38.0073 23.8096 38.5543C23.8966 39.9244 24.014 41.2902 24.1141 42.6603C24.1962 43.008 24.2124 43.368 24.1619 43.7216C23.9183 44.435 23.7487 45.1048 24.1619 45.8094C24.1971 45.9331 24.1971 46.0642 24.1619 46.1878C24.1054 46.7446 24.0358 47.3057 23.9879 47.8668C23.8999 48.4555 23.8635 49.0507 23.8792 49.6458C23.9796 50.0636 24.1393 50.4649 24.3533 50.8376C23.2659 51.5596 24.288 52.6818 23.9183 53.6213L28.3288 53.3386Z" fill="#064149"/>
<path d="M10.4518 55.8054C10.2604 55.8358 9.86897 55.9837 9.78633 55.8837C9.58561 55.6233 9.47017 55.3074 9.45576 54.979C9.41661 53.4392 9.43401 51.8951 9.40791 50.3553C9.40791 49.5507 9.33397 48.7503 9.29917 47.9457C9.27308 47.2454 9.22088 46.5494 9.22523 45.8492C9.18109 45.2107 9.22795 44.5693 9.36442 43.944C9.51755 43.3493 9.4826 42.7217 9.26438 42.1476C9.1287 41.6974 9.16275 41.2131 9.36007 40.7862C9.79503 40.0511 9.43401 39.4161 9.36007 38.7289C9.2738 38.1157 9.30182 37.4919 9.44271 36.889C9.5384 36.5454 10.1169 36.367 10.3126 36.0191C10.4542 35.792 10.656 35.6087 10.8956 35.4897C11.1353 35.3706 11.4033 35.3205 11.6697 35.3449C12.37 35.3144 13.0746 35.4188 13.7793 35.4319C14.8667 35.4536 15.9541 35.4319 17.0371 35.4623C17.2154 35.4569 17.3926 35.4933 17.5543 35.5685C17.7161 35.6438 17.858 35.7559 17.9688 35.8958C18.0795 36.0356 18.156 36.1995 18.1921 36.3742C18.2282 36.549 18.2229 36.7297 18.1767 36.902C18.0114 37.6371 17.7417 38.3548 17.5895 39.0768C17.5415 39.5003 17.5415 39.9278 17.5895 40.3513C17.6156 41.2951 17.6722 42.2346 17.6765 43.1785C17.6741 43.5463 17.6094 43.911 17.4851 44.2572C17.1894 45.0619 17.3677 45.8492 17.3981 46.6625C17.4547 48.0935 16.202 48.9852 14.7536 48.6938C14.3571 48.6415 13.9565 48.6284 13.5574 48.6546C12.8311 48.6546 12.109 48.6546 11.3826 48.6546C10.9259 48.6546 10.7824 48.8243 10.7867 49.3071C10.7867 50.4293 10.7171 51.5515 10.6606 52.6737C10.5997 53.6958 10.5214 54.6962 10.4518 55.8054ZM11.0042 47.2193C11.127 47.3078 11.2683 47.3673 11.4174 47.3933C12.2874 47.3933 13.1573 47.3933 14.0489 47.315C14.4239 47.2561 14.7664 47.0676 15.0167 46.7823C15.267 46.497 15.4094 46.1329 15.4191 45.7535C15.4191 45.1967 15.306 44.64 15.3277 44.0832C15.3277 43.6831 15.6452 43.2524 15.5669 42.8914C15.1842 41.1994 15.5669 39.5553 15.8627 37.9242C15.9628 37.3413 15.8845 37.15 15.3625 37.1674C14.7666 37.1674 14.1794 37.3022 13.5835 37.3239C12.8267 37.3544 12.0699 37.3239 11.2565 37.3239C10.7432 40.6166 10.8215 43.8831 11.0042 47.2193Z" fill="#064149"/>
<path d="M41.3804 45.084C40.2843 45.8756 39.2056 44.4968 38.0965 45.1884C37.8485 45.3449 37.344 45.097 36.9612 45.0274C36.2827 44.8969 36.274 45.1753 36.361 45.7669C36.5111 46.9212 36.5982 48.0828 36.6219 49.2465C36.6219 49.6815 36.4045 50.1165 36.4088 50.5862C36.4088 51.5214 36.5524 52.4565 36.5698 53.3917C36.5498 53.5168 36.4998 53.6352 36.4241 53.7367C36.3483 53.8382 36.249 53.9198 36.1348 53.9746C35.7547 54.0555 35.3662 54.0905 34.9778 54.0789C34.856 53.5918 34.7081 52.9872 34.5167 52.1912V47.7198L34.1992 47.3849C34.4732 46.515 34.9213 45.7147 34.4645 44.8056C34.421 44.7186 34.5559 44.549 34.5602 44.4185C34.5863 43.3398 34.6298 42.2437 34.5994 41.1824C34.5994 40.3125 34.3776 39.4425 34.4167 38.5726C34.4515 37.8332 34.6255 37.1286 34.4167 36.363C34.2427 35.7497 35.0691 34.932 35.8564 34.745C36.58 34.5146 37.3201 34.3401 38.0704 34.223C38.8581 34.2301 39.645 34.278 40.4278 34.3666C40.8106 34.3666 41.2151 34.1491 41.5805 34.21C42.3721 34.3492 43.142 34.6058 43.9206 34.8102L43.9684 35.1625L42.3765 36.5588C42.0063 36.458 41.6278 36.391 41.2456 36.3587C39.7972 36.3587 38.3444 36.4239 36.896 36.3587C36.3479 36.3282 36.2305 36.537 36.1522 36.972C36.0347 37.5679 35.9608 38.1377 36.374 38.5161V43.4964C36.8855 43.3551 37.4078 43.2561 37.9355 43.2006C39.034 43.1534 40.1345 43.1868 41.2282 43.3006C41.4631 43.3267 41.6327 43.94 41.798 44.2271C41.6457 44.5316 41.5152 44.8012 41.3804 45.084Z" fill="#064149"/>
<path d="M28.3454 53.3257L23.9479 53.604C24.3133 52.6645 23.2911 51.5423 24.3829 50.8203C24.1689 50.4476 24.0092 50.0463 23.9088 49.6285C23.8931 49.0335 23.9295 48.4382 24.0175 47.8495C24.0654 47.2884 24.135 46.7273 24.1915 46.1706C24.2267 46.0469 24.2267 45.9158 24.1915 45.7922C23.7957 45.0875 23.9653 44.4177 24.1915 43.7043C24.2457 43.3453 24.2309 42.9792 24.148 42.6256C24.048 41.2555 23.9305 39.8897 23.8435 38.5196C23.7817 37.9726 23.7919 37.4198 23.874 36.8755C23.9514 36.7384 24.0621 36.6231 24.1959 36.5402C24.3297 36.4573 24.4823 36.4096 24.6395 36.4014C25.6555 36.4811 26.6652 36.6264 27.6625 36.8363C27.7963 36.8394 27.9274 36.8751 28.0443 36.9403C28.1613 37.0056 28.2605 37.0984 28.3333 37.2107C28.4062 37.323 28.4506 37.4515 28.4625 37.5848C28.4745 37.7182 28.4537 37.8524 28.4019 37.9759C28.1982 39.1263 28.0689 40.2886 28.0148 41.4556C28.0148 41.6296 28.4019 41.8906 28.3584 42.0037C28.0017 42.9562 28.3584 43.9001 28.3584 44.8483C28.3367 45.5703 28.4976 46.2967 28.5454 47.0231C28.6063 47.9539 28.95 49.0283 28.6107 49.7894C28.0235 51.0291 29.0544 52.1339 28.3454 53.3257Z" fill="#BFEDE6"/>
<path d="M11.0029 47.22C10.842 43.8838 10.7637 40.6173 11.2552 37.3333C12.0686 37.3333 12.8254 37.3333 13.5822 37.3333C14.1781 37.3333 14.7653 37.1942 15.3612 37.1768C15.8832 37.1768 15.9615 37.3507 15.8614 37.9336C15.5743 39.5647 15.1829 41.2088 15.5656 42.9008C15.6439 43.2618 15.3395 43.6925 15.3264 44.0926C15.3264 44.6494 15.4265 45.2061 15.4178 45.7629C15.4061 46.1408 15.2628 46.5028 15.0127 46.7863C14.7625 47.0698 14.4212 47.2571 14.0476 47.3157C13.1777 47.3853 12.3078 47.394 11.4161 47.394C11.267 47.368 11.1257 47.3085 11.0029 47.22Z" fill="#BFEDE6"/>
</svg>
