<svg width="1079" height="736" viewBox="0 0 1079 736" fill="none" xmlns="http://www.w3.org/2000/svg">
<path d="M253.507 63.5276L255.103 67.195L253.507 63.5276ZM1045.51 205.528L1041.84 207.122L1045.51 205.528ZM30.0701 541.671C27.9403 541.084 25.7382 542.335 25.1515 544.465L15.5906 579.172C15.0039 581.302 16.2548 583.504 18.3846 584.091C20.5145 584.678 22.7166 583.427 23.3033 581.297L31.8019 550.446L62.6527 558.945C64.7825 559.531 66.9847 558.281 67.5714 556.151C68.1581 554.021 66.9071 551.819 64.7773 551.232L30.0701 541.671ZM8.00654 406.493C7.35046 329.897 55.6844 154.02 255.103 67.195L251.91 59.8601C48.9292 148.236 -0.670427 327.492 0.00683188 406.562L8.00654 406.493ZM255.103 67.195C399.97 4.12147 577.627 -5.25862 728.821 23.5506C804.394 37.9506 873.187 61.8615 927.853 93.2351C982.563 124.635 1022.81 163.321 1041.84 207.122L1049.18 203.933C1029.21 157.984 987.39 118.181 931.835 86.2966C876.234 54.3864 806.559 30.2191 730.319 15.692C577.888 -13.3528 398.544 -3.98283 251.91 59.8601L255.103 67.195ZM1041.84 207.122C1076.44 286.752 1080.99 364.295 1048.14 436.436C1015.23 508.697 944.505 576.183 827.216 634.951L830.8 642.104C949.011 582.873 1021.48 514.28 1055.42 439.751C1089.42 365.103 1084.47 285.146 1049.18 203.933L1041.84 207.122ZM827.216 634.951C710.037 693.665 546.707 733.626 394.861 727.344C242.957 721.058 103.512 668.587 32.4858 543.552L25.5298 547.503C98.5041 675.968 241.308 728.997 394.53 735.337C547.808 741.679 712.479 701.39 830.8 642.104L827.216 634.951Z" fill="#F7D5CD"/>
</svg>
