<svg width="70" height="68" viewBox="0 0 70 68" fill="none" xmlns="http://www.w3.org/2000/svg">
<path d="M20.1719 30.5908H13.1127H12.4404V23.1955L25.5503 22.8594V30.2547C25.4383 30.2547 25.0125 30.3219 24.2057 30.5908C23.399 30.8598 21.1804 30.7029 20.1719 30.5908Z" fill="#FD7D73"/>
<path d="M47.733 55.4637L36.64 64.5398C35.2954 66.4222 29.5808 65.5482 26.8916 64.8759V4.03262C27.9673 3.49478 33.3905 4.03262 35.9677 4.36877L51.4306 0.334961L51.7668 10.0833L48.4053 10.4195L37.9846 15.1256L47.733 55.4637Z" fill="#BFEDE6"/>
<path d="M27.9051 1.17939C27.9805 1.28741 28.1089 1.39543 28.1089 1.50548C28.1448 2.07236 28.1284 2.64133 28.06 3.20521C27.9785 3.676 28.1823 3.69434 28.4839 3.59244C29.077 3.38863 29.6456 3.11554 30.2387 2.91988C30.5546 2.8139 30.9153 2.84855 31.2373 2.7548C32.1748 2.4817 33.0981 2.14339 34.0417 1.89475C34.6083 1.73985 35.2278 1.75208 35.7801 1.56458C36.4996 1.32002 37.274 1.30575 37.967 0.90018C38.4092 0.641348 39.0166 0.669881 39.5485 0.559827C40.0009 0.466076 40.4473 0.329527 40.9038 0.266348C41.4663 0.188902 42.0349 0.158332 42.6015 0.123685C43.2435 0.0870001 43.8854 0.0482772 44.5274 0.0462392C45.1694 0.0442011 45.8277 0.0992284 46.4778 0.103304C47.1748 0.103304 47.8698 0.0543914 48.5648 0.0666196C49.0906 0.0666196 49.6144 0.176674 50.1382 0.182788C50.4907 0.186248 50.8418 0.136784 51.1796 0.036049C51.577 -0.0841957 51.7625 0.109419 51.791 0.423278C51.8624 1.28333 51.8685 2.14746 51.9296 3.00752C51.9704 3.5904 52.217 4.20589 52.0886 4.73782C51.9255 5.4226 52.2312 6.04217 52.113 6.70657C52.0295 7.17328 52.1742 7.67668 52.1782 8.16173C52.1971 8.57203 52.1628 8.98304 52.0763 9.38456C51.9887 9.71269 52.1151 9.7779 52.3474 9.7188C52.8479 9.60026 53.3396 9.44703 53.8189 9.26024C54.6341 8.93415 55.4126 8.56323 56.2075 8.21269C56.2401 8.19842 56.2951 8.21269 56.3114 8.18619C56.5254 7.90087 56.8556 7.73171 57.1124 7.96201C57.4221 8.24122 57.8012 8.4919 57.7543 9.08497C57.7177 9.53945 58.0009 10.0184 58.1334 10.4871C58.219 10.7969 58.2659 11.1169 58.3739 11.4165C58.4554 11.6448 58.6511 11.8363 58.7183 12.0666C58.8025 12.4153 58.8671 12.7685 58.9119 13.1244C58.9792 13.4973 59.0424 13.8703 59.13 14.2371C59.1443 14.3024 59.2829 14.3309 59.3338 14.3961C59.4153 14.4919 59.556 14.6713 59.5376 14.7018C59.0526 15.301 59.8759 15.7066 59.7618 16.2528C59.7292 16.4016 59.8556 16.5829 59.9065 16.7501C60.0838 17.3166 60.3488 17.873 60.4079 18.4498C60.4507 18.8574 60.4853 19.1448 60.8705 19.3037C60.6973 19.7113 60.6096 20.0925 60.8848 20.4715C60.9077 20.5007 60.9249 20.5339 60.9357 20.5694C61.1314 21.3112 61.3264 22.0537 61.5206 22.7969C61.6508 23.1882 61.751 23.5888 61.8202 23.9953C61.8855 24.6617 62.2442 25.2446 62.2278 25.9579C62.2115 26.4267 62.6456 26.8975 62.8148 27.3846C62.9027 27.7488 62.9707 28.1176 63.0186 28.4892C63.1857 29.2229 63.3732 29.9525 63.5566 30.6842C63.6033 30.9693 63.684 31.2478 63.7971 31.5137C64.0234 31.9437 63.9255 32.388 63.9765 32.8262C64.0722 33.3662 64.2175 33.8963 64.4106 34.4097C64.5003 34.6971 64.6327 34.9702 64.7183 35.2596C64.9507 36.0361 65.1789 36.8146 65.3868 37.5993C65.5295 38.1312 65.6436 38.6692 65.7577 39.2073C65.8637 39.6984 65.9452 40.1957 66.0512 40.6869C66.2917 41.7752 66.4996 42.8737 66.7951 43.9478C67.056 44.8873 67.4412 45.782 67.7245 46.7236C67.8447 47.1129 67.8304 47.5388 67.9018 47.9464C67.9914 48.4335 68.0933 48.9186 68.2156 49.3975C68.3746 50.0252 68.5845 50.6428 68.7292 51.2725C68.8576 51.8432 68.9045 52.4322 69.0329 53.0028C69.1246 53.4104 69.2999 53.8058 69.414 54.2134C69.4222 54.3373 69.4077 54.4616 69.3712 54.5803L69.3875 54.568C68.9799 54.5415 68.6599 54.4559 68.7761 53.9281C68.7944 53.8323 68.7211 53.7243 68.6884 53.6122C68.3848 52.638 67.9996 51.6883 67.8365 50.6713C67.806 50.4777 67.6327 50.3065 67.5186 50.119C67.5573 50.0191 67.6715 49.8744 67.645 49.7644C67.5339 49.2888 67.3937 48.8205 67.2251 48.3622C67.1029 48.0361 66.842 47.7508 66.7605 47.4226C66.6443 46.962 66.6687 46.4688 66.5791 45.996C66.4894 45.5232 66.3304 45.1033 66.2224 44.6529C66.145 44.3289 66.1389 43.9865 66.041 43.6706C65.8189 42.9593 65.5173 42.2705 65.3257 41.5531C65.1341 40.8357 65.4011 40.0307 64.7143 39.4783C64.6984 39.4687 64.6867 39.4534 64.6816 39.4355C64.5696 38.8873 64.4778 38.337 64.3413 37.7929C64.2924 37.5891 64.058 37.3364 64.1212 37.2161C64.3066 36.8574 64.1212 36.623 64.0071 36.3234C63.8264 35.8219 63.6753 35.3101 63.5546 34.7908C63.4409 34.4139 63.3685 34.0258 63.3386 33.6332C63.3264 33.1747 63.0512 32.8567 62.8984 32.4736C62.6782 31.9213 62.6395 31.2976 62.5274 30.7025C62.4378 30.2236 62.3583 29.7406 62.2686 29.2616C62.2453 29.174 62.2139 29.0887 62.1749 29.0069C62.0689 28.7236 61.9446 28.4464 61.859 28.159C61.7734 27.8717 61.755 27.5884 61.6796 27.3092C61.5369 26.7813 61.3576 26.2616 61.2272 25.7317C61.1069 25.2507 61.056 24.7514 60.9296 24.2725C60.7645 23.6488 60.5403 23.0497 60.3692 22.4179C60.2509 21.9899 60.1776 21.5497 60.0859 21.1156C59.9819 20.8588 59.986 20.5653 59.8556 20.3513C59.5437 19.8357 59.6069 19.2569 59.4867 18.7208C59.4011 18.3295 59.3277 17.9342 59.2115 17.551C59.0709 17.0843 58.7795 16.6706 58.7856 16.1488C58.7856 15.8024 58.7958 15.3866 58.6205 15.1298C58.1518 14.4267 58.27 13.6013 58.0213 12.8554C57.7217 11.9566 57.6137 10.9987 57.3936 10.0734C57.2939 9.65256 57.1519 9.24286 56.9697 8.85059C56.9269 8.75684 56.6253 8.68959 56.4989 8.74462C55.8875 8.99937 55.3026 9.29896 54.7095 9.58429L52.221 10.7806C51.9235 10.9388 51.6181 11.0816 51.306 11.2086C50.4622 11.5143 49.594 11.7548 48.7645 12.0952C48.0431 12.3886 47.3623 12.7779 46.6674 13.1346C46.5838 13.1794 46.4636 13.2854 46.4636 13.3384C46.5215 13.8329 46.6051 14.324 46.7142 14.8098C46.8467 15.356 47.0261 15.89 47.1891 16.428C47.3236 16.8723 47.4907 17.3064 47.5967 17.7569C47.6945 18.1645 47.7047 18.5965 47.8005 19.0082C47.9921 19.8479 48.2081 20.6794 48.4221 21.517C48.5057 21.8533 48.5587 22.1957 48.6524 22.5361C48.7767 22.9763 48.9581 23.4022 49.06 23.8445C49.2801 24.784 49.4676 25.7297 49.6715 26.6713C49.702 26.8078 49.8426 26.9219 49.8753 27.0605C49.9792 27.5884 49.9119 28.2161 50.1789 28.6339C50.6762 29.4145 50.4316 30.3438 50.8596 31.1122C50.9555 31.3488 51.0239 31.5957 51.0634 31.8479C51.1531 31.9294 51.0899 32.066 51.1225 32.176C51.2509 32.6162 51.4384 33.0402 51.5465 33.4844C51.8257 34.638 52.0641 35.8037 52.3352 36.9593C52.5206 37.7501 52.7428 38.5327 52.9282 39.3234C52.9894 39.5823 52.9119 39.9349 53.0587 40.0979C53.4316 40.5055 53.3297 41.0395 53.5498 41.4838C53.7456 41.9468 53.9071 42.4237 54.0329 42.9104C54.0153 43.1281 54.0153 43.3469 54.0329 43.5646C54.0797 43.8214 54.1857 44.0701 54.253 44.3248C54.4344 45.0137 54.6056 45.7046 54.789 46.3914C54.9581 47.0232 55.1538 47.6468 55.3107 48.2807C55.4677 48.9145 55.4677 49.6502 55.7713 50.2107C56.1789 50.9546 56.1178 51.7596 56.344 52.5157C56.558 53.2311 56.6599 53.9851 56.9249 54.6801C57.2061 55.4179 57.4935 56.1353 57.4711 56.9423C57.4711 57.0381 57.5954 57.1462 57.6565 57.2236L57.4527 57.2623C57.6728 57.6883 57.8827 58.0572 57.9051 58.5524C57.9316 59.1251 58.1742 59.6856 58.3128 60.2542C58.4167 60.676 58.484 61.1081 58.6083 61.5239C58.6653 61.7093 58.8875 61.854 58.916 62.0354C58.9874 62.4818 58.9772 62.9383 59.024 63.3887C59.0831 63.9369 59.1667 64.4811 59.2401 65.0191L59.2564 64.9987C58.6837 64.6828 58.4738 64.1835 58.3678 63.5497C58.2557 62.8812 57.9704 62.2413 57.7788 61.583C57.5465 60.7678 57.3936 59.9383 57.092 59.1577C56.8882 58.6237 56.9187 58.0918 56.825 57.5619C56.8066 57.458 56.5519 57.407 56.5091 57.2929C56.4365 57.0591 56.3867 56.8189 56.3603 56.5755C56.3566 56.5385 56.3601 56.5011 56.3705 56.4654C56.4704 55.9335 56.0913 55.5198 56.0057 55.0286C55.914 54.4967 55.6715 53.9913 55.5166 53.4695C55.4473 53.2372 55.4391 52.9865 55.3902 52.7481C55.1599 51.6638 54.9643 50.5714 54.681 49.5014C54.4425 48.5986 54.0594 47.7345 53.825 46.8316C53.6803 46.2793 53.6925 45.6862 53.6334 45.1115C53.6334 45.0442 53.6334 44.9505 53.5825 44.9077C53.1993 44.5836 53.3277 44.1169 53.2217 43.7134C52.9874 42.8187 52.6735 41.9444 52.431 41.0517C52.3311 40.6889 52.3841 40.2854 52.2802 39.9247C51.9948 38.9056 51.6687 37.9172 51.3569 36.9145C51.3202 36.7963 51.3712 36.6556 51.3447 36.5334C51.0899 35.3615 50.8922 34.1713 50.5478 33.0238C50.2992 32.2086 50.0363 31.4077 49.9609 30.5354C49.9058 29.8955 49.5879 29.2779 49.4045 28.6461C49.2985 28.2874 49.2822 27.8921 49.1232 27.5619C48.7767 26.8343 49.1049 25.8968 48.3956 25.2915C48.3854 25.2915 48.3854 25.2569 48.3956 25.2406C48.6157 24.2215 47.8148 23.3839 47.8759 22.3873C47.8882 22.1692 47.6558 21.9471 47.5988 21.7127C47.4194 20.9688 47.289 20.2127 47.0994 19.4708C46.9568 18.9185 46.7224 18.3927 46.5777 17.8404C46.3392 16.9335 46.1701 16.0062 45.9174 15.1013C45.7757 14.6101 45.5902 14.1326 45.363 13.6746C45.3124 13.6037 45.2449 13.5464 45.1666 13.508C45.0884 13.4695 45.0018 13.4512 44.9147 13.4545C44.2176 13.6013 43.5329 13.8153 42.8358 13.9702C41.9004 14.174 40.9588 14.3574 40.0193 14.5429C39.4486 14.657 38.9248 15.0299 38.2971 14.873C38.2727 14.873 38.1402 15.0605 38.1646 15.1176C38.4174 15.729 38.6925 16.316 38.9595 16.9151C38.9765 16.9455 38.9843 16.9802 38.9819 17.015C38.8229 17.8302 39.3304 18.5374 39.3895 19.3261C39.4561 19.8444 39.5679 20.3559 39.7238 20.8547C39.7992 21.1522 39.9276 21.4355 40.005 21.7331C40.2985 22.9151 40.5757 24.1013 40.8691 25.2834C41.0403 25.9763 41.2441 26.6611 41.4113 27.356C41.5335 27.8615 41.5967 28.3751 41.7292 28.8846C41.8046 29.1638 42.0084 29.4104 42.0899 29.6896C42.1837 30.0177 42.1837 30.3724 42.2632 30.7086C42.3834 31.21 42.5587 31.7012 42.6708 32.2046C42.7829 32.708 42.8379 33.2052 42.9337 33.7025C43.0437 34.2752 43.0417 34.9253 43.3209 35.4002C43.7285 36.0809 43.592 36.8391 43.8651 37.53C44.1178 38.1658 44.1769 38.8771 44.3318 39.5537C44.6619 40.9987 44.988 42.4437 45.3386 43.8846C45.467 44.4084 45.6911 44.9036 45.8195 45.4315C45.9989 46.1754 46.1089 46.9355 46.2903 47.6733C46.4941 48.458 46.7326 49.2304 46.9486 50.0089C47.0628 50.4165 47.1667 50.8289 47.2604 51.246C47.4031 51.8798 47.5335 52.5178 47.6681 53.1536C47.8984 54.2216 48.1185 55.2895 48.3651 56.3534C48.6341 57.511 48.9398 58.6604 49.2129 59.818C49.4493 60.8371 49.6572 61.8561 49.8936 62.8588C49.9833 63.2419 50.1463 63.6108 50.2217 63.996C50.4153 64.9804 50.5784 65.9709 50.774 67.0755C50.5926 66.9573 50.4357 66.9125 50.4153 66.8309C50.0424 65.4573 49.6898 64.0755 49.3291 62.6978C49.1253 61.8826 48.9011 61.0837 48.6748 60.2786C48.3651 59.1699 48.0227 58.0694 47.7414 56.9546C47.6191 56.4675 47.3644 56.5796 47.1728 56.7997C46.9079 57.1034 46.4126 57.2073 46.3576 57.7066C46.3576 57.78 46.1986 57.8534 46.0988 57.8982C45.0797 58.3506 44.4113 59.229 43.5512 59.8731C42.8257 60.4152 42.202 61.0959 41.4398 61.5809C40.8097 61.9567 40.2303 62.4115 39.7156 62.9342C39.4466 63.2155 39.0166 63.3418 38.6803 63.5619C38.606 63.6306 38.5542 63.7201 38.5315 63.8187C38.1567 64.0022 37.797 64.2149 37.4554 64.4546C36.9663 64.8622 36.5791 65.4043 36.0512 65.7304C35.6436 65.9811 35.0954 66.1951 34.7265 65.9342C34.2068 66.0585 33.8053 66.2297 33.3997 66.2399C32.56 66.2603 31.7204 66.2053 30.8827 66.1563C30.7197 66.1462 30.5362 65.9261 30.414 65.9648C29.5641 66.2277 28.8671 65.6244 28.0682 65.5816C27.6137 65.5572 27.1551 65.3228 26.7333 65.1108C26.6089 65.0477 26.503 64.6197 26.5641 64.5687C27.0838 64.1387 26.8168 63.5782 26.8352 63.085C26.8678 62.2066 26.8453 61.3241 26.8229 60.4457C26.8229 60.0646 26.7149 59.6876 26.7129 59.3065C26.7027 58.051 26.7129 56.7976 26.7251 55.5422C26.7251 54.5966 26.7251 53.6529 26.7251 52.7093C26.7251 51.3703 26.8127 50.0211 26.6782 48.6944C26.5824 47.7365 26.6578 46.799 26.6517 45.8411C26.6297 45.5124 26.5813 45.1859 26.507 44.8649C26.5784 44.3635 26.7598 43.9172 26.6701 43.5361C26.4887 42.7759 26.611 42.0361 26.6252 41.2942C26.6436 40.3934 26.6252 39.4906 26.6252 38.5877C26.615 37.962 26.5723 37.3364 26.5519 36.7107C26.5335 36.1339 26.5131 35.5551 26.5172 34.9783C26.5172 34.3486 26.5763 33.7188 26.5682 33.0891C26.5559 32.07 26.503 31.051 26.4826 30.032C26.4683 29.3778 26.4968 28.7236 26.4826 28.0694C26.4602 27.1074 26.3786 26.1454 26.3827 25.1855C26.3827 23.7263 26.4724 22.2691 26.4805 20.8098C26.4805 19.6522 26.4112 18.4967 26.4031 17.3452C26.4031 16.5299 26.452 15.7147 26.4683 14.9138C26.4785 14.4491 26.4683 13.9844 26.4683 13.5218C26.454 12.8859 26.4235 12.248 26.4072 11.6121C26.3888 10.9314 26.3684 10.2507 26.3664 9.5741C26.3664 9.20929 26.3949 8.84652 26.4174 8.33497C25.9996 8.62233 25.7265 8.77315 25.7591 9.24598C25.8039 9.94502 25.7591 10.6482 25.7591 11.3492C25.7591 12.1094 25.7978 12.8676 25.8059 13.6257C25.8059 14.6774 25.8059 15.731 25.8182 16.7806C25.8386 17.7874 25.9017 18.7942 25.9323 19.801C25.9527 20.4776 25.9669 21.1543 25.9568 21.8391C25.9364 23.013 25.8732 24.1869 25.8691 25.3588C25.8691 27.0544 25.8202 28.7521 25.9364 30.4396C25.9996 31.3486 25.8365 32.227 25.863 33.1156C25.8936 34.1794 26.0138 35.2392 26.0668 36.301C26.0913 36.8289 26.0301 37.3608 26.0261 37.8887C26.0261 38.8893 26.0261 39.888 26.0261 40.8887C26.0261 41.6326 26.0444 42.3785 26.0546 43.1305C26.0648 43.8235 26.0913 44.5143 26.079 45.2052C26.079 45.7168 25.9853 46.2243 25.9914 46.7358C25.9914 47.3228 26.0913 47.9077 26.1076 48.4967C26.128 49.1856 26.0974 49.8744 26.1076 50.5653C26.1178 51.2562 26.1422 51.9451 26.132 52.6339C26.132 53.0843 26.0199 53.5368 26.0403 53.9831C26.0668 54.5008 26.2013 55.0123 26.2441 55.53C26.2604 55.7195 26.1239 55.9192 26.1239 56.1129C26.1239 57.6862 26.1239 59.2596 26.1239 60.8309C26.1239 61.6992 26.1239 62.5653 26.1239 63.4335L25.971 63.4804C25.8895 63.3503 25.8315 63.2068 25.7998 63.0565C25.7856 62.6 25.8304 62.1434 25.8161 61.689C25.7978 61.1183 25.7346 60.5517 25.7102 59.9811C25.6694 59.0313 25.6164 58.0816 25.6246 57.1278C25.6246 56.3126 25.7448 55.4811 25.7509 54.6577C25.7509 53.6631 25.6959 52.6686 25.6816 51.674C25.6674 50.6794 25.6959 49.7419 25.6694 48.7759C25.6409 47.7732 25.5675 46.7705 25.5165 45.7677C25.4819 45.087 25.4228 44.4063 25.4269 43.7297C25.4269 42.7861 25.4941 41.8425 25.5104 40.8989C25.5203 40.4729 25.5026 40.0467 25.4574 39.623C25.3745 38.6224 25.3814 37.6163 25.4778 36.6169C25.5145 36.0952 25.49 35.5673 25.4778 35.0436C25.4636 34.155 25.4371 33.2664 25.4208 32.3778C25.4085 31.8234 25.4208 31.2711 25.3861 30.7188C25.3861 30.6434 25.1619 30.4987 25.1395 30.515C24.6443 30.8859 24.039 30.7535 23.4968 30.8859C22.9547 31.0184 22.327 30.78 21.7584 31.1203C21.522 31.2609 21.1347 31.1652 20.8168 31.1468C20.3073 31.1203 19.7224 30.8961 19.3087 31.0755C18.8949 31.2548 18.7563 30.9084 18.4669 30.9287C17.8861 30.9675 17.3012 30.9634 16.7183 30.9532C16.0539 30.941 15.3915 30.8961 14.7292 30.8758C14.2708 30.835 13.8098 30.835 13.3515 30.8758C13.2047 30.8982 13.0091 31.2263 13.0009 31.4219C12.9744 32.0456 13.0193 32.6733 13.0457 33.299C13.0457 33.5293 13.1089 33.7555 13.1191 33.9838C13.1354 34.422 13.1375 34.8581 13.1436 35.2963C13.164 36.5884 13.1925 37.8805 13.2006 39.1686C13.2006 40.0347 13.0254 40.9355 13.2129 41.7548C13.4004 42.5741 13.2129 43.4179 13.3943 44.2413C13.4452 44.4777 13.5288 44.8995 13.2699 45.1951C13.2394 45.2317 13.382 45.4192 13.382 45.4192C13.3637 46.0307 13.3331 46.5381 13.3392 47.0497C13.3555 48.3927 13.3881 49.7358 13.4126 51.0789C13.4248 51.7616 13.3943 52.4485 13.4595 53.1169C13.5269 53.6645 13.5555 54.2162 13.5451 54.7678C13.5145 55.4138 13.7754 56.1047 13.6327 56.71C13.4289 57.566 13.649 58.3955 13.5512 59.2372C13.4758 59.8996 13.5756 60.5823 13.5899 61.2549C13.6188 61.5939 13.6188 61.9348 13.5899 62.2739C13.5084 62.8303 13.918 62.9444 14.2665 63.1665C15.3548 63.8615 16.6612 63.5742 17.8087 63.9818C18.6993 63.5966 19.5655 64.1856 20.5172 63.9818C21.5362 63.7637 22.6837 64.0938 23.7781 64.1265C24.262 64.1095 24.7434 64.0502 25.2169 63.9492C25.4371 63.9165 25.6551 63.8656 25.8997 63.8187C25.9934 64.3731 25.7346 64.532 25.3515 64.5545C24.6504 64.5952 23.9493 64.6013 23.2502 64.6523C22.6816 64.6951 22.1171 64.8337 21.5485 64.8398C20.8046 64.85 20.0607 64.7705 19.3066 64.7338C19.0172 64.7195 18.7074 64.7827 18.4445 64.6951C17.2726 64.3058 16.0213 64.4913 14.825 64.0735C14.1544 63.8158 13.5291 63.4533 12.9724 62.9994C12.9345 62.9544 12.909 62.9003 12.8983 62.8424C12.8875 62.7845 12.892 62.7249 12.9112 62.6693C13.1497 62.2861 13.0029 61.9519 12.8277 61.6115C12.8053 61.5646 12.7421 61.5096 12.7543 61.4831C13.0906 60.6842 12.7197 59.8527 12.8644 59.0375C12.9948 58.3078 12.8012 57.5252 12.7849 56.765C12.7625 55.7929 12.7747 54.8187 12.7706 53.8445C12.7643 53.7551 12.75 53.6664 12.7278 53.5796C12.6341 53.1536 12.5383 52.7419 12.7278 52.2976C12.8827 51.9695 12.6381 51.7657 12.1837 51.5619C12.2998 52.3139 12.4527 52.96 12.4873 53.6142C12.5179 54.2256 12.3915 54.8371 12.3956 55.4485C12.3956 56.3167 12.4792 57.1849 12.4853 58.051C12.4853 58.6095 12.4058 59.1699 12.3773 59.7284C12.3271 60.3799 12.3114 61.0337 12.3304 61.6869C12.3569 62.1332 12.0532 62.2046 11.7923 62.3513C10.8915 62.8527 9.92142 63.0972 8.91055 63.3153C8.25542 63.4657 7.58035 63.5098 6.91123 63.4458C6.89302 63.4427 6.87442 63.4427 6.8562 63.4458C6.04099 63.8106 5.24615 63.3031 4.47169 63.3744C3.73188 63.4417 3.1918 63.0524 2.60077 62.8527C2.05049 62.6672 1.35756 62.4145 1.12114 61.7114C1.08038 61.5932 1.0009 61.3894 1.04166 61.3568C1.65307 60.8799 1.20063 60.2419 1.26585 59.6957C1.35552 58.9743 1.20267 58.2243 1.18025 57.4845C1.14153 56.28 1.11911 55.0755 1.09465 53.871C1.06408 52.2936 1.05185 50.7161 1.00294 49.1387C0.974405 48.2093 0.872503 47.28 0.84397 46.3486C0.827666 45.8595 0.91734 45.3703 0.929568 44.8792C0.929568 44.5307 0.888807 44.1801 0.876579 43.8296C0.848047 43.102 0.831742 42.3724 0.805248 41.6448C0.793019 41.2922 0.778753 40.9396 0.748182 40.587C0.670737 39.6414 0.852123 38.6937 0.654432 37.7338C0.554568 37.2528 0.713536 36.7148 0.721688 36.2134C0.710575 36.0564 0.674097 35.9022 0.613671 35.7569C0.613671 35.0762 0.613671 34.5116 0.613671 33.9471C0.613671 33.4641 0.613671 32.9811 0.613671 32.498C0.613671 32.1556 0.589215 31.8153 0.591253 31.479C0.598707 31.2954 0.616398 31.1124 0.644242 30.9308C0.654432 30.8615 0.71965 30.7555 0.695193 30.727C0.322231 30.354 0.623862 29.8955 0.550492 29.4817C0.471008 29.0252 0.634052 28.5279 0.64628 28.0551C0.64628 27.8757 0.481198 27.6923 0.475084 27.5069C0.450628 26.8486 0.475084 26.1862 0.460818 25.5259C0.444514 24.3031 0.401715 23.068 0.401715 21.837C0.401715 20.7202 0.462856 19.5952 0.460818 18.4824C0.460818 18.0259 0.326307 17.5694 0.322231 17.1128C0.322231 16.318 0.387448 15.5252 0.381334 14.7324C0.381334 14.1454 0.283508 13.5585 0.267204 12.9715C0.250899 12.3846 0.305927 11.7691 0.289622 11.1699C0.273318 10.5707 0.206062 9.98579 0.16734 9.39679C0.144921 8.96676 0.140845 8.52043 0.161225 8.08429C0.181606 7.64815 0.413943 7.10603 0.242747 6.77179C-0.0690737 6.16037 0.171416 5.57749 0.0756275 4.99461C0.0165891 4.62815 -0.00797488 4.25696 0.00225792 3.88592C0.00225792 3.44977 0.379296 3.39067 0.676851 3.43958C1.27604 3.53945 1.77536 3.3173 2.28487 3.08293C2.34926 3.05004 2.41782 3.02604 2.48867 3.0116C3.30389 2.8832 4.11911 2.76499 4.95063 2.63252C5.56204 2.53265 6.17346 2.41649 6.78487 2.30847L7.27808 2.22491C7.85077 2.13524 8.4255 2.05168 8.99615 1.95385C9.80118 1.8173 10.6042 1.66852 11.4072 1.52994C12.3365 1.36893 13.2822 1.29964 14.1565 1.01839C14.5478 0.88999 14.9432 1.05915 15.3121 0.843115C15.3895 0.798278 15.6687 1.09379 15.9235 1.27926C15.0104 1.59515 15.5159 2.39203 15.1307 2.9851C15.7645 2.86893 16.3087 2.82817 16.81 2.66309C17.4964 2.41489 18.2057 2.23534 18.9275 2.12708C19.4554 2.06187 19.9649 1.86214 20.4887 1.74597C20.7679 1.68483 21.0655 1.69909 21.3467 1.63999C21.9826 1.50344 22.6144 1.33836 23.2482 1.19366C24.1083 0.989854 24.9683 0.804392 25.8304 0.620968C26.4418 0.490533 27.0532 0.349908 27.6646 0.270424C27.8684 0.24393 28.2312 0.345832 28.2761 0.474229C28.3075 0.545235 28.3228 0.622297 28.321 0.699921C28.3193 0.777544 28.3004 0.853817 28.2657 0.923303C28.2311 0.992788 28.1815 1.05378 28.1206 1.10192C28.0597 1.15006 27.9889 1.18417 27.9133 1.20181C27.8114 1.15697 27.6973 1.05507 27.6096 1.07545C27.2917 1.14882 26.9982 1.29352 26.6701 1.35466C26.0261 1.48102 25.3759 1.57885 24.7278 1.67056C24.0797 1.76227 23.4683 2.07817 22.7835 2.14339C21.9907 2.2188 21.2163 2.48986 20.4357 2.68143C20.1524 2.75073 19.8773 2.85874 19.5899 2.8995C18.897 2.99733 18.1898 3.02179 17.505 3.16037C16.6592 3.32953 15.8399 3.63116 14.9921 3.78605C14.0444 3.95929 13.0743 4.01839 12.1184 4.1529C11.8148 4.1957 11.4724 4.18551 11.507 4.71744C11.5559 5.33904 11.45 5.9688 11.4296 6.59652C11.4153 7.05915 11.4092 7.52179 11.4296 7.98239C11.4715 8.21733 11.535 8.44792 11.6191 8.67125C11.5682 9.12369 11.5131 9.5741 11.4642 10.0265C11.4337 10.3139 11.5519 10.4015 11.8148 10.2772C11.4214 10.481 11.4805 10.8418 11.4907 11.176C11.4907 11.2779 11.6191 11.3798 11.6945 11.4776C11.772 11.3757 11.9167 11.2738 11.9167 11.174C11.9015 10.8733 11.8682 10.5738 11.8168 10.2772C11.7495 9.7453 11.6803 9.2154 11.613 8.68347C11.6521 8.55561 11.704 8.43201 11.7679 8.31459C11.8413 8.20657 11.9432 8.07206 12.0553 8.04353C12.416 7.95182 12.791 7.91921 13.1538 7.83972C13.702 7.71744 14.2502 7.59108 14.7842 7.43212C16.0539 7.07342 17.3256 6.68619 18.6076 6.3173C19.4004 6.09312 20.2217 5.95861 20.988 5.67328C21.7548 5.40054 22.5419 5.18861 23.3419 5.03945C23.6334 4.98035 23.9065 4.65834 24.1755 4.67464C25.058 4.72355 25.7428 4.3241 26.4377 3.8798C26.5743 3.79217 26.7842 3.82477 26.9574 3.78809C27.1307 3.75141 27.4771 3.72695 27.4934 3.64543C27.6606 2.83225 27.7747 2.0048 27.9051 1.17939ZM11.88 20.7161C11.8066 20.818 11.6762 20.9199 11.666 21.0198C11.6486 21.2912 11.6486 21.5635 11.666 21.835L12.0573 21.5598C11.7862 21.3275 12.4201 20.8954 11.8739 20.7222C12.1633 20.2066 11.827 19.6726 12.0125 19.1529L11.8229 19.0999C11.7129 19.3241 11.6008 19.5463 11.4663 19.8153L11.8066 19.7929C11.5152 20.3941 11.5152 20.3941 11.88 20.7161ZM12.3793 49.5789C12.3161 49.6339 12.1979 49.691 12.2 49.744C12.2 50.2209 12.2346 50.6978 12.2774 51.1706C12.3081 51.2882 12.3584 51.3999 12.4262 51.5008L12.5648 51.4539C12.6239 50.816 12.8521 50.1638 12.361 49.5646L12.6952 49.8194C12.5933 49.3914 12.5322 49.1244 12.4669 48.8452C12.4894 48.8269 12.5872 48.7779 12.6096 48.7086C12.625 48.5971 12.625 48.4839 12.6096 48.3724C12.2142 48.4172 12.1184 48.8493 12.3793 49.5789ZM12.2468 45.4478C12.2672 46.316 12.2869 47.1835 12.3059 48.0504H12.4568C12.5532 47.9022 12.6223 47.7379 12.6606 47.5653C12.681 47.0125 12.6646 46.459 12.6116 45.9084C12.5933 45.7372 12.3671 45.5884 12.2387 45.4294C12.2998 45.4294 12.4038 45.46 12.416 45.4294C12.6035 45.0809 12.4608 44.2535 12.0879 43.8296C12.147 44.4288 12.1979 44.9423 12.2468 45.4478ZM24.6178 6.81663C24.4954 6.78925 24.3695 6.78169 24.2448 6.79421C23.1578 7.12165 22.0709 7.46133 20.9839 7.81323C20.8287 7.8861 20.6835 7.97856 20.5519 8.08837L20.6477 8.27383C21.0736 8.19842 21.5261 7.99869 21.9194 8.07002C22.1183 8.1265 22.3288 8.12709 22.528 8.07172C22.7272 8.01635 22.9073 7.90717 23.0485 7.75616C23.1555 7.68688 23.2743 7.63784 23.399 7.61146L24.7808 7.08361L24.7156 6.93687L26.4968 6.22152C26.0362 5.94434 25.1843 6.27043 24.6178 6.81459V6.81663ZM44.9187 12.3397C44.6989 12.3336 44.4791 12.3548 44.2645 12.4029C43.6409 12.6291 43.111 13.0877 42.3936 13.0958C42.329 13.0934 42.2646 13.1049 42.2049 13.1296C42.1451 13.1544 42.0914 13.1917 42.0475 13.2391C42.0035 13.2866 41.9704 13.343 41.9503 13.4044C41.9301 13.4659 41.9236 13.5309 41.931 13.5952L43.8365 13.265C43.8365 12.9471 44.1667 13.0408 44.4479 13.0204C44.7292 13.0001 45.1592 13.0714 45.1266 12.5456C45.3609 12.6475 45.6156 12.6934 45.8707 12.6796C46.1258 12.6658 46.3742 12.5927 46.596 12.4661C47.1871 12.142 47.8189 11.8995 48.4425 11.6223L50.7985 10.5748C50.719 10.5238 50.6558 10.4484 50.5947 10.4545C50.0016 10.5238 49.382 10.5198 48.8318 10.7174C48.5179 10.8295 47.8678 10.7317 48.0166 11.5204C47.5417 11.2086 47.132 11.0761 46.755 11.5021C46.7346 11.5245 46.645 11.4736 46.6001 11.5021C46.0132 11.7181 45.3651 11.82 44.9187 12.3377V12.3397ZM39.2468 2.1495L39.0288 1.58904L31.272 3.54556C31.5205 3.63364 31.7828 3.67644 32.0464 3.67192C32.5967 3.67192 33.1694 3.55371 33.6932 3.67192C34.1599 3.77179 34.5084 3.65969 34.9303 3.52926C35.4744 3.35399 36.0471 3.26227 36.6055 3.13592L35.3827 3.74733C35.4174 3.7616 35.503 3.82885 35.5865 3.8207C36.1091 3.77574 36.6288 3.70295 37.1436 3.60263C37.755 3.46404 38.3318 3.2317 38.935 3.08089C39.9765 2.8241 41.0301 2.61418 42.0716 2.35331C43.113 2.09244 44.1096 1.72355 45.1531 1.53809C45.9846 1.3995 46.7835 1.2385 47.5315 0.745289C47.4248 0.693682 47.3106 0.659289 47.1932 0.643386C46.4839 0.708604 45.7788 0.80643 45.0695 0.847191C44.8189 0.831315 44.5711 0.784773 44.3318 0.708604C43.2781 0.406973 42.3936 0.961321 41.4377 1.22219C41.1137 1.3139 40.7937 1.426 40.4717 1.53401L40.4432 1.426L40.8671 1.19977L40.8182 1.09991L39.1653 1.59515L39.202 1.72559L39.6218 1.86418L39.2468 2.1495ZM0.801172 4.051C0.82359 4.51771 0.854161 4.87641 0.854161 5.2351C0.854161 5.70181 0.807286 6.16853 0.829704 6.6332C0.84397 6.96336 0.988672 7.28945 0.986634 7.61554C0.986634 8.35739 0.894922 9.0972 0.898998 9.83905C0.898998 11.0333 0.964215 12.2297 0.984596 13.426C0.984596 13.9233 0.949949 14.4226 0.954025 14.9219C0.954025 15.5884 0.980519 16.2548 0.998862 16.9213C1.0172 17.5877 1.03758 18.2174 1.05389 18.8635C1.07427 19.7011 1.10484 20.5367 1.1028 21.3744C1.1028 21.782 1.00498 22.1896 1.01517 22.5972C1.03758 23.4858 1.11299 24.3744 1.14153 25.263C1.17821 26.4247 1.15987 27.5863 1.22508 28.746C1.27807 29.6896 1.23731 30.6312 1.33718 31.5809C1.42278 32.3798 1.26992 33.2236 1.33718 34.0571C1.3708 34.6919 1.3708 35.328 1.33718 35.9627C1.33718 36.5741 1.19859 37.1855 1.32495 37.7684C1.3899 38.2061 1.41378 38.649 1.39628 39.0911C1.41462 39.5884 1.42685 40.0857 1.44112 40.5809C1.46557 41.496 1.50226 42.4152 1.5043 43.3262C1.5043 44.015 1.39017 44.712 1.45538 45.3948C1.58378 46.7521 1.39832 48.1095 1.57563 49.4709C1.70403 50.441 1.54098 51.4478 1.54913 52.4362C1.55932 53.8629 1.62454 55.2895 1.63269 56.7161C1.64085 58.1428 1.61435 59.5082 1.59193 60.9023C1.58027 61.1674 1.6596 61.4286 1.81677 61.6425C1.97394 61.8564 2.19951 62.0101 2.45606 62.0782C3.47509 62.388 4.49411 62.6652 5.57631 62.6733C6.43637 62.6733 7.31069 62.8038 8.15444 62.6896C9.13265 62.5282 10.0958 62.2862 11.0342 61.9661C11.4385 61.8448 11.8094 61.6321 12.1184 61.3445C12.2509 61.2161 12.1449 60.833 12.1347 60.566C12.096 59.496 12.0532 58.426 12.0145 57.3561C11.9574 55.7766 11.9106 54.1951 11.8453 52.6135C11.7842 51.1584 11.6823 49.7012 11.6415 48.246C11.5967 46.6584 11.5987 45.0728 11.5885 43.4851C11.5885 42.4192 11.6028 41.3533 11.5885 40.2874C11.5885 39.7168 11.505 39.1461 11.4683 38.5755C11.4316 38.0048 11.3888 37.4566 11.3827 36.8941C11.3827 36.6067 11.4866 36.3173 11.4805 36.0279C11.4561 34.7908 11.401 33.5558 11.3705 32.3187C11.3481 31.4118 11.3562 30.5048 11.3379 29.5979C11.3195 28.6074 11.2788 27.6169 11.2645 26.6264C11.2645 26.2188 11.3705 25.7786 11.2971 25.3771C11.146 24.7089 11.087 24.0232 11.1218 23.3391C11.187 22.5911 11.1015 21.8289 11.0892 21.0728C11.0892 20.7956 11.1055 20.5164 11.0892 20.2372C11.0525 18.7473 11.0077 17.2575 10.9731 15.7677C10.9731 15.6312 11.0199 15.4946 11.0138 15.3601C10.9567 14.3289 10.8752 13.2956 10.8365 12.2623C10.8039 11.3941 10.8365 10.5218 10.808 9.65155C10.7672 8.52451 10.6877 7.39747 10.6266 6.26839C10.6001 5.79556 10.5532 5.3207 10.5614 4.84176C10.5614 4.3995 10.5471 4.34244 10.1538 4.34855C9.72577 4.34855 9.29778 4.36486 8.86979 4.34855C7.74683 4.32002 6.61775 4.27926 5.48664 4.23035C4.96082 4.20997 4.43501 4.212 3.91123 4.18958C2.85552 4.14679 1.79981 4.09583 0.801172 4.051ZM27.0756 4.41785C27.0593 5.28605 27.0369 6.0972 27.0349 6.9063C27.0349 7.265 27.1083 7.62369 27.1001 7.98035C27.0838 8.59176 26.9819 9.21744 27.0023 9.83293C27.0349 10.7806 27.1388 11.7263 27.2061 12.674C27.2061 12.7188 27.1592 12.7657 27.1531 12.8146C27.0524 13.4037 26.9897 13.9987 26.9656 14.5958C26.9656 15.3092 27.1348 16.0123 27.0675 16.7439C26.9941 17.5592 27.0675 18.3988 27.0675 19.2263C27.0675 19.8051 27.0288 20.3839 27.043 20.9627C27.0655 21.8289 27.1429 22.695 27.1511 23.5612C27.1511 24.837 27.1164 26.1128 27.1144 27.3887C27.1144 28.4077 27.1368 29.4124 27.1633 30.4233C27.1796 31.0347 27.2448 31.6461 27.2448 32.2575C27.2448 32.6142 27.1103 32.9709 27.1205 33.3234C27.1347 33.8024 27.2754 34.2793 27.2815 34.7501C27.2937 35.7956 27.2652 36.8411 27.2367 37.8866C27.2265 38.2718 27.1164 38.6611 27.149 39.0422C27.2787 40.2083 27.2965 41.3842 27.202 42.5537C27.207 42.6912 27.2261 42.8278 27.2591 42.9614C27.3328 43.4529 27.3783 43.9483 27.3956 44.4451C27.3956 45.085 27.2733 45.7209 27.2591 46.3608C27.2428 47.0843 27.3019 47.8099 27.2998 48.5334C27.2998 49.4546 27.2468 50.3676 27.253 51.297C27.253 52.3608 27.3691 53.4267 27.3202 54.4845C27.2794 55.24 27.2794 55.9972 27.3202 56.7528C27.3834 57.7229 27.3019 58.7053 27.2815 59.6815C27.2564 59.9947 27.2476 60.309 27.255 60.6231C27.2937 61.0653 27.4282 61.5015 27.4384 61.9417C27.4445 62.5508 27.4159 63.1598 27.3528 63.7657C27.2948 64.0329 27.2087 64.2932 27.096 64.5422C27.4763 64.7097 27.8696 64.846 28.272 64.9498C28.7941 65.0261 29.32 65.0737 29.8474 65.0925C30.8134 65.1761 31.7795 65.2963 32.7475 65.3289C33.5414 65.3583 34.3362 65.3139 35.1218 65.1964C35.612 65.0972 36.0767 64.8989 36.4873 64.6136C36.5892 64.5483 36.4384 64.0938 36.4058 63.8167C36.4038 63.78 36.4038 63.7433 36.4058 63.7066C36.4058 62.7773 36.4058 61.8479 36.3895 60.9206C36.3895 60.4845 36.2998 60.0504 36.2998 59.6142C36.2998 58.7216 36.3365 57.8289 36.3345 56.9362C36.3345 55.85 36.2081 54.7535 36.3345 53.6754C36.4079 53.0211 36.0451 52.3506 36.4405 51.729C36.0757 50.7467 36.255 49.7277 36.2367 48.7086C36.2224 47.8934 36.4649 47.0517 36.2958 46.2874C36.1348 45.5578 36.2224 44.871 36.2041 44.1658C36.1857 43.4118 36.204 42.6577 36.1857 41.9016C36.1633 40.9478 36.1205 39.994 36.0899 39.0483C36.0757 38.6203 36.0716 38.1923 36.0553 37.7623C36.0553 37.5483 36.0186 37.3364 35.9921 37.0449C36.0692 36.8352 36.1206 36.6169 36.1449 36.3948C36.1449 35.9607 36.0593 35.5245 36.0573 35.0884C36.0573 34.4525 36.1042 33.8146 36.1042 33.1787C36.1042 32.4532 36.0655 31.7297 36.0614 31.0041C36.0614 30.4111 36.096 29.82 36.0797 29.229C36.0655 28.7154 35.988 28.21 35.9636 27.6923C35.9371 27.0993 35.933 26.5041 35.931 25.9111C35.931 25.265 35.931 24.6189 35.9432 23.9729C35.9432 23.4287 35.986 22.8825 35.9738 22.3425C35.9738 22.0958 35.827 21.8492 35.8311 21.6026C35.8474 20.9627 35.9717 20.3187 35.935 19.6828C35.8943 18.9389 36.092 18.1991 35.7883 17.4267C35.6436 17.0619 35.935 16.5238 35.8127 15.9858C35.668 15.356 35.8127 14.6529 35.8943 13.9865C35.9656 13.3526 35.7679 12.7412 35.878 12.087C35.9982 11.3594 35.878 10.589 35.8392 9.84516C35.825 9.58021 35.5641 9.20929 35.664 9.08089C36.0553 8.58361 35.7353 8.0741 35.7903 7.58089C35.8168 7.33225 35.7068 7.0673 35.6354 6.68415C35.7475 6.03402 35.8882 5.22899 36.043 4.30372C33.1062 4.5544 30.1184 3.87165 27.0756 4.41785ZM51.2041 6.95929C51.1388 4.85603 51.0777 2.8567 51.0166 0.845153L36.4282 4.30168C36.5811 5.2351 36.7747 6.04828 36.8358 6.86961C36.8766 7.5279 36.7156 8.19638 36.7013 8.86078C36.7013 9.25617 36.7971 9.64747 36.7767 10.0571C36.7238 11.1454 36.7197 12.2358 36.7197 13.318C36.7197 13.9742 36.7727 14.6305 36.7951 15.2867C36.8093 15.7066 36.8155 16.1244 36.8195 16.5442C36.8195 16.748 36.8195 16.9518 36.8012 17.1434C36.7686 17.6937 36.7339 18.2439 36.6932 18.8839C36.7463 19.1392 36.7803 19.398 36.7951 19.6583C36.7951 20.1719 36.7523 20.6876 36.7584 21.2011C36.7584 21.3723 36.9194 21.5456 36.9153 21.7147C36.9153 22.1223 36.8073 22.5463 36.8093 22.96C36.8093 24.1482 36.8664 25.3363 36.8807 26.5266C36.8909 27.138 36.8542 27.7351 36.8562 28.3384C36.8562 28.852 36.8888 29.3574 36.9113 29.8791C36.9337 30.4009 37.1151 30.9613 36.9377 31.3955C36.7339 31.9131 36.9153 32.3635 36.8786 32.8404C36.8685 32.9749 36.9968 33.1176 36.9907 33.248C36.9724 33.8921 36.8929 34.5381 36.9011 35.1821C36.9113 36.1054 37.0009 37.0286 37.0172 37.9518C37.0295 38.7426 36.9846 39.5354 36.9663 40.3282C36.9663 40.6115 36.8807 40.9152 36.9663 41.172C37.1375 41.7406 37.0132 42.297 36.9989 42.8595C36.9846 43.3588 36.9174 43.8622 36.9357 44.3615C36.9683 45.2766 37.058 46.1957 37.1028 47.1047C37.1273 47.5755 37.0926 48.0483 37.1151 48.5191C37.1375 48.9899 37.2353 49.4668 37.2333 49.9457C37.2333 50.4675 37.1599 50.9913 37.1069 51.513C37.0702 51.8574 37.0091 52.1978 36.9602 52.5422L37.0356 52.5259L37.1579 54.7678C37.1721 55.0062 37.2007 55.2467 37.1945 55.4851C37.1945 55.9111 37.1273 56.3391 37.1334 56.765C37.1334 57.6475 37.1905 58.532 37.2088 59.4145C37.2251 60.2644 37.219 61.1142 37.2292 61.9621C37.2292 62.119 37.2761 62.2759 37.2781 62.4328C37.2781 62.8955 37.2781 63.3581 37.2781 63.9267C37.8345 63.4458 38.2971 63.083 38.7047 62.6815C38.9085 62.4777 39.0451 62.2413 39.3161 62.0701C39.9124 61.6833 40.486 61.2628 41.0342 60.8106C41.3827 60.5395 41.6782 60.0585 42.0532 59.9953C42.52 59.9118 42.5689 59.496 42.9072 59.3146C43.6702 58.9109 44.3648 58.3896 44.9656 57.7698C45.3508 57.3622 45.8032 57.1278 46.2251 56.8119C46.647 56.496 47.1056 56.1618 47.5743 55.8173C47.5636 55.6329 47.5384 55.4496 47.4989 55.2691C47.3623 54.7902 47.1198 54.3255 47.075 53.8425C47.0159 53.2413 46.7163 52.7236 46.645 52.1122C46.5502 51.5725 46.4284 51.0378 46.2801 50.5103C46.1375 49.8764 45.7686 49.3221 45.7462 48.6312C45.7299 48.0932 45.4955 47.5633 45.3589 47.0293C45.3223 46.8887 45.3365 46.6869 45.2469 46.6217C44.7883 46.2569 45.2469 45.6638 44.88 45.2786C44.7866 45.1606 44.7261 45.02 44.7047 44.871C44.6558 44.6224 44.666 44.3615 44.6049 44.119C44.2482 42.7229 43.8712 41.335 43.5206 39.9389C43.4656 39.7351 43.5695 39.4702 43.4982 39.2705C43.113 38.1842 42.738 37.1081 42.6239 35.9383C42.5566 35.2535 42.2591 34.5789 41.986 33.9328C41.8189 33.5415 42.2265 32.9627 41.5886 32.7406C41.8494 32.1679 41.3705 31.6991 41.3644 31.157C41.3231 30.9046 41.2456 30.6596 41.1341 30.4294C41.089 30.2294 41.0304 30.0326 40.9588 29.8404C40.8263 29.229 40.8182 28.5748 40.5797 28.0062C40.3413 27.4376 40.5145 26.7834 39.9805 26.3554C39.9622 26.3431 39.9683 26.28 39.9805 26.2494C40.2007 25.7704 39.9439 25.3526 39.8236 24.9104C39.6789 24.3744 39.5994 23.8221 39.4568 23.28C39.3977 23.0578 39.1939 22.8723 39.1531 22.6482C39.0288 21.9675 38.9269 21.2786 38.8678 20.5897C38.8189 20.015 38.183 19.5707 38.4969 18.9267C38.4969 18.9063 38.4622 18.8635 38.4479 18.8309C38.3175 18.4987 38.1626 18.1726 38.0648 17.8323C37.9282 17.3533 37.7367 16.8601 37.753 16.3771C37.7672 15.945 37.1252 15.3581 37.9425 15.0931L37.806 14.5449C38.4765 14.2514 39.1123 13.9681 39.7502 13.695C40.5797 13.3404 41.4113 12.9919 42.2428 12.6434C42.6993 12.4539 43.164 12.2806 43.6164 12.0809C43.9507 11.9321 44.2604 11.7263 44.5967 11.5918C45.0614 11.4063 45.5546 11.2942 46.0111 11.0945C46.7346 10.7765 47.4378 10.4036 48.1531 10.0755C48.3582 9.97818 48.5823 9.92738 48.8094 9.92668C49.1253 9.92668 49.4412 10.0755 49.7509 10.0551C50.173 10.002 50.5916 9.92374 51.0043 9.8207C51.1878 9.78606 51.3753 9.77383 51.4833 9.75956C51.443 8.82162 51.3498 7.88671 51.2041 6.95929ZM12.6239 8.76296C12.5356 9.35159 12.4839 9.94511 12.469 10.5401C12.5036 11.6896 12.6239 12.835 12.687 13.9844C12.7176 14.5755 12.7013 15.1685 12.7034 15.7616C12.7034 15.9043 12.7034 16.049 12.6891 16.1937C12.6646 16.7256 12.6402 17.2555 12.6178 17.7874C12.6096 17.8769 12.6096 17.967 12.6178 18.0564C12.7295 18.5427 12.8044 19.0366 12.8419 19.534C12.8419 19.9192 12.74 20.2861 12.8114 20.6957C12.897 21.191 12.7625 21.7147 12.8236 22.2222C12.8501 22.4566 13.0804 22.8132 13.272 22.8499C13.755 22.9437 14.2665 22.8785 14.7679 22.8968C14.9839 22.8968 15.2448 23.0558 15.4099 22.9783C16.274 22.5707 17.1728 22.7745 18.0593 22.7745C18.1082 22.7745 18.1572 22.9253 18.1775 22.9579C18.3813 22.8295 18.5525 22.6441 18.7319 22.6319C19.1538 22.6033 19.5797 22.6787 20.0036 22.6767C21.418 22.6767 22.8345 22.6522 24.2489 22.6441C24.4282 22.6441 24.6076 22.6848 24.7869 22.695C25.1782 22.7134 25.382 22.5157 25.2577 22.1427C25.1334 21.7698 25.2129 21.4355 25.2292 21.0687C25.2985 19.6747 25.2862 18.2745 25.2842 16.8785C25.2842 15.7107 25.2557 14.5429 25.2475 13.3751C25.2475 12.6189 25.3168 11.8547 25.2353 11.1087C25.1803 10.5972 25.0886 10.1203 25.2169 9.59856C25.2438 9.52009 25.2518 9.43642 25.2404 9.35428C25.229 9.27214 25.1985 9.19382 25.1513 9.12562C25.1041 9.05742 25.0416 9.00125 24.9688 8.96163C24.8959 8.922 24.8148 8.90003 24.7319 8.89747C23.7496 8.86894 22.7631 8.93415 21.791 8.84244C21.0899 8.77722 20.4174 9.17668 19.6979 8.86282C19.4493 8.75277 19.0865 8.97084 18.7604 8.96676C18.0919 8.96676 17.4235 8.88524 16.7529 8.86486C15.3834 8.82614 14.022 8.80168 12.6239 8.76296ZM25.1742 22.9294C24.6646 23.0252 24.1775 23.121 23.6884 23.2066C23.5628 23.2232 23.4359 23.2287 23.3093 23.2229C22.4065 23.2107 21.5036 23.1577 20.6028 23.1903C19.4534 23.231 18.3059 23.3656 17.1565 23.4124C16.007 23.4593 14.8046 23.445 13.6286 23.4715C12.8134 23.4919 12.5587 23.6876 12.7951 24.4131C13.0763 25.2834 12.8766 26.119 12.9153 26.9688C12.9418 27.5925 12.9928 28.2161 13.0152 28.8397C13.0315 29.3187 13.0152 29.7976 13.0152 30.2297C13.2577 30.2093 13.4228 30.1787 13.5919 30.1808C14.0953 30.1808 14.611 30.246 15.1042 30.2093C16.0131 30.1421 16.9201 29.977 17.8311 30.2093C17.9747 30.2193 18.1189 30.2131 18.2611 30.191C18.7115 30.191 19.164 30.191 19.6144 30.2012C20.1809 30.2215 20.7475 30.2705 21.3141 30.2908C21.4955 30.2908 21.6809 30.2175 21.8603 30.2317C22.1803 30.2562 22.4962 30.3642 22.8141 30.3601C23.4398 30.3601 24.0655 30.2684 24.6911 30.2643C25.2292 30.2643 25.4146 30.1196 25.4228 29.5673C25.4228 29.4552 25.4085 29.3452 25.4044 29.2351C25.3678 28.2915 25.325 27.3479 25.3025 26.4022C25.3025 26.121 25.3902 25.8336 25.3739 25.5524C25.329 24.7229 25.2516 23.8975 25.1742 22.9355V22.9294ZM15.0125 1.8601C14.7567 1.84045 14.4999 1.84045 14.2441 1.8601C13.6857 1.95181 13.1354 2.09651 12.575 2.18007C12.0573 2.25752 11.5274 2.26159 11.0077 2.337C10.1334 2.4654 9.26313 2.61825 8.39085 2.76907C7.72033 2.8832 7.04982 3.01363 6.37726 3.13184C5.8331 3.22763 5.28691 3.31323 4.74683 3.4029L4.76517 3.63116C5.75362 3.63116 6.74003 3.63116 7.72849 3.63116C8.80661 3.63116 9.88474 3.46812 10.9608 3.67804C11.1809 3.73876 11.4102 3.75879 11.6375 3.73714C12.2305 3.64135 12.8419 3.46404 13.4534 3.36214C14.4072 3.20317 14.7271 2.93823 15.0125 1.8601ZM26.3114 5.3798L26.2992 5.27586C25.9317 5.28228 25.5652 5.31566 25.2027 5.37573C24.3773 5.57953 23.5722 5.82002 22.7448 6.03402C22.1741 6.18076 21.5953 6.29285 21.0247 6.44163C20.1606 6.66581 19.3025 6.91038 18.4384 7.13864C18.0043 7.2548 17.5661 7.35875 17.1279 7.45657C16.6898 7.5544 16.2292 7.62981 15.7828 7.73375C15.3365 7.83769 14.9024 7.96608 14.4724 8.08429L14.5029 8.22288H16.164C17.183 8.22288 18.2224 8.33497 19.221 8.00481C20.0607 7.72763 20.8881 7.40766 21.7319 7.14475C22.3678 6.94095 23.0464 6.87165 23.6619 6.62709C24.5587 6.26635 25.4269 5.80168 26.3114 5.3798ZM26.4316 6.89815C25.5919 6.96336 23.7618 7.73171 23.3746 8.12097C23.8678 8.15562 24.4629 8.16581 25.0458 8.25141C25.6286 8.33701 26.346 8.0476 26.3766 7.64C26.4011 7.39951 26.4153 7.16921 26.4316 6.89815ZM11.8331 14.4043V11.5999C11.4153 12.1543 11.3827 14.0068 11.8331 14.4043ZM12.2305 40.4301L12.0512 40.4444C12.0858 41.1557 12.1205 41.871 12.1633 42.7229C12.5566 42.2358 12.5159 40.7603 12.2305 40.4301ZM12.0267 25.695H11.8229V27.8228L12.149 27.7779L12.0267 25.695ZM11.9309 25.3608L12.0471 25.316C12.0471 24.731 12.0471 24.1461 12.0471 23.5612C12.0471 23.4858 11.9635 23.4104 11.9207 23.335C11.8718 23.3798 11.7842 23.4206 11.7781 23.4715C11.7243 23.8447 11.6998 24.2216 11.7047 24.5986C11.7473 24.8606 11.8212 25.1165 11.9248 25.3608H11.9309ZM12.2305 32.0415H12.0695C11.8148 32.8751 11.8657 33.513 12.308 33.6862C12.2815 33.1033 12.257 32.5734 12.2305 32.0415ZM12.0063 37.4607C12.3589 37.3445 12.4364 36.7963 12.2366 36.1176C11.6313 36.5089 12.2754 37.0347 12.0084 37.4607H12.0063ZM11.6375 16.8886H11.7883C11.8881 16.5177 12.1225 16.1305 11.5233 15.731L11.6375 16.8886ZM11.9962 37.5544C12.0593 37.9335 12.1123 38.2616 12.2 38.7406C12.577 38.0232 12.524 37.7379 11.9962 37.5544Z" fill="#064149"/>
<path d="M69.3732 54.585C69.4097 54.5887 69.4459 54.5955 69.4812 54.6054C69.9928 54.7848 70.0498 55.0477 69.685 55.4003C68.99 56.081 68.3012 56.7698 67.6347 57.4791C66.9683 58.1883 66.3997 59.0015 65.6619 59.6231C65.2415 59.9811 64.8755 60.3986 64.5756 60.8622C64.5375 60.9256 64.4805 60.9755 64.4126 61.0049C63.7543 61.2209 63.4038 61.8058 62.9533 62.2542C62.3786 62.8249 61.9099 63.5056 61.3229 64.0599C61.0396 64.3289 60.7115 64.5185 60.4404 64.8527C59.9204 65.4521 59.3459 66.002 58.7244 66.4954C58.5269 66.6678 58.2732 66.762 58.0111 66.7603C57.5016 66.7073 57.3997 67.3147 56.9167 67.3208C56.463 67.3336 56.0155 67.4289 55.596 67.602C54.8338 67.9118 54.0349 67.8405 53.2604 67.9669C52.5634 68.0789 51.9479 67.8711 51.3018 67.7773C51.0838 67.7447 50.8942 67.547 50.6904 67.4247L50.776 67.2209L52.2027 67.3921C53.118 67.5152 54.0491 67.438 54.9316 67.1659C55.2461 67.0459 55.5777 66.9771 55.9139 66.9621C56.397 66.9743 56.7292 66.6319 57.151 66.5545C57.9438 66.4037 58.5451 65.9431 59.1626 65.509C59.2624 65.4356 59.238 65.189 59.2706 65.0239L59.2543 65.0443C59.3073 65.0321 59.3766 65.0443 59.4112 65.0056C60.0349 64.4349 60.4995 63.7196 61.1578 63.1713C61.6956 62.6889 62.2085 62.1794 62.6945 61.6448C62.9696 61.3656 63.3263 61.1211 63.4955 60.7868C63.9316 59.9166 64.7183 59.3745 65.3664 58.7141C65.9778 58.1027 66.6483 57.5361 67.2129 56.8656C67.3025 56.7576 67.4024 56.6618 67.4982 56.5579L69.3875 54.583L69.3732 54.585Z" fill="#064149"/>
<path d="M44.3251 0.708008C44.4331 1.29496 43.8727 1.11562 43.6281 1.27051C43.3835 1.4254 43.0167 1.45393 42.7028 1.51507C42.6498 1.51507 42.5744 1.4254 42.4053 1.297C43.0289 1.16045 43.5507 1.05244 44.0663 0.926079C44.1641 0.901622 44.2395 0.78953 44.3251 0.722274V0.708008Z" fill="#064149"/>
<path d="M37.9203 2.91704C37.7899 2.74176 37.6493 2.56649 38.0222 2.50943C38.3952 2.45236 38.7763 2.39122 39.1533 2.33008L37.9203 2.91704Z" fill="#064149"/>
<path d="M36.5869 3.13572C36.9945 2.77498 37.4551 2.79129 37.9381 2.90542C37.5428 3.0277 37.1494 3.15406 36.75 3.26411C36.7112 3.2743 36.6419 3.18055 36.5869 3.13572Z" fill="#064149"/>
</svg>
