<svg width="65" height="64" viewBox="0 0 65 64" fill="none" xmlns="http://www.w3.org/2000/svg">
<g clip-path="url(#clip0_1937_5726)">
<path d="M52.4367 61.0605C52.3362 61.4201 52.1977 61.4893 51.7499 61.5709C51.0475 61.7004 50.0815 61.6178 49.6795 62.5313C49.6358 62.5805 49.5767 62.6135 49.5119 62.6251C49.0038 61.9383 48.5884 62.6251 48.1261 62.6988C47.4795 62.7948 46.8195 62.8049 46.1661 62.8573C45.3319 62.9255 44.5 63.0103 43.6669 63.0684C42.4809 63.1511 41.1966 63.533 40.1323 63.208C38.8972 62.8306 37.7134 63.208 36.5118 62.9445C35.8563 62.7993 35.069 63.2605 34.3386 63.4369C34.2107 63.4531 34.0813 63.4531 33.9533 63.4369C33.96 63.3688 33.9701 63.3029 33.9801 63.237L33.9109 63.2571L33.9645 63.4459C33.8942 63.3856 33.8249 63.2761 33.7523 63.2739C33.2308 63.2572 32.7093 63.2739 32.1889 63.2583C31.5523 63.2426 30.9124 63.1667 30.2803 63.2035C29.7923 63.2326 29.3166 63.4414 28.8286 63.485C28.2869 63.533 27.7375 63.485 27.1914 63.4771C27.1188 63.4771 27.0116 63.4381 26.9803 63.4771C26.183 64.3516 25.1935 63.2348 24.3705 63.7284C24.3146 63.629 24.2588 63.5285 24.2052 63.4302L24.2845 63.447L24.2074 63.4202C23.9148 63.571 23.6357 63.7854 23.3252 63.8513C23.0739 63.9049 22.7858 63.753 22.5122 63.7396C22.3034 63.7396 22.0945 63.8278 21.8835 63.8446C21.7293 63.8518 21.575 63.8337 21.4267 63.791C20.8058 63.6246 20.2463 62.9478 19.5193 63.619C19.4177 63.7117 19.0346 63.4358 18.8269 63.4928C18.6192 63.5497 18.4863 63.8144 18.3199 63.9875L18.3266 63.9953C18.0028 63.3152 17.6164 63.1142 16.829 63.4716C16.484 63.6279 15.8709 63.2058 15.3829 63.0349C15.0478 62.9232 14.7128 62.7848 14.3845 62.6541C13.6664 62.3704 12.9171 62.1337 12.6747 61.2559C12.4893 60.5859 12.2738 59.9158 12.0717 59.2458C12.0505 59.1743 11.9957 59.0917 12.0158 59.0336C12.2492 58.3312 12.4625 57.7426 11.2587 57.9023C10.7729 57.9671 10.2302 57.6131 9.71421 57.4445C9.43614 57.354 9.15584 57.2635 8.8867 57.1574C8.45228 56.9888 7.96426 56.8838 7.60467 56.6102C7.21492 56.3143 6.97928 55.8285 6.61746 55.4801C6.12497 55.0144 5.57441 54.6101 5.054 54.1779C4.86639 54.0227 4.63187 53.8954 4.50456 53.7C3.85796 52.6949 3.26608 51.6608 2.59603 50.6758C2.32801 50.2816 1.90922 49.9912 1.55856 49.654V49.6763C1.5876 49.4909 1.66131 49.2989 1.63674 49.1179C1.5742 48.6612 1.47816 48.2078 1.37095 47.7589C1.3542 47.6918 1.2079 47.6561 1.1208 47.6059L1.11075 47.6215C1.04821 46.3718 0.999071 45.12 0.909731 43.8725C0.878462 43.456 0.714299 43.0484 0.609324 42.6374C0.592533 42.6351 0.575438 42.6378 0.560187 42.6452C0.547903 42.6564 0.546786 42.6787 0.540086 42.6966L0.55237 42.681C0.586989 42.2957 0.664045 41.9093 0.642827 41.5274C0.627192 41.1633 0.516634 40.8037 0.448512 40.443L0.467497 40.4329C0.467497 39.6948 0.490948 38.9555 0.452979 38.2184C0.411659 37.3987 0.2944 36.5824 0.255314 35.7616C0.246379 35.5907 0.517751 35.4076 0.512167 35.2356C0.487598 34.6973 0.379273 34.1613 0.334603 33.6208C0.243029 32.3532 0.236329 31.0746 0.0643487 29.8171C-0.0964637 28.6456 0.221811 27.5166 0.176024 26.3652C0.164857 26.1084 -0.0127072 25.8515 0.00292732 25.6014C0.0163284 25.3936 0.274298 25.2016 0.288816 24.9927C0.305567 24.7694 0.0945011 24.5248 0.107902 24.297C0.165973 23.2338 0.288816 22.1752 0.345771 21.1098C0.397141 20.1594 0.392674 19.2113 0.411659 18.2531H0.419476C0.316735 17.4569 0.196126 16.664 0.120186 15.8655C0.076633 15.3618 -0.00712347 14.8124 0.142521 14.3545C0.401608 13.5549 0.870645 12.8257 1.16882 12.0362C1.40334 11.4164 1.51278 10.7497 1.67582 10.1031C1.74618 9.82498 1.77856 9.53239 1.88912 9.27219C2.23085 8.46813 2.60273 7.67747 2.96344 6.88122L3.09968 6.74498L3.11197 6.75838L2.97126 6.88904C3.07512 6.17878 3.33867 5.56345 3.96852 5.14802C4.01319 5.11787 3.95623 4.93249 3.94618 4.81858V4.8331C4.31471 4.53492 4.68547 4.2401 5.0473 3.93969C5.08304 3.90842 5.06405 3.81238 5.07075 3.74649L4.88649 3.82913H4.90882C5.41248 3.43939 5.9139 3.04741 6.42202 2.66213C6.47674 2.62081 6.60405 2.63421 6.61969 2.59289C6.75482 2.23329 7.32659 1.55989 7.61248 1.47614C8.19319 1.30751 8.77614 1.15116 9.35797 0.990348L9.34345 0.979181C9.95431 0.828419 10.5719 0.691058 11.1727 0.515728C11.2844 0.483342 11.3458 0.292378 11.4307 0.180702C11.5959 0.342631 11.7489 0.627403 11.9287 0.646388C12.9338 0.744663 13.9478 0.777048 14.9585 0.83847C15.1162 0.856846 15.2728 0.884063 15.4275 0.919993L15.4543 0.906592H15.4108C15.8876 0.856338 16.3634 0.804967 16.8402 0.75583L20.1291 0.420804L20.234 0.41187C20.0252 0.885373 20.3569 0.664256 20.5389 0.653089C20.8248 0.635221 21.1118 0.629637 21.3988 0.619586C21.9438 0.600601 22.4899 0.562632 23.0337 0.569332C24.0388 0.5805 25.0439 0.645272 26.0434 0.632987C26.4901 0.632987 26.9368 0.431972 27.3835 0.420804C27.8302 0.409637 28.2534 0.558165 28.689 0.569332C28.9302 0.574916 29.1759 0.383951 29.4193 0.383951C30.3183 0.383951 31.2184 0.438672 32.1174 0.433088C32.2804 0.433088 32.4424 0.238773 32.6043 0.133799L32.6166 0.118164C33.0477 0.139382 33.4642 0.736845 33.9243 0.142733C33.969 0.0835447 34.1946 0.155017 34.3342 0.179585C34.6368 0.232073 34.9372 0.341515 35.2387 0.341515C36.456 0.341515 37.6732 0.289027 38.8905 0.294611C39.8956 0.294611 40.8928 0.3672 41.8935 0.397352C42.4987 0.416337 43.1699 0.586084 43.6925 0.383951C44.2509 0.166184 44.6161 0.257758 45.1287 0.447606C45.5497 0.605068 46.0891 0.447606 46.5805 0.426388L46.5872 0.402936C47.504 0.348215 48.422 0.244357 49.3388 0.259992C49.7855 0.267809 50.2322 0.483342 50.6789 0.630754C51.0821 0.764764 51.4797 0.918876 51.8683 1.09086C52.5562 1.3935 53.2877 1.63918 53.903 2.05461C54.3687 2.36954 54.6591 2.93127 55.0656 3.34558C55.4006 3.68731 55.8249 3.94528 56.1544 4.29259C56.6424 4.80853 57.0768 5.37584 57.5481 5.90853C57.7127 6.11615 57.9113 6.29438 58.1355 6.43564C58.532 6.65899 58.9519 6.94488 59.3773 6.97279C60.2908 7.0331 60.7297 7.75452 61.268 8.26041C61.679 8.64457 61.8141 9.33696 62.033 9.9065C62.272 10.5297 62.4696 11.1684 62.6773 11.805C62.76 12.0585 62.8303 12.3176 62.894 12.5778C63.0548 13.24 63.2703 13.8978 63.3407 14.5701C63.3988 15.0927 63.2491 15.6343 63.2424 16.1681C63.2424 16.4205 63.3831 16.6729 63.4043 16.9309C63.4211 17.1431 63.3552 17.3619 63.3273 17.5752C63.3273 17.5362 63.3273 17.4993 63.3273 17.4636C63.3273 17.4993 63.3273 17.535 63.3273 17.5752C63.5629 18.2777 63.8991 18.9656 63.9973 19.6859C64.0822 20.2744 63.851 20.9021 63.8399 21.514C63.8399 21.7932 64.0208 22.0724 64.1213 22.3594L64.1113 22.3416C64.0096 22.5113 63.8064 22.6911 63.822 22.8497C63.8913 23.5331 64.08 24.2076 64.1157 24.8911C64.1392 25.3378 63.9192 25.7845 63.9047 26.2424C63.8778 27.0811 63.9203 27.9175 63.9337 28.7629L63.8432 28.8522L63.9348 28.8924C63.9035 29.2889 63.8857 29.6864 63.8309 30.0795C63.8108 30.2281 63.7036 30.3643 63.6377 30.5072L63.6735 30.5206L63.6545 30.4871C63.7159 30.8311 63.7941 31.1728 63.8365 31.519C63.8957 31.9123 63.9256 32.3095 63.9259 32.7073C63.9181 33.0423 63.9058 33.4242 63.7461 33.6989C63.5585 34.0228 63.5138 35.3026 63.7885 35.5684C63.8706 35.6454 63.9188 35.7518 63.9225 35.8643C63.8577 36.4908 63.7695 37.1162 63.6902 37.7438C63.6657 37.7438 63.6411 37.7438 63.6165 37.7438L63.6936 37.7516C63.7394 38.4976 63.851 39.2481 63.8053 39.9851C63.7718 40.5804 63.5518 41.1655 63.4155 41.7552C63.4155 41.763 63.4367 41.7853 63.4434 41.7831C63.475 41.7723 63.506 41.7596 63.5361 41.7451L63.5227 41.7574C63.4772 42.0299 63.4526 42.3054 63.449 42.5816C63.5015 43.4493 63.6869 44.3226 63.621 45.1791C63.5618 45.9609 63.2123 46.7069 63.0436 47.4808C62.8906 48.1799 62.8292 48.8979 62.6896 49.6026C62.617 49.9678 62.4663 50.3173 62.3468 50.6736C62.3356 50.7082 62.3256 50.7439 62.311 50.7786C61.8431 51.8774 61.3953 52.9864 60.8939 54.0707C60.732 54.4225 60.4193 54.7006 60.1981 55.0289C59.9458 55.403 59.7704 55.8419 59.4667 56.1658C59.1987 56.4505 58.7966 56.6125 58.4616 56.8358L58.4851 56.8637V56.8425C58.3365 57.9012 57.1103 57.9101 56.6793 58.693C56.5453 58.9353 56.4157 59.1799 56.2705 59.4155C56.2228 59.4934 56.1505 59.5531 56.065 59.5853C55.9612 59.6165 55.8261 59.564 55.73 59.6076C54.8891 60.004 54.0649 60.4374 53.2106 60.8014C52.9649 60.9064 52.9314 61.7205 52.4289 61.0772C52.4324 61.0721 52.435 61.0665 52.4367 61.0605ZM8.62873 1.29746L8.6667 1.30974C8.65315 1.31342 8.63933 1.31603 8.62538 1.31756L8.65776 1.30527L8.62873 1.29746ZM57.3113 50.7562C57.3247 50.7674 57.3515 50.783 57.3493 50.7897C57.3382 50.8176 57.3247 50.8445 57.3091 50.8701C57.1617 51.3492 57.0154 51.8283 56.8624 52.3063C56.8535 52.3342 56.8155 52.3722 56.7921 52.371C55.8808 52.3219 55.8718 53.279 55.3481 53.6698C54.6189 54.2148 53.9298 54.8145 53.2263 55.393L53.214 55.4108L53.2452 55.4019L52.4267 56.4505L52.4378 56.4662L51.0921 57.0849H51.1145C50.6198 57.3171 50.1206 57.5427 49.6303 57.7862C49.3958 57.9034 49.1758 58.0531 48.9502 58.1882H48.9748L47.9083 58.4238L47.8893 58.3468C47.8893 58.3747 47.8893 58.4026 47.8949 58.4305L47.4951 58.5936L47.4761 58.4551L47.4337 58.4774L47.5074 58.5824L45.8445 58.6584H45.7217C45.4168 58.7388 45.113 58.8817 44.8082 58.8817C44.1549 58.8906 43.4982 58.7812 42.8472 58.8114C42.281 58.837 41.7237 59.0235 41.1564 59.0738C40.5891 59.124 40.0341 59.0917 39.4734 59.0995C39.3562 59.0995 39.2389 59.1207 39.1217 59.1341C38.1981 59.2458 37.269 59.3228 36.3544 59.4836C36.0528 59.5361 35.796 59.8108 35.5034 59.9661C35.4431 59.9985 35.3415 59.9504 35.2577 59.9482C34.5754 59.9359 33.8919 59.9136 33.2096 59.9203C32.6869 59.9203 32.1643 60.0007 31.6461 59.9884C30.9761 59.9739 30.3183 59.8767 29.6527 59.8667C29.3825 59.86 29.1033 59.9538 28.8375 60.0331C28.6717 60.0979 28.5121 60.1775 28.3606 60.271H28.3718C27.8413 60.2218 27.3109 60.1593 26.7793 60.128C26.2477 60.0967 25.6782 60.2453 25.2304 60.0588C24.6776 59.8354 24.1862 60.3435 23.5776 59.9181C23.0471 59.5473 22.2051 59.6277 21.5027 59.4993C21.0258 59.4122 20.5523 59.2368 20.0766 59.2335C19.4925 59.2335 18.8906 59.4903 18.3255 59.4166C17.2534 59.277 16.1981 58.9911 15.1416 58.7466C14.5654 58.6126 14.0037 58.4205 13.4274 58.2932C13.2677 58.2586 12.9461 58.3312 12.9238 58.4127C12.8121 58.8594 13.8853 60.5937 14.3365 60.7154C14.4481 60.7445 14.5978 60.6138 14.7307 60.558C14.8066 60.5256 14.8926 60.4552 14.9596 60.4686C15.6888 60.6194 16.4114 60.7824 17.1417 60.941L17.2657 60.9477L18.7554 60.9812V60.9723C19.4746 61.0839 20.1916 61.2548 20.9164 61.295C21.3497 61.3196 21.7952 61.0817 22.2341 61.0851C22.5312 61.0851 22.8338 61.4201 23.1208 61.3989C23.6312 61.3643 24.0891 61.0449 24.6664 61.3263C24.8775 61.429 25.294 61.1108 25.6168 60.9913L25.6023 61.0069C25.6686 61.1112 25.7507 61.2047 25.8457 61.2838C25.8792 61.3051 25.9931 61.1722 26.0825 61.1353C26.3058 61.0516 26.566 60.8863 26.7693 60.9343C27.2417 61.046 27.6951 61.4201 28.1473 61.4056C29.1949 61.371 30.2357 61.1688 31.2742 61.0337L31.2631 61.0225C31.7924 61.0549 32.4714 60.4563 32.7886 61.3832C33.1035 61.3609 33.4177 61.3375 33.7311 61.3129L33.749 61.2783L33.7177 61.3051C34.3878 61.1867 35.1795 60.7869 35.7167 61.0058C37.0959 61.5642 38.5845 60.3603 39.8677 61.3922C39.8811 61.4033 39.9793 61.314 40.0307 61.2716L40.0173 61.285L41.5808 61.0895L41.5618 61.104C42.4943 61.1576 43.429 61.2861 44.3537 61.2459C45.476 61.1979 46.5939 61.0225 47.7106 60.8718C48.1251 60.8139 48.5328 60.7151 48.9279 60.5769C49.1512 60.501 49.3199 60.2363 49.5399 60.195C50.1987 60.0688 50.909 60.1213 51.5266 59.9013C52.4389 59.5763 53.3 59.0995 54.1588 58.6416C54.5597 58.4283 54.9059 58.1111 55.2755 57.8398L55.2677 57.851C55.5166 57.6804 55.7542 57.4938 55.9791 57.2926C56.3476 56.9207 56.667 56.5019 57.0389 56.1334C57.643 55.5348 58.2729 54.9619 58.8915 54.379L58.8726 54.3857C58.9619 54.3376 59.0959 54.3108 59.135 54.236C59.3293 53.815 59.4868 53.375 59.6811 52.9529C59.9458 52.3789 60.2395 51.8171 60.5064 51.2465C60.6378 51.0142 60.7423 50.7676 60.8179 50.5116C60.9296 49.9845 61 49.4463 61.0837 48.9125L61.0659 48.8946L61.0737 48.9281L60.8414 48.8499V48.8734C61.316 47.8906 61.7929 46.9101 62.2574 45.9229C62.2831 45.8671 62.2105 45.7643 62.1837 45.6828H62.1938C62.1938 45.1572 62.1938 44.6316 62.1938 44.106L62.1726 44.1182L62.2072 44.1238C62.1826 43.7631 62.1592 43.4013 62.1346 43.0406L62.1603 43.0573H62.1402C62.0858 42.7319 62.0485 42.4039 62.0285 42.0746C62.0285 41.3699 62.0676 40.6641 62.0553 39.9583C62.0323 39.5839 61.9883 39.2111 61.9235 38.8416C61.8733 38.4518 61.8241 38.0598 61.765 37.6746C61.7516 37.593 61.6533 37.516 61.6611 37.4412C61.7259 36.6125 61.7125 35.766 61.8945 34.9586C62.2574 33.3472 61.4109 31.729 61.9939 30.1276C62.0654 29.9299 61.8521 29.6328 61.9157 29.4262C62.11 28.7964 61.4422 28.1554 61.9637 27.5523L61.9503 27.5367V27.5668C61.8833 27.3669 61.7504 27.1626 61.7616 26.966C61.794 26.3864 61.909 25.8113 61.9358 25.2317C61.9459 25.0084 61.7326 24.7649 61.7516 24.5427C61.7839 24.173 61.9749 23.8145 61.9939 23.446C62.0039 23.2361 61.7973 23.0172 61.689 22.8017C62.4707 22.4878 61.8677 22.3862 61.6075 22.212C61.5863 22.1727 61.5752 22.1288 61.5752 22.0841C61.5752 22.0395 61.5863 21.9956 61.6075 21.9563C61.9928 21.5263 62.1078 21.1165 61.7672 20.567C61.5639 20.2387 61.5438 19.7942 61.4634 19.3967C61.4478 19.3163 61.5751 19.2191 61.6008 19.1197C61.6589 18.8964 61.7583 18.6618 61.7225 18.4497C61.6522 18.0331 61.4188 17.6333 61.4042 17.2212C61.3797 16.5344 61.488 15.8443 61.5092 15.1552C61.5092 14.9743 61.3975 14.7912 61.3484 14.608C61.2993 14.4249 61.2457 14.2641 61.1999 14.091C60.9765 13.2363 60.7554 12.3801 60.5365 11.5224C60.6717 11.0422 60.4561 10.3365 60.0898 10.0092C60.0552 9.97798 60.1099 9.85178 60.1189 9.76915C60.139 9.59828 60.1557 9.4263 60.168 9.25209L60.1423 9.2331L60.1769 9.26437C59.8486 9.0198 59.5437 8.72721 59.183 8.54742C58.972 8.44133 58.6715 8.5128 58.4125 8.50386C58.4214 8.66468 58.4225 8.82772 58.4426 8.98742C58.5331 9.6731 58.6325 10.3588 58.7207 11.0456C58.762 11.365 58.8469 11.6944 58.8033 12.0049C58.7374 12.4717 58.5599 12.9217 58.4683 13.3863C58.4281 13.5829 58.4784 13.7973 58.4906 14.0028L58.5241 13.9849L58.5018 14.0251V13.9894C58.5934 14.1591 58.7508 14.3244 58.7631 14.4986C58.8201 15.2803 58.8011 16.0699 58.8748 16.8438C58.9407 17.5462 59.1049 18.2375 59.2031 18.9366C59.3461 19.9606 59.4689 20.988 59.6029 22.0132L59.6264 22.0222L59.6063 21.9998C59.7738 22.308 60.0854 22.6185 60.0809 22.9245C60.063 24.0513 59.9123 25.1748 59.8665 26.3027C59.8397 27.0804 59.8598 27.8591 59.9268 28.6345C59.9703 29.1794 60.1702 29.7144 60.2004 30.2582C60.2305 30.8021 60.0697 31.3348 60.1144 31.863C60.1468 32.2326 60.3835 32.5844 60.5298 32.944L60.5432 32.9306C60.4954 33.0433 60.4598 33.1609 60.4371 33.2813C60.3411 34.4416 60.2138 35.6019 60.1814 36.7644C60.1658 37.2178 60.3467 37.6768 60.4394 38.1336L60.5298 38.1883L60.4405 38.2452C60.6795 38.5345 59.9636 38.5803 60.302 39.1118C60.5633 39.525 60.0385 40.405 59.9324 41.0885C59.8207 41.8278 59.7849 42.5793 59.7157 43.322C59.7457 43.4568 59.7574 43.595 59.7503 43.733C59.5515 44.7458 59.1227 45.7699 59.192 46.7616C59.2679 47.9051 59.192 48.7237 57.9747 49.0822C57.9244 49.0967 57.8909 49.2129 57.8742 49.2877C57.7625 49.7746 57.6665 50.2626 57.5637 50.7506L57.3113 50.7562ZM16.8771 2.01888L16.8503 2.0401L16.8905 2.01329C16.3075 2.04456 15.7268 2.0937 15.1439 2.10598C13.6865 2.13502 12.2224 2.0669 10.7762 2.20314C10.1486 2.26121 9.5601 2.72802 8.9537 3.00832V2.98599C8.65218 3.19147 8.3138 3.3601 8.0603 3.61248C7.75096 3.91959 7.51086 4.29705 7.2406 4.64436L6.94578 5.01848L6.95136 4.99726C6.67553 5.27421 6.39299 5.55563 6.12385 5.83147C4.93451 7.05097 4.1137 8.47483 3.734 10.1444C3.61227 10.686 3.58324 11.2611 3.39897 11.7737C3.25045 12.197 2.87968 12.5398 2.7144 12.9608C2.54131 13.4075 2.50222 13.8989 2.39278 14.3691C2.20181 15.1999 1.99075 16.0263 1.81207 16.8605C1.77013 17.1088 1.76224 17.3617 1.78862 17.6121C1.80872 17.927 1.85115 18.2419 1.90029 18.5535C1.94943 18.8651 2.06222 19.2001 2.08679 19.5273C2.09684 19.6636 1.88577 19.8121 1.88912 19.9517C1.90364 20.4598 2.0142 20.9679 2.0008 21.4738C1.97958 22.0679 1.8612 22.6587 1.7875 23.2517C1.70486 23.9218 1.601 24.5918 1.56415 25.2619C1.55521 25.4171 1.86455 25.5969 1.85115 25.7465C1.77968 26.535 1.56973 27.3178 1.55856 28.1051C1.53958 29.5401 1.6278 30.9774 1.67024 32.4169L1.70151 32.4247L1.66689 32.4091C1.83329 33.1294 2.07897 33.8419 2.14709 34.5722C2.23643 35.5304 2.17836 36.502 2.20293 37.4669C2.20293 37.631 2.38831 37.8108 2.35481 37.9526C2.2744 38.2933 2.00527 38.6149 2.00638 38.9432C2.00638 40.3581 2.02983 41.7786 2.15826 43.1869C2.22862 43.9597 2.57704 44.7023 2.71664 45.474C2.94669 46.7828 2.79481 48.2714 3.38669 49.3659C3.89705 50.3073 4.49674 51.376 5.51969 52.0896C6.3204 52.648 6.79614 53.6531 7.55776 54.2874C8.42883 55.0155 9.45624 55.5571 10.4133 56.1769L10.3496 56.1334L10.4055 56.1959C11.1224 56.1624 11.7579 56.3422 12.2437 56.9073L12.1633 56.9319L12.2035 56.9754L12.2336 56.8961C12.3174 56.9654 12.3955 57.0849 12.4882 57.0971C13.6362 57.2423 14.7865 57.3685 15.9356 57.5059C16.3209 57.5528 16.7017 57.6444 17.087 57.6611C17.6331 57.6846 18.1826 57.6354 18.7286 57.6611C19.4679 57.689 20.2061 57.7527 20.9454 57.8018L21.0392 57.899L21.0805 57.8275L20.9353 57.813C21.4234 57.8498 21.9103 57.8878 22.3983 57.9247L22.3793 57.918L22.3882 57.9113C23.3486 57.9917 24.3102 58.0587 25.2684 58.1581C25.5643 58.1882 25.8546 58.3814 26.1405 58.3635C26.8675 58.3267 27.5923 58.2128 28.3171 58.1402C28.3807 58.1335 28.4645 58.2306 28.5159 58.2139C28.8576 58.1022 29.1926 57.9637 29.5299 57.8364L29.5087 57.8431C29.684 57.9548 29.8761 58.1782 30.0324 58.1547C30.4557 58.0944 30.8231 57.9716 31.2999 58.0888C31.8382 58.2217 32.4524 58.0464 33.0331 58.0118C33.3045 57.9961 33.5803 58.0285 33.8461 57.985C34.5106 57.8733 35.1672 57.6611 35.834 57.6287C36.6994 57.5852 37.5995 57.8286 38.436 57.6756C39.6253 57.4523 40.7934 57.1586 42.0163 57.1574C42.3268 57.1574 42.6361 57.0212 42.9454 56.9475H42.9253C43.4033 57.0223 43.8802 57.1284 44.3615 57.1653C45.0918 57.2211 45.849 57.354 46.5525 57.2244C47.6101 57.0312 48.6331 56.6393 49.6694 56.331C49.7384 56.3036 49.8017 56.2635 49.8559 56.2127C50.3875 55.7894 50.9001 55.3383 51.4529 54.9429C52.3675 54.2885 53.3257 53.6933 54.2269 53.0199C54.5306 52.7965 54.7316 52.4168 54.9472 52.0885C55.4654 51.299 55.9645 50.4971 56.4715 49.6998C56.5199 49.7147 56.5697 49.7248 56.6201 49.7299C56.6586 49.7255 56.6962 49.7154 56.7318 49.6998H56.4715L56.4849 49.3938L56.4771 49.4083C56.5765 49.1782 56.6915 48.9538 56.7731 48.7181C56.9786 48.1318 57.165 47.54 57.3661 46.9526C57.4945 46.5762 57.6553 46.2099 57.7614 45.8269C57.8128 45.6381 57.7714 45.4226 57.7703 45.2205L57.7268 45.4941L57.8217 45.5008L57.7681 45.2194C57.7982 44.9904 57.8206 44.7604 57.8619 44.5337C57.8988 44.3371 57.9736 44.1462 58.0015 43.9485C58.0428 43.6492 58.0573 43.3466 58.0797 43.0428H58.0551L58.0864 43.0685C57.9747 42.9423 57.7446 42.8038 57.758 42.6933C57.8217 42.1617 57.9501 41.6368 58.0562 41.1131L58.0875 41.1276L58.0652 41.1332L58.0752 41.1008C58.2237 40.261 58.3868 39.4256 58.5052 38.5803C58.5219 38.4686 58.2159 38.2988 58.2371 38.1905C58.3834 37.4311 58.5878 36.6829 58.7508 35.9268C58.8027 35.614 58.8381 35.2986 58.8569 34.9821L58.8737 34.9497L58.8424 34.9731C58.8603 34.7788 58.9429 34.5633 58.8848 34.3958C58.6671 33.7715 58.4046 33.1674 58.1556 32.5498C58.1377 32.5062 58.064 32.4515 58.073 32.4381C58.1102 32.387 58.1563 32.3431 58.2092 32.3086C58.3008 32.2404 58.4806 32.1723 58.4772 32.1131C58.4247 31.2197 58.3656 30.3263 58.2717 29.4419C58.2114 28.8344 58.1143 28.2291 58.0194 27.626C57.9792 27.3692 57.8385 27.1146 57.8507 26.8633C57.9244 25.4115 58.045 23.9597 58.1098 22.5079C58.121 22.2634 57.9077 22.0166 57.8518 21.7597C57.8094 21.5665 57.8865 21.351 57.8518 21.1533C57.7301 20.3615 57.5168 19.5765 57.4688 18.7825C57.3951 17.468 57.4476 16.1469 57.4074 14.8303C57.3716 13.6197 57.4018 12.3868 57.184 11.2053C56.9941 10.1673 56.6213 9.17133 56.0829 8.26376C55.7077 7.64508 56.3174 6.36528 54.9327 6.39097C54.9103 6.39097 54.8913 6.29381 54.8623 6.2469C54.6959 5.97777 54.5719 5.66284 54.3497 5.45178C53.9186 5.04081 53.1414 4.75604 53.0353 4.29705C52.8656 3.57005 52.4769 3.42152 51.9185 3.29198C51.8164 3.27289 51.7217 3.22571 51.6449 3.15573C50.5159 1.87928 48.9189 1.82903 47.4214 1.64142C46.4576 1.52081 45.4559 1.72517 44.4698 1.73411C43.6881 1.74081 42.9063 1.64588 42.1246 1.647C41.6489 1.647 41.1731 1.79888 40.6974 1.79218C39.0558 1.76984 37.4153 1.69614 35.7736 1.66598C35.0344 1.65147 34.2917 1.67938 33.5524 1.714C32.1878 1.77878 30.8242 1.87147 29.4595 1.93065C29.1937 1.94182 28.9201 1.80223 28.6577 1.82568C27.8503 1.89604 27.0496 2.06131 26.2422 2.09817C25.15 2.14842 24.0522 2.11492 22.9567 2.11604L22.9221 2.03116L22.8439 2.11827C21.8567 2.08365 20.8695 2.05908 19.8834 2.00659C19.3161 1.97867 18.7521 2.54152 18.1837 2.01553L18.1714 2.02334C17.7414 2.00994 17.3093 2.00994 16.8771 2.01888ZM63.6545 31.3113L63.7461 31.2733C63.7293 31.241 63.717 31.1874 63.6936 31.1818C63.6701 31.1762 63.6266 31.2086 63.592 31.2242L63.6545 31.3113ZM19.0112 61.4022L19.0961 61.4413C19.1061 61.4123 19.1284 61.3777 19.1206 61.3542C19.1128 61.3308 19.0726 61.3263 19.0458 61.3129C19.0335 61.3419 19.0224 61.3698 19.0112 61.4022ZM62.2742 20.8317L62.2295 20.7055C62.196 20.7267 62.1335 20.7479 62.1346 20.7669C62.1449 20.8127 62.1635 20.8562 62.1893 20.8954L62.2742 20.8317ZM12.802 58.0374L12.7652 58.0073L12.7384 58.0765C12.754 58.0765 12.773 58.0855 12.7842 58.0765C12.7953 58.0676 12.7976 58.052 12.8032 58.0374H12.802ZM42.3882 58.5958L42.3245 58.6528C42.3509 58.6639 42.3782 58.6728 42.406 58.6796C42.4161 58.6796 42.4295 58.6617 42.4407 58.6528L42.3882 58.5958ZM26.2824 1.82791L26.2891 1.78771L26.2444 1.80111L26.2824 1.82791ZM62.0966 17.8109L62.11 17.7662L62.0575 17.8008L62.0966 17.8109ZM61.3395 14.4215L61.3808 14.4483L61.3875 14.4059L61.3395 14.4215ZM60.0999 8.90813L60.0865 8.85899C60.0742 8.85899 60.0507 8.86681 60.0507 8.87239C60.0519 8.88925 60.0557 8.90582 60.0619 8.92153L60.0999 8.90813ZM62.1279 26.679L62.0843 26.6656L62.1178 26.7181L62.1279 26.679ZM63.3195 39.6903L63.2949 39.7272L63.3306 39.735L63.3195 39.6903ZM3.7139 9.64295H3.68486L3.69938 9.68092L3.7139 9.64295ZM6.40974 53.3806L6.36395 53.3672L6.40081 53.4219L6.40974 53.3806ZM54.0951 54.4973L54.1241 54.5163L54.132 54.4895L54.0951 54.4973ZM0.81704 37.4568L0.824858 37.4099L0.757852 37.4278C0.764553 37.4412 0.76902 37.459 0.780187 37.4669C0.791355 37.4747 0.804756 37.4613 0.81704 37.4568ZM19.1932 58.1335L19.1742 58.1793H19.2479C19.2461 58.163 19.2408 58.1474 19.2323 58.1335C19.2256 58.129 19.2077 58.1346 19.1932 58.1335ZM35.4007 59.4233C35.4143 59.4318 35.4295 59.4375 35.4453 59.4401C35.452 59.4401 35.4576 59.4166 35.4643 59.4044C35.4502 59.396 35.4347 59.3904 35.4185 59.3876C35.4085 59.3876 35.4007 59.411 35.4007 59.4233ZM34.8523 1.52192V1.58669C34.8601 1.57664 34.8747 1.56659 34.8747 1.55543C34.8747 1.54426 34.8624 1.53309 34.8523 1.52192ZM57.624 16.2173C57.6117 16.2284 57.5883 16.2418 57.5894 16.2508C57.596 16.2795 57.6054 16.3076 57.6173 16.3345C57.6326 16.3092 57.6449 16.2822 57.6542 16.2541C57.6531 16.2452 57.6307 16.2296 57.624 16.2173ZM30.8823 61.4458L30.9236 61.419C30.9113 61.4078 30.8934 61.3844 30.889 61.3866C30.8707 61.3993 30.8539 61.4139 30.8387 61.4301L30.8823 61.4458ZM33.8562 0.790449L33.826 0.770348V0.802734L33.8562 0.790449ZM8.64436 55.3907L8.61533 55.355C8.60416 55.3651 8.58406 55.3751 8.58294 55.3852C8.58182 55.3952 8.59969 55.4086 8.60974 55.4209L8.64436 55.3907ZM53.157 3.66832L53.1358 3.70294H53.1715L53.157 3.66832ZM58.8804 7.05208C58.8692 7.0398 58.858 7.01746 58.8458 7.01635C58.8335 7.01523 58.8201 7.03645 58.8067 7.04873C58.819 7.06102 58.8301 7.08335 58.8413 7.08447C58.8525 7.08559 58.8703 7.06437 58.8837 7.05208H58.8804ZM0.46303 14.8448L0.441811 14.8761H0.474197L0.46303 14.8448ZM57.5928 17.6512L57.6296 17.6735V17.6344L57.5928 17.6512Z" fill="#064149"/>
<path d="M56.529 4.47703C56.4982 4.49077 56.466 4.50089 56.4329 4.50719C56.424 4.50719 56.4106 4.48038 56.3994 4.46587C56.4309 4.45293 56.4634 4.44248 56.4966 4.4346C56.5077 4.43348 56.5178 4.46698 56.529 4.47703Z" fill="#064149"/>
<path d="M32.2384 0.0268021L32.2061 0.0111675L32.2407 0L32.2384 0.0268021Z" fill="#064149"/>
<path d="M0.534348 42.6976V42.6172C0.517597 42.6395 0.500846 42.6607 0.486328 42.6842C0.486328 42.6842 0.50643 42.7021 0.517597 42.711C0.525972 42.7001 0.534919 42.6897 0.544399 42.6797L0.534348 42.6976Z" fill="#064149"/>
<path d="M64.1189 22.353L64.082 22.3429L64.1077 22.334L64.1189 22.353Z" fill="#064149"/>
<path d="M63.9316 28.7561C63.9316 28.7986 63.9316 28.841 63.9395 28.8835C63.9395 28.841 63.9395 28.7975 63.9395 28.7539L63.9316 28.7561Z" fill="#064149"/>
<path d="M32.6088 0.133948L32.5977 0.101562L32.6155 0.118314C32.6136 0.123661 32.6114 0.128883 32.6088 0.133948Z" fill="#064149"/>
<path d="M0.446299 40.4441L0.457466 40.4072L0.430664 40.4162L0.4664 40.4329L0.446299 40.4441Z" fill="#064149"/>
<path d="M63.5368 41.75L63.548 41.7835L63.5234 41.7634C63.5276 41.7587 63.5321 41.7542 63.5368 41.75Z" fill="#064149"/>
<path d="M46.5759 0.426497L46.5547 0.397461C46.5634 0.40035 46.5724 0.40259 46.5815 0.404161C46.58 0.4117 46.5782 0.419156 46.5759 0.426497Z" fill="#064149"/>
<path d="M1.11636 47.6074L1.13199 47.6465L1.10742 47.6219L1.11636 47.6074Z" fill="#064149"/>
<path d="M9.35729 0.989823L9.34277 0.977539L9.35729 0.989823Z" fill="#064149"/>
<path d="M1.55485 49.6514L1.58165 49.6771L1.57607 49.6357C1.56825 49.6469 1.56155 49.6592 1.55374 49.6715C1.55361 49.6648 1.55398 49.658 1.55485 49.6514Z" fill="#064149"/>
<path d="M4.88574 3.83108V3.79199C4.89468 3.80316 4.90473 3.81433 4.91366 3.82661L4.88574 3.83108Z" fill="#064149"/>
<path d="M3.94434 4.8252L3.96779 4.86093L3.94657 4.84083C3.94535 4.8357 3.94461 4.83046 3.94434 4.8252Z" fill="#064149"/>
<path d="M18.3203 63.9898L18.3538 64.0044L18.3304 63.9619V63.9977L18.3203 63.9898Z" fill="#064149"/>
<path d="M57.7715 45.1992C57.7715 45.4025 57.8128 45.618 57.7614 45.8067C57.6497 46.1898 57.4945 46.5561 57.3661 46.9324C57.1651 47.5198 56.9786 48.1117 56.7731 48.698C56.6916 48.9336 56.5765 49.1581 56.476 49.3904L56.4582 49.4049L56.485 49.3736L56.4716 49.6796V49.6852C55.9657 50.4814 55.4665 51.2833 54.9483 52.0728C54.7328 52.4011 54.5318 52.7764 54.228 53.0042C53.3268 53.6742 52.3686 54.2728 51.454 54.9272C50.9012 55.3226 50.3886 55.7737 49.857 56.197C49.8028 56.2478 49.7396 56.2879 49.6705 56.3154C48.6342 56.6269 47.6112 57.0189 46.5537 57.2088C45.8501 57.3383 45.093 57.2088 44.3626 57.1496C43.8813 57.1127 43.4044 57.0066 42.9276 56.9318L42.9667 56.9497L42.9242 56.9631L42.9466 56.9329C42.6372 57.0066 42.3279 57.1418 42.0174 57.1429C40.7946 57.1429 39.6265 57.4422 38.4371 57.6611C37.6007 57.814 36.7006 57.5706 35.8351 57.6141C35.165 57.6465 34.5117 57.8621 33.8473 57.9704C33.5815 58.0139 33.3056 57.9816 33.0343 57.9972C32.4536 58.0318 31.8393 58.2071 31.3011 58.0743C30.8242 57.9626 30.4568 58.0798 30.0336 58.1401C29.8772 58.1625 29.6851 57.9402 29.5109 57.8297C29.5109 57.8442 29.5187 57.8576 29.5221 57.871L29.531 57.8219C29.196 57.9492 28.861 58.0832 28.517 58.1993C28.4656 58.2161 28.3819 58.1189 28.3182 58.1256C27.5923 58.2004 26.8664 58.3144 26.1417 58.349C25.8558 58.3635 25.5654 58.1736 25.2695 58.1435C24.3113 58.0441 23.3498 57.9771 22.3894 57.8967L22.3983 57.9112L20.9365 57.7995L20.9465 57.7884C20.2072 57.7392 19.4691 57.6767 18.7298 57.6477C18.1837 57.6264 17.6342 57.6756 17.0882 57.6477C16.7029 57.6309 16.3221 57.536 15.9368 57.4924C14.7876 57.3551 13.6374 57.2289 12.4894 57.0837C12.3967 57.0714 12.3185 56.9519 12.2347 56.8827L12.2448 56.8938C11.759 56.3288 11.128 56.149 10.4066 56.1825L10.4156 56.1668C9.45626 55.5437 8.42996 55.0021 7.5589 54.2684C6.79727 53.6318 6.32153 52.6267 5.52082 52.0706C4.49788 51.3592 3.89818 50.2838 3.38783 49.3468C2.79371 48.2524 2.94112 46.7638 2.71777 45.4549C2.58265 44.6833 2.23422 43.9406 2.1594 43.1678C2.03097 41.7607 2.01199 40.3402 2.00752 38.9242C2.00752 38.5958 2.27554 38.2742 2.35595 37.9336C2.38945 37.7918 2.20853 37.612 2.20407 37.4478C2.1795 36.4829 2.23757 35.5114 2.14823 34.5532C2.08011 33.8228 1.83442 33.1104 1.66803 32.39V32.3956C1.62559 30.9584 1.53737 29.5211 1.55635 28.0861C1.56752 27.2988 1.7797 26.5159 1.84894 25.7275C1.86234 25.5756 1.553 25.3981 1.56193 25.2428C1.60325 24.5728 1.70711 23.9027 1.78528 23.2327C1.85899 22.6397 1.97737 22.0489 1.99858 21.4548C2.01534 20.9489 1.90478 20.4408 1.88691 19.9327C1.88691 19.7931 2.09463 19.6445 2.08457 19.5083C2.06001 19.1811 1.9528 18.8606 1.89808 18.5345C1.84336 18.2084 1.80427 17.908 1.7864 17.5931C1.76003 17.3426 1.76792 17.0898 1.80985 16.8415C1.98853 16.0073 2.1996 15.1809 2.39056 14.35C2.50224 13.8799 2.53909 13.3851 2.71219 12.9418C2.87747 12.5208 3.24823 12.1779 3.39676 11.7547C3.57879 11.2365 3.60783 10.667 3.73178 10.1253C4.1059 8.45021 4.93229 7.03194 6.12164 5.81244C6.39412 5.53102 6.67331 5.25407 6.94803 4.97823L6.92346 4.98716L6.95027 5.01843L7.24509 4.64432C7.51534 4.29701 7.75545 3.91955 8.06479 3.61244C8.32052 3.36005 8.6589 3.19142 8.95819 2.98482L8.94144 2.97589L8.95372 3.00828C9.56012 2.72797 10.1486 2.26117 10.7763 2.2031C12.228 2.06685 13.6865 2.13498 15.1439 2.10594C15.7268 2.09366 16.3075 2.04452 16.8905 2.01325H16.8827L18.1725 2.0099C18.1848 2.0367 18.1949 2.0635 18.206 2.0903L18.1826 2.00208C18.751 2.52807 19.315 1.96523 19.8823 1.99315C20.8684 2.04228 21.8556 2.06685 22.8428 2.10482L22.8338 2.0903H22.9656L22.9556 2.10147C24.0511 2.10147 25.1489 2.13386 26.2411 2.0836C27.0485 2.04675 27.8492 1.88147 28.6566 1.81112C28.919 1.78766 29.1926 1.92279 29.4584 1.91609C30.8231 1.8569 32.1866 1.76421 33.5513 1.69944C34.2906 1.66482 35.0332 1.6369 35.7725 1.65142C37.4142 1.68157 39.0547 1.75528 40.6963 1.77761C41.172 1.78431 41.6478 1.63355 42.1235 1.63244C42.9052 1.63244 43.687 1.72624 44.4687 1.71954C45.4548 1.71061 46.4565 1.50624 47.4203 1.62685C48.9178 1.81447 50.5148 1.86472 51.6438 3.14117C51.7206 3.21115 51.8153 3.25833 51.9174 3.27741C52.4758 3.40807 52.8644 3.5566 53.0342 4.28249C53.1403 4.74148 53.9175 5.02625 54.3486 5.43721C54.572 5.64828 54.6948 5.9632 54.8612 6.23234C54.8902 6.27925 54.9092 6.3764 54.9316 6.3764C56.3163 6.3563 55.7066 7.63052 56.0818 8.2492C56.6201 9.15676 56.993 10.1527 57.1829 11.1907C57.4063 12.3722 57.3739 13.6051 57.4063 14.8157C57.4465 16.1324 57.394 17.4535 57.4677 18.7679C57.5124 19.5619 57.729 20.347 57.8507 21.1388C57.8809 21.3364 57.8038 21.552 57.8507 21.7452C57.9066 22.002 58.1199 22.2488 58.1087 22.4934C58.0439 23.9452 57.9233 25.3969 57.8496 26.8487C57.8373 27.1 57.9781 27.3546 58.0183 27.6115C58.1132 28.2145 58.2103 28.8198 58.2706 29.4273C58.3589 30.3151 58.4236 31.2074 58.4761 32.0986C58.4761 32.1578 58.2997 32.2259 58.2081 32.294C58.1552 32.3286 58.1091 32.3725 58.0719 32.4235C58.0629 32.4392 58.1366 32.4939 58.1545 32.5352C58.4035 33.1483 58.666 33.757 58.8837 34.3812C58.9418 34.5487 58.8592 34.7643 58.8413 34.9586L58.8569 34.9697C58.8356 35.2856 58.7983 35.6002 58.7453 35.9123C58.5822 36.6683 58.3779 37.4166 58.2316 38.1759C58.2103 38.2876 58.5163 38.4507 58.4996 38.5657C58.3812 39.4088 58.2182 40.2464 58.0696 41.0862L58.0506 41.0963C57.939 41.6222 57.8161 42.1471 57.7525 42.6787C57.7391 42.7904 57.9647 42.9277 58.0808 43.0539V43.0316C58.0551 43.3342 58.0406 43.6369 57.9993 43.9362C57.9725 44.1338 57.8965 44.3248 57.8597 44.5213C57.8184 44.7447 57.796 44.9781 57.7659 45.207L57.7715 45.1992ZM29.6114 21.5721C29.0374 21.3007 28.4589 21.0383 27.8916 20.7535C27.6683 20.6418 27.4795 20.4263 27.2461 20.3403C26.8307 20.1873 26.3527 20.1694 25.9708 19.9639C25.0774 19.4793 24.0801 19.0493 23.2281 19.6769C22.5882 20.1493 22.1828 21.017 21.8277 21.7731C21.5193 22.4483 21.3304 23.1719 21.2693 23.9117C21.1989 24.7649 21.3262 25.6337 21.3653 26.4958C21.3731 26.6734 21.3742 26.851 21.3731 27.0285C21.3664 27.741 21.3586 28.4527 21.3497 29.1637C21.2905 29.6976 21.2291 30.2314 21.1732 30.7652C21.142 31.07 21.1207 31.3749 21.0962 31.6798C21.085 31.8328 21.0817 31.9858 21.0649 32.1377C21.0258 32.5017 20.98 32.8647 20.9387 33.2287C20.9298 33.3091 20.9041 33.4521 20.932 33.4632C21.7238 33.8307 21.2101 34.4549 21.2402 34.9764C21.2296 35.0087 21.2207 35.0415 21.2134 35.0747C21.2134 35.0747 21.2324 35.087 21.2436 35.0937L21.2235 34.9608C21.5429 35.9771 21.965 36.971 22.1537 38.0129C22.4173 39.4647 23.8032 40.6931 25.2728 40.5591C25.4794 40.5401 25.6704 40.3357 25.8681 40.2118H25.8435C26.3673 40.1459 26.9245 40.1727 27.4069 39.9974C28.5349 39.5864 29.674 39.1654 30.7204 38.5891C32.2403 37.746 33.6876 36.7811 35.1505 35.8475C35.6061 35.5572 36.0104 35.1864 36.4426 34.8581C36.619 34.7229 36.7977 34.5152 36.992 34.4951C37.5928 34.4315 38.1579 33.8954 38.0664 33.3974L38.0786 33.413C38.3411 33.3013 38.6035 33.1896 38.8604 33.0702H38.8391L38.8715 33.0891C39.0044 32.8658 39.0804 32.5375 39.2791 32.4191C40.2842 31.8373 40.1725 30.7674 40.4718 29.8751C40.4718 29.7634 40.4718 29.6518 40.4718 29.5401C40.2388 28.9743 40.005 28.4085 39.7705 27.8426H39.7337L39.7739 27.8638C39.1619 27.8527 39.4623 26.4244 38.35 26.9917C38.111 27.1134 37.4309 26.373 36.9563 26.0279C36.4817 25.6828 36.0394 25.2529 35.5157 24.9983C34.3867 24.4477 33.1995 24.0144 32.0649 23.4739C31.5602 23.2349 31.1056 22.8764 30.6623 22.5291C30.2893 22.2376 29.9665 21.8825 29.6192 21.5564L29.5466 21.5118L29.5846 21.4894L29.6114 21.5721ZM56.8836 10.7083C56.8598 10.7221 56.8374 10.7382 56.8166 10.7563C56.8166 10.7563 56.83 10.7853 56.8379 10.801L56.9127 10.7496L56.8836 10.7083ZM57.7949 27.951L57.8362 27.9644L57.8061 27.9152L57.7949 27.951Z" fill="white"/>
<path d="M45.8488 58.6589L47.5116 58.583L47.4993 58.5953L47.8991 58.4311L47.9159 58.4255L48.9768 58.1854L48.9511 58.162V58.1832C49.1745 58.0481 49.3978 57.8984 49.6312 57.7812C50.1215 57.5377 50.6207 57.3121 51.1154 57.0787H51.0931L52.4387 56.4601H52.4142L52.4276 56.4478L53.2462 55.3991L53.2249 55.388C53.9318 54.8117 54.6209 54.212 55.3468 53.6671C55.8705 53.2762 55.8795 52.3191 56.7907 52.3683C56.8142 52.3683 56.8522 52.3314 56.8611 52.3035C57.0107 51.8255 57.157 51.3464 57.3078 50.8674L57.3335 50.8774L57.5736 50.7512L57.5591 50.7635C57.6618 50.2755 57.7623 49.7875 57.8695 49.3006C57.8863 49.2257 57.9198 49.1096 57.97 49.0951C59.1906 48.7366 59.2632 47.918 59.1873 46.7745C59.1214 45.7828 59.5502 44.7587 59.7457 43.7458C59.7527 43.6079 59.7411 43.4697 59.711 43.3349L59.8707 43.355L59.7122 43.3315C59.7814 42.5855 59.8149 41.8339 59.9288 41.098C60.0405 40.4145 60.5598 39.5345 60.2985 39.1213C59.9634 38.5875 60.6759 38.544 60.4369 38.2547L60.4593 38.2659C60.4593 38.2212 60.4593 38.1766 60.4593 38.1319L60.4369 38.1431C60.3442 37.6863 60.1633 37.2273 60.179 36.7739C60.2169 35.6114 60.3387 34.4511 60.4347 33.2908C60.4575 33.1706 60.4927 33.0531 60.5397 32.9401L60.4336 32.8798L60.4604 32.8564L60.5274 32.9535C60.3811 32.5939 60.1443 32.2421 60.112 31.8725C60.0673 31.3443 60.2236 30.8004 60.1979 30.2677C60.1723 29.735 59.9679 29.1889 59.9243 28.644C59.8574 27.8686 59.8372 27.09 59.864 26.3122C59.9098 25.1843 60.0606 24.0608 60.0784 22.934C60.0784 22.628 59.7713 22.3176 59.6038 22.0093L59.5971 22.0239C59.4665 20.9976 59.3436 19.9701 59.2007 18.9461C59.1024 18.247 58.9382 17.5557 58.8724 16.8533C58.7987 16.0716 58.8176 15.2898 58.7607 14.5081C58.7484 14.3328 58.5909 14.1731 58.4994 13.9989L58.4893 14.0134C58.4793 13.8068 58.429 13.5924 58.4692 13.3958C58.563 12.9313 58.7406 12.4812 58.8042 12.0144C58.8478 11.7039 58.7629 11.3745 58.7216 11.0551C58.6334 10.3683 58.534 9.68262 58.4435 8.99693C58.4234 8.83724 58.4223 8.67419 58.4134 8.51338C58.6725 8.52231 58.9717 8.45084 59.1839 8.55693C59.5446 8.73673 59.854 9.02932 60.1778 9.27389V9.26384C60.16 9.43582 60.1432 9.6078 60.1231 9.77866C60.1142 9.8613 60.0595 9.98749 60.0941 10.0188C60.4581 10.346 60.6737 11.0518 60.5408 11.532C60.5542 11.5387 60.5765 11.5431 60.5788 11.5521C60.581 11.561 60.5709 11.5923 60.562 11.5934C60.5327 11.5962 60.5031 11.5962 60.4738 11.5934L60.5464 11.5297C60.7697 12.3844 60.9908 13.2406 61.2097 14.0983C61.2555 14.2714 61.3069 14.4433 61.3582 14.6153C61.4096 14.7873 61.5246 14.9816 61.5191 15.1625C61.4978 15.8516 61.3895 16.5417 61.4141 17.2285C61.4286 17.6406 61.662 18.0404 61.7324 18.4569C61.7681 18.668 61.6687 18.9037 61.6106 19.127C61.5861 19.2264 61.4576 19.3235 61.4733 19.404C61.5503 19.8015 61.5738 20.246 61.777 20.5743C62.1121 21.1238 62.0004 21.5336 61.6173 21.9636C61.5961 22.0028 61.585 22.0468 61.585 22.0914C61.585 22.1361 61.5961 22.18 61.6173 22.2193C61.8775 22.3935 62.4795 22.4951 61.6989 22.8089C61.8105 23.0245 62.0138 23.2434 62.0037 23.4533C61.987 23.8218 61.7938 24.1803 61.7614 24.55C61.7424 24.7733 61.9557 25.0123 61.9457 25.239C61.9189 25.8186 61.8038 26.3937 61.7715 26.9733C61.7603 27.1699 61.8932 27.3742 61.9602 27.5741L61.9736 27.5563C61.4498 28.1626 62.1176 28.8037 61.9233 29.4335C61.8597 29.6401 62.073 29.9372 62.0015 30.1348C61.4186 31.7363 62.2651 33.3544 61.9021 34.9659C61.7201 35.77 61.7335 36.6198 61.6687 37.4485C61.6631 37.5233 61.7592 37.6003 61.7726 37.6819C61.8318 38.0694 61.8842 38.4636 61.9311 38.8489C61.9959 39.2183 62.0399 39.5912 62.0629 39.9656C62.0752 40.6714 62.0305 41.3772 62.0361 42.0819C62.0562 42.4112 62.0934 42.7392 62.1478 43.0646V43.049C62.1724 43.4097 62.1958 43.7715 62.2204 44.1322L62.2092 44.1143C62.2092 44.6392 62.2092 45.1652 62.2025 45.689L62.1712 45.6566L62.1947 45.689C62.2215 45.7705 62.2941 45.8732 62.2684 45.9291C61.8038 46.9163 61.327 47.8968 60.8535 48.8795H60.8881L60.8512 48.8594L61.0835 48.9376L61.0858 48.9142C60.9998 49.448 60.9339 49.9862 60.8177 50.5133C60.7421 50.7693 60.6376 51.0159 60.5062 51.2482C60.2348 51.8188 59.9478 52.3806 59.6809 52.9546C59.4866 53.3767 59.3291 53.8167 59.1348 54.2377C59.1002 54.3125 58.9617 54.3393 58.8724 54.3885L58.9025 54.413L58.8779 54.4209L58.8913 54.3807C58.2727 54.9636 57.6428 55.5365 57.0387 56.1351C56.6668 56.5036 56.3474 56.9224 55.9789 57.2943C55.753 57.4977 55.5147 57.6868 55.2652 57.8605C55.2329 57.8605 55.2027 57.8538 55.1714 57.8526C55.1714 57.8526 55.1636 57.8705 55.1592 57.8806L55.2708 57.8459C54.9001 58.1173 54.5539 58.4345 54.1541 58.6478C53.2953 59.1056 52.4343 59.5825 51.5219 59.9075C50.9043 60.1308 50.1941 60.075 49.5352 60.2012C49.3118 60.2425 49.1454 60.5072 48.9232 60.5831C48.5282 60.7213 48.1204 60.82 47.7059 60.8779C46.5892 61.0265 45.4724 61.204 44.349 61.252C43.421 61.2922 42.4862 61.1638 41.5571 61.1113C41.5655 61.1174 41.5745 61.1226 41.5839 61.127L41.5761 61.0957L40.0126 61.29C39.9992 61.2576 39.9836 61.2264 39.9691 61.194L40.026 61.2777C39.9702 61.3202 39.8764 61.4095 39.863 61.3983C38.5798 60.3665 37.0912 61.5703 35.712 61.0119C35.1749 60.7886 34.3864 61.1929 33.713 61.3112L33.7264 61.3213L32.7839 61.3894C32.4667 60.4603 31.7877 61.0544 31.2573 61.0276L31.2372 61.0108L31.2696 61.0376C30.2265 61.1728 29.1857 61.3727 28.1427 61.4095C27.696 61.424 27.237 61.0499 26.7646 60.9382C26.5613 60.8902 26.3045 61.0499 26.0778 61.1392C25.9885 61.1716 25.8745 61.309 25.841 61.2878C25.7466 61.2086 25.6642 61.1161 25.5965 61.0131H25.6222L25.6121 60.9907C25.2894 61.1158 24.8728 61.4374 24.6617 61.3257C24.0844 61.0443 23.6265 61.3637 23.1162 61.3983C22.8292 61.4173 22.5265 61.0868 22.2295 61.0845C21.7906 61.0845 21.345 61.319 20.9117 61.2945C20.1869 61.2543 19.47 61.0868 18.7508 60.9729C18.7508 60.9885 18.7508 61.0108 18.743 61.0186C18.7351 61.0265 18.7128 61.0186 18.6972 61.0186L18.7273 60.907L18.753 60.9851L17.2633 60.9516L17.27 60.9282H17.1337V60.9472C16.4067 60.7886 15.6819 60.6255 14.9516 60.4748C14.8846 60.4614 14.7986 60.5317 14.7226 60.5641C14.5898 60.62 14.4379 60.7506 14.3284 60.7216C13.8817 60.5999 12.8007 58.8611 12.9157 58.4188C12.9381 58.3373 13.2597 58.2647 13.4194 58.2993C13.9956 58.4267 14.5574 58.6187 15.1336 58.7527C16.1901 58.9973 17.2454 59.2832 18.3175 59.4228C18.8825 59.4965 19.4845 59.2374 20.0685 59.2397C20.5443 59.2397 21.0178 59.4183 21.4946 59.5054C22.1971 59.6339 23.0391 59.5535 23.5696 59.9242C24.1782 60.3497 24.6696 59.8371 25.2224 60.0649C25.6691 60.2514 26.2509 60.1051 26.7713 60.1342C27.2917 60.1632 27.8333 60.228 28.366 60.276C28.3973 60.2872 28.4252 60.3017 28.4554 60.3117C28.4632 60.3117 28.4755 60.3039 28.4866 60.2983L28.3526 60.2805C28.5041 60.187 28.6637 60.1074 28.8295 60.0426C29.0953 59.9633 29.3744 59.8695 29.6447 59.8762C30.3147 59.8907 30.9725 59.9879 31.6381 59.9979C32.1596 60.0102 32.6823 59.9343 33.2016 59.9298C33.8839 59.9231 34.5673 59.9454 35.2497 59.9577C35.3334 59.9577 35.4351 60.008 35.4954 59.9756C35.7846 59.8204 36.0448 59.5456 36.3463 59.4932C37.261 59.3323 38.1901 59.2542 39.1136 59.1436C39.2309 59.1302 39.3482 59.1112 39.4654 59.109C40.0238 59.1012 40.5911 59.1336 41.1484 59.0833C41.7056 59.0331 42.2729 58.8466 42.8391 58.8209C43.4902 58.7907 44.1469 58.9002 44.8002 58.8912C45.105 58.8912 45.4088 58.7438 45.7137 58.6679L45.7058 58.6891H45.8443L45.8488 58.6589Z" fill="#BFEDE6"/>
<path d="M63.6542 31.3107L63.5928 31.2247C63.6274 31.2091 63.6654 31.1767 63.6944 31.1823C63.7234 31.1879 63.7301 31.2415 63.7469 31.2739L63.6542 31.3107Z" fill="white"/>
<path d="M19.0107 61.4006L19.0465 61.3135C19.0733 61.3269 19.1157 61.3347 19.1213 61.3548C19.1269 61.3749 19.1068 61.4129 19.0967 61.4419L19.0107 61.4006Z" fill="white"/>
<path d="M62.2744 20.8322L62.1895 20.8959C62.1636 20.8568 62.1451 20.8132 62.1348 20.7675C62.1348 20.7485 62.1962 20.7273 62.2297 20.7061L62.2744 20.8322Z" fill="white"/>
<path d="M57.7679 45.1992L57.8215 45.4806L57.7266 45.4739C57.7411 45.3824 57.7556 45.2908 57.7712 45.1992H57.7679Z" fill="white"/>
<path d="M56.4717 49.6797H56.7319C56.6964 49.6953 56.6587 49.7054 56.6202 49.7098C56.5698 49.7048 56.5201 49.6947 56.4717 49.6797C56.4717 49.6797 56.4717 49.6797 56.4717 49.6797Z" fill="white"/>
<path d="M57.3115 50.7557L57.5606 50.7669L57.5751 50.7546L57.335 50.749L57.3115 50.7557Z" fill="white"/>
<path d="M12.8029 58.0377C12.7973 58.0522 12.7951 58.0723 12.785 58.079C12.775 58.0857 12.7549 58.079 12.7393 58.079L12.7661 58.0098L12.8029 58.0377Z" fill="white"/>
<path d="M42.3898 58.5957L42.4423 58.6527C42.4311 58.6616 42.4177 58.6806 42.4077 58.6795C42.3798 58.6727 42.3526 58.6638 42.3262 58.6527L42.3898 58.5957Z" fill="white"/>
<path d="M33.9647 63.4442L33.9111 63.2555L33.9804 63.2354C33.9703 63.3012 33.9603 63.3671 33.9536 63.4353L33.9647 63.4442Z" fill="white"/>
<path d="M26.2821 1.82829L26.2441 1.80149L26.2888 1.78809L26.2821 1.82829Z" fill="white"/>
<path d="M22.8429 2.0959L22.9211 2.00879L22.9557 2.09366L22.9658 2.08249H22.834L22.8429 2.0959Z" fill="white"/>
<path d="M62.0967 17.8113L62.0576 17.8012L62.1101 17.7666L62.0967 17.8113Z" fill="white"/>
<path d="M63.6903 37.752L63.6133 37.7441C63.6378 37.7441 63.6624 37.7441 63.687 37.7441L63.6903 37.752Z" fill="white"/>
<path d="M61.3389 14.4219L61.3869 14.4062L61.3802 14.4487L61.3389 14.4219Z" fill="white"/>
<path d="M60.0999 8.90851L60.062 8.92191C60.0557 8.90621 60.052 8.88963 60.0508 8.87278C60.0508 8.87278 60.0742 8.86384 60.0865 8.85938L60.0999 8.90851Z" fill="white"/>
<path d="M62.1275 26.6794L62.1175 26.7185L62.084 26.666L62.1275 26.6794Z" fill="white"/>
<path d="M63.3195 39.6904L63.3307 39.7351L63.2949 39.7273L63.3195 39.6904Z" fill="white"/>
<path d="M3.71403 9.6437L3.69616 9.68167L3.68164 9.64258L3.71403 9.6437Z" fill="white"/>
<path d="M6.41004 53.3806L6.40111 53.4219L6.36426 53.3672L6.41004 53.3806Z" fill="white"/>
<path d="M54.0898 54.4932L54.1267 54.4854L54.1189 54.5121L54.0898 54.4932Z" fill="white"/>
<path d="M10.4054 56.1924L10.3496 56.1299L10.4144 56.1757L10.4054 56.1924Z" fill="white"/>
<path d="M20.9355 57.8051L21.0807 57.8196L21.0394 57.8911L20.9456 57.7939L20.9355 57.8051Z" fill="white"/>
<path d="M0.817 37.4571C0.804716 37.4571 0.786848 37.4716 0.780148 37.4671C0.773447 37.4626 0.764513 37.4414 0.757812 37.428L0.824818 37.4102L0.817 37.4571Z" fill="white"/>
<path d="M19.1928 58.1338C19.2062 58.1338 19.2252 58.1338 19.2319 58.1338C19.2404 58.1477 19.2457 58.1633 19.2475 58.1796H19.1738C19.1805 58.1639 19.1861 58.1483 19.1928 58.1338Z" fill="white"/>
<path d="M47.8991 58.4304C47.8991 58.4025 47.8991 58.3746 47.8936 58.3467C47.9003 58.3724 47.9058 58.398 47.9137 58.4237C47.9159 58.4248 47.8991 58.4304 47.8991 58.4304Z" fill="white"/>
<path d="M47.5122 58.5832L47.4385 58.4716L47.4809 58.4492C47.4876 58.4961 47.4943 58.5419 47.4999 58.5888L47.5122 58.5832Z" fill="white"/>
<path d="M35.4004 59.4234C35.4004 59.4111 35.4116 59.3877 35.4183 59.3877C35.4344 59.3905 35.4499 59.3961 35.464 59.4044C35.4573 59.4167 35.4518 59.4402 35.4451 59.4402C35.4292 59.4376 35.414 59.4319 35.4004 59.4234Z" fill="white"/>
<path d="M34.8549 1.52246C34.8627 1.53363 34.875 1.5448 34.875 1.55596C34.875 1.56713 34.8604 1.57718 34.8526 1.58723C34.8523 1.56562 34.853 1.544 34.8549 1.52246Z" fill="white"/>
<path d="M57.624 16.2178C57.6341 16.2301 57.6564 16.2457 57.6542 16.2546C57.6449 16.2827 57.6326 16.3097 57.6173 16.335C57.6054 16.3081 57.596 16.28 57.5894 16.2513C57.585 16.2423 57.6084 16.2289 57.624 16.2178Z" fill="white"/>
<path d="M30.8785 61.442L30.835 61.4264C30.8501 61.4101 30.867 61.3955 30.8852 61.3828C30.8852 61.3828 30.9076 61.404 30.9198 61.4152L30.8785 61.442Z" fill="white"/>
<path d="M63.9373 28.7549C63.9373 28.7984 63.9373 28.842 63.9373 28.8844L63.8457 28.8442L63.9373 28.7549Z" fill="white"/>
<path d="M24.2073 63.4131L24.2844 63.4399L24.2051 63.4231L24.2073 63.4131Z" fill="white"/>
<path d="M59.6071 22.0088L59.6273 22.0311C59.619 22.0277 59.6104 22.0251 59.6016 22.0233C59.6029 22.0183 59.6048 22.0134 59.6071 22.0088Z" fill="white"/>
<path d="M61.9619 27.5624V27.5322C61.9662 27.5376 61.971 27.5425 61.9764 27.5467L61.9619 27.5624Z" fill="white"/>
<path d="M63.6544 30.4873L63.6813 30.5163L63.6455 30.5029C63.6481 30.4975 63.6511 30.4923 63.6544 30.4873Z" fill="white"/>
<path d="M1.6748 32.4072L1.70942 32.4229L1.67704 32.4139C1.67596 32.4118 1.67521 32.4096 1.6748 32.4072Z" fill="white"/>
<path d="M58.8418 34.9541L58.8731 34.9307C58.8672 34.9415 58.862 34.9527 58.8574 34.9642L58.8418 34.9541Z" fill="white"/>
<path d="M60.4415 38.2547L60.5309 38.1977L60.4404 38.143L60.4628 38.1318C60.4628 38.1765 60.4628 38.2212 60.4628 38.2658L60.4415 38.2547Z" fill="white"/>
<path d="M58.0707 41.0791L58.0607 41.1115L58.083 41.1059L58.0518 41.0903L58.0707 41.0791Z" fill="white"/>
<path d="M62.1452 43.0557L62.1653 43.0568L62.1396 43.04L62.1452 43.0557Z" fill="white"/>
<path d="M58.086 43.0462L58.0547 43.0205H58.0804L58.086 43.0462Z" fill="white"/>
<path d="M62.2124 44.1233L62.1777 44.1177L62.2001 44.1055C62.2045 44.1112 62.2086 44.1171 62.2124 44.1233Z" fill="white"/>
<path d="M33.8558 0.790609L33.8223 0.802894L33.8256 0.770508L33.8558 0.790609Z" fill="white"/>
<path d="M61.0762 48.9251L61.0684 48.8916C61.0741 48.8981 61.0805 48.9041 61.0873 48.9095C61.084 48.9149 61.0803 48.9202 61.0762 48.9251Z" fill="white"/>
<path d="M15.4111 0.908203H15.4513L15.4245 0.921604L15.4111 0.908203Z" fill="white"/>
<path d="M8.625 1.32019L8.66632 1.31014L8.62835 1.29785L8.625 1.32019Z" fill="white"/>
<path d="M8.62835 1.29785L8.65739 1.30567L8.625 1.31907L8.62835 1.29785Z" fill="white"/>
<path d="M57.3086 50.8707C57.3242 50.8451 57.3377 50.8182 57.3488 50.7903C57.3488 50.7836 57.3242 50.768 57.3108 50.7557L57.3343 50.749V50.8808L57.3086 50.8707Z" fill="white"/>
<path d="M8.64448 55.3912L8.60986 55.4214C8.59981 55.4091 8.58194 55.3968 8.58306 55.3856C8.58417 55.3745 8.60428 55.3655 8.61544 55.3555L8.64448 55.3912Z" fill="white"/>
<path d="M53.2471 55.4016L53.2158 55.4106C53.2202 55.4046 53.2239 55.3983 53.227 55.3916L53.2471 55.4016Z" fill="white"/>
<path d="M16.8908 2.00977L16.8506 2.03657L16.8807 2.012L16.8908 2.00977Z" fill="white"/>
<path d="M58.4873 56.8431V56.8687L58.4639 56.8408L58.4873 56.8431Z" fill="white"/>
<path d="M12.2334 56.8936L12.2033 56.9728L12.1631 56.9293L12.2435 56.9047L12.2334 56.8936Z" fill="white"/>
<path d="M22.3878 57.9023L22.3789 57.909L22.3968 57.9169L22.3878 57.9023Z" fill="white"/>
<path d="M53.1599 3.66895L53.1744 3.70691L53.1387 3.70356L53.1599 3.66895Z" fill="white"/>
<path d="M45.7256 58.6582H45.8484L45.8563 58.6794H45.7178L45.7256 58.6582Z" fill="white"/>
<path d="M3.10994 6.76521L3.09766 6.75293L3.10994 6.76521Z" fill="white"/>
<path d="M2.96875 6.89587L3.10947 6.76521L3.09718 6.75293L2.96094 6.88806L2.96875 6.89587Z" fill="white"/>
<path d="M58.8843 7.05234C58.8709 7.06462 58.8574 7.08472 58.8452 7.08472C58.8329 7.08472 58.8228 7.06127 58.8105 7.04899C58.8239 7.0367 58.8373 7.0166 58.8496 7.0166C58.8619 7.0166 58.8731 7.03559 58.8843 7.05234Z" fill="white"/>
<path d="M17.2665 60.9485L17.1426 60.9418V60.9229H17.2788L17.2665 60.9485Z" fill="white"/>
<path d="M60.1831 9.26857L60.1484 9.2373L60.1764 9.25741L60.1831 9.26857Z" fill="white"/>
<path d="M52.4368 61.0605C52.4372 61.0646 52.4372 61.0687 52.4368 61.0728C52.4364 61.0687 52.4364 61.0646 52.4368 61.0605Z" fill="white"/>
<path d="M33.7168 61.31L33.7481 61.2832L33.7302 61.3189L33.7168 61.31Z" fill="white"/>
<path d="M58.5025 13.9927V14.0285L58.5249 13.9883L58.4902 14.0061L58.5025 13.9927Z" fill="white"/>
<path d="M0.463601 14.8447L0.474769 14.8805L0.442383 14.876L0.463601 14.8447Z" fill="white"/>
<path d="M57.5928 17.6515L57.633 17.6348L57.6296 17.6739L57.5928 17.6515Z" fill="white"/>
<path d="M38.8624 33.0715L38.0807 33.4132L38.1019 33.4009H38.0673C38.1588 33.899 37.5938 34.435 36.993 34.4987C36.7986 34.5188 36.62 34.722 36.4435 34.8616C36.0113 35.19 35.6071 35.5607 35.1514 35.8511C33.6885 36.7847 32.2412 37.7496 30.7235 38.5849C29.6771 39.1611 28.538 39.5822 27.4101 39.9931C26.9265 40.1685 26.3693 40.1417 25.8466 40.2075L25.8701 40.2321V40.2031C25.6724 40.3237 25.4815 40.5314 25.2749 40.5504C23.8052 40.6877 22.4193 39.4515 22.1558 38.0042C21.967 36.9645 21.5449 35.9683 21.2255 34.9521L21.2367 34.9621C21.2121 34.4462 21.7258 33.8219 20.934 33.4545C20.9061 33.4411 20.934 33.3004 20.9407 33.22C20.9821 32.856 21.0279 32.493 21.0669 32.1289C21.0837 31.9771 21.087 31.8241 21.0982 31.6711C21.1228 31.3662 21.144 31.0613 21.1753 30.7565C21.2311 30.2226 21.2869 29.6888 21.3517 29.1528L21.3271 29.1293L21.3506 29.1606C21.358 28.4496 21.3659 27.7379 21.374 27.0254C21.374 26.8478 21.374 26.6703 21.3662 26.4927C21.3271 25.6306 21.1998 24.7617 21.2702 23.9085C21.3313 23.1688 21.5203 22.4452 21.8286 21.7699C22.1837 21.0094 22.5891 20.1462 23.229 19.6738C24.0811 19.0462 25.0761 19.4761 25.9717 19.9608C26.3525 20.1663 26.8316 20.1842 27.2471 20.3372C27.4805 20.4231 27.6658 20.6364 27.8925 20.7503C28.4598 21.0351 29.0383 21.2976 29.6123 21.5689L29.628 21.5566C29.9719 21.8827 30.298 22.2379 30.6677 22.5293C31.1144 22.8766 31.5611 23.2351 32.0703 23.4741C33.2049 24.0146 34.392 24.4479 35.5211 24.9985C36.0448 25.2531 36.4837 25.6808 36.9617 26.0281C37.4397 26.3754 38.1164 27.1136 38.3554 26.9919C39.4721 26.4246 39.1673 27.8529 39.7793 27.8641V27.8406L40.4795 29.5392L40.4929 29.5303V29.8876L40.4761 29.8787C40.1802 30.7721 40.2863 31.8408 39.2834 32.4227C39.0846 32.5343 39.0087 32.8615 38.8758 33.0927L38.8624 33.0715ZM31.3645 22.9961L31.4014 23.0263C31.3858 23.0225 31.3705 23.0176 31.3556 23.0118L31.3757 23.0397L31.3645 22.9961ZM22.9085 24.7092H22.9152C22.7968 25.338 22.6371 25.9622 22.5712 26.5954C22.5053 27.2286 23.0782 27.7669 22.7946 28.5408C22.5656 29.174 22.7666 29.9703 22.8068 30.6928C22.8604 31.6633 22.9431 32.6326 23.0134 33.6019L23.0235 33.5908L23.2468 35.2391V35.2168C23.4255 36.2464 23.602 37.2761 23.7896 38.3035C23.7996 38.3593 23.8934 38.404 23.9526 38.4475C24.7243 39.0182 26.3548 39.0975 27.1856 38.5916C27.3219 38.5078 27.3844 38.2566 27.5207 38.2208C27.9495 38.1159 28.4509 38.1829 28.8239 37.9908C29.5665 37.6066 30.2455 37.0974 30.9457 36.6328C31.4293 36.3123 31.9039 35.9795 32.383 35.6523H32.3696C32.5706 35.5406 32.766 35.4156 32.9715 35.3173C33.6527 34.9823 34.3987 34.7299 35.0051 34.2887C35.6551 33.8152 36.1766 33.1642 36.7506 32.5857C37.3246 32.0072 37.902 31.4689 38.4324 30.8648C39.0612 30.1545 38.7876 29.2701 37.8953 28.8904C37.5882 28.7597 37.328 28.523 37.0421 28.3409C36.5049 27.9992 35.9711 27.6508 35.4206 27.3358C35.3346 27.2867 35.1671 27.3906 35.0342 27.4062C34.9281 27.4185 34.774 27.4509 34.717 27.3961C34.4579 27.1438 34.2703 26.7987 33.9721 26.6144C33.6371 26.4011 33.2228 26.3174 32.8431 26.1778C32.5606 26.075 32.2233 26.0371 32.0067 25.8561C31.6504 25.5591 31.5086 24.8857 30.8095 25.3637C30.728 25.4206 30.3862 25.1995 30.24 25.0398C29.9608 24.7349 29.8011 24.2871 29.4772 24.066C28.6776 23.5165 27.8166 23.0609 26.9712 22.5751C26.7814 22.4634 26.5502 22.4333 26.3436 22.3518C26.2018 22.2948 25.9885 22.2401 25.9483 22.1284C25.7249 21.5164 24.8706 21.2596 24.3736 21.6717C24.281 21.7476 24.1112 21.847 24.0386 21.8113C23.1731 21.3835 22.8671 21.9017 22.7041 22.6042C22.6388 22.9049 22.6252 23.2146 22.6639 23.5199C22.7108 23.9119 22.8258 24.3094 22.9118 24.7092H22.9085ZM23.6277 19.6023C23.5741 19.6515 23.516 19.695 23.516 19.7051C23.5629 19.7966 23.621 19.8826 23.6757 19.9697L23.8086 19.8837L23.6277 19.6023ZM34.0358 36.2118C34.0612 36.2255 34.0877 36.2371 34.1151 36.2464C34.124 36.2464 34.1486 36.2196 34.1464 36.2174C34.1319 36.1961 34.1159 36.1759 34.0983 36.1571L34.0358 36.2118ZM23.3328 19.9686L23.3518 19.9027C23.3407 19.9027 23.3194 19.9094 23.3194 19.9139C23.3211 19.9327 23.3256 19.9512 23.3328 19.9686ZM24.3446 21.4472C24.3331 21.4408 24.3207 21.4363 24.3078 21.4338C24.3022 21.4338 24.2977 21.4539 24.2932 21.464C24.3045 21.4709 24.317 21.4754 24.3301 21.4774C24.3301 21.4774 24.3446 21.4584 24.3446 21.4472ZM38.897 27.5078L38.935 27.4855L38.9071 27.452L38.8602 27.4922L38.897 27.5078ZM26.1638 21.7766L26.1281 21.7554V21.7934L26.1638 21.7766ZM26.9522 40.0914L26.9165 40.0702V40.1059L26.9522 40.0914Z" fill="#064149"/>
<path d="M18.1832 1.99707L18.2066 2.08529C18.1955 2.05849 18.1854 2.03169 18.1731 2.00489C18.1709 2.01047 18.1832 1.99707 18.1832 1.99707Z" fill="#064149"/>
<path d="M40.4766 29.5427C40.4766 29.6544 40.4766 29.766 40.4766 29.8777L40.4933 29.8867C40.4933 29.7683 40.4933 29.6488 40.4933 29.5293L40.4766 29.5427Z" fill="#064149"/>
<path d="M56.885 10.7109L56.9129 10.75L56.8381 10.8014C56.8302 10.7858 56.8135 10.7601 56.8168 10.7567C56.8373 10.7383 56.8602 10.7229 56.885 10.7109Z" fill="#064149"/>
<path d="M29.6111 21.5725L29.5887 21.4932L29.5508 21.5155L29.6245 21.5602L29.6111 21.5725Z" fill="#064149"/>
<path d="M21.2249 34.9541L21.245 35.087C21.2339 35.0803 21.2138 35.0725 21.2149 35.068C21.2216 35.0345 21.2316 35.0021 21.2395 34.9664L21.2249 34.9541Z" fill="#064149"/>
<path d="M57.7949 27.9508L57.8061 27.915L57.8363 27.9642L57.7949 27.9508Z" fill="#064149"/>
<path d="M39.7785 27.8669L39.7383 27.8457H39.7762L39.7785 27.8669Z" fill="#064149"/>
<path d="M38.8742 33.0932L38.8418 33.0742H38.8653L38.8742 33.0932Z" fill="#064149"/>
<path d="M56.4848 49.374L56.458 49.4053L56.4759 49.3908L56.4848 49.374Z" fill="#064149"/>
<path d="M42.9452 56.9367L42.9229 56.9668L42.9653 56.9534L42.9262 56.9355L42.9452 56.9367Z" fill="#064149"/>
<path d="M29.5299 57.8252L29.5209 57.8743C29.5209 57.8609 29.5142 57.8475 29.5098 57.833C29.5162 57.8298 29.5229 57.8271 29.5299 57.8252Z" fill="#064149"/>
<path d="M8.95369 3.00895L8.94141 2.97656L8.95816 2.9855C8.95731 2.99342 8.95582 3.00127 8.95369 3.00895Z" fill="#064149"/>
<path d="M6.94951 5.01857L6.92383 4.9873L6.9551 4.99736C6.95378 5.00456 6.95191 5.01165 6.94951 5.01857Z" fill="#064149"/>
<path d="M28.3652 60.2759L28.4992 60.2938C28.4881 60.2994 28.4758 60.3106 28.468 60.3072C28.4378 60.2972 28.4099 60.2827 28.3786 60.2715L28.3652 60.2759Z" fill="#064149"/>
<path d="M59.7169 43.3301L59.8755 43.3535L59.7158 43.3334L59.7169 43.3301Z" fill="#064149"/>
<path d="M60.5472 11.5234L60.4746 11.5871C60.504 11.5899 60.5335 11.5899 60.5628 11.5871C60.5718 11.5871 60.5818 11.5592 60.5796 11.5458C60.5773 11.5324 60.555 11.5324 60.5416 11.5257L60.5472 11.5234Z" fill="#064149"/>
<path d="M60.5274 32.9536L60.4604 32.8564L60.4336 32.8799L60.5397 32.9402C60.5359 32.9449 60.5318 32.9494 60.5274 32.9536Z" fill="#064149"/>
<path d="M57.335 50.8808V50.749L57.5751 50.7546L57.335 50.8808Z" fill="#064149"/>
<path d="M55.2787 57.8408L55.167 57.8754C55.167 57.8654 55.1759 57.8475 55.1793 57.8475C55.2105 57.8475 55.2407 57.8475 55.2731 57.8553L55.2787 57.8408Z" fill="#064149"/>
<path d="M40.0296 61.2732L39.9727 61.1895C39.9872 61.2218 40.0028 61.2531 40.0162 61.2855L40.0296 61.2732Z" fill="#064149"/>
<path d="M18.7609 60.9825L18.7352 60.9043L18.7051 61.016C18.7207 61.016 18.743 61.0238 18.7509 61.016C18.7587 61.0082 18.7509 60.9858 18.7587 60.9702L18.7609 60.9825Z" fill="#064149"/>
<path d="M62.1875 45.675L62.1641 45.6426C62.1641 45.6426 62.1931 45.6739 62.1953 45.675C62.1976 45.6761 62.1875 45.675 62.1875 45.675Z" fill="#064149"/>
<path d="M60.8438 48.8467L60.8806 48.8668H60.846C60.8448 48.8601 60.8441 48.8534 60.8438 48.8467Z" fill="#064149"/>
<path d="M58.894 54.376L58.8806 54.4162L58.9051 54.4084L58.875 54.3838L58.894 54.376Z" fill="#064149"/>
<path d="M52.4284 56.4512L52.415 56.4635L52.4396 56.4668L52.4284 56.4512Z" fill="#064149"/>
<path d="M48.9521 58.1828V58.1582L48.9778 58.1816L48.9521 58.1828Z" fill="#064149"/>
<path d="M25.6152 60.9873L25.6253 61.0096H25.5996L25.6152 60.9873Z" fill="#064149"/>
<path d="M31.2775 61.0297L31.2451 61.0029L31.2652 61.0197L31.2775 61.0297Z" fill="#064149"/>
<path d="M41.5786 61.0869L41.5864 61.1182C41.577 61.1138 41.568 61.1086 41.5596 61.1025L41.5786 61.0869Z" fill="#064149"/>
<path d="M32.3861 35.6494C31.907 35.9766 31.4324 36.3094 30.9488 36.6299C30.2486 37.0945 29.5696 37.6037 28.827 37.9879C28.454 38.18 27.9526 38.113 27.5237 38.2179C27.392 38.2503 27.3294 38.505 27.1887 38.5887C26.3579 39.0946 24.7319 39.0153 23.9557 38.4446C23.8965 38.4011 23.8027 38.3564 23.7927 38.3006C23.6051 37.2732 23.4286 36.2435 23.2499 35.215L23.2053 35.2217L23.2522 35.2362L23.0288 33.5879L22.9908 33.5946L23.0266 33.5644L23.0188 33.5991C22.9484 32.6297 22.8658 31.6604 22.8122 30.6899C22.772 29.9674 22.5709 29.1711 22.7999 28.5379C23.0791 27.764 22.5051 27.238 22.5765 26.5925C22.648 25.9471 22.7999 25.3351 22.9194 24.7064C22.9127 24.6807 22.9049 24.655 22.8982 24.6282L22.9138 24.7097C22.8278 24.3099 22.7128 23.9123 22.6659 23.507C22.6272 23.2016 22.6408 22.892 22.7061 22.5912C22.8691 21.8888 23.1751 21.3706 24.0406 21.7983C24.1121 21.8341 24.2818 21.7347 24.3756 21.6587C24.8726 21.2467 25.7247 21.5035 25.9502 22.1155C25.9904 22.2272 26.2037 22.2796 26.3456 22.3388C26.5522 22.4237 26.7833 22.4572 26.9732 22.5622C27.8186 23.0424 28.6796 23.5036 29.4792 24.0531C29.803 24.2764 29.9627 24.7231 30.2419 25.0269C30.3882 25.1866 30.7299 25.4077 30.8115 25.3507C31.5106 24.8727 31.6524 25.5462 32.0086 25.8432C32.2253 26.0241 32.567 26.0666 32.8451 26.1648C33.2248 26.3044 33.6413 26.3882 33.9741 26.6015C34.2678 26.7902 34.4599 27.1353 34.719 27.3832C34.7759 27.4379 34.9301 27.4055 35.0361 27.3933C35.169 27.3776 35.3365 27.2738 35.4225 27.3229C35.9731 27.6412 36.5069 27.993 37.0441 28.328C37.33 28.51 37.5902 28.7468 37.8973 28.8774C38.7907 29.2571 39.0632 30.1416 38.4344 30.8518C37.904 31.4515 37.3177 32.0043 36.7526 32.5728C36.1875 33.1412 35.6571 33.8012 35.0071 34.2758C34.4007 34.7169 33.6547 34.9648 32.9735 35.3043C32.768 35.406 32.5726 35.5277 32.3705 35.6449L32.3492 35.6695L32.3861 35.6494ZM22.9227 23.0201L22.8937 23.0055V23.0368L22.9227 23.0201Z" fill="#FD7D73"/>
<path d="M23.6314 19.6025L23.8134 19.884L23.6806 19.97C23.6258 19.8828 23.5689 19.7969 23.5209 19.7053C23.5153 19.6952 23.5778 19.655 23.6314 19.6025Z" fill="white"/>
<path d="M40.4893 29.5342C40.4893 29.6537 40.4893 29.7732 40.4893 29.8915C40.4904 29.7732 40.4904 29.6537 40.4893 29.5342Z" fill="white"/>
<path d="M34.0391 36.212L34.1016 36.1572C34.1192 36.176 34.1352 36.1962 34.1496 36.2175C34.1496 36.2175 34.1273 36.2488 34.1184 36.2466C34.091 36.2373 34.0645 36.2257 34.0391 36.212Z" fill="white"/>
<path d="M23.3327 19.9682C23.3255 19.9508 23.321 19.9323 23.3193 19.9135C23.3193 19.9135 23.3406 19.9057 23.3517 19.9023L23.3327 19.9682Z" fill="white"/>
<path d="M24.3443 21.447C24.3443 21.4582 24.3343 21.4771 24.3298 21.4771C24.3168 21.4752 24.3042 21.4706 24.293 21.4637C24.293 21.4537 24.3019 21.4336 24.3075 21.4336C24.3204 21.4361 24.3329 21.4406 24.3443 21.447Z" fill="white"/>
<path d="M38.8982 27.508L38.8613 27.4923L38.9082 27.4521L38.9361 27.4856L38.8982 27.508Z" fill="white"/>
<path d="M26.1641 21.781L26.125 21.7977L26.1284 21.7598L26.1641 21.781Z" fill="white"/>
<path d="M31.3564 23.0128L31.4045 23.0262L31.3676 22.9961L31.3564 23.0128Z" fill="white"/>
<path d="M31.3685 22.9961L31.3796 23.0396C31.3732 23.0299 31.3661 23.0205 31.3584 23.0117L31.3685 22.9961Z" fill="white"/>
<path d="M21.3496 29.1641L21.3262 29.1328L21.3507 29.1563C21.3505 29.1589 21.3502 29.1615 21.3496 29.1641Z" fill="white"/>
<path d="M38.0664 33.3975H38.101L38.0798 33.4097C38.0751 33.4059 38.0706 33.4018 38.0664 33.3975Z" fill="white"/>
<path d="M26.952 40.0915L26.9141 40.1061L26.9163 40.0703L26.952 40.0915Z" fill="white"/>
<path d="M25.8692 40.2034V40.2257L25.8457 40.2012L25.8692 40.2034Z" fill="white"/>
<path d="M22.9121 24.7095L22.8965 24.6279C22.9032 24.6547 22.911 24.6804 22.9177 24.7061L22.9121 24.7095Z" fill="#064149"/>
<path d="M22.922 23.02L22.8896 23.0311L22.8941 23.001L22.922 23.02Z" fill="#064149"/>
<path d="M23.0211 33.5981L23.0289 33.5635L22.9932 33.5936L23.0311 33.5869L23.0211 33.5981Z" fill="#064149"/>
<path d="M23.253 35.2361L23.2061 35.2215L23.2507 35.2148L23.253 35.2361Z" fill="#064149"/>
<path d="M32.3853 35.6484L32.3496 35.6775L32.3708 35.6529L32.3853 35.6484Z" fill="#064149"/>
</g>
<defs>
<clipPath id="clip0_1937_5726">
<rect width="64.1195" height="64" fill="white"/>
</clipPath>
</defs>
</svg>
