<svg width="87" height="65" viewBox="0 0 87 65" fill="none" xmlns="http://www.w3.org/2000/svg">
<path d="M50.8359 54.373C47.7381 54.4573 45.5154 54.6117 43.2974 54.5508C41.4256 54.4994 39.61 54.1905 37.7617 54.0127C36.9802 53.9378 36.1894 53.9519 35.422 53.863C33.096 53.5828 30.807 53.0525 28.5947 52.2813C27.102 51.776 26.8119 51.9257 26.3159 53.4325C26.1531 53.8399 25.915 54.2129 25.614 54.5321C24.781 55.5008 23.8732 56.4039 23.0637 57.3912C22.4367 58.1493 21.9921 59.0758 21.3136 59.7684C20.1268 60.9968 18.859 62.1443 17.5186 63.203C17.147 63.4857 16.6983 63.6486 16.232 63.6704C15.7657 63.6921 15.3038 63.5715 14.9075 63.3247C14.4854 63.0208 14.1489 62.6129 13.9308 62.1407C13.7128 61.6684 13.6204 61.1478 13.6628 60.6294C13.6909 59.993 13.6628 59.3566 13.7049 58.7202C13.7197 58.5137 13.751 58.3087 13.7985 58.1072C14.2384 55.7675 14.6268 53.395 15.1508 51.0881C15.4284 50.1034 15.7998 49.1475 16.2599 48.2337C16.6342 47.3867 16.4143 46.8299 15.7264 46.2402C14.6595 45.3044 13.7143 44.2468 12.6895 43.2735C12.1654 42.7728 11.5384 42.3844 11.033 41.8697C10.5055 41.3623 10.0348 40.799 9.62917 40.1898C8.59502 38.5239 7.43453 36.9142 6.68583 35.1033C6.17578 33.7837 6.11027 32.2629 6.03072 30.831C5.94506 29.5771 6.03324 28.3173 6.29276 27.0875C6.73714 25.3427 7.27924 23.6242 7.91651 21.9402C8.14331 21.5055 8.43701 21.1091 8.78688 20.7657C8.87578 20.6487 9.077 20.5598 9.08168 20.4475C9.13783 19.404 10.1065 19.0062 10.5931 18.2715C10.8042 17.8381 11.0565 17.426 11.3465 17.0409C12.8065 15.5481 14.2758 14.0648 15.8153 12.661C16.859 11.681 17.9881 10.7962 19.1892 10.0171C20.4479 9.23097 21.8704 8.71623 23.1807 8.00497C25.4876 6.73685 27.9958 6.0443 30.5086 5.36111C32.8483 4.71536 35.2441 4.27081 37.6447 3.83563C39.5164 3.50807 41.3882 3.27878 43.2599 3.12904C44.9164 2.99802 46.5917 2.98398 48.2575 3.01206C50.0404 3.04013 51.8232 3.115 53.6014 3.27878C55.0473 3.40981 56.4745 3.78416 57.9251 3.9105C60.7397 4.22461 63.4999 4.91229 66.1328 5.95539C68.4112 6.78779 70.6406 7.7486 72.8103 8.83322C74.1988 9.56755 75.5163 10.4291 76.7456 11.4069C78.1206 12.4282 79.4288 13.5363 80.6623 14.7246C81.5172 15.6304 82.2995 16.602 83.002 17.6305C83.6384 18.4915 84.214 19.3899 84.8176 20.2743C84.8695 20.3469 84.909 20.4275 84.9346 20.513C85.4446 22.3847 86.0342 24.2565 86.4179 26.1563C86.6753 27.4291 86.3852 28.7347 86.2729 30.0355C86.0134 32.8415 85.0174 35.5292 83.3857 37.8267C82.4498 39.165 81.659 40.6343 80.2178 41.5702C79.8762 41.7902 79.7498 42.3189 79.4176 42.5716C77.499 44.0269 75.515 45.4073 73.6198 46.8907C71.2801 48.7156 68.4725 49.5533 65.8754 50.8027C64.7243 51.3548 63.4141 51.5841 62.174 51.9444C61.1024 52.2486 60.0355 52.5995 58.9499 52.8195C55.9738 53.4371 52.9697 53.9659 50.8359 54.373ZM35.6559 26.7319C35.3377 26.0627 35.0616 25.3749 34.72 24.7338C33.8403 23.1662 31.7065 21.9589 29.8628 22.7778C29.1919 23.1112 28.6159 23.6085 28.1881 24.2236C27.7604 24.8386 27.4946 25.5517 27.4155 26.2967C27.233 28.0234 27.6074 29.5442 29.0252 30.5081C29.9237 31.1305 31.1497 31.7295 32.1604 31.6359C34.0322 31.4815 35.6559 28.8189 35.6559 26.7319ZM43.4284 26.6196C43.3395 28.7581 45.3001 31.5329 46.9941 31.4534C49.8017 31.3177 51.7343 30.3163 51.8326 27.4525C51.9121 25.2672 50.3632 23.1989 47.4667 23.0211C46.0676 22.9369 43.2131 24.8461 43.419 26.6196H43.4284ZM67.9437 26.7646C67.8295 26.002 67.5157 25.283 67.0341 24.6807C66.5526 24.0784 65.9204 23.614 65.2016 23.3346C64.5322 23.0871 63.8044 23.0438 63.1105 23.2105C62.4165 23.3771 61.7876 23.746 61.3037 24.2705C60.7094 24.8508 60.1057 25.4591 60.2648 26.526C60.6345 29.0295 61.8558 30.3912 64.2704 30.8029C64.7616 30.8883 65.2671 30.8295 65.7255 30.6334C66.184 30.4374 66.5757 30.1127 66.8534 29.6986C67.4056 28.8563 67.574 27.752 67.9437 26.7646Z" fill="#BFEDE6"/>
<path d="M51.6412 53.6492C50.5509 53.7943 49.601 53.944 48.6464 54.0423C46.7747 54.2294 44.9403 54.44 43.0826 54.543C41.2249 54.6459 39.2128 54.7208 37.2802 54.6646C35.5488 54.6085 33.8174 54.3839 32.0907 54.1967C30.5793 54.0189 29.0725 53.8036 27.5798 53.5275C26.3491 53.2982 25.1465 52.8818 23.9112 52.718C23.6462 52.7204 23.3846 52.7778 23.1429 52.8865C22.9013 52.9952 22.6849 53.153 22.5073 53.3497C21.754 54.2294 21.1503 55.2215 20.4718 56.1901C19.8448 57.0605 19.1943 57.9121 18.5673 58.7825C17.0839 60.8367 15.0952 62.2827 12.952 63.5976C11.4312 64.5335 9.18044 63.7894 8.36623 62.2172C7.65028 60.8133 7.78599 59.4095 7.75791 57.973C7.77639 56.3017 7.99955 54.6391 8.42238 53.0222C8.86225 51.0662 9.48928 49.1523 10.0976 47.2384C10.4954 45.9937 10.4673 46.1107 9.35358 45.3667C8.40159 44.6854 7.54813 43.876 6.81735 42.9615C5.45097 41.319 4.16882 39.6157 2.88199 37.9031C0.42063 34.6275 -0.168973 30.884 0.03692 26.9252C0.228775 23.2613 1.58112 20.0465 3.60261 16.9862C5.01552 14.947 6.64226 13.0645 8.45514 11.3709C10.0678 9.84866 11.848 8.5143 13.7616 7.39344C15.4789 6.34994 17.4255 5.68547 19.2365 4.78235C22.146 3.41731 25.1922 2.3648 28.3238 1.64248C30.1956 1.17454 32.0673 0.987361 33.9812 0.706598C35.385 0.491346 36.7608 0.294812 38.1552 0.145071C39.0738 0.0476121 39.997 -0.000810261 40.9207 1.02541e-05C42.5538 1.02541e-05 44.1963 0.032766 45.8201 0.0889186C46.8448 0.126354 47.8696 0.205903 48.8897 0.30417C50.5884 0.46327 52.287 0.598972 53.9715 0.856338C55.2975 1.08227 56.611 1.3759 57.9069 1.73606C59.7178 2.204 61.5428 2.62983 63.3069 3.23347C64.8418 3.74607 66.3292 4.39114 67.7523 5.16138C70.0499 6.41545 72.3148 7.75376 74.4907 9.20905C75.6551 10.0838 76.7431 11.0559 77.7428 12.1149C78.4792 12.7927 79.1687 13.5196 79.8065 14.2909C80.2701 14.9205 80.6757 15.5908 81.0184 16.2936C81.9824 18.0905 83.0914 19.8219 83.5079 21.8715C83.695 22.8074 84.1068 23.7152 84.1817 24.651C84.2045 25.6832 84.134 26.7153 83.9711 27.7347C83.7149 29.9026 83.1295 32.0186 82.2351 34.0098C81.2514 36.3005 79.8663 38.3971 78.1453 40.2006C77.2094 41.174 76.1565 42.0162 75.2487 43.0083C73.377 45.0672 70.9765 46.3961 68.5479 47.6877C66.9054 48.5533 65.305 49.5079 63.6298 50.2941C62.4366 50.834 61.2 51.2723 59.9331 51.6043C57.3969 52.3015 54.8326 52.9052 52.2776 53.5463C52.0202 53.5884 51.7629 53.6258 51.6412 53.6492ZM46.5313 52.8771C48.6745 52.47 51.6786 51.9412 54.6547 51.3189C55.7404 51.0989 56.8073 50.748 57.8788 50.4438C59.1189 50.0835 60.4291 49.8542 61.5802 49.302C64.1867 48.0527 66.9943 47.215 69.3246 45.3901C71.1964 43.9067 73.2038 42.5263 75.1224 41.071C75.4499 40.8183 75.5903 40.2895 75.9226 40.0696C77.3638 39.1337 78.178 37.6691 79.0905 36.3261C80.7074 34.0275 81.6903 31.3435 81.9403 28.5443C82.0526 27.2434 82.3427 25.9379 82.0853 24.6651C81.7016 22.7606 81.112 20.9216 80.602 19.0217C80.5764 18.9363 80.5368 18.8556 80.485 18.7831C79.8813 17.8987 79.3058 17.0002 78.6694 16.1392C77.9669 15.1107 77.1845 14.1391 76.3297 13.2333C75.0961 12.0451 73.7879 10.9369 72.413 9.91563C71.1837 8.93788 69.8662 8.0763 68.4777 7.34197C66.308 6.25736 64.0786 5.29654 61.8002 4.46415C59.1672 3.42104 56.4071 2.73336 53.5925 2.41925C52.1419 2.29291 50.7147 1.91856 49.2688 1.78754C47.4906 1.62376 45.7078 1.54889 43.9249 1.52081C42.259 1.49274 40.5838 1.52081 38.9273 1.6378C37.0556 1.78754 35.1838 2.01683 33.312 2.34438C30.9396 2.77489 28.5438 3.21943 26.2041 3.86519C23.7146 4.54838 21.2065 5.24093 18.8995 6.49032C17.5893 7.20159 16.1668 7.71632 14.908 8.50246C13.7069 9.28154 12.5778 10.1663 11.5342 11.1463C9.99466 12.5501 8.52533 14.0335 7.06536 15.5262C6.77536 15.9113 6.52308 16.3235 6.31198 16.7569C5.84404 17.4916 4.85669 17.8893 4.80054 18.9328C4.80054 19.0451 4.59464 19.134 4.50574 19.251C4.15587 19.5945 3.86217 19.9909 3.63537 20.4255C2.9981 22.1095 2.456 23.828 2.01162 25.5729C1.7521 26.8027 1.66392 28.0624 1.74958 29.3164C1.82913 30.7483 1.88996 32.2784 2.42809 33.5699C3.17679 35.3621 4.33728 36.9906 5.37142 38.6564C5.77707 39.2656 6.24778 39.8289 6.77524 40.3363C7.28061 40.8464 7.90765 41.2348 8.43174 41.7402C9.45653 42.7135 10.4018 43.7804 11.4687 44.7069C12.1565 45.3059 12.3765 45.8533 12.0021 46.7003C11.5421 47.6141 11.1707 48.57 10.8931 49.5547C10.369 51.8944 9.95722 54.2341 9.54076 56.5738C9.49325 56.7753 9.46196 56.9803 9.44717 57.1868C9.42377 57.8232 9.44717 58.4596 9.40506 59.096C9.3606 59.6128 9.45006 60.1322 9.66481 60.6043C9.87955 61.0765 10.2123 61.4853 10.6311 61.7913C11.0273 62.0382 11.4892 62.1587 11.9555 62.137C12.4219 62.1153 12.8706 61.9523 13.2422 61.6697C14.5825 60.6109 15.8503 59.4634 17.0371 58.235C17.7156 57.5424 18.1602 56.6159 18.7872 55.8579C19.5968 54.8752 20.5046 53.9861 21.3375 52.9988C21.6174 52.6883 21.8393 52.3301 21.9926 51.9412C22.4886 50.4345 22.7787 50.2847 24.2715 50.7901C26.4837 51.5613 28.7727 52.0915 31.0987 52.3717C31.8802 52.4606 32.671 52.4466 33.4384 52.5215C35.3102 52.6993 37.1258 52.9894 38.9741 53.0596C41.2109 53.1157 43.4336 52.9613 46.5313 52.8771Z" fill="#064149"/>
<path d="M31.3522 25.2359C31.3522 27.3229 29.7378 29.9855 27.8661 30.1586C26.8553 30.2522 25.6293 29.6532 24.7309 29.0309C23.3271 28.0623 22.9387 26.5414 23.1212 24.8194C23.1948 24.0752 23.4545 23.3615 23.8765 22.7441C24.2985 22.1266 24.8691 21.6254 25.5358 21.2865C27.3794 20.4676 29.5132 21.6749 30.393 23.2425C30.7486 23.8648 31.0247 24.5667 31.3522 25.2359ZM29.4009 25.526C29.2839 24.1222 28.1983 22.7184 26.9583 22.681C25.7183 22.6435 24.2349 24.3141 24.1975 25.8583C24.1975 26.9018 25.9475 28.4881 27.1735 28.474C28.6335 28.46 29.2933 27.4773 29.3916 25.526H29.4009Z" fill="#064149"/>
<path d="M39.1131 25.1226C38.9072 23.3491 41.7616 21.4399 43.1514 21.5242C46.048 21.702 47.5968 23.7703 47.5173 25.9556C47.419 28.8193 45.5052 29.8207 42.6788 29.9564C40.9661 30.036 39.0242 27.2611 39.1131 25.1226ZM40.4888 26.2036C40.4467 27.4015 41.8927 28.4356 43.6615 28.4497C44.5552 28.4497 46.1556 26.9476 46.2024 26.0538C46.2913 24.2382 44.8968 23.1666 42.3278 23.0824C41.1767 23.0637 40.5684 24.0604 40.4888 26.2036Z" fill="#064149"/>
<path d="M63.6393 25.2689C63.293 26.2516 63.1246 27.3559 62.549 28.1795C62.2713 28.5936 61.8795 28.9184 61.4211 29.1144C60.9626 29.3104 60.4572 29.3692 59.966 29.2839C57.5514 28.8721 56.3301 27.5104 55.9604 25.0069C55.8013 23.94 56.405 23.3317 56.9992 22.7514C57.4832 22.2269 58.1121 21.858 58.806 21.6914C59.5 21.5247 60.2278 21.568 60.8972 21.8155C61.6191 22.0968 62.2533 22.5648 62.7351 23.1715C63.2169 23.7783 63.5289 24.5021 63.6393 25.2689ZM60.0034 27.6086C61.2388 27.6086 62.4835 26.0878 62.0343 25.3064C61.5924 24.5433 61.0002 23.8778 60.2935 23.3504C60.0419 23.1902 59.76 23.0834 59.4654 23.0367C59.1708 22.99 58.8697 23.0044 58.5809 23.079C57.8088 23.3176 57.3174 25.4468 57.7526 26.1627C57.9799 26.5654 58.3011 26.9072 58.6889 27.1589C59.0767 27.4107 59.5197 27.565 59.98 27.6086H60.0034Z" fill="#064149"/>
<path d="M29.3902 25.5263C29.292 27.4777 28.6322 28.4603 27.1628 28.4744C25.9368 28.4744 24.1634 26.9021 24.1868 25.8586C24.2242 24.3144 25.6467 22.6438 26.9476 22.6813C28.2485 22.7187 29.2732 24.0991 29.3902 25.5263Z" fill="white"/>
<path d="M40.4911 26.2042C40.5707 24.0423 41.1556 23.0456 42.3301 23.083C44.8991 23.1673 46.2936 24.2389 46.2047 26.0545C46.1579 26.9482 44.5575 28.4597 43.6637 28.4503C41.909 28.455 40.449 27.4208 40.4911 26.2042Z" fill="white"/>
<path d="M59.9791 27.6085C59.5147 27.5685 59.067 27.4159 58.6748 27.164C58.2827 26.9121 57.9578 26.5683 57.7283 26.1626C57.2932 25.4466 57.7845 23.3175 58.5566 23.0789C58.8454 23.0043 59.1465 22.9899 59.4411 23.0366C59.7357 23.0833 60.0176 23.19 60.2692 23.3503C60.9759 23.8777 61.5681 24.5431 62.01 25.3062C62.4592 26.083 61.2145 27.6085 59.9791 27.6085Z" fill="white"/>
</svg>
