<svg width="67" height="80" viewBox="0 0 67 80" fill="none" xmlns="http://www.w3.org/2000/svg">
<g clip-path="url(#clip0_6837_1118)">
<path d="M58.8892 59.7612C55.6118 59.8623 52.3587 59.1685 49.4077 57.7392C47.9904 57.0447 46.7432 55.9912 46.3039 54.3519C46.1748 53.7478 46.1878 53.122 46.3417 52.5237C47.0252 49.5849 48.2682 46.8052 50.0029 44.3366C51.0281 42.8532 52.1714 41.6013 53.8107 40.869C55.0115 40.3233 56.3481 40.1491 57.6488 40.3688C58.9494 40.5885 60.1546 41.1921 61.1096 42.102C63.33 44.1523 64.615 46.7601 65.333 49.6324C65.8055 51.6308 66.1362 53.6811 66.481 55.7125C66.5384 56.2053 66.4444 56.7038 66.2115 57.1418C65.9785 57.5798 65.6178 57.9365 65.1771 58.1644C63.2213 59.3265 61.0812 59.6761 58.8892 59.7612Z" fill="#BFEDE6"/>
<path d="M35.8968 80.2463C33.8606 80.0668 32.1174 80.1376 30.4875 79.7077C28.2624 79.1125 25.9759 78.5503 24.1902 76.8732C23.0422 75.7819 22.4138 74.2749 22.9335 72.7915C23.6327 70.7837 24.3508 68.7712 25.2295 66.839C25.9626 65.1179 27.0964 63.597 28.5364 62.4029C31.0828 60.4093 33.9221 59.9983 36.8652 61.9636C39.0526 63.4281 40.2998 65.5587 41.117 67.9491C41.7359 69.7349 42.1989 71.5773 42.6571 73.4103C42.9071 74.3203 43.0389 75.2587 43.0493 76.2024C43.0525 76.8244 42.8214 77.4248 42.402 77.8842C41.6684 78.5475 40.8111 79.0596 39.8793 79.3912C38.5685 79.7491 37.239 80.0346 35.8968 80.2463Z" fill="#BFEDE6"/>
<path d="M14.5495 60.303C12.1212 60.2227 9.57489 60.0385 7.10885 59.122C5.52849 58.6182 4.09168 57.7435 2.91846 56.5709C2.46386 56.1406 2.1326 55.5966 1.95899 54.9952C1.78539 54.3938 1.77576 53.7569 1.9311 53.1506C2.43659 51.2042 2.95626 49.2672 4.08534 47.5476C4.79398 46.4847 5.20971 45.2186 5.97503 44.2123C7.67575 42.0014 9.91031 40.4755 12.8015 40.8109C13.8462 40.9334 14.8517 41.2811 15.7489 41.83C16.6461 42.379 17.4135 43.116 17.9982 43.9903C19.0886 45.4155 19.9348 47.012 20.502 48.7145C21.0264 50.4577 21.3618 52.2624 21.7634 54.0482C21.9098 54.7048 21.9713 55.3898 22.1319 56.0465C22.3492 56.9488 21.6595 58.1441 20.6248 58.7346C18.6926 59.8826 18.0265 59.8873 14.5495 60.303Z" fill="#BFEDE6"/>
<path d="M35.2208 36.6791C32.6556 36.509 30.0998 36.424 27.6337 35.4272C26.2578 34.9593 24.9775 34.2471 23.8543 33.3249C22.7253 32.2808 22.1253 31.01 22.5079 29.4936C23.1559 26.7846 24.2547 24.2039 25.7582 21.8592C26.8164 20.2199 28.0164 18.7459 29.8258 17.8389C32.9154 16.2988 36.7893 17.6972 38.679 20.3947C40.0999 22.4609 41.1561 24.7555 41.8017 27.1787C42.0752 28.322 42.285 29.4797 42.43 30.6463C42.515 31.1423 42.5103 31.6573 42.6237 32.1438C42.9355 33.4808 42.3922 34.4209 41.2064 35.1437C39.3309 36.2634 37.3042 36.4996 35.2208 36.6791Z" fill="#FD7D73"/>
<path d="M33.7862 55.8734C31.1785 56.0104 29.44 54.8057 28.24 52.8593C27.4274 51.5507 27.6731 48.9476 29.1849 47.6012C30.0685 46.8287 31.1275 46.2838 32.2698 46.0139C33.687 45.6454 35.1515 46.1225 36.4176 46.869C37.0416 47.2174 37.5783 47.7029 37.9874 48.2888C38.3966 48.8747 38.6675 49.5458 38.7797 50.2515C38.9361 50.9027 38.9291 51.5825 38.7593 52.2303C38.5896 52.8782 38.2623 53.474 37.8066 53.9648C36.6822 55.1647 35.3783 56.0529 33.7862 55.8734Z" fill="#BFEDE6"/>
<path d="M12.588 36.0046C11.609 36.0446 10.6366 35.8264 9.76846 35.3721C8.90032 34.9177 8.1669 34.243 7.64175 33.4158C6.43235 31.6631 6.65438 29.8868 7.74096 28.2947C8.40072 27.4318 9.3042 26.7867 10.3346 26.4428C12.0447 25.7814 13.5234 26.1121 15.0588 26.7688C15.9025 27.1225 16.6268 27.7114 17.1453 28.4653C17.6638 29.2191 17.9546 30.1061 17.9831 31.0206C18.1153 32.7024 17.2225 34.0441 15.8241 35.0598C14.891 35.7473 13.7445 36.082 12.588 36.0046Z" fill="#BFEDE6"/>
<path d="M56.9983 35.5067C54.4473 35.5398 52.6568 34.2832 51.4946 32.1147C50.7246 30.6975 51.4427 28.3354 52.6946 27.1638C53.2585 26.575 53.9514 26.1252 54.7187 25.8498C55.4861 25.5744 56.3068 25.4808 57.1164 25.5764C59.8187 25.9402 61.8029 27.2016 62.3131 30.1731C62.4226 30.8762 62.345 31.5957 62.0878 32.2592C61.8307 32.9227 61.4033 33.5068 60.8486 33.9525C59.4927 35.1477 58.6943 35.4548 56.9983 35.5067Z" fill="#BFEDE6"/>
<path d="M33.2299 12.3805C31.3969 12.4892 29.8568 11.6908 28.5718 10.3491C27.1546 8.8846 27.0317 5.83275 28.4206 4.4769C30.3387 2.58721 32.526 1.7274 35.507 3.05963C38.0297 4.184 39.3997 7.18388 38.0864 9.54599C37.6374 10.4372 36.9397 11.1793 36.0778 11.6823C35.2159 12.1854 34.2267 12.4279 33.2299 12.3805Z" fill="#FD7D73"/>
<path d="M56.3412 59.4939C53.3555 59.3144 49.8407 58.8183 46.8928 56.5885C45.844 55.7901 45.1212 54.5618 44.2803 53.5036C44.1858 53.3807 44.2803 53.102 44.2803 52.8989C44.465 49.9598 45.2547 47.0905 46.5999 44.4709C47.4811 42.7732 48.7054 41.2771 50.195 40.0773C51.1657 39.2565 52.2898 38.6367 53.502 38.2538C55.8357 37.5688 57.8813 38.164 59.7332 39.5955C60.4973 40.1603 61.1933 40.8118 61.8071 41.5371C63.255 43.2605 64.2748 45.3018 64.7834 47.4944C65.2936 49.9226 65.7283 52.3698 66.1345 54.8122C66.1711 55.1346 66.1205 55.4608 65.9881 55.757C65.407 57.1412 64.2354 57.8688 62.9457 58.4782C61.0465 59.3852 58.9915 59.4797 56.3412 59.4939ZM57.6215 58.5112C59.8277 58.4262 61.9678 58.0766 63.9094 56.9145C64.35 56.6865 64.7108 56.3299 64.9437 55.8919C65.1767 55.4539 65.2707 54.9553 65.2133 54.4626C64.8684 52.4312 64.5614 50.3809 64.0653 48.3825C63.3472 45.5102 62.0623 42.9024 59.8419 40.8521C58.8869 39.9422 57.6817 39.3386 56.3811 39.1188C55.0804 38.8991 53.7438 39.0733 52.5429 39.6191C50.9036 40.3513 49.7604 41.6032 48.7352 43.0867C47.0005 45.5553 45.7574 48.335 45.0739 51.2737C44.9201 51.872 44.9071 52.4979 45.0361 53.102C45.4755 54.7413 46.7321 55.7948 48.14 56.4893C51.0952 57.9208 54.3535 58.6146 57.6357 58.5112H57.6215Z" fill="#064149"/>
<path d="M34.7004 80.0011C33.1603 79.8594 31.4738 79.8357 29.8439 79.5287C26.948 78.9854 24.1749 78.0689 22.1198 75.7776C21.6616 75.3242 21.3186 74.7677 21.1197 74.1545C20.9208 73.5413 20.8717 72.8894 20.9766 72.2533C21.5482 68.3181 22.7056 64.6568 25.4835 61.7183C26.8204 60.3011 28.318 58.9783 30.3258 58.5673C32.2155 58.1846 34.0627 58.3263 35.6406 59.6066C36.6406 60.3378 37.5749 61.1551 38.4326 62.049C39.8602 63.6658 40.8592 65.615 41.338 67.7181C41.8718 70.1841 42.4009 72.6596 42.6986 75.1587C42.7039 75.5945 42.617 76.0264 42.4436 76.4262C42.2701 76.826 42.0141 77.1845 41.6923 77.4783C40.0631 78.9378 37.9554 79.7496 35.7681 79.7601C35.4048 79.8032 35.047 79.884 34.7004 80.0011ZM34.6485 78.9995C36.0006 78.7826 37.3396 78.4908 38.6593 78.1256C39.5912 77.794 40.4484 77.2819 41.1821 76.6185C41.6015 76.1591 41.8325 75.5587 41.8293 74.9367C41.8189 73.9931 41.6871 73.0547 41.4372 72.1447C40.9648 70.3117 40.516 68.4692 39.8971 66.6835C39.0703 64.293 37.8232 62.1624 35.6453 60.6979C32.7021 58.7326 29.8628 59.1436 27.3165 61.1372C25.8765 62.3313 24.7427 63.8522 24.0095 65.5733C23.1214 67.5055 22.4127 69.518 21.7136 71.5258C21.1939 73.0092 21.8222 74.5162 22.9702 75.6075C24.756 77.3035 27.0425 77.8657 29.2676 78.4421C30.8549 78.8956 32.5982 78.82 34.6485 78.9995Z" fill="#064149"/>
<path d="M21.4102 52.7004C21.4448 53.4692 21.5507 54.2331 21.7268 54.9822C22.1141 56.1491 21.4716 56.9758 20.7819 57.5805C19.222 58.9608 17.2441 59.7776 15.1648 59.9001C12.4504 60.1393 9.71517 59.8945 7.08638 59.1773C4.88962 58.5773 2.89127 57.7222 1.34645 56.0262C0.434676 55.0389 -0.179473 54.0043 0.0472893 52.4642C0.378103 49.788 1.17769 47.1909 2.4094 44.792C3.33566 43.1147 4.59243 41.6426 6.10374 40.4647C7.68636 39.2127 9.33039 38.4427 11.3382 38.5088C13.5822 38.5844 15.2876 39.8033 16.8041 41.2961C19.0954 43.5496 20.0827 46.4928 20.9756 49.4785C21.2195 50.538 21.3775 51.6155 21.448 52.7004H21.4102ZM13.2987 59.0545C16.7758 58.6482 17.4419 58.6435 19.393 57.5191C20.4181 56.9286 21.1173 55.7333 20.9 54.831C20.7394 54.1744 20.678 53.4893 20.5315 52.8327C20.13 51.0469 19.7945 49.2423 19.2702 47.499C18.7029 45.7965 17.8568 44.2 16.7663 42.7748C16.1816 41.9005 15.4142 41.1635 14.5171 40.6146C13.6199 40.0657 12.6143 39.7179 11.5697 39.5954C8.669 39.2364 6.43444 40.7623 4.72427 42.9921C3.96367 43.9795 3.54794 45.2456 2.83458 46.2991C1.70077 48.0092 1.1811 49.9462 0.675611 51.8831C0.520269 52.4895 0.529899 53.1263 0.703505 53.7277C0.877111 54.3291 1.20838 54.8731 1.66297 55.3034C2.83619 56.476 4.27301 57.3507 5.85336 57.8545C8.32413 58.7805 10.8658 58.9647 13.2987 59.0545Z" fill="#064149"/>
<path d="M20.5709 29.4072C20.7944 26.5361 21.6219 23.7445 22.9991 21.2154C23.7975 19.8265 24.9833 18.6502 26.051 17.436C27.0264 16.275 28.3529 15.4625 29.8304 15.1212C31.8145 14.6771 33.7042 14.7763 35.3624 16.1369C36.2616 16.7865 37.114 17.4985 37.9135 18.2675C39.4407 19.9663 40.5019 22.0317 40.9937 24.2625C41.5559 26.7238 41.9622 29.2182 42.411 31.7032C42.438 31.9926 42.3892 32.284 42.2692 32.5488C42.0055 33.2139 41.5929 33.8096 41.063 34.2904C40.5332 34.7711 39.9002 35.124 39.2127 35.3219C37.7311 35.8439 36.1955 36.1973 34.6349 36.3754C33.142 36.4617 31.6441 36.3633 30.1752 36.0825C28.1402 35.8138 26.1666 35.1969 24.3408 34.259C22.7007 33.3898 21.3777 32.0239 20.5614 30.3568C20.4575 30.1111 20.5709 29.7332 20.5709 29.4072ZM33.9735 35.4306C36.0569 35.2652 38.0836 35.029 39.9355 33.9094C41.1354 33.1866 41.6787 32.2465 41.3527 30.9095C41.2394 30.4371 41.2441 29.908 41.1591 29.4119C41.014 28.2453 40.8043 27.0877 40.5307 25.9444C39.8852 23.5212 38.829 21.2266 37.408 19.1604C35.5183 16.4628 31.6445 15.0645 28.5548 16.6046C26.7455 17.5116 25.5455 18.9667 24.4873 20.6249C22.9935 22.9668 21.9028 25.5425 21.2606 28.245C20.8874 29.7521 21.4874 31.0323 22.6401 32.0622C23.7633 32.9845 25.0436 33.6966 26.4195 34.1645C28.8525 35.1613 31.4083 35.2463 33.9735 35.4306Z" fill="#064149"/>
<path d="M31.7136 55.7446C28.6051 55.5982 25.6572 53.1699 25.6808 49.6504C25.7044 46.1308 28.3453 43.627 32.1246 43.523C35.0773 43.4427 38.5023 46.4993 38.5685 48.9937C38.7008 53.4297 35.7245 55.5556 31.7136 55.7446ZM32.5357 54.6344C34.1277 54.8139 35.4316 53.9258 36.5465 52.7447C37.0022 52.2539 37.3295 51.6581 37.4993 51.0103C37.6691 50.3624 37.6761 49.6827 37.5197 49.0315C37.4075 48.3257 37.1366 47.6546 36.7274 47.0687C36.3183 46.4828 35.7815 45.9974 35.1576 45.6489C33.9104 44.8789 32.4695 44.4065 31.0286 44.7608C29.8864 45.0307 28.8274 45.5756 27.9437 46.3481C26.4225 47.6945 26.1768 50.2976 26.9989 51.6062C28.1894 53.5526 29.9279 54.7572 32.5357 54.6202V54.6344Z" fill="#064149"/>
<path d="M11.1717 35.9044C9.01275 35.6824 7.50573 35.0021 6.28215 33.6793C4.86488 32.1251 4.62395 30.2779 4.86488 28.3079C4.95201 27.9616 5.09396 27.6315 5.28534 27.33C5.8027 26.1952 6.64465 25.2392 7.7049 24.5825C8.76515 23.9258 9.99617 23.598 11.2426 23.6404C12.5436 23.6446 13.8125 24.0445 14.8808 24.7871C15.9491 25.5297 16.7661 26.5797 17.2235 27.7977C17.5845 28.6842 17.7129 29.6483 17.5963 30.5984C17.4797 31.5485 17.1221 32.4529 16.5573 33.2258C15.9351 34.0184 15.1226 34.6409 14.1952 35.0352C13.2146 35.4122 12.2029 35.7031 11.1717 35.9044ZM11.3371 34.7517C12.4872 34.8246 13.6262 34.4901 14.5543 33.8069C15.9715 32.7912 16.8455 31.4448 16.7132 29.7677C16.6848 28.8532 16.3939 27.9662 15.8755 27.2124C15.357 26.4585 14.6327 25.8696 13.7889 25.5159C12.2725 24.8592 10.7938 24.5285 9.06472 25.1899C8.03437 25.5338 7.13089 26.1789 6.47112 27.0418C5.38455 28.6339 5.16251 30.4102 6.37191 32.1629C6.89868 32.993 7.63511 33.6694 8.50687 34.124C9.37864 34.5785 10.3549 34.7951 11.3371 34.7517Z" fill="#064149"/>
<path d="M62.0195 29.4272C61.9912 32.1247 60.3188 33.9058 57.9236 34.8175C57.0992 35.1681 56.2098 35.3401 55.3142 35.3221C54.4185 35.3042 53.5367 35.0968 52.727 34.7136C51.6798 34.2623 50.7843 33.5197 50.147 32.5742C49.5096 31.6287 49.1573 30.52 49.1318 29.38C49.1426 28.3798 49.3921 27.3967 49.8594 26.5124C50.9932 24.1502 53.1663 23.2526 55.5709 23.1393C56.6923 23.1133 57.7976 23.4101 58.7551 23.9943C59.511 24.4289 60.1736 25.0087 60.7046 25.7002C61.2357 26.3918 61.6248 27.1816 61.8494 28.0241C61.945 28.4863 62.0019 28.9556 62.0195 29.4272ZM55.7457 34.2554C57.4417 34.2034 58.2401 33.8963 59.5771 32.7247C60.1318 32.279 60.5592 31.695 60.8163 31.0315C61.0734 30.368 61.1511 29.6484 61.0416 28.9453C60.5692 25.9738 58.5661 24.6935 55.845 24.3487C55.0353 24.253 54.2146 24.3466 53.4472 24.622C52.6799 24.8975 51.987 25.3473 51.4231 25.936C50.1712 27.1171 49.4531 29.4603 50.2231 30.887C51.4042 33.0318 53.1947 34.2884 55.7457 34.2554Z" fill="#064149"/>
<path d="M31.4408 12.2216C28.0772 11.9618 25.3513 9.60909 25.3702 6.11316C25.3891 2.6881 28.0205 0.12285 31.8424 1.98646e-05C34.6769 -0.0897404 38.2154 2.90069 38.2815 5.39508C38.3949 9.77916 35.7021 11.9759 31.4408 12.2216ZM31.9841 11.1303C32.9802 11.1767 33.9684 10.9338 34.8293 10.4308C35.6903 9.92777 36.3872 9.18624 36.8359 8.29576C38.1492 5.93364 36.7792 2.93376 34.2565 1.8094C31.2802 0.491339 29.0929 1.37004 27.1701 3.22666C25.7812 4.58252 25.9277 7.63436 27.3213 9.09887C28.611 10.4406 30.1511 11.2389 31.9841 11.1303Z" fill="#064149"/>
<path d="M55.8168 62.7074C55.6787 63.1481 55.49 63.5714 55.2546 63.9687C53.3649 66.4773 51.3335 68.8488 48.4706 70.2897C47.7302 70.5898 46.9507 70.7823 46.1557 70.8614C45.9479 70.8944 45.6833 70.6913 45.2676 70.5071C45.5759 70.2695 45.9084 70.0652 46.2597 69.8976C48.532 69.189 50.1477 67.5733 51.7539 65.9387C52.7885 64.8852 53.7901 63.7892 54.8389 62.7499C55.0089 62.5798 55.3538 62.5893 55.6136 62.5137L55.8168 62.7074Z" fill="#064149"/>
<path d="M51.3146 19.6091C48.7807 16.5268 45.3912 14.2633 41.5732 13.1038C41.8674 12.7851 42.242 12.5516 42.6577 12.4277C43.0734 12.3038 43.5147 12.2942 43.9354 12.3999C45.04 12.8103 46.1149 13.2964 47.1525 13.855C47.814 14.2862 48.416 14.8024 48.943 15.3903C49.755 16.1697 50.5186 16.998 51.2296 17.8706C51.5319 18.2532 51.565 18.839 51.702 19.3303L51.3146 19.6091Z" fill="#064149"/>
<path d="M12.6036 20.9067C12.5349 20.5674 12.5417 20.2173 12.6233 19.8809C12.7049 19.5446 12.8595 19.2303 13.076 18.9603C14.1215 17.5036 15.4365 16.2607 16.9499 15.299C18.0964 14.5964 19.3417 14.0693 20.6442 13.7353C20.9371 13.6455 21.3481 13.9243 21.7024 14.0329C21.4851 14.3258 21.3245 14.7841 21.041 14.888C18.7167 15.6728 16.5827 16.9361 14.7767 18.5965C14.3596 19.0538 13.9775 19.5418 13.6335 20.0563C13.3831 20.3776 13.128 20.6941 12.8776 21.0012L12.6036 20.9067Z" fill="#064149"/>
<path d="M9.29102 62.2067C10.2028 61.7627 10.4579 62.3579 10.7933 62.7311C11.8941 63.95 12.8814 65.2869 14.1003 66.383C15.664 67.8002 17.4072 68.9907 19.056 70.3088C19.2497 70.5205 19.4091 70.7612 19.5284 71.0221C19.2308 71.0599 18.8812 71.2206 18.645 71.1166C18.1625 70.8937 17.7128 70.606 17.308 70.2615C15.4561 68.7545 13.5286 67.3231 11.8232 65.679C10.8217 64.72 10.1555 63.4209 9.29102 62.2067Z" fill="#064149"/>
</g>
<defs>
<clipPath id="clip0_6837_1118">
<rect width="66.1769" height="80" fill="white"/>
</clipPath>
</defs>
</svg>
