<svg width="87" height="65" viewBox="0 0 87 65" fill="none" xmlns="http://www.w3.org/2000/svg">
<path d="M19.6297 23.5327C17.807 23.7879 16.4399 22.7626 15.0319 21.8786C13.715 21.0583 12.6487 17.1076 13.1089 15.4991C13.7788 13.1478 15.3873 11.8764 17.2647 10.6233C18.7046 9.64816 20.181 10.0719 21.662 10.2086C22.8122 10.2815 23.9188 10.6766 24.8551 11.3486C25.7914 12.0207 26.5198 12.9426 26.957 14.009C27.7954 15.8317 27.5721 17.7228 26.6517 19.5592C25.5717 21.7191 23.6579 22.7489 21.5663 23.4962C20.9967 23.7104 20.2767 23.5327 19.6297 23.5327Z" fill="#FD7D73"/>
<path d="M86.0433 32.8968C86.0433 36.5423 86.0433 40.2287 86.0433 43.8969C86.0433 46.5353 85.9339 49.1782 85.9339 51.8166C85.9339 53.498 86.1526 55.1841 86.0569 56.8564C86.0017 57.7959 85.6862 58.7016 85.1456 59.472C84.2008 60.8249 82.9669 61.9508 81.5333 62.7681C80.0997 63.5854 78.5023 64.0736 76.8568 64.1974C76.8163 64.2066 76.7743 64.2066 76.7338 64.1974C74.2002 63.1721 71.5937 64.1199 69.0237 63.9376C66.4537 63.7554 63.8107 63.8237 61.2088 63.8146C56.3482 63.8146 51.5013 63.8146 46.6681 63.8146C42.567 63.8146 38.4659 63.9331 34.3648 63.9194C29.0653 63.9194 23.7612 63.7964 18.4616 63.7599C17.6915 63.7599 16.8987 64.1062 16.1513 64.006C13.4173 63.6506 10.5283 64.0379 8.19064 62.0147C6.82361 60.839 6.65501 60.4107 7.57548 58.9343C8.94251 56.7242 10.2776 54.4823 11.754 52.3406C12.8431 50.7594 14.1691 49.3377 15.3448 47.8112C16.7118 46.0204 18.0105 44.1658 19.4459 42.3977C20.3345 41.2859 21.4919 40.3882 22.3258 39.2444C24.3034 36.5104 27.0785 34.797 29.849 33.1247C32.6196 31.4523 36.2878 33.1247 37.8188 35.9316C39.3043 38.6657 41.2911 41.1036 43.0637 43.6782C43.2232 43.9151 43.4692 44.0928 43.6333 44.3252C45.456 46.9317 49.5571 48.3215 52.4097 47.0229C53.5124 46.5216 54.3827 45.3961 55.2121 44.4346C56.1897 43.2817 57.088 42.0638 57.9006 40.7892C58.976 39.1351 59.9602 37.4172 60.9582 35.7129C62.5758 32.9333 64.0295 30.0443 65.8248 27.3831C67.0216 25.6368 68.4713 24.0781 70.1264 22.758C71.4251 21.719 73.2524 21.9651 74.8609 22.2294C76.8565 22.6027 78.6792 23.6076 80.0602 25.0956C80.6176 25.5674 81.2002 26.0086 81.8055 26.4171C83.1315 27.4697 84.4666 28.5223 85.7471 29.6342C85.9713 29.9352 86.0768 30.3083 86.0433 30.6822C86.0433 31.425 85.984 32.1677 85.9476 32.9105L86.0433 32.8968Z" fill="#BFEDE6"/>
<path d="M83.5451 12.7139C83.5451 16.6023 83.5451 20.4893 83.5451 24.3747C83.5451 28.1112 83.5451 31.8478 83.5451 35.5844C83.5769 38.0906 83.7456 40.5968 83.7638 43.1076C83.7638 45.5409 83.6316 47.9742 83.6453 50.3984C83.6453 51.6197 83.8731 52.8409 83.9779 54.0439C84.0857 54.9706 84.0027 55.9095 83.7339 56.8029C83.4651 57.6963 83.0162 58.5252 82.415 59.2386C80.492 61.4669 78.1681 63.3716 75.1697 63.7954C72.9596 64.1098 70.6676 63.8318 68.412 63.8592C65.5048 63.8956 62.6021 64.005 59.6949 64.005C58.3278 64.005 56.9608 63.7498 55.5938 63.7316C54.1037 63.7316 52.6091 63.8774 51.119 63.8637C47.5191 63.8637 43.9147 63.7088 40.3149 63.7088C37.517 63.7088 34.7146 63.9002 31.9167 63.8911C27.4784 63.8911 23.0447 63.7635 18.6109 63.686C15.1295 63.6268 11.6208 63.8136 8.18044 63.4172C4.74007 63.0207 1.73715 61.0066 0.752884 57.2427C-0.122018 53.8525 -0.0263261 50.4668 0.0420256 47.0447C0.160502 41.3715 0.210627 35.6983 0.260751 30.0251C0.297205 25.924 0.260751 21.8229 0.329103 17.7218C0.361 15.6849 0.620737 13.6526 0.689089 11.6157C0.7301 10.3945 0.493147 9.15957 0.575169 7.94291C0.711873 5.92426 1.91486 4.35217 3.16342 2.86666C3.58365 2.44862 4.05167 2.08154 4.5578 1.77303C6.40785 0.405995 8.48574 0.405995 10.673 0.533585C13.2157 0.688515 15.7811 0.560925 18.3329 0.533585C20.2149 0.533585 22.1014 0.533585 23.9834 0.492574C26.4303 0.45612 28.8591 0.428779 31.297 0.3422C32.9602 0.282962 34.6326 0.0687931 36.2867 0.0642363C37.9408 0.0596795 39.604 0.32853 41.2627 0.314859C44.4524 0.314859 47.6923 0.137145 50.9048 0.100691C54.4363 0.0551227 57.9633 0.100691 61.4948 0.100691C65.0263 0.100691 68.4712 -0.136262 71.9116 0.21461C74.19 0.447006 76.6187 0.551812 78.7468 1.88239C80.8748 3.21297 81.9866 5.11315 82.7522 7.25028C83.3719 8.9773 83.5132 10.8957 83.864 12.7184L83.5451 12.7139ZM82.3238 25.6506C82.3926 25.36 82.4383 25.0644 82.4605 24.7666C82.4605 22.9438 82.5152 21.0801 82.4605 19.2392C82.415 16.8089 82.336 14.3862 82.2236 11.9711C82.2008 11.4106 81.9228 10.8638 81.8773 10.2988C81.753 8.25371 81.0109 6.29452 79.7492 4.68026C78.1361 2.65249 76.0719 1.53152 73.4472 1.58164C69.6742 1.65 65.9058 1.79126 62.1327 1.80948C57.3663 1.80948 52.5999 1.7229 47.8336 1.72746C44.6757 1.72746 41.5179 1.84594 38.36 1.85505C32.8919 1.85505 27.4647 1.85505 22.0194 1.83227C17.6403 1.83227 13.2567 1.65911 8.88674 1.83227C4.14313 2.01454 1.36805 5.80578 1.58222 10.4172C1.64601 11.8435 1.89208 13.2698 1.89208 14.7006C1.89208 17.617 1.77816 20.5333 1.75538 23.4542C1.72348 26.9401 1.75538 30.4261 1.73259 33.9348C1.70525 36.8466 1.605 39.7538 1.55488 42.6656C1.49108 46.311 1.45463 49.9564 1.39083 53.6019C1.28713 55.0981 1.70057 56.5845 2.56193 57.8123C2.82622 57.3202 3.0176 57.0103 3.16342 56.6959C4.1568 54.7821 4.98613 52.7543 6.17545 50.9726C8.17588 47.9879 10.3449 45.1035 12.5549 42.2737C13.922 40.533 15.6536 39.084 16.9705 37.2931C18.1917 35.6481 19.4357 34.1034 21.1536 32.9551C21.8007 32.5267 22.3976 32.0437 23.0264 31.5881C25.2456 29.9932 27.7108 28.854 30.4266 29.5922C32.1446 30.0479 33.8579 30.8225 34.8786 32.668C36.1181 34.9054 37.681 36.9605 39.0982 39.0976C40.8434 41.7451 42.812 43.9688 46.3207 44.3106C46.8374 44.3645 47.3595 44.2914 47.8416 44.0977C48.3236 43.9039 48.751 43.5953 49.0867 43.1987C50.242 42.016 51.2812 40.725 52.1898 39.3437C53.9807 36.6643 55.6894 33.9211 57.3755 31.1734C58.7425 28.895 60.0047 26.5483 61.431 24.3109C62.6978 22.315 64.1195 20.3328 66.5072 19.6037C68.7036 18.9339 71.0093 18.3278 73.2148 19.6402C74.5044 20.4103 75.7256 21.2806 76.9742 22.1145L82.3238 25.6506ZM82.4788 31.3784H82.3557C82.3922 30.6357 82.4651 29.8929 82.4514 29.1502C82.4821 28.7871 82.3819 28.4251 82.1689 28.1295C80.8885 27.0176 79.5533 25.965 78.2273 24.9124C77.622 24.5038 77.0394 24.0627 76.482 23.5909C75.101 22.1028 73.2783 21.098 71.2827 20.7247C69.6742 20.4604 67.8469 20.2143 66.5482 21.2533C64.8932 22.5734 63.4435 24.1321 62.2467 25.8784C60.465 28.535 59.0113 31.4422 57.4165 34.2036C56.4185 35.9079 55.4343 37.6258 54.3589 39.2799C53.5462 40.5545 52.648 41.7724 51.6704 42.9253C50.841 43.8868 49.9707 45.0123 48.8679 45.5136C46.0017 46.8123 41.9097 45.4224 40.0916 42.816C39.9275 42.5836 39.6815 42.4059 39.522 42.1689C37.7494 39.6034 35.7626 37.1564 34.2771 34.4224C32.746 31.6108 29.0414 29.9658 26.3073 31.6154C23.5732 33.2649 20.7389 35.0284 18.7613 37.7443C17.9274 38.888 16.77 39.7857 15.8814 40.8976C14.4688 42.661 13.1838 44.543 11.7803 46.311C10.6046 47.8375 9.27862 49.2593 8.18955 50.8405C6.71315 52.9821 5.39169 55.2241 4.01098 57.4341C3.09963 58.9105 3.26367 59.3389 4.62615 60.5145C6.96378 62.5377 9.86645 62.1504 12.5868 62.5058C13.3342 62.6061 14.127 62.2552 14.8971 62.2598C20.1967 62.2962 25.5008 62.401 30.8003 62.4192C34.9014 62.4192 39.0025 62.3327 43.1036 62.3144C47.9642 62.2901 52.8111 62.2901 57.6443 62.3144C60.2462 62.3144 62.8618 62.2552 65.4592 62.4375C68.0565 62.6197 70.6357 61.6719 73.1693 62.6972C73.2098 62.7064 73.2518 62.7064 73.2923 62.6972C74.9378 62.5734 76.5352 62.0852 77.9688 61.268C79.4024 60.4507 80.6363 59.3248 81.5811 57.9718C82.1217 57.2014 82.4372 56.2958 82.4924 55.3562C82.5881 53.6839 82.3694 51.9979 82.3694 50.3164C82.3694 47.6781 82.4651 45.0351 82.4788 42.3967C82.5061 38.7331 82.4788 35.0421 82.4788 31.3784Z" fill="#064149"/>
<path d="M82.3243 25.65L77.0111 22.0547C75.7626 21.2208 74.5413 20.3504 73.2518 19.5803C71.0463 18.268 68.7406 18.874 66.5442 19.5439C64.1564 20.273 62.7347 22.2779 61.4679 24.251C60.0417 26.4884 58.7977 28.8488 57.4124 31.1135C55.7264 33.8476 54.0176 36.5817 52.2268 39.2839C51.3181 40.6652 50.279 41.9561 49.1236 43.1389C48.788 43.5355 48.3606 43.844 47.8785 44.0378C47.3965 44.2316 46.8744 44.3047 46.3576 44.2507C42.8489 43.909 40.8895 41.6853 39.1351 39.0378C37.718 36.9007 36.155 34.8455 34.9156 32.6082C33.8948 30.7855 32.1815 29.988 30.4636 29.5323C27.7295 28.8078 25.2825 29.9333 23.0634 31.5282C22.4345 31.9839 21.8376 32.4851 21.1905 32.8952C19.4726 34.0344 18.2286 35.5883 17.0074 37.2333C15.6905 39.0104 13.9589 40.4732 12.5919 42.2139C10.3682 45.0436 8.19915 47.9281 6.2124 50.9128C5.02308 52.6945 4.19374 54.7222 3.20036 56.6361C3.03632 56.9505 2.86316 57.2604 2.59887 57.7525C1.73751 56.5247 1.32407 55.0382 1.42778 53.542C1.49157 49.8966 1.52803 46.2512 1.59182 42.6057C1.64195 39.694 1.74219 36.7867 1.76954 33.875C1.80143 30.3845 1.76954 26.8985 1.79232 23.3944C1.79232 20.4735 1.93814 17.5571 1.92902 14.6408C1.92902 13.2099 1.68296 11.7837 1.61916 10.3574C1.36854 5.80517 4.14362 2.01393 8.91001 1.82255C13.28 1.65395 17.6636 1.82255 22.0427 1.82255C27.5108 1.82255 32.9379 1.86356 38.3833 1.84533C41.5411 1.84533 44.699 1.71774 47.8568 1.71774C52.6232 1.71774 57.3896 1.81799 62.156 1.79976C65.929 1.79976 69.6975 1.64028 73.4705 1.57192C76.0952 1.5218 78.1594 2.64277 79.7725 4.67054C81.0342 6.2848 81.7763 8.24399 81.9005 10.289C81.9461 10.8541 82.2241 11.4009 82.2469 11.9614C82.3562 14.3917 82.4352 16.822 82.4838 19.2522C82.5157 21.075 82.4838 22.9387 82.4838 24.7796C82.4534 25.0734 82.4001 25.3644 82.3243 25.65ZM26.5539 14.6772C26.5539 14.8322 26.5539 14.6772 26.5539 14.4995C26.6131 11.5786 24.9909 9.48705 22.6806 8.23394C20.7394 7.18588 18.6433 6.51603 16.0642 7.236C12.4187 8.25672 9.26544 10.6126 8.71407 14.4312C8.48962 16.0337 8.72837 17.6671 9.40214 19.1383C10.4775 21.2982 12.3458 22.6379 14.8703 23.4263C17.8413 24.3786 20.507 23.6951 22.7581 22.2688C25.1732 20.7469 26.7589 18.186 26.5539 14.6772Z" fill="white"/>
<path d="M26.553 14.6781C26.7581 18.1869 25.186 20.7478 22.7572 22.2697C20.5062 23.696 17.8405 24.3795 14.8558 23.4408C12.345 22.6525 10.4767 21.3128 9.38762 19.1529C8.71433 17.6767 8.47869 16.0382 8.70866 14.4321C9.26003 10.6135 12.3997 8.25764 16.0587 7.23692C18.6379 6.51695 20.734 7.1868 22.6752 8.23486C24.9855 9.48797 26.6077 11.5795 26.5485 14.5004C26.5621 14.6645 26.5439 14.8331 26.553 14.6781ZM17.0795 22.0738C17.7265 22.0738 18.4465 22.2515 19.0161 22.0419C21.1077 21.2718 23.0215 20.2648 24.1015 18.1048C25.0128 16.2821 25.2452 14.3956 24.4068 12.5547C23.9696 11.4883 23.2412 10.5664 22.3049 9.89432C21.3686 9.22228 20.262 8.82723 19.1118 8.75433C17.6308 8.61762 16.1544 8.19384 14.7145 9.169C12.8599 10.4221 11.2286 11.6935 10.5587 14.0448C10.103 15.6487 11.1648 19.5995 12.4817 20.4242C13.9034 21.3037 15.2522 22.329 17.0795 22.0738Z" fill="#064149"/>
</svg>
