<svg width="56" height="69" viewBox="0 0 56 69" fill="none" xmlns="http://www.w3.org/2000/svg">
<g clip-path="url(#clip0_6837_1122)">
<path d="M2.05944 42.1788C2.13371 41.4908 2.23144 40.9318 2.23926 40.3728C2.2588 38.86 2.23926 37.3511 2.23926 35.8382C2.18745 35.5489 2.1561 35.2563 2.14544 34.9626C2.23144 34.2902 2.40344 33.6335 2.50117 32.965C2.52072 32.8126 2.37608 32.6367 2.22362 32.2692C2.26271 31.2216 2.34481 29.8925 2.34481 28.5634C2.34481 28.1373 2.09462 27.719 2.02035 27.2851C1.99956 27.032 2.02742 26.7772 2.10244 26.5346C2.22885 26.24 2.32575 25.9335 2.39171 25.6198C2.39171 24.6738 2.35653 23.7395 2.34871 22.7974C2.34871 21.6247 2.34871 20.4754 2.34871 19.3105C2.34871 18.3254 2.39171 17.356 2.43081 16.3552C2.43081 16.2614 2.54808 16.1715 2.59499 16.0738C2.80993 15.5205 3.06199 14.9825 3.34945 14.4632C3.80427 13.781 4.30172 13.1282 4.83882 12.5087C5.14764 12.1177 5.54637 11.8324 5.87473 11.4688C5.96274 11.3125 6.0223 11.1417 6.05064 10.9646C6.53928 10.8277 7.24683 10.9255 7.24292 10.1827C8.06463 9.94416 8.87358 9.66364 9.66657 9.34228C9.95111 9.14427 10.1518 8.84746 10.2295 8.50963C10.6712 7.09454 11.7931 6.20326 12.7235 5.16343C12.8811 4.9615 13.026 4.75001 13.1574 4.53016C13.8728 4.42852 14.1542 4.22525 14.2871 3.74834C15.0103 3.5177 15.7452 3.41215 16.3472 3.06815C17.3558 2.49742 18.4464 2.67724 19.4745 2.55606C21.0764 2.34551 22.6964 2.30881 24.3062 2.4466C25.4789 2.54433 26.6869 2.11824 27.8244 2.25114C28.962 2.38405 29.994 2.12605 31.0572 2.12214C32.8554 2.12214 34.6575 2.07523 36.4557 2.00487C37.2375 1.9736 37.8747 2.07914 38.4103 2.72806C38.6057 2.96651 39.0553 2.97824 39.3289 3.18151C39.8137 3.54115 40.2554 3.96334 40.7088 4.35425C40.9199 4.53798 41.1584 4.91716 41.3187 4.88198C41.8972 4.7647 41.9988 5.17125 42.2373 5.49571C42.4929 5.84633 42.7837 6.16987 43.1051 6.46126C43.674 7.03834 44.1536 7.69712 44.528 8.41582C45.0128 9.19764 45.7751 9.83091 46.4122 10.5346C46.9712 11.1561 47.5107 11.7972 48.0775 12.4109C48.6443 13.0247 49.2893 13.6658 49.8913 14.2951C50.1063 14.5179 50.2823 14.7681 50.5129 14.9909C50.8319 15.3956 51.2086 15.7512 51.6309 16.0464C52.3943 16.5148 53.0381 17.1545 53.5112 17.915C53.6949 18.1651 53.8786 18.4192 54.078 18.6968C54.078 19.0877 54.078 19.5607 54.078 20.0181C53.9984 20.5946 53.9553 21.1756 53.949 21.7576C54.1015 23.6848 54.3712 25.6003 54.4806 27.5275C54.5549 28.8448 54.4103 30.1739 54.4181 31.4952C54.4181 32.4725 54.5588 33.4498 54.5588 34.431C54.5588 35.4121 54.4142 36.3308 54.4259 37.2807C54.4259 38.6606 54.5549 40.0171 54.6136 41.4126C54.6064 41.6001 54.5681 41.785 54.5002 41.9599C54.4572 42.1006 54.293 42.2922 54.3321 42.3508C54.895 43.1326 54.0233 44.0161 54.5823 44.8018C54.6996 44.9699 54.5432 45.3687 54.4416 45.6384C54.2969 45.9268 54.2628 46.2581 54.3456 46.5699C54.4284 46.8817 54.6225 47.1524 54.8911 47.331C54.9263 47.3545 54.8911 47.4639 54.8911 47.5304C54.7152 48.6758 54.5784 49.8329 54.336 50.9665C54.1583 51.7837 53.8963 52.5802 53.5542 53.3432C53.3222 53.7449 53.0062 54.0916 52.6277 54.3596C52.4323 54.5238 52.4401 55.0163 51.9827 54.8287C51.9827 54.8287 51.9085 54.8873 51.8811 54.9303C51.1803 56 50.2644 56.912 49.1916 57.6081C49.0626 57.7019 49.0313 57.9365 48.9375 58.1475C48.832 58.0576 48.6912 57.8817 48.6365 57.9052C48.0697 58.1671 47.5107 58.4525 46.9595 58.7456C46.8579 58.8004 46.7132 58.9176 46.7132 59.0076C46.7132 59.9848 45.5757 60.2897 45.435 61.181C45.435 61.2123 45.302 61.2201 45.2317 61.2397C45.1105 61.2655 44.9916 61.3008 44.876 61.3452C45.0362 62.2873 44.0511 62.2795 43.668 62.772C43.2849 63.2646 42.6673 63.5969 42.1787 64.0269C42.0497 64.1402 42.0184 64.3552 41.9246 64.5546C41.8034 64.4842 41.6314 64.3161 41.5571 64.3513C40.6698 64.793 39.8176 65.3208 38.9067 65.7039C38.5393 65.8602 38.0428 65.7351 37.6089 65.7039C36.8271 65.6726 36.0453 65.4341 35.3494 65.9736C35.24 66.0596 34.9585 65.9071 34.7787 65.915C34.4152 65.915 34.0555 65.9814 33.8835 65.997C33.3089 65.9384 32.8906 65.872 32.4723 65.8602C31.6905 65.8602 30.9478 65.8602 30.1855 65.8602C29.1848 65.8602 28.184 65.8133 27.1872 65.786C26.7689 65.786 26.3546 65.7625 25.9402 65.7586C24.916 65.7586 23.8918 65.7312 22.8676 65.7117C22.1234 65.6603 21.377 65.6498 20.6316 65.6804C19.9984 65.7351 19.3455 65.4224 18.7005 65.8954C18.4699 66.0596 17.8953 65.7625 17.4809 65.6648C17.305 65.6218 17.1213 65.481 16.961 65.5084C15.828 65.7298 14.6533 65.5589 13.6304 65.0237C13.2395 64.8087 12.5828 65.0862 12.0668 65.051C11.1982 65.0049 10.3329 64.9096 9.47503 64.7657C9.08412 64.6992 8.73621 64.3748 8.34529 64.3161C7.23902 64.1871 6.4181 63.503 5.56591 62.9167C5.01991 62.5326 4.56924 62.0284 4.24854 61.4429C3.82636 60.6807 3.18917 60.0239 2.84517 59.2382C2.62191 58.5715 2.50709 57.8733 2.50508 57.1703C2.45035 56.4979 2.65363 55.7552 2.43862 55.1532C1.93044 53.8084 2.32135 52.4285 2.09853 51.1072C1.95389 50.2238 2.2588 49.4068 2.22753 48.5546C2.17671 47.2802 2.10635 46.0019 2.09071 44.7276C2.09071 44.1177 2.2158 43.5079 2.22362 42.8981C2.20648 42.6513 2.15109 42.4086 2.05944 42.1788ZM4.88182 15.073L4.97173 15.2489C4.82318 15.2919 4.58082 15.2959 4.54564 15.3779C4.20945 16.3357 3.66218 17.3012 3.65436 18.2707C3.65436 19.7249 3.72472 21.1947 3.79118 22.6528C3.81854 23.2235 3.40027 23.9076 4.00227 24.4236C3.4589 25.0256 3.65436 25.9365 3.83418 26.3782C4.34236 27.6096 3.72472 28.751 3.89281 29.9238C3.89963 30.392 3.85771 30.8597 3.76772 31.3193C3.71299 32.1871 3.63481 33.055 3.64263 33.9189C3.64775 34.5758 3.71846 35.2306 3.85372 35.8734C4.1 36.9914 3.29472 38.1446 3.98663 39.2392C4.01009 39.2783 3.96318 39.3604 3.94363 39.4268C3.83924 39.6949 3.76707 39.9744 3.72863 40.2594C3.72863 40.8263 3.81854 41.397 3.81463 41.9638C3.81463 42.7456 3.73254 43.4962 3.72081 44.2624C3.72081 44.7276 3.81854 45.1927 3.799 45.654C3.74036 46.8268 3.57227 47.9526 3.56836 49.1058C3.56836 50.4192 3.73645 51.7366 3.73645 53.0501C3.73645 53.9101 3.52145 54.7662 3.48236 55.6262C3.45441 56.1633 3.51113 56.7015 3.65045 57.2211C4.04136 58.6205 4.49091 59.9145 5.62846 60.88C5.67928 60.923 5.69101 61.0051 5.73792 61.052C6.02597 61.3843 6.34539 61.688 6.69174 61.9589C7.08265 62.2287 7.68856 62.2834 7.99347 62.6196C8.84957 63.5617 9.99885 63.6359 11.0973 63.761C12.0199 63.8666 12.9385 63.5148 13.9197 63.761C14.9908 64.0229 16.1322 63.9878 17.2463 64.0581C18.5833 64.1402 19.9202 64.1989 21.2571 64.2731C23.497 64.3982 25.733 64.5311 27.9612 64.1246C28.0394 64.1246 28.1332 64.2028 28.2231 64.2106C28.9739 64.3274 29.731 64.3979 30.4904 64.4217C31.456 64.4217 32.4137 64.1989 33.3753 64.191C34.5842 64.1674 35.7934 64.2223 36.9952 64.3552C38.5823 64.5468 39.7316 63.7219 40.9395 62.9167C41.4907 62.5258 42.0106 62.1153 42.55 61.7166C43.0895 61.3178 43.4921 60.6416 44.0629 60.1764C44.4811 59.8363 44.5984 59.1248 44.8447 58.5815C44.9766 58.1538 45.1688 57.747 45.4154 57.3735C46.0331 56.7051 46.0057 55.9389 45.9431 55.1375C45.9041 54.6333 45.8806 54.129 45.8141 53.6247C45.7707 53.4227 45.7051 53.226 45.6187 53.0383C45.7372 52.7411 45.8377 52.4369 45.9197 52.1275C46.0291 51.592 45.56 51.0994 45.7907 50.5209C45.8844 50.1974 45.9227 49.8603 45.9041 49.524C45.9353 48.6406 45.5131 47.7845 45.8024 46.8658C45.9119 46.514 45.7164 46.084 45.7125 45.6931C45.7125 44.9817 45.9236 44.2076 45.7125 43.5705C45.5014 42.9333 45.7125 42.5033 45.7125 41.9834C45.7125 41.4635 45.9158 41.0022 45.9314 40.5057C45.9627 39.6926 45.8962 38.8795 45.9001 38.0664C45.9001 36.5028 45.9627 34.9157 45.9627 33.3403C45.9627 33.0823 45.822 32.6406 45.6656 32.6054C45.2655 32.551 44.8593 32.5589 44.4616 32.6289C44.356 32.6289 44.2544 32.7422 44.1567 32.7344C43.41 32.6836 42.6673 32.5898 41.9168 32.5546C41.4242 32.5311 40.8222 32.41 40.4587 32.6367C40.1044 32.8687 39.678 32.9646 39.2586 32.9064C38.8989 32.8751 38.5393 32.8439 38.1796 32.8243C37.1046 32.7735 36.0296 32.7188 34.9507 32.6914C34.7381 32.7249 34.5322 32.7922 34.3409 32.8908C34.1415 32.4139 33.7506 32.7344 33.4105 32.8126C33.2307 32.8517 33.0626 33.0041 32.8945 33.0002C31.6436 33.0002 30.3849 32.8321 29.1457 32.9338C28.2818 33.008 27.41 32.6875 26.5539 33.0628C26.2842 33.1761 25.9207 33.0628 25.4164 33.0628L23.5009 32.3239C24.443 31.1512 23.9231 29.955 23.7824 28.9347C23.6417 27.9145 24.3453 26.8277 23.6534 25.8465C24.3336 25.3227 23.6065 24.6738 23.8293 24.0093C24.1586 23.0052 24.2032 21.9295 23.9583 20.9015C23.7237 20.0142 24.5759 19.162 23.8527 18.3606C23.8097 18.3137 23.8918 18.1339 23.9309 18.0244C24.2749 16.9963 24.1381 15.9369 24.1498 14.8971C24.1498 13.5289 24.1498 12.1607 24.1498 10.7417C23.7195 10.7831 23.2862 10.7831 22.8559 10.7417C22.1796 10.6049 21.5268 10.3704 20.8427 10.687C20.7445 10.7347 20.6343 10.7524 20.5261 10.7378C18.7005 10.4759 16.8554 10.2101 15.0377 9.9951C14.9573 9.99049 14.8768 10.0027 14.8015 10.031C14.7261 10.0593 14.6574 10.103 14.5999 10.1593C14.4213 10.3663 14.1917 10.5228 13.9338 10.6133C13.6759 10.7039 13.3988 10.7252 13.13 10.6753C11.7501 10.5619 10.3468 10.558 9.13884 11.2929C8.32966 11.7855 7.2742 11.9145 6.73083 12.8566C6.43546 13.3032 6.10473 13.7255 5.74182 14.1192C5.65191 14.2287 5.48773 14.2756 5.39391 14.3811C5.21019 14.6118 5.05382 14.8463 4.88182 15.073ZM52.4479 41.5065L52.2798 41.4635C52.3893 41.2406 52.5847 41.0256 52.5965 40.7989C52.6668 39.5675 52.702 38.3362 52.7333 37.1087C52.7333 36.8155 52.659 36.5184 52.6746 36.2292C52.7176 35.3261 52.8701 34.4153 52.8271 33.5201C52.7645 32.2692 52.3541 31.0809 52.5456 29.7713C52.7372 28.4617 52.5691 27.0349 52.5456 25.6394C52.5456 24.1109 52.5691 22.5785 52.4635 21.054C52.3874 20.279 52.1867 19.5213 51.8694 18.8101C51.7286 18.4661 51.2752 18.2511 50.9624 17.9775C50.2844 17.2933 49.5594 16.6571 48.7929 16.0738C47.7922 15.4092 47.1902 14.3968 46.3458 13.5954C45.5556 12.808 44.8301 11.9583 44.1762 11.0545C43.2146 9.78791 41.7878 8.93964 41.0489 7.48545C40.4474 6.27865 39.4931 5.28337 38.3126 4.63179C37.7814 4.28198 37.1944 4.0255 36.5769 3.87343C35.6606 3.79379 34.7403 3.76899 33.821 3.79915C33.5825 3.79915 33.3402 3.62324 33.1095 3.6467C31.5732 3.79524 30.0409 3.97115 28.5085 4.14706C28.22 4.23791 27.9225 4.2969 27.6211 4.32297C26.8393 4.22525 26.1005 3.96334 25.3343 3.93206C24.1186 3.87734 22.8989 3.93206 21.6832 3.97897C20.8551 3.97506 20.0292 4.0629 19.2204 4.24088C18.3409 4.47934 17.4223 4.4207 16.5583 4.96798C15.6006 5.57389 14.381 5.7498 13.5679 6.65671C13.1027 7.17272 12.661 7.71218 12.2388 8.26336C12.141 8.39236 12.0824 8.709 12.1567 8.78327C12.3227 8.95468 12.5477 9.05667 12.786 9.06864C13.4037 9.04518 14.0213 8.90836 14.6429 8.89273C15.6006 8.87318 16.5583 8.93182 17.5161 8.92791C18.1454 8.92791 18.7748 8.85755 19.4042 8.83409C20.2994 8.80282 21.1985 8.72855 22.0897 8.77936C22.9826 8.84738 23.8695 8.978 24.744 9.17027C24.8655 9.21349 24.9744 9.28608 25.061 9.38156C25.1476 9.47705 25.2093 9.59247 25.2405 9.71755C25.3812 11.031 25.5063 12.3523 25.5454 13.6736C25.5728 14.4749 25.4281 15.2802 25.3812 16.0855C25.3226 17.0823 25.7213 18.0635 25.5141 19.076C25.4789 19.2401 25.7291 19.4669 25.7213 19.635C25.6783 20.4168 25.5571 21.226 25.5298 22.0273C25.4985 22.9655 25.5298 23.9076 25.561 24.8497C25.561 25.0256 25.7369 25.1976 25.8308 25.3735H25.6431V30.9479C26.378 30.9949 27.1481 31.2059 27.8322 31.0496C28.534 30.862 29.2727 30.862 29.9744 31.0496C30.14 31.0943 30.3112 31.114 30.4826 31.1082C31.4716 31.1082 32.4606 31.0574 33.4535 31.0418C34.8999 31.0144 36.3463 31.0066 37.7887 30.9636C38.1502 30.9187 38.509 30.8548 38.8637 30.772C39.1014 30.7447 39.3414 30.7447 39.5791 30.772C40.4899 30.8737 41.4242 31.245 42.2686 30.6743C42.6034 30.7969 42.9559 30.8643 43.3123 30.8737C43.4569 30.8737 43.6485 30.729 43.7462 30.7799C44.356 31.1121 44.8251 30.729 45.3411 30.5218C45.7321 30.3655 46.2559 30.0528 46.5139 30.1935C46.77 30.3403 46.9794 30.5566 47.1177 30.8174C47.2561 31.0782 47.3178 31.3728 47.2957 31.6672C47.2957 32.7422 47.3543 33.8133 47.3817 34.8844C47.4818 36.2489 47.504 37.618 47.4482 38.9851C47.2879 40.3041 47.2879 41.6377 47.4482 42.9567C47.4463 43.3663 47.4764 43.7754 47.5381 44.1803C47.7022 44.7471 47.4052 45.4273 47.4442 46.0528C47.5146 47.1551 47.5146 48.2731 47.4833 49.356C47.4833 50.0127 47.4208 50.6772 47.4833 51.3457C47.4833 51.635 47.4286 51.9282 47.4247 52.2174C47.3726 52.5351 47.3885 52.8602 47.4716 53.1712C47.7413 53.7498 48.0384 54.2932 47.7492 54.946C47.7416 54.9702 47.7416 54.9961 47.7492 55.0203C47.8234 55.2392 47.9016 55.462 47.9798 55.6809L48.5388 55.3408C48.8197 55.1884 49.0924 55.0214 49.3558 54.8404C49.9891 54.3635 50.7748 53.9726 51.197 53.3432C51.9358 52.2565 52.788 51.1502 52.8388 49.7508C52.874 48.793 52.7802 47.8275 52.7215 46.8658C52.7215 46.7759 52.5769 46.6899 52.6355 46.7564C52.7563 46.2412 52.8451 45.7189 52.9014 45.1927C52.9196 44.6102 52.8908 44.0272 52.8154 43.4493C52.7098 42.816 52.5652 42.1632 52.4479 41.5065Z" fill="#064149"/>
<path d="M4.88295 15.0721C5.05496 14.8453 5.21132 14.6108 5.39505 14.3958C5.48887 14.2902 5.65305 14.2433 5.74296 14.1339C6.10671 13.7339 6.43746 13.3051 6.73197 12.8517C7.27533 11.9135 8.33079 11.7845 9.13998 11.288C10.3479 10.5531 11.7513 10.557 13.1312 10.6704C13.3999 10.7203 13.677 10.699 13.9349 10.6085C14.1928 10.5179 14.4225 10.3614 14.601 10.1544C14.6585 10.0981 14.7272 10.0544 14.8026 10.0261C14.878 9.99782 14.9584 9.9856 15.0388 9.99021C16.8722 10.2208 18.7017 10.471 20.535 10.7095C20.6433 10.7241 20.7534 10.7064 20.8517 10.6587C21.5358 10.342 22.1886 10.5766 22.8649 10.7134C23.2952 10.7547 23.7285 10.7547 24.1588 10.7134C24.1588 12.1285 24.1588 13.5006 24.1588 14.8688C24.1588 15.9164 24.2839 16.9758 23.9399 17.9961C23.9008 18.1055 23.8187 18.2853 23.8617 18.3323C24.5849 19.1141 23.7327 19.9858 23.9672 20.8732C24.2122 21.9011 24.1675 22.9768 23.8382 23.9809C23.6154 24.6377 24.3425 25.2944 23.6623 25.8182C24.3542 26.7994 23.6623 27.8588 23.7913 28.9064C23.9203 29.954 24.452 31.1268 23.5099 32.2956L25.4371 33.0266C25.9413 33.0266 26.3049 33.1243 26.5746 33.0266C27.4307 32.6357 28.3025 32.9719 29.1664 32.8976C30.4056 32.796 31.6643 32.9445 32.9152 32.9641C33.0833 32.9641 33.2514 32.8155 33.4312 32.7764C33.7713 32.6982 34.1622 32.3855 34.3616 32.8546C34.5529 32.756 34.7588 32.6887 34.9714 32.6552C36.0503 32.6826 37.1253 32.7373 38.2003 32.7882C38.56 32.7882 38.9196 32.839 39.2792 32.8702C39.6987 32.9284 40.1251 32.8326 40.4793 32.6005C40.8429 32.3738 41.4449 32.495 41.9374 32.5184C42.688 32.5536 43.4307 32.6474 44.1774 32.6982C44.2751 32.6982 44.3767 32.6005 44.4823 32.5927C44.88 32.5227 45.2861 32.5148 45.6863 32.5692C45.8426 32.6044 45.9834 33.0462 45.9834 33.3042C45.9834 34.8678 45.9325 36.4549 45.9208 38.0303C45.9208 38.8434 45.9834 39.6565 45.9521 40.4696C45.9521 40.966 45.7254 41.4547 45.7332 41.9472C45.741 42.4398 45.526 42.944 45.7332 43.5343C45.9404 44.1246 45.7332 44.9455 45.7332 45.657C45.7332 46.0479 45.9325 46.4935 45.8231 46.8297C45.5416 47.7483 45.956 48.6044 45.9247 49.4879C45.9434 49.8242 45.9051 50.1612 45.8114 50.4847C45.5807 51.0633 46.0498 51.5558 45.9404 52.0914C45.8584 52.4007 45.7579 52.7049 45.6394 53.0022C45.7258 53.1899 45.7914 53.3865 45.8348 53.5885C45.9013 54.0928 45.9247 54.5971 45.9638 55.1014C46.0264 55.9027 46.0537 56.665 45.4361 57.3374C45.1895 57.7109 44.9973 58.1176 44.8654 58.5453C44.6152 59.0887 44.4979 59.8001 44.0835 60.1402C43.5128 60.6054 43.1571 61.2504 42.5707 61.6804C41.9843 62.1104 41.5113 62.5052 40.9602 62.8805C39.7874 63.6858 38.6147 64.5106 37.0159 64.3191C35.8141 64.1861 34.6049 64.1313 33.396 64.1549C32.4344 64.1549 31.4767 64.3699 30.5111 64.3855C29.7517 64.3617 28.9945 64.2912 28.2438 64.1744C28.1539 64.1744 28.0601 64.0728 27.9819 64.0884C25.7537 64.4793 23.5177 64.3621 21.2778 64.237C19.9409 64.1627 18.6039 64.1041 17.267 64.022C16.1529 63.9516 15.0115 63.9868 13.9404 63.7249C12.9592 63.4864 12.0405 63.8382 11.118 63.7249C10.0195 63.5998 8.87025 63.5255 8.01415 62.5834C7.70924 62.2472 7.11506 62.1925 6.71242 61.9228C6.35982 61.6565 6.03384 61.3567 5.73905 61.0276C5.69214 60.9807 5.68041 60.8986 5.62959 60.8556C4.49204 59.89 4.03859 58.5961 3.65158 57.1967C3.51226 56.6771 3.45554 56.1389 3.48349 55.6017C3.52258 54.7417 3.73368 53.8856 3.73758 53.0256C3.73758 51.7122 3.56558 50.3948 3.56949 49.0813C3.56949 47.9282 3.74149 46.7828 3.80013 45.6296C3.81968 45.1683 3.71413 44.7031 3.72195 44.2379C3.72195 43.4561 3.81186 42.7056 3.81577 41.9394C3.81577 41.3726 3.72195 40.8018 3.72977 40.235C3.77258 39.9521 3.84869 39.6752 3.95649 39.4102C3.95649 39.3437 4.02295 39.2616 3.9995 39.2226C3.30758 38.128 4.11286 36.9748 3.86659 35.8568C3.73133 35.2139 3.66061 34.5592 3.65549 33.9023C3.65549 33.0383 3.72586 32.1705 3.78058 31.3027C3.86977 30.8469 3.91169 30.3832 3.90568 29.9189C3.73758 28.7461 4.35522 27.6047 3.84704 26.3733C3.66722 25.9316 3.45613 25.0207 4.01513 24.4187C3.41313 23.9027 3.8314 23.2186 3.80404 22.6479C3.73758 21.1898 3.65549 19.72 3.66722 18.2658C3.66722 17.2963 4.22231 16.3308 4.5585 15.3731C4.58586 15.291 4.83605 15.2871 4.98459 15.2441L4.88295 15.0721ZM24.5028 48.8859C24.5028 47.979 24.4754 47.1385 24.4637 46.302C24.4637 45.3599 24.7569 44.3865 24.194 43.4952C24.168 43.4005 24.168 43.3006 24.194 43.2059C24.2331 42.3694 24.2878 41.5328 24.323 40.6924C24.3699 39.5939 24.1471 39.3555 23.2636 39.5587C23.1541 39.3828 23.0447 39.2069 22.9313 39.031H22.7398C22.6616 39.6526 22.5678 40.278 22.5131 40.9035C22.4114 42.1075 22.2824 43.3154 22.259 44.5272C22.259 45.5123 22.3958 46.4818 22.4153 47.4903C22.4153 47.9086 22.4153 48.5145 22.173 48.7022C21.7433 48.9366 21.2525 49.0348 20.7657 48.9836C20.0034 48.9836 19.2411 48.8351 18.4788 48.7608C18.4077 48.7577 18.3376 48.7783 18.2795 48.8194C17.7322 49.1869 17.1849 49.3745 16.6064 48.8624C16.5158 48.8275 16.4155 48.8275 16.3249 48.8624C15.3538 49.1247 14.343 49.2068 13.3423 49.1048C12.9514 49.0735 12.537 49.4957 12.1304 49.6872L12.5917 50.5277C12.6777 50.6723 12.7559 50.9186 12.8575 50.9421C14.0733 51.0906 15.2929 51.2548 16.5165 51.3017C17.3413 51.333 18.1739 51.1727 19.0066 51.1336C19.4639 51.1336 20.0503 50.9968 20.3552 51.2235C20.797 51.5519 21.0393 51.4424 21.4537 51.2743C21.7796 51.2203 22.1139 51.2931 22.388 51.4776C22.4896 51.5323 22.431 51.9076 22.4231 52.1344C22.4231 52.4549 22.3489 52.7754 22.3645 53.0921C22.4192 54.3821 22.4935 55.676 22.5561 56.966C22.5561 57.0481 22.4505 57.1576 22.4779 57.2162C22.8453 58.0488 22.6069 58.9049 22.6186 59.7532C22.6137 59.8971 22.6378 60.0404 22.6895 60.1748C22.7412 60.3091 22.8195 60.4316 22.9196 60.535C23.0655 60.6196 23.2277 60.6724 23.3954 60.69C23.5632 60.7075 23.7327 60.6893 23.893 60.6367C24.0814 60.5818 24.2422 60.458 24.3436 60.29C24.445 60.122 24.4795 59.922 24.4402 59.7298C24.3542 58.82 24.3463 57.9045 24.4168 56.9934C24.4168 56.3562 24.6513 55.6565 24.452 55.1014C24.2018 54.4016 24.3894 53.9716 24.8742 53.4869C24.4832 53.2719 24.1432 53.139 24.4481 52.5604C24.6396 52.1969 24.4285 51.6223 24.3894 51.0672C25.8084 51.0672 27.0398 51.0672 28.2712 51.0672C28.9201 51.0672 29.569 51.0437 30.2257 51.0672C30.6166 51.0672 30.9724 51.1962 31.3476 51.2118C31.8552 51.1826 32.3563 51.084 32.837 50.9186C33.2919 50.8435 33.7229 50.6629 34.0956 50.3914C34.4682 50.1199 34.7722 49.765 34.9831 49.355C34.782 49.0737 34.4975 48.8627 34.1699 48.7519C33.8423 48.641 33.4882 48.6359 33.1576 48.7373C32.9504 48.8077 32.6259 49.0032 32.5556 48.9328C31.9692 48.3699 31.3828 48.8429 30.7847 48.8468C30.0967 48.8468 29.4087 48.7647 28.7246 48.7373C28.365 48.7373 28.0054 48.7373 27.6457 48.7373L24.5028 48.8859Z" fill="white"/>
<path d="M52.4468 41.5056C52.5641 42.1623 52.7087 42.8151 52.7908 43.4601C52.8662 44.038 52.895 44.6211 52.8768 45.2036C52.8205 45.7298 52.7317 46.252 52.611 46.7672C52.5523 46.7008 52.6931 46.7672 52.697 46.8767C52.7556 47.8383 52.8494 48.8039 52.8143 49.7616C52.7634 51.1611 51.9113 52.2674 51.1724 53.3541C50.7502 53.9835 49.9645 54.3744 49.3312 54.8513C49.0678 55.0323 48.7951 55.1993 48.5142 55.3517L47.9552 55.6917C47.877 55.4728 47.7989 55.25 47.7246 55.0311C47.7171 55.0069 47.7171 54.981 47.7246 54.9568C48.0139 54.304 47.7246 53.7606 47.447 53.1821C47.364 52.8711 47.348 52.5459 47.4001 52.2283C47.4001 51.939 47.4744 51.6458 47.4588 51.3565C47.4158 50.6881 47.4588 50.0235 47.4588 49.3668C47.49 48.284 47.49 47.166 47.4197 46.0636C47.3806 45.4381 47.6777 44.758 47.5135 44.1911C47.4518 43.7862 47.4217 43.3772 47.4236 42.9676C47.2633 41.6485 47.2633 40.315 47.4236 38.9959C47.4795 37.6289 47.4573 36.2598 47.3571 34.8953C47.3298 33.8242 47.2594 32.7531 47.2711 31.6781C47.2932 31.3837 47.2315 31.089 47.0932 30.8282C46.9548 30.5674 46.7455 30.3511 46.4893 30.2043C46.2274 30.0636 45.7075 30.3763 45.3166 30.5327C44.8006 30.7399 44.3315 31.123 43.7217 30.7907C43.6239 30.7399 43.4324 30.8884 43.2877 30.8845C42.9313 30.8751 42.5788 30.8078 42.244 30.6851C41.3996 31.2559 40.4654 30.8845 39.5545 30.7829C39.3169 30.7555 39.0768 30.7555 38.8392 30.7829C38.4845 30.8656 38.1256 30.9296 37.7642 30.9744C36.3217 31.0174 34.8753 31.0252 33.429 31.0526C32.436 31.0526 31.447 31.1034 30.458 31.1191C30.2867 31.1249 30.1154 31.1051 29.9499 31.0604C29.2481 30.8728 28.5094 30.8728 27.8077 31.0604C27.1236 31.2168 26.3535 31.0057 25.6186 30.9588V25.3492H25.8062C25.7124 25.1733 25.5404 25.0013 25.5365 24.8254C25.5013 23.8833 25.4739 22.9412 25.5052 22.003C25.5326 21.2212 25.6537 20.4081 25.6967 19.6106C25.6967 19.4269 25.4544 19.2197 25.4896 19.0516C25.6967 18.0392 25.298 17.058 25.3566 16.0612C25.4036 15.2559 25.5482 14.4506 25.5208 13.6492C25.4817 12.328 25.3566 11.0067 25.2159 9.69321C25.1847 9.56813 25.123 9.45271 25.0364 9.35722C24.9498 9.26174 24.8409 9.18916 24.7195 9.14594C23.8449 8.95367 22.958 8.82304 22.0652 8.75503C21.1739 8.70421 20.2748 8.77848 19.3796 8.80975C18.7502 8.83321 18.1209 8.89966 17.4915 8.90357C16.5338 8.90357 15.576 8.84884 14.6183 8.86839C13.9968 8.86839 13.3791 9.02084 12.7615 9.0443C12.5362 9.02896 12.324 8.93324 12.1634 8.77457C12.0891 8.7003 12.1634 8.38366 12.2455 8.25466C12.6677 7.70347 13.1094 7.16402 13.5746 6.64801C14.3877 5.75283 15.6073 5.56519 16.565 4.95928C17.429 4.412 18.3476 4.47064 19.2272 4.23218C20.0302 4.05008 20.8508 3.957 21.6743 3.95463C22.89 3.90382 24.1096 3.853 25.3254 3.90772C26.1072 3.94291 26.846 4.20482 27.6122 4.29864C27.9135 4.27256 28.2111 4.21357 28.4996 4.12273C30.0319 3.94682 31.5643 3.77091 33.1006 3.62236C33.3312 3.5989 33.5736 3.767 33.8121 3.77481C34.7314 3.74465 35.6516 3.76945 36.568 3.84909C37.1855 4.00116 37.7725 4.25764 38.3036 4.60746C39.4841 5.25904 40.4385 6.25431 41.04 7.46111C41.7906 8.9153 43.2174 9.76358 44.1673 11.0301C44.8211 11.934 45.5467 12.7837 46.3369 13.5711C47.1812 14.3724 47.7832 15.3849 48.784 16.0494C49.5505 16.6328 50.2755 17.2689 50.9535 17.9532C51.2662 18.2268 51.7353 18.4418 51.8604 18.7858C52.1823 19.4975 52.3869 20.2565 52.4663 21.0335C52.5719 22.5581 52.5328 24.0905 52.5484 25.6189C52.5484 26.9989 52.7322 28.4022 52.5484 29.7509C52.3647 31.0995 52.7673 32.2488 52.8299 33.4997C52.8729 34.3949 52.7204 35.3057 52.6774 36.2087C52.6774 36.498 52.7439 36.7951 52.7361 37.0883C52.7048 38.3157 52.6696 39.5471 52.5993 40.7785C52.5993 41.0052 52.3921 41.2202 52.2826 41.443L52.4468 41.5056ZM30.6222 26.0646C31.0718 25.9199 31.451 25.6737 31.795 25.7128C32.6398 25.884 33.5017 25.9561 34.3632 25.9278C34.7072 25.9004 35.063 26.131 35.4187 26.1584C36.1341 26.217 36.8573 26.1584 37.5687 26.2444C38.0339 26.2874 38.4522 26.5532 38.9682 26.2991C39.2145 26.1779 39.6054 26.3812 39.9298 26.3734C40.6139 26.3734 41.298 26.2522 41.9782 26.2757C42.9907 26.3148 43.9953 26.4399 45.0038 26.5219C45.7192 26.5845 46.2782 26.3656 46.5167 25.6307C46.7239 24.9818 46.3916 24.2781 45.7779 23.7777C45.2806 23.3555 44.8155 22.8968 44.3862 22.4056C43.9523 21.9209 43.6044 21.3541 43.1548 20.8889C42.373 20.1071 41.5208 19.3526 40.7312 18.5434C40.4255 18.1868 40.1397 17.8135 39.8751 17.4254C39.7695 17.2925 39.6171 17.1948 39.4842 17.0697C39.1324 16.7023 38.7805 16.3348 38.4365 15.9595C38.202 15.7093 38.0144 15.2911 37.7368 15.2246C37.0253 15.0526 37.0019 14.4741 36.7947 14.0519C36.5875 13.9932 36.2357 13.9698 36.2201 13.8838C36.1341 13.4147 35.8565 13.3561 35.4617 13.3873C35.3874 13.3873 35.2897 13.2427 35.2154 13.1528C34.6408 12.4452 34.074 11.726 33.4876 11.0301C33.2715 10.8063 33.0417 10.5961 32.7996 10.4008C32.5523 10.1395 32.2914 9.89157 32.0178 9.65803C31.7871 9.48603 31.4822 9.41957 31.2359 9.26712C30.9193 9.04039 30.6418 8.76284 30.3486 8.50484L30.0984 8.59866C30.1307 8.88417 30.1464 9.17133 30.1453 9.45867C30.0867 11.0653 30.0085 12.672 29.942 14.2786C29.9147 14.9588 29.8756 15.6351 29.8756 16.3113C29.8756 17.6717 29.9069 19.0477 29.8951 20.3885C29.8951 21.315 29.8169 22.2415 29.7739 23.164H29.5863L30.0554 23.5549L29.7622 23.6605C30.0554 24.5048 29.9694 25.4235 30.6222 26.0646Z" fill="#BFEDE6"/>
<path d="M24.5013 48.8861L27.6285 48.7259C27.9882 48.7259 28.3478 48.6907 28.7075 48.7259C29.3916 48.7532 30.0796 48.8431 30.7676 48.8353C31.3578 48.8353 31.9403 48.3584 32.5384 48.9213C32.6088 48.9917 32.9293 48.7962 33.1404 48.7259C33.471 48.6245 33.8252 48.6295 34.1528 48.7404C34.4803 48.8512 34.7648 49.0622 34.966 49.3435C34.755 49.7535 34.4511 50.1084 34.0784 50.3799C33.7058 50.6514 33.2748 50.832 32.8199 50.9071C32.3391 51.0725 31.838 51.1712 31.3305 51.2003C30.9396 51.2003 30.5838 51.0674 30.2086 51.0557C29.5636 51.0322 28.9146 51.0557 28.254 51.0557C27.0226 51.0557 25.7913 51.0557 24.3723 51.0557C24.4113 51.6108 24.6224 52.1854 24.4309 52.549C24.126 53.1275 24.4309 53.2604 24.857 53.4754C24.3723 53.9602 24.1846 54.3902 24.4348 55.0899C24.6342 55.645 24.4113 56.3447 24.3996 56.9819C24.3291 57.893 24.337 58.8085 24.4231 59.7183C24.4663 59.9102 24.4356 60.1114 24.337 60.2816C24.2385 60.4519 24.0794 60.5788 23.8914 60.6369C23.7295 60.6913 23.5578 60.7104 23.3879 60.6928C23.218 60.6753 23.0538 60.6216 22.9063 60.5353C22.8062 60.4319 22.7279 60.3094 22.6762 60.175C22.6245 60.0407 22.6004 59.8973 22.6053 59.7535C22.6053 58.9052 22.8321 58.0491 22.4646 57.2164C22.4372 57.1578 22.5428 57.0484 22.5428 56.9663C22.4802 55.6763 22.406 54.3823 22.3512 53.0923C22.3512 52.7757 22.3982 52.4551 22.4099 52.1346C22.4099 51.9079 22.4763 51.5326 22.3747 51.4779C22.1006 51.2933 21.7664 51.2206 21.4404 51.2746C21.0261 51.4427 20.7837 51.5521 20.342 51.2238C20.0371 50.997 19.4507 51.1143 18.9933 51.1339C18.1607 51.173 17.328 51.3332 16.5032 51.302C15.2797 51.255 14.06 51.0909 12.8443 50.9423C12.7426 50.9423 12.6645 50.6726 12.5785 50.528L12.1172 49.6875C12.5081 49.4803 12.9459 49.0738 13.329 49.105C14.3297 49.2071 15.3406 49.1249 16.3117 48.8627C16.4022 48.8277 16.5026 48.8277 16.5931 48.8627C17.1717 49.3748 17.7189 49.1871 18.2662 48.8197C18.3243 48.7785 18.3945 48.7579 18.4656 48.761C19.2474 48.8353 19.9901 48.9682 20.7524 48.9839C21.2392 49.035 21.73 48.9368 22.1597 48.7024C22.406 48.5148 22.4099 47.9206 22.4021 47.4906C22.4021 46.5016 22.2301 45.5126 22.2457 44.5275C22.2692 43.3156 22.3982 42.1077 22.4998 40.9037C22.5545 40.2783 22.6483 39.6528 22.7265 39.0312H22.9181C23.0314 39.2072 23.1409 39.3831 23.2503 39.559C24.1338 39.3557 24.3566 39.5942 24.3097 40.6926C24.2745 41.5331 24.2198 42.3696 24.1807 43.2062C24.1548 43.3009 24.1548 43.4008 24.1807 43.4955C24.7436 44.3867 24.4348 45.3601 24.4504 46.3022C24.4739 47.1388 24.4895 47.9792 24.5013 48.8861Z" fill="#064149"/>
<path d="M30.6228 26.0666C29.97 25.4255 30.056 24.5029 29.7784 23.682L30.0716 23.5765L29.6025 23.1856H29.7902C29.8332 22.263 29.8996 21.3365 29.9114 20.4101C29.9114 19.0536 29.8879 17.6933 29.8918 16.3329C29.8918 15.6566 29.9309 14.9803 29.9583 14.3001C30.0247 12.6935 30.1029 11.0869 30.1615 9.48021C30.1569 9.18596 30.1347 8.89226 30.0951 8.60065L30.3453 8.50684C30.6385 8.76484 30.916 9.04238 31.2326 9.26911C31.4672 9.43721 31.7721 9.50366 32.0145 9.66002C32.2881 9.89356 32.549 10.1415 32.7963 10.4028C33.0384 10.5981 33.2682 10.8083 33.4843 11.0321C34.0707 11.7279 34.6375 12.4472 35.2121 13.1548C35.2864 13.2447 35.3841 13.3932 35.4584 13.3893C35.8493 13.358 36.1308 13.4167 36.2168 13.8858C36.2168 13.9718 36.5842 13.9952 36.7914 14.0539C36.9986 14.4917 37.022 15.0702 37.7335 15.2266C38.011 15.2931 38.1987 15.7113 38.4332 15.9615C38.7772 16.3524 39.129 16.7042 39.4809 17.0717C39.6021 17.1968 39.7545 17.2945 39.8718 17.4274C40.1272 17.8189 40.4038 18.196 40.7005 18.5572C41.4823 19.339 42.3423 20.0895 43.1242 20.9026C43.5776 21.3678 43.906 21.9346 44.3555 22.4194C44.7965 22.9078 45.2734 23.3626 45.7824 23.7797C46.3961 24.2801 46.7284 24.9837 46.5212 25.6327C46.2827 26.3676 45.7394 26.5865 45.0084 26.5239C43.9998 26.4418 42.9952 26.3168 41.9827 26.2777C41.3025 26.2542 40.6184 26.3598 39.9343 26.3754C39.6099 26.3754 39.219 26.1799 38.9727 26.3011C38.4567 26.5552 38.0384 26.3011 37.5732 26.2464C36.8618 26.176 36.1386 26.219 35.4232 26.1604C35.0675 26.133 34.7118 25.9024 34.3677 25.9298C33.5062 25.9581 32.6443 25.886 31.7995 25.7148C31.4516 25.6639 31.0724 25.9219 30.6228 26.0666ZM31.4046 24.2762L43.9803 24.6671C43.2727 23.8853 42.5964 23.1035 41.9358 22.349C40.9624 21.2154 39.4809 20.5665 38.8632 19.0966C38.828 19.0224 38.6756 19.0028 38.5857 18.9481C38.4165 18.8775 38.2616 18.7768 38.1283 18.651C37.1549 17.3532 36.1425 16.0983 34.7313 15.2383C34.6431 15.1893 34.5772 15.1081 34.5476 15.0116C34.3208 13.8389 33.3748 13.2447 32.5383 12.5567C32.4528 12.5005 32.3718 12.4377 32.2959 12.369C31.9597 11.9469 31.6314 11.5208 31.1896 10.95C31.1486 11.2349 31.1277 11.5223 31.1271 11.81C31.2287 12.7482 31.1271 13.6708 31.389 14.6363C31.6509 15.6019 31.3616 16.8332 31.346 17.9434C31.3915 18.2147 31.4758 18.478 31.5962 18.7253C31.4592 18.9212 31.3647 19.1435 31.3186 19.3781C31.2913 19.8706 31.4164 20.371 31.4242 20.8714C31.4281 22.0402 31.4164 23.209 31.4164 24.284L31.4046 24.2762Z" fill="#064149"/>
<path d="M31.4182 24.2822C31.4182 23.215 31.4182 22.0462 31.4182 20.8774C31.4182 20.377 31.2853 19.8767 31.3126 19.3841C31.3657 19.1477 31.4683 18.9252 31.6136 18.7313C31.4932 18.484 31.409 18.2207 31.3634 17.9495C31.3634 16.8393 31.6762 15.6665 31.4064 14.6423C31.1367 13.6182 31.2462 12.7542 31.1445 11.8161C31.1452 11.5283 31.1661 11.2409 31.2071 10.9561C31.6488 11.5268 31.9889 11.9529 32.3134 12.3751C32.3892 12.4437 32.4702 12.5065 32.5557 12.5627C33.3845 13.2507 34.3383 13.8332 34.565 15.0176C34.5947 15.1141 34.6605 15.1953 34.7487 15.2444C36.1599 16.1044 37.1724 17.3592 38.1458 18.657C38.279 18.7829 38.434 18.8835 38.6031 18.9541C38.693 19.0088 38.8455 19.0284 38.8807 19.1026C39.4983 20.5725 40.9799 21.2214 41.9532 22.355C42.6139 23.1369 43.2901 23.8718 43.9977 24.6731L31.4182 24.2822Z" fill="#FD7D73"/>
</g>
<defs>
<clipPath id="clip0_6837_1122">
<rect width="52.8981" height="64" fill="white" transform="translate(2 2)"/>
</clipPath>
</defs>
</svg>
