<svg width="90" height="46" viewBox="0 0 90 46" fill="none" xmlns="http://www.w3.org/2000/svg">
<path d="M35.9598 29.3813C36.5428 30.0755 37.2949 30.7164 37.6998 31.5352C38.0114 32.1494 38.5142 32.3096 38.9459 32.6567C39.0928 32.7769 39.3598 32.8481 39.3909 32.9816C39.7336 34.1208 40.726 34.6193 41.5894 35.2067C41.6885 35.2524 41.7736 35.3237 41.836 35.4132C41.8985 35.5027 41.9359 35.6072 41.9445 35.716C41.9531 35.8248 41.9326 35.9339 41.885 36.0321C41.8375 36.1303 41.7646 36.2141 41.6739 36.2748C40.7082 37.2538 39.7692 38.2641 38.7367 39.1675C38.0525 39.6775 37.336 40.1427 36.5917 40.5604C35.8663 41.0455 35.181 41.5929 34.4422 42.069C33.9431 42.3624 33.4292 42.6298 32.9024 42.8701L33.0226 43.0882C32.8446 43.0481 32.6354 42.9324 32.4886 42.9769C30.8865 43.4219 29.2977 43.956 27.6867 44.4099C27.2861 44.4518 26.8829 44.4622 26.4807 44.441C24.1743 44.6311 21.8529 44.5113 19.5783 44.085C18.6126 43.8537 17.6709 43.5319 16.7657 43.1238C15.4908 42.6187 14.2635 42.0006 13.0987 41.2769C11.9505 40.5916 11.8437 40.6672 10.9982 39.8395C10.6364 39.4639 10.2136 39.1524 9.74762 38.9182C8.17668 38.224 7.52248 36.7376 6.57012 35.496C5.92155 34.6682 5.33971 33.7902 4.83006 32.8703C4.39244 31.9773 4.01626 31.0554 3.70414 30.1111C3.54705 29.643 3.41777 29.166 3.31697 28.6826C3.09001 27.7124 2.64943 26.7067 2.71173 25.781C2.80074 24.4726 2.64943 23.1776 2.60938 21.8781C2.60938 21.8514 2.60938 21.8114 2.60938 21.798C3.37927 20.908 2.80074 19.6174 3.21016 18.7184C3.80205 17.4234 4.02901 15.9637 4.95912 14.8022C6.06279 13.4181 6.89054 11.8116 7.86961 10.3208C8.07321 10.0703 8.31681 9.85531 8.59055 9.68436C10.2683 8.40268 11.6701 6.81393 13.7618 6.01288C14.9411 5.56785 15.938 4.71785 17.3443 4.8113C17.385 4.81712 17.4265 4.81374 17.4658 4.80142C17.5051 4.7891 17.5411 4.76814 17.5712 4.7401C18.2388 3.85004 19.3024 3.99245 20.2681 3.9079C21.1136 3.83669 22.1194 4.09926 22.7869 3.75214C23.8239 3.21365 24.8741 3.71208 25.9021 3.66758C27.1126 3.61863 28.3987 4.14376 29.6493 4.42858C30.0943 4.53094 30.5393 4.68225 30.9844 4.7668C31.2556 4.77357 31.5205 4.84948 31.7542 4.98733C31.9878 5.12518 32.1824 5.3204 32.3194 5.5545C32.493 5.86157 33.2095 5.85267 33.6545 6.06628C34.4912 6.48016 35.3234 6.91184 36.12 7.40137C36.8701 7.81911 37.5703 8.32076 38.2072 8.89666C39.2619 9.99143 40.6281 10.8058 41.3357 12.2655C41.6751 12.8222 42.0528 13.3545 42.4661 13.8587C43.0491 14.7221 43.5698 15.6388 44.2061 16.4443C44.3975 16.6936 44.887 16.7292 45.2075 16.8538C45.8527 17.5881 46.5114 18.3357 47.1656 19.0789C47.4407 19.3528 47.691 19.6506 47.9132 19.969C48.4044 20.6832 49.0051 21.3155 49.6933 21.8425C49.836 21.9423 49.9559 22.0712 50.0449 22.2208C50.5789 23.5292 51.7449 24.2946 52.6884 25.2603C53.7297 26.3284 54.6287 27.5344 55.6701 28.6025C56.8805 29.853 58.1044 31.0769 59.8044 31.7177C60.6321 32.0248 61.5845 32.0871 62.252 32.9549C62.4478 33.213 63.0219 33.1863 63.4047 33.342C63.7874 33.4978 64.13 33.747 64.5083 33.9028C65.4251 34.2811 66.3507 34.6371 67.2719 34.9886C67.3246 35.0034 67.3797 35.0075 67.434 35.0006C67.4883 34.9937 67.5406 34.976 67.5879 34.9486C68.2466 34.5303 69.0076 34.8685 69.7107 34.824C70.3139 34.8079 70.9057 34.6558 71.4419 34.379C72.5455 33.7337 73.5557 32.9415 74.6238 32.2339C75.1667 31.8735 75.8966 31.6865 76.2704 31.2015C76.84 30.4672 77.0982 29.4881 77.6277 28.7138C78.0149 28.1486 78.0372 27.4944 78.2641 26.9069C78.6179 25.8073 78.6179 24.6244 78.2641 23.5247C77.726 21.6757 77.0917 19.856 76.3639 18.0731C76.266 17.8061 75.9188 17.6281 75.7408 17.37C74.4776 15.8241 72.8063 14.6631 70.9167 14.0189C70.0979 13.7074 69.2968 13.3336 68.478 13.0176C68.2729 12.9707 68.06 12.9707 67.8549 13.0176C67.6947 13.0176 67.5479 13.1689 67.4099 13.1511C65.2426 12.9197 63.4714 13.8053 61.6824 14.6553C61.0179 14.9148 60.3788 15.2351 59.7732 15.6121C59.1643 16.0934 58.6039 16.6329 58.0999 17.2231C57.6726 17.6944 57.27 18.1876 56.8939 18.7006C56.7865 18.8785 56.6999 19.0682 56.6358 19.2658C55.541 19.1012 55.0559 18.1532 54.4106 17.4456C53.9167 16.9027 53.6185 16.2218 52.8441 15.9237C52.5727 15.8213 52.4303 15.3629 52.1855 15.1093C51.7405 14.6642 51.2732 14.2414 50.8148 13.8053C50.2051 13.2312 50.1829 12.6616 50.7214 12.1454C51.9096 11.0105 53.0355 9.81342 54.2816 8.76315C54.958 8.19797 55.857 7.8731 56.6447 7.42807C56.9117 7.27231 57.1342 7.04534 57.3923 6.87178C57.7154 6.61086 58.0697 6.39111 58.447 6.21759C59.88 5.71916 61.3264 5.25633 62.7772 4.8024C63.5558 4.5069 64.3603 4.28491 65.1803 4.13931C66.0303 4.04141 66.9604 4.27282 67.7926 4.17046C68.3142 4.09492 68.8425 4.07701 69.368 4.11706C71.0106 4.21439 72.6455 4.41355 74.2633 4.7134C75.3537 4.96706 76.3461 5.75031 77.423 6.16419C78.5124 6.65053 79.5426 7.25971 80.4937 7.9799C80.6094 8.05556 80.8453 7.9443 80.9388 8.11786C81.5217 8.56289 82.1225 9.00792 82.6788 9.5197C83.2351 10.0315 83.9338 10.1828 84.1207 11.0773C84.2186 11.5223 84.9173 11.9006 85.2644 12.3634C85.9364 13.2535 86.5506 14.188 87.227 15.1582L86.9689 15.5142C87.1893 15.7779 87.3761 16.0679 87.5252 16.3776C87.9702 17.6815 88.7356 19.0477 88.7312 20.3072C88.7312 21.6779 89.7014 23.1376 88.8158 24.4593C88.7 24.6284 89.0116 25.0601 88.9715 25.3493C88.798 26.4708 88.571 27.5745 88.3485 28.6915C88.1527 29.6572 87.9657 30.6274 87.721 31.5753C87.6231 31.9625 87.3427 32.2829 87.2136 32.6612C86.591 34.3904 85.5569 35.9421 84.2008 37.1826C83.8136 37.552 83.6979 38.2285 83.284 38.54C82.5008 39.1363 82.3183 40.3468 81.0589 40.5159C80.6139 40.5782 80.2668 41.179 79.844 41.4905C79.2299 41.9355 78.8649 42.6743 77.8636 42.6743C77.3073 42.6743 76.8133 43.2573 76.2615 43.5154C75.6251 43.8091 74.9531 44.0405 74.2945 44.2942C73.9167 44.4623 73.5305 44.6109 73.1374 44.7392C72.2822 45.0009 71.4111 45.2075 70.5295 45.3578C69.3057 45.5136 68.0418 45.4824 66.8136 45.6248C64.4416 45.9052 62.1897 45.2465 59.9557 44.3298C58.536 43.7468 57.112 43.1772 55.7057 42.5497C55.3544 42.409 55.0471 42.177 54.8156 41.8777C54.3706 41.2502 53.9656 40.7028 53.1423 40.6583C53.0444 40.6583 52.942 40.3557 52.8441 40.2133C52.7462 40.0709 52.7195 39.8751 52.6216 39.8395C51.2865 39.3544 50.8949 37.957 49.9515 37.0758C49.5064 36.6308 49.0614 36.1858 48.6386 35.6918C47.8687 34.8017 47.1211 33.9117 46.369 33.0216C46.2355 32.8614 46.1331 32.679 46.013 32.5187C45.4033 31.691 44.8025 30.8365 44.1572 30.0177C43.3695 29.0653 42.5284 28.1575 41.714 27.2274C41.6383 27.1384 41.625 26.9959 41.5449 26.9247C40.5881 26.0703 39.609 25.2514 38.6789 24.3747C38.3496 24.0632 38.1894 23.587 37.8734 23.2622C37.326 22.7103 36.6718 22.2609 36.1467 21.6912C35.8902 21.4826 35.6789 21.2239 35.5259 20.9308C35.3728 20.6377 35.2812 20.3165 35.2566 19.9868C35.2566 19.6352 34.6469 19.2258 34.3043 18.8519C34.0328 18.5582 33.7168 18.3001 33.4721 17.9841C32.2304 16.4043 30.4859 15.6433 28.7503 14.949C27.3585 14.4197 25.8902 14.1191 24.4024 14.059C21.6076 13.8943 19.3958 14.8556 17.3265 16.2841C16.5321 16.7786 15.8427 17.4242 15.2971 18.1844C14.5759 19.2495 14.0611 20.4405 13.7796 21.6957C13.4903 23.2889 13.1743 25.0067 13.8063 26.6488C14.3024 27.9564 15.0089 29.174 15.8979 30.2536C17.7704 32.6356 20.4717 34.2246 23.4634 34.7038C24.5003 34.8685 25.5639 35.18 26.5786 35.1133C27.8469 35.0287 29.182 35.0332 30.2946 34.3167C30.8776 33.9428 31.6297 33.7826 32.177 33.391C32.7813 32.9455 33.335 32.4351 33.8281 31.869C34.5312 31.0813 35.1899 30.2714 35.9598 29.3813Z" fill="#BFEDE6"/>
<path d="M55.4402 19.2429L54.4923 19.0204C54.381 18.9981 54.2208 19.0204 54.163 18.9581C53.6734 18.4018 53.1972 17.8366 52.7255 17.2625C52.3116 16.7596 51.9334 16.23 51.5017 15.7405C50.7852 14.9394 50.0019 14.1874 49.3166 13.364C48.8298 12.814 48.4251 12.1964 48.115 11.5305C47.9873 11.2619 47.9495 10.9593 48.0072 10.6676C48.0649 10.3758 48.2151 10.1104 48.4354 9.91063C49.1005 9.09723 49.696 8.22933 50.2156 7.31612C50.269 7.23156 50.2912 7.05355 50.3402 7.0491C51.5195 7.00905 51.7197 5.66507 52.7433 5.3758C52.94 5.30946 53.1179 5.1968 53.262 5.04732C53.406 4.89784 53.512 4.71592 53.5711 4.51689C53.669 3.88495 54.1318 3.99176 54.5056 3.8449C54.9401 3.65882 55.3649 3.45087 55.7784 3.22186C56.7842 2.71453 57.7855 2.1894 58.7957 1.69097C60.4601 0.876565 62.3248 0.6407 64.136 0.329181C64.8604 0.254031 65.5894 0.23469 66.3167 0.271327C67.9232 0.271327 69.5253 0.231274 71.1319 0.240175C71.3321 0.240175 71.5457 0.413736 71.7549 0.489391C72.24 0.654051 72.7295 0.809811 73.2191 0.965571C73.9311 1.18808 74.6476 1.4106 75.3596 1.63311C75.5777 1.70432 75.8358 1.92683 75.996 1.87788C76.9439 1.59306 77.4424 2.32291 78.0343 2.83914C78.2301 3.01715 78.457 3.28417 78.6573 3.28417C80.0235 3.34647 80.7801 4.49909 81.7324 5.21114C83.1932 6.28535 84.4172 7.64872 85.3283 9.21639C85.399 9.3084 85.483 9.3894 85.5775 9.4567C86.0759 9.90173 86.6945 10.2533 86.601 11.0455C86.601 11.1434 86.65 11.3303 86.7168 11.357C87.6424 11.7085 87.2063 12.6565 87.6691 13.2083C88.1319 13.7601 88.5592 14.4099 88.4524 15.2421C88.4123 15.5669 88.8707 15.9675 89.0175 16.3635C89.1715 16.7962 89.2803 17.2436 89.3424 17.6986C89.5071 18.8201 89.6762 19.9238 89.7874 21.0586C89.8542 21.8463 89.5961 22.6073 89.9744 23.4395C90.1034 23.7243 89.7073 24.1782 89.6317 24.5788C89.3602 26.0607 89.1867 27.5693 88.8529 29.029C88.6927 29.7188 88.1675 30.2929 87.9628 30.9783C87.8115 31.4856 87.8382 32.0419 87.3932 32.4201C86.6811 33.0298 86.3162 33.8709 85.9113 34.712C85.5063 35.5531 84.723 36.2118 84.2068 37.0173C83.5126 38.1032 81.9817 38.3524 81.5811 39.7275C81.5055 39.9678 81.1361 40.1147 80.9136 40.2749C79.5785 41.1649 78.2434 42.0105 76.8772 42.8472C76.5226 43.03 76.1516 43.179 75.7691 43.2922C75.3726 43.4628 74.967 43.6114 74.5541 43.7372C73.5884 43.9864 72.6005 44.1822 71.6392 44.4315C70.856 44.6451 70.095 44.9254 69.3295 45.1747C69.2316 45.2058 69.1248 45.3126 69.0491 45.2859C68.0033 44.9165 67.1044 45.2859 66.1387 45.4817C65.4964 45.5768 64.8406 45.4662 64.2651 45.1657C63.9091 44.9744 63.7489 45.1212 63.4996 45.0856C62.7489 44.9495 62.0061 44.7727 61.2745 44.5561C61.0876 44.5071 60.8562 44.3513 60.7227 44.4092C59.9795 44.7163 59.3876 44.3424 58.7156 43.9642C58.4119 43.8709 58.1007 43.8039 57.7855 43.7639C57.4668 43.6442 57.1599 43.4953 56.8687 43.3189C56.397 43.0474 55.9787 42.5846 55.4758 42.4911C54.5368 42.3131 53.9315 41.6367 53.1883 41.156C52.9648 41.0317 52.7328 40.9231 52.4941 40.8312C52.3428 40.7644 52.0936 40.7288 52.0491 40.6309C51.6619 39.5539 50.5983 39.2958 49.8239 38.6728C49.4749 38.3122 49.1755 37.9066 48.9339 37.4668C48.4488 36.777 47.9815 36.0738 47.492 35.3885C47.3852 35.2416 47.2027 35.1437 47.1004 34.9924C46.9563 34.7852 46.8298 34.5664 46.7221 34.3382C46.6776 34.2403 46.7221 34.0846 46.6642 34.0089C45.6199 32.7866 44.5696 31.5657 43.5134 30.3463C43.0684 29.8345 42.699 29.1536 42.1472 28.8555C41.3461 28.4104 41.1058 27.5515 40.4205 27.0754C39.8954 26.7104 39.7307 25.8871 38.9163 25.856C38.8362 25.856 38.7961 25.411 38.6448 25.2374C37.5901 24.1026 36.5131 22.9856 35.4406 21.8641C35.187 21.5926 34.9155 21.3301 34.6796 21.0408C33.4603 19.5588 32.2631 18.0591 31.0215 16.5905C30.7384 16.1947 30.3498 15.8863 29.9 15.7004C29.0945 15.5091 28.7652 14.2274 27.7416 14.6769C26.9895 13.7868 25.917 14.0983 25.0136 13.7868C24.5686 13.6222 23.9945 13.8135 23.4783 13.8358C23.2869 13.8358 23.0911 13.7913 22.9086 13.8358C22.339 13.9114 21.7783 14.0138 21.2086 14.0939C21.1107 14.0939 20.9861 14.0138 20.8882 14.0271C20.629 14.0544 20.3728 14.105 20.1228 14.1785C19.9314 14.2363 19.7667 14.3609 19.5798 14.4366C18.6898 14.7926 17.7419 15.0107 16.9853 15.5224C16.3311 15.9675 15.9751 16.8086 15.3832 17.356C14.3775 18.2861 14.6534 19.7814 13.9636 20.8405C13.8292 21.0869 13.7973 21.3763 13.8746 21.646C14.284 22.9811 14.373 24.3651 15.045 25.718C15.6224 26.8022 16.4036 27.7647 17.3458 28.5529C18.6875 29.7876 20.3242 30.6566 22.0987 31.0762C23.059 31.2697 24.0406 31.3355 25.0181 31.272C26.3645 31.2022 27.6975 30.969 28.9877 30.5777C29.8208 30.297 30.5937 29.8622 31.2663 29.2961C31.8715 28.843 32.4081 28.3048 32.8595 27.6984C33.2422 27.1911 33.389 26.5102 33.7495 25.9806C34.0462 25.6284 34.3855 25.3144 34.7597 25.046C35.5163 25.9361 35.6809 27.0353 36.9849 27.1911C37.3854 27.24 37.7503 28.0099 38.1508 28.4327C39.3376 29.6936 40.5243 30.9501 41.7111 32.2021C41.9472 32.403 42.0986 32.6857 42.1349 32.9936C42.1712 33.3015 42.0897 33.6117 41.9069 33.862C40.3359 36.688 38.0173 38.6995 35.3427 40.4396C34.0216 41.2445 32.6119 41.8941 31.1417 42.3754C31.0126 42.4244 30.9725 42.6869 30.9369 42.7581C30.4919 42.8249 30.0736 42.8694 29.6597 42.954C28.5382 43.1765 27.4346 43.399 26.3087 43.6571C23.9545 44.1733 21.5335 43.6571 19.1392 43.4123C17.8798 43.2744 16.6337 42.727 15.3699 42.5223C14.6845 42.3977 14.0926 41.7924 13.661 41.7524C12.5706 41.6456 11.912 40.9513 11.1109 40.4173C10.6392 40.1147 10.1764 39.7943 9.6201 39.4293L9.33083 39.7231C9.25073 39.7231 9.17062 39.7231 9.14392 39.6652C8.87701 39.2886 8.58875 38.9275 8.28057 38.5838C7.32821 37.6492 6.27794 36.8037 5.39234 35.8113C4.44792 34.8078 3.66972 33.66 3.08709 32.4113C2.59756 31.2898 1.96117 30.2217 1.44939 29.1091C1.14805 28.4644 0.913915 27.7903 0.750695 27.0976C0.447068 25.8676 0.206439 24.6229 0.0297497 23.3683C-0.0113493 22.5455 -0.00986385 21.721 0.0342 20.8984C0.0342 20.0395 0.207761 19.2251 0.132106 18.3306C0.0564513 17.4361 0.577134 16.6128 0.875303 15.7717C1.33568 14.3379 1.87195 12.9296 2.48185 11.5528C2.92688 10.6627 3.63003 9.91063 4.23526 9.10958C4.59129 8.6423 4.95176 8.17502 5.35228 7.7389C5.97977 7.05355 6.84758 6.51062 7.2392 5.70067C7.73763 4.6504 9.22403 4.88182 9.5489 3.70249C9.59785 3.52448 10.1853 3.57343 10.4701 3.42658C11.467 2.91924 12.4505 2.34961 13.4295 1.82002C14.0971 1.46845 14.7646 0.845413 15.4633 0.894366C16.162 0.943319 16.6782 0.613998 17.2968 0.542794C18.1869 0.444888 19.0769 0.231274 19.967 0.15562C21.044 0.0710643 22.1254 0.0799649 23.2024 0.0532632C23.6461 0.101498 24.0937 0.101498 24.5374 0.0532632C25.2139 -0.124748 25.8325 0.195672 26.4778 0.253526C26.856 0.289128 27.2699 0.698554 27.6838 0.213473C27.795 0.0933157 28.4937 0.511642 28.9254 0.680753C30.3273 1.22369 31.738 1.73547 33.122 2.32291C33.6201 2.57788 34.0951 2.87569 34.5417 3.21296C34.6501 3.31308 34.7713 3.39838 34.9021 3.46663C36.4152 3.94726 37.2964 5.4292 38.716 6.06559C38.8718 6.1368 38.9741 6.37266 39.0854 6.54177C39.2625 6.84839 39.4556 7.14549 39.6639 7.43183C40.8329 8.80548 42.0122 10.1717 43.2019 11.5305C43.7003 12.0957 44.2655 12.6075 44.7506 13.1816C45.5161 14.0939 46.2103 15.073 47.0025 15.9586C47.7946 16.8442 48.6713 17.5785 49.459 18.4329C50.3491 19.412 51.1946 20.4622 52.0847 21.4547C52.4006 21.8018 52.8457 22.0421 53.1527 22.3937C53.5978 22.8787 53.9449 23.4217 54.3276 23.9468C55.3334 25.3041 56.3658 26.6526 57.8478 27.507C58.6043 27.9521 59.4543 28.2324 60.2509 28.6107C60.7494 28.8466 61.23 29.1269 61.7195 29.3851C62.6674 29.8924 63.6064 30.4131 64.5677 30.8937C64.8338 30.9977 65.1147 31.0593 65.3999 31.0762C65.9918 31.1563 66.557 31.0762 67.18 31.3699C67.4565 31.4981 67.7632 31.5469 68.0658 31.5107C68.3683 31.4746 68.6549 31.3549 68.8934 31.1652C69.1203 30.9649 69.7211 31.3966 70.0816 30.8937C70.5044 30.3018 71.4167 30.3285 71.8617 29.5942C72.2088 29.0424 73.1968 28.9534 73.7353 28.495C74.2738 28.0366 75.2128 27.9209 75.0081 26.8795C75.956 26.3811 75.8536 25.3309 75.9916 24.4719C76.1317 23.5713 76.1045 22.6525 75.9115 21.7617C75.6712 20.6892 75.1282 19.6656 74.7989 18.602C74.6609 18.157 74.4785 17.712 74.3227 17.2669C73.8243 15.9052 72.6761 15.1264 71.7104 14.2141C71.2431 13.769 70.4777 13.6311 69.8368 13.373C69.0269 13.0525 68.2125 12.7499 67.3936 12.4517C67.2019 12.3677 66.9928 12.3311 66.7839 12.3449C65.3287 12.5719 63.8512 12.5007 62.4716 13.2839C61.5816 13.7868 60.8161 14.4366 59.9216 14.9127C59.8771 14.9127 59.8549 15.024 59.8148 15.0285C58.146 15.2065 57.7499 16.9732 56.4459 17.6052C56.2524 17.742 56.0988 17.9278 56.0009 18.1437C55.7918 18.5486 55.6182 18.9536 55.4402 19.2429ZM34.9689 27.3824C34.199 28.2725 33.5404 29.0824 32.8239 29.8479C32.3307 30.414 31.7771 30.9244 31.1728 31.3699C30.6076 31.7615 29.8733 31.9217 29.2903 32.2955C28.1778 33.012 26.8427 33.0076 25.5744 33.0921C24.573 33.1589 23.5094 32.8474 22.4592 32.6827C19.4674 32.2035 16.7661 30.6145 14.8937 28.2324C14.0047 27.1529 13.2981 25.9352 12.8021 24.6277C12.1701 22.9856 12.4861 21.2677 12.7754 19.6745C13.0569 18.4194 13.5716 17.2284 14.2929 16.1633C14.8384 15.4031 15.5279 14.7575 16.3222 14.263C18.3916 12.8211 20.6034 11.8599 23.3982 12.0379C24.886 12.098 26.3543 12.3985 27.7461 12.9279C29.4995 13.6444 31.244 14.4054 32.4767 16.0031C32.7215 16.319 33.0375 16.5772 33.3089 16.8709C33.6516 17.2447 34.2613 17.6541 34.2613 18.0057C34.2859 18.3343 34.3771 18.6545 34.5294 18.9467C34.6816 19.239 34.8917 19.4972 35.1469 19.7057C35.672 20.2753 36.3262 20.7248 36.8736 21.2766C37.1896 21.6015 37.3498 22.0777 37.6791 22.3892C38.6092 23.2793 39.5883 24.0848 40.5451 24.9392C40.6252 25.0104 40.6386 25.1528 40.7142 25.2418C41.5108 26.172 42.3519 27.0798 43.1574 28.0188C43.8205 28.8243 44.4213 29.6788 45.0532 30.5154C45.1734 30.6756 45.2757 30.8581 45.4093 31.0183C46.1614 31.9084 46.909 32.7984 47.6789 33.6885C48.0972 34.1647 48.5289 34.6364 48.9917 35.0725C49.9174 35.9626 50.2957 37.3511 51.6619 37.8361C51.7598 37.8717 51.8088 38.0809 51.8844 38.21C51.9601 38.339 52.0847 38.655 52.1826 38.655C53.0059 38.6995 53.4287 39.2469 53.8559 39.8744C54.0874 40.1737 54.3947 40.4057 54.7459 40.5464C56.1522 41.156 57.5763 41.7257 58.996 42.3265C61.2211 43.2432 63.4818 43.9019 65.8538 43.6215C67.0821 43.4791 68.346 43.5102 69.5698 43.3545C70.4514 43.2042 71.3225 42.9975 72.1777 42.7359C72.5708 42.6076 72.957 42.459 73.3348 42.2909C73.9934 42.0372 74.6698 41.8058 75.3018 41.5121C75.8536 41.254 76.3476 40.6754 76.9039 40.671C77.9052 40.671 78.2701 39.9322 78.8843 39.4872C79.3293 39.1757 79.6364 38.5971 80.0992 38.5126C81.3453 38.3435 81.5277 37.133 82.3243 36.5367C82.7382 36.2251 82.8539 35.5487 83.2411 35.1793C84.5704 33.9408 85.5824 32.4007 86.1916 30.689C86.3207 30.3107 86.601 29.9903 86.699 29.6031C86.9437 28.6552 87.144 27.6851 87.3264 26.7193C87.549 25.6068 87.7715 24.4942 87.9495 23.3772C87.9895 23.1013 87.678 22.6696 87.7937 22.4871C88.6838 21.152 87.7047 19.7057 87.7092 18.335C87.7092 17.0578 86.9615 15.7093 86.5031 14.4054C86.3541 14.0958 86.1672 13.8058 85.9468 13.5421L86.205 13.186C85.5285 12.2159 84.9144 11.2813 84.2424 10.3913C83.8953 9.94623 83.1966 9.56351 83.0987 9.10513C82.9118 8.21508 82.1819 8.01036 81.6568 7.54753C81.1316 7.0847 80.4997 6.60853 79.9167 6.1457C79.8411 5.97214 79.6052 6.08339 79.4717 6.00774C78.5206 5.28755 77.4904 4.67836 76.401 4.19202C75.324 3.77815 74.3316 2.9949 73.2413 2.74123C71.6234 2.44138 69.9885 2.24222 68.346 2.14489C67.8205 2.10485 67.2922 2.12275 66.7706 2.1983C65.925 2.30065 64.9905 2.06924 64.1583 2.16715C63.3383 2.31274 62.5337 2.53474 61.7551 2.83024C60.3043 3.27527 58.858 3.747 57.425 4.24543C57.0477 4.41894 56.6934 4.63869 56.3703 4.89962C56.1122 5.07318 55.8897 5.30014 55.6226 5.4559C54.8349 5.90093 53.936 6.208 53.2595 6.79099C52.0001 7.84125 50.8742 9.01613 49.6993 10.1732C49.1608 10.6894 49.1831 11.2591 49.7928 11.8332C50.2378 12.2782 50.7229 12.6832 51.1635 13.1371C51.4082 13.3908 51.5506 13.8491 51.8221 13.9515C52.5965 14.2497 52.8946 14.9305 53.3886 15.4735C54.0294 16.1811 54.5145 17.129 55.6137 17.2936C55.6779 17.096 55.7645 16.9064 55.8719 16.7285C56.248 16.2154 56.6506 15.7222 57.0779 15.251C57.5819 14.6608 58.1423 14.1212 58.7512 13.64C59.3568 13.263 59.9959 12.9427 60.6604 12.6832C62.4405 11.8332 64.2206 10.9475 66.3879 11.179C66.5392 11.179 66.686 11.0633 66.8329 11.0455C67.0379 10.9986 67.2509 10.9986 67.4559 11.0455C68.2748 11.3614 69.0758 11.7352 69.8947 12.0468C71.7972 12.6851 73.4815 13.8464 74.7544 15.3978C74.9458 15.6426 75.2795 15.8429 75.3774 16.101C76.1052 17.8839 76.7395 19.7036 77.2777 21.5526C77.6314 22.6522 77.6314 23.8351 77.2777 24.9348C77.0507 25.5222 77.0285 26.1764 76.6413 26.7416C76.1117 27.5159 75.8536 28.495 75.284 29.2293C74.9102 29.7144 74.1803 29.9013 73.6374 30.2618C72.5693 30.9694 71.5591 31.7615 70.4554 32.4068C69.9193 32.6837 69.3275 32.8358 68.7243 32.8518C68.0211 32.8963 67.2601 32.5581 66.6015 32.9764C66.5542 33.0039 66.5018 33.0216 66.4476 33.0284C66.3933 33.0353 66.3382 33.0313 66.2855 33.0165C65.3643 32.6649 64.4386 32.3089 63.5219 31.9306C63.1436 31.7749 62.8009 31.5256 62.4182 31.3699C62.0355 31.2141 61.4614 31.2408 61.2656 30.9827C60.6159 30.0927 59.6457 30.0526 58.8179 29.7455C57.1179 29.1136 55.8941 27.8898 54.6836 26.6303C53.6423 25.5623 52.7433 24.3562 51.702 23.2882C50.7585 22.3225 49.5925 21.557 49.0585 20.2486C48.9694 20.0991 48.8496 19.9701 48.7069 19.8704C48.0187 19.3433 47.418 18.711 46.9268 17.9968C46.7045 17.6785 46.4543 17.3806 46.1792 17.1067C45.525 16.3546 44.8441 15.607 44.221 14.8816C43.9006 14.757 43.4111 14.7214 43.2197 14.4722C42.5833 13.6533 42.0626 12.7499 41.4797 11.8866C41.0664 11.3824 40.6887 10.85 40.3493 10.2934C39.6283 8.80696 38.2621 7.99256 37.1673 6.89779C36.5305 6.32189 35.8303 5.82024 35.0802 5.4025C34.2836 4.91297 33.4514 4.48129 32.6147 4.06742C32.1697 3.8538 31.4621 3.8627 31.2796 3.55563C31.1425 3.32153 30.948 3.12631 30.7143 2.98846C30.4807 2.85062 30.2157 2.77471 29.9445 2.76793C29.4995 2.68338 29.0545 2.53207 28.6094 2.42971C27.3589 2.14489 26.0728 1.61976 24.8623 1.66871C23.8476 1.71322 22.7974 1.22369 21.7471 1.75327C21.0796 2.10039 20.0738 1.83783 19.2283 1.90903C18.2625 1.99359 17.1989 1.86453 16.5314 2.74123C16.5013 2.76928 16.4652 2.79023 16.426 2.80255C16.3867 2.81487 16.3452 2.81825 16.3044 2.81244C14.8981 2.71898 13.9013 3.56453 12.7442 4.01401C10.657 4.81506 9.25073 6.40381 7.56852 7.67659C7.29478 7.84754 7.05118 8.06257 6.84758 8.31298C5.86852 9.80383 5.04076 11.4282 3.9371 12.7944C3.02479 13.9559 2.79782 15.4156 2.21484 16.7107C1.80541 17.6007 2.38395 18.9002 1.61405 19.7903C1.61405 19.7903 1.61405 19.8437 1.61405 19.8704C1.6541 21.1698 1.80541 22.4649 1.71641 23.7733C1.6541 24.6989 2.09468 25.7047 2.32164 26.6748C2.42193 27.1627 2.55122 27.6442 2.70882 28.1167C3.02094 29.061 3.39712 29.9829 3.83474 30.8759C4.34438 31.7958 4.92623 32.6738 5.5748 33.5016C6.51381 34.7432 7.18135 36.2296 8.7523 36.9238C9.22423 37.1549 9.65318 37.465 10.0206 37.8406C10.8662 38.6683 10.973 38.5927 12.1212 39.278C13.286 40.0017 14.5132 40.6198 15.7882 41.1249C16.6934 41.533 17.6351 41.8549 18.6008 42.0862C20.8753 42.5124 23.1968 42.6322 25.5032 42.4422C25.8994 42.4624 26.2967 42.452 26.6914 42.411C28.3024 41.966 29.8911 41.4453 31.4932 40.978C31.6401 40.9335 31.8493 41.0492 32.0273 41.0893L31.9071 40.8712C32.4338 40.6309 32.9478 40.3636 33.4469 40.0702C34.1856 39.594 34.871 39.0466 35.5964 38.5615C36.3356 38.1491 37.0476 37.6898 37.7281 37.1864C38.7605 36.2963 39.6995 35.2728 40.6653 34.2937C40.7559 34.233 40.8288 34.1492 40.8764 34.051C40.9239 33.9528 40.9444 33.8437 40.9358 33.7349C40.9272 33.6261 40.8898 33.5216 40.8274 33.4321C40.7649 33.3426 40.6798 33.2713 40.5807 33.2256C39.6906 32.6204 38.7249 32.122 38.3823 31.0005C38.3467 30.867 38.0796 30.7958 37.9372 30.6756C37.4922 30.3285 37.0027 30.1683 36.6912 29.5542C36.2906 28.7309 35.543 28.0767 34.96 27.3824H34.9689Z" fill="#064149"/>
</svg>
