<svg width="52" height="64" viewBox="0 0 52 64" fill="none" xmlns="http://www.w3.org/2000/svg">
<path d="M47.7001 61.1772C47.4685 61.2471 47.2631 61.387 47.1058 61.352C45.5938 60.9936 44.121 62.1474 42.5915 61.4612C42.4735 61.4088 42.2419 61.6579 42.0452 61.7147C41.5276 61.8522 40.9864 61.8765 40.4585 61.786C39.9307 61.6955 39.4285 61.4923 38.9862 61.1903C38.7333 61.4998 38.3914 61.724 38.0068 61.8327C37.6222 61.9413 37.2135 61.9291 36.8361 61.7977C36.7225 61.7273 36.5936 61.6853 36.4603 61.6754C35.442 61.7628 34.4325 61.872 33.4012 61.9594C32.0902 62.0687 30.8097 62.1779 29.5074 62.2566C29.141 62.2553 28.7754 62.2216 28.4149 62.1561C28.345 62.1561 28.2226 62.0818 28.2095 62.1037C27.7944 62.6805 27.2787 62.2959 26.7849 62.2872C25.8366 62.2653 24.8795 62.3178 23.9268 62.3178C23.3762 62.3178 22.8256 62.2391 22.2793 62.2479C20.5925 62.2785 18.9056 62.3659 17.2231 62.3702C16.508 62.3717 15.7953 62.2895 15.0993 62.1255C14.4743 61.9769 14.0155 62.4358 13.4867 62.4402C12.3836 62.4378 11.2817 62.3677 10.1873 62.2304C9.5536 62.1605 8.94179 61.9201 8.30813 61.8196C7.32486 61.6623 6.89659 60.8145 6.25418 60.2376C5.73414 59.7613 5.2578 59.2369 4.7465 58.7518C3.74897 57.8283 3.12665 56.5697 2.99847 55.2164C2.96679 54.3749 3.05508 53.5333 3.26067 52.7167C3.32514 52.5781 3.42259 52.4575 3.54448 52.3653C3.66638 52.2731 3.809 52.2122 3.95989 52.1879C4.91789 52.0632 5.88857 52.072 6.84415 52.2141C7.99348 52.472 9.09911 52.2141 10.2222 52.236C11.9309 52.3015 13.6528 52.153 15.3658 52.1267C15.7881 52.136 16.2054 52.2204 16.5982 52.3758C17.293 52.3234 17.9879 52.2622 18.6827 52.2272C19.3776 52.1923 20.1991 52.0262 20.8678 52.2272C21.5364 52.4283 22.3711 51.7902 22.8387 52.8434C22.9916 52.1486 23.3107 52.1224 23.9356 52.2141C25.0587 52.3758 26.2211 52.2404 27.3705 52.2578C27.8075 52.2578 28.2052 52.3627 28.6247 52.3933C28.8046 52.3824 28.9831 52.3546 29.1578 52.3103C29.3458 52.2797 29.6473 52.1617 29.7128 52.236C30.0887 52.673 30.4732 52.402 30.8928 52.3671C31.9634 52.2797 33.0429 52.3146 34.1179 52.2884C34.7647 52.2884 35.4289 52.2404 36.0626 52.2185C36.2505 52.2185 36.434 52.1923 36.622 52.1923C37.059 52.1923 37.4523 52.1923 37.8805 52.1923H40.0656C40.6993 52.1923 41.3329 52.2185 41.9622 52.1923C42.4429 52.1923 42.9193 52.1398 43.3956 52.118C44.2696 52.0743 45.1218 52.0219 45.9827 52C46.7212 52 47.4642 52 48.2071 52.0306C48.3076 52.0306 48.5086 52.4195 48.4605 52.5026C48.242 52.8478 47.9274 53.1275 47.6958 53.464C47.4197 53.7962 47.2051 54.1751 47.0621 54.5827C46.7693 55.8326 46.5552 57.1043 46.3148 58.3672C46.2731 58.4935 46.2731 58.6299 46.3148 58.7562C46.7693 59.5428 47.2107 60.3119 47.7001 61.1772Z" fill="#FD7D73"/>
<path d="M3.45554 46.747C3.20644 46.2051 2.78692 45.6107 3.36814 44.9115C3.47302 44.7892 3.39436 44.4745 3.3157 44.2473C2.87869 43.1416 3.15837 41.9923 3.14089 40.8779C3.1103 38.9245 3.32007 36.9711 3.38562 35.0176C3.41621 34.0824 3.32881 33.1429 3.3157 32.2077C3.25011 31.1307 3.25011 30.0508 3.3157 28.9738C3.43806 27.8551 3.272 26.7494 3.34192 25.6438C3.4468 23.9613 3.56916 22.2832 3.64782 20.6007C3.64782 20.2948 3.43806 19.9801 3.44243 19.6699C3.44243 18.7959 3.51235 17.8912 3.55605 17.0041C3.58664 16.3267 3.64782 15.645 3.63471 14.972C3.63471 14.1461 3.4905 13.3245 3.47739 12.5029C3.43053 11.4648 3.46267 10.4246 3.57353 9.39141C3.66093 8.90196 4.08483 8.43873 4.41259 8.01483C5.00692 7.25881 5.62748 6.52026 6.28299 5.82979C6.71826 5.30777 7.22943 4.85405 7.79941 4.4838C8.63291 4.03025 9.51175 3.66553 10.4215 3.39565C11.5227 3.05478 12.659 2.75324 13.7864 3.39565C13.8378 3.4195 13.8937 3.43186 13.9503 3.43186C14.0069 3.43186 14.0629 3.4195 14.1142 3.39565C15.4252 2.63962 16.8062 3.56608 18.1522 3.31699C19.077 3.20548 20.0151 3.30407 20.8966 3.60541C21.0758 3.65348 21.303 3.49179 21.5084 3.42624C21.7319 3.31929 21.9736 3.25553 22.2207 3.23832C23.6838 3.35632 25.154 3.35632 26.617 3.23832C28.5852 3.11367 30.5598 3.1312 32.5254 3.29076C33.6004 3.40876 34.5881 3.14218 35.6107 3.17714C36.319 3.235 37.0236 3.33128 37.7214 3.46557C37.9694 3.2545 38.2714 3.11688 38.5934 3.06824C38.9153 3.01959 39.2445 3.06185 39.5438 3.19025C40.1512 3.40002 40.8854 3.26017 41.5627 3.23395C42.9218 3.17714 44.2722 2.95864 45.6269 3.42187C45.8598 3.48672 46.1032 3.50505 46.3431 3.4758C46.5831 3.44656 46.8149 3.37032 47.0254 3.25143C47.694 2.81442 48.0786 2.96738 48.5024 3.55297C48.7428 3.8851 49.1361 4.1036 49.4071 4.42699C50.233 5.37967 49.9227 6.53774 49.9184 7.63027C49.914 8.72279 49.8353 9.85464 49.8397 10.9646C49.8397 12.3019 50.0582 13.661 49.8834 14.972C49.8051 15.5267 49.8169 16.0905 49.9184 16.6414C49.9128 17.0406 49.8313 17.4352 49.678 17.8038C49.678 19.0056 49.7042 20.1943 49.7304 21.3786C49.7567 22.6896 49.8135 23.97 49.8353 25.268C49.8353 26.496 49.8353 27.7196 49.8353 28.9476L49.595 28.9956L50.1849 29.3671L49.9446 29.4152C49.9446 29.8522 49.9446 30.2892 49.9446 30.7262C49.9446 31.5696 49.8528 32.4174 49.8703 33.2565C49.8703 33.8071 50.2024 34.4102 50.0538 34.8865C49.713 35.9965 50.0538 37.0716 50.0232 38.1466C49.9752 39.6062 49.8878 41.0658 49.8878 42.5167C49.8878 43.7229 49.9621 44.929 50.032 46.1352C50.0626 46.712 50.1718 47.2801 50.2024 47.857C50.1747 48.0627 50.1249 48.2649 50.0538 48.46C49.9927 48.7703 49.8047 49.1942 49.9402 49.3821C50.3379 49.9502 49.9664 50.3217 49.643 50.5708C49.4202 50.7412 48.9701 50.5708 48.6292 50.632C48.3626 50.6626 47.9955 50.9204 47.8688 50.8243C46.9948 50.1294 46.0596 50.8243 45.155 50.7543C44.2504 50.6844 43.2977 50.9291 42.3668 50.9291C41.2306 50.9291 40.0944 50.7281 38.9582 50.6888C38.1716 50.6626 37.3806 50.7762 36.5896 50.8112C34.9683 50.8767 33.2902 51.2001 31.7388 50.8986C30.5851 50.6757 29.4925 50.8986 28.4175 50.8986C27.4779 50.8986 26.3767 50.3042 25.459 51.0821C25.4371 51.0821 25.4021 51.1214 25.3847 51.1127C23.9688 50.5621 22.5223 51.3399 21.1369 51.034C19.957 50.7762 18.8689 51.2132 17.7239 51.152C16.5789 51.0908 15.3203 51.2045 14.1142 51.1826C12.7201 51.152 11.3304 50.9991 9.93639 51.0078C8.71276 51.0078 7.49351 51.1651 6.26988 51.2351C5.43519 51.2831 4.59613 51.2919 3.75708 51.3312C3.13215 51.3574 2.88306 51.0253 3.03601 50.4004C3.21956 49.5263 3.47302 48.6523 3.13215 47.7783C3.02727 47.5161 3.3157 47.1315 3.45554 46.747ZM37.6253 39.108C37.7195 38.7193 37.7549 38.3186 37.7302 37.9194C37.4243 36.6433 36.3711 35.6295 36.4191 34.2179C36.4191 34.1218 36.3143 34.0256 36.2706 33.9295C35.6719 32.6534 35.012 31.4036 34.4963 30.0969C33.9544 28.7203 33.5436 27.2957 33.0935 25.8841C32.9231 25.3466 32.9449 24.6605 32.6084 24.2759C31.9179 23.4675 31.7344 22.458 31.2974 21.5578C30.8604 20.6575 30.6331 19.6262 30.2835 18.6691C29.9339 17.7121 29.5275 16.8905 29.1473 16.0034C28.6185 14.7579 28.1247 13.4949 27.5741 12.2669C27.2245 11.5153 26.6695 11.4497 26.2631 12.1752C25.6512 13.2109 24.6767 13.9713 24.515 15.361C24.3883 16.5147 23.4312 17.5722 22.8762 18.691C22.4742 19.5082 22.1289 20.356 21.7487 21.1863C21.4603 21.82 21.1588 22.4449 20.8747 23.0742C20.748 23.6467 20.8485 24.3065 20.1755 24.7567C20.1056 24.8004 20.1012 24.9402 20.075 25.0363C19.9455 25.6569 19.7717 26.2673 19.555 26.863C18.8601 28.4363 18.0691 29.9702 17.3699 31.5434C16.8149 32.7933 16.3211 34.0693 15.8229 35.341C15.3859 36.3898 15.08 37.478 14.6168 38.505C14.3677 39.0556 14.643 39.0993 15.0232 39.2479C15.2373 38.8852 15.4383 38.5618 15.6175 38.2253C15.9846 37.5304 16.3517 36.8312 16.7057 36.1233C17.0596 35.4153 17.3612 34.7729 17.6802 34.0955C18.0211 33.3483 18.3182 32.5835 18.6941 31.8537C18.9809 31.3077 19.3205 30.791 19.7079 30.311C19.8023 30.2034 19.9176 30.116 20.0468 30.0544C20.1761 29.9928 20.3165 29.9582 20.4596 29.9527C21.6745 30.0008 22.8893 30.145 24.1042 30.1843C24.7423 30.2062 25.389 30.0182 26.0271 30.0445C27.8363 30.1188 29.6455 30.2368 31.4504 30.3722C32.0681 30.4366 32.6812 30.5402 33.2858 30.6825C33.395 30.7044 33.5087 30.8573 33.5524 30.9797C33.8976 31.893 34.2341 32.8064 34.5487 33.7285C34.8328 34.5457 34.9421 35.4765 35.4228 36.167C35.7426 36.7024 35.9507 37.297 36.0346 37.915C36.1216 38.2286 36.3051 38.5068 36.559 38.7104C36.8943 38.8917 37.2532 39.0255 37.6253 39.108Z" fill="#BFEDE6"/>
<path d="M32.4611 28.5696C30.4203 28.5696 28.4668 28.6308 26.5221 28.5696C24.5119 28.4909 22.5104 28.2768 20.3516 28.1326C20.5307 27.5836 20.7543 27.0501 21.0202 26.5375C21.5533 25.7247 21.7413 24.7895 22.4536 23.9897C23.1659 23.19 23.3276 22.0101 23.7165 20.9962C24.3983 19.305 25.0276 17.6007 25.7967 15.9357C26.1357 15.3501 26.5341 14.801 26.9854 14.2969C27.5928 15.9007 28.1609 17.4696 28.7684 19.0209C29.3758 20.5723 30.2367 22.1019 30.6344 23.7232C31.0321 25.3445 31.9454 26.7254 32.4611 28.5696Z" fill="#BFEDE6"/>
<path d="M50.4234 2.85941C50.1699 3.41441 50.1699 3.41441 51.1751 4.90024C50.3578 5.54701 50.1525 6.28556 50.537 7.36497C50.7817 8.16912 50.7983 9.0254 50.5851 9.83844C50.3884 10.7125 50.5851 11.6783 50.5851 12.6003C50.62 13.4175 50.5326 14.2785 50.773 15.0301C50.9787 15.6066 50.9787 16.2366 50.773 16.8131C50.6812 17.0884 50.8298 17.4424 50.8954 18.0018C50.8954 18.3252 50.8954 18.8976 50.8954 19.4658C50.8699 19.8075 50.8246 20.1475 50.7599 20.484C50.7599 20.5364 50.6725 20.5801 50.6769 20.6195C50.773 21.7819 50.8866 22.94 50.9697 24.1155C50.985 24.4085 50.963 24.7022 50.9041 24.9896C50.7959 25.2916 50.7168 25.6033 50.6681 25.9204C50.7031 26.7944 50.8997 27.6684 50.8691 28.5424C50.8211 29.8972 51.245 31.2257 50.8473 32.6372C50.6725 33.2709 50.4715 34.3153 51.2843 34.984C51.3327 35.0489 51.3637 35.1252 51.3744 35.2055C51.3851 35.2857 51.3751 35.3674 51.3455 35.4428C50.7118 36.5135 50.9347 37.5492 51.3455 38.6286C51.446 38.8952 51.1226 39.2972 51.1008 39.6468C51.0658 40.1756 51.1314 40.7131 51.1401 41.2507C51.1663 42.3782 51.1969 43.5056 51.1925 44.6375C51.1925 45.175 51.1139 45.7082 51.0789 46.2457C51.086 46.3635 51.1035 46.4805 51.1313 46.5953C51.1619 46.8138 51.1925 47.0323 51.245 47.3863L51.7563 47.4693C51.5815 47.6266 51.3848 47.7184 51.3717 47.832C51.293 48.4919 51.0134 49.2742 51.2625 49.7898C51.8262 50.9566 50.7249 51.1751 50.3141 51.3631C49.5527 51.7232 48.8789 52.2447 48.3393 52.8915C47.7997 53.5382 47.4074 54.2946 47.1895 55.1082C47.1256 56.1094 47.1534 57.1144 47.2726 58.1105C47.2726 58.3421 47.644 58.5475 47.7402 58.7835C48.2689 60.1557 49.3658 60.8462 50.6506 61.3706C50.7714 61.4393 50.874 61.5358 50.95 61.652C51.026 61.7683 51.0732 61.901 51.0876 62.0392C51.1139 62.6292 50.3141 63.5207 49.6848 63.6168C49.0556 63.7129 48.47 63.6824 47.8625 63.7392C47.4298 63.8267 46.9919 63.8865 46.5515 63.9183C46.1466 63.8499 45.7455 63.7609 45.3497 63.6518C45.0223 63.6299 44.6938 63.6299 44.3664 63.6518C42.6577 63.6518 40.9534 63.6518 39.1529 63.6518L39 63.9926C38.563 63.5818 38.1784 63.3284 37.6015 63.7042C37.3961 63.8353 37.0203 63.7042 36.7275 63.7042C35.8535 63.6299 34.9795 63.4901 34.1055 63.4857C33.1222 63.4857 32.1346 63.6299 31.1469 63.6474C29.8796 63.6736 28.6079 63.5862 27.3449 63.6474C25.9421 63.6998 24.5437 63.9096 23.1453 63.9402C22.0353 63.962 20.9253 63.796 19.8196 63.7435C18.0296 63.6336 16.2333 63.6877 14.4532 63.9052C13.4802 63.972 12.5032 63.9515 11.5339 63.844C10.4589 63.796 9.38386 63.7435 8.31755 63.6299C7.76302 63.5945 7.22163 63.4458 6.72684 63.1929C5.59507 62.5907 4.52763 61.8746 3.54104 61.0559C2.58881 60.1356 1.72554 59.1275 0.962689 58.0449C0.694281 57.5996 0.513327 57.1072 0.429537 56.5941C-0.0894471 54.6673 -0.1389 52.6442 0.285324 50.6944C0.451388 49.9253 0.245994 49.0731 0.215403 48.2603C0.215403 47.95 0.215403 47.6397 0.215403 47.194C1.0195 46.8269 0.385836 45.9835 0.455758 45.328C0.519171 44.2743 0.519171 43.2177 0.455758 42.164C0.455758 40.7044 0.372726 39.2448 0.412057 37.7939C0.433908 36.9199 0.661152 36.0066 0.704853 35.1107C0.752924 34.1449 0.704853 33.1747 0.678633 32.2089C0.678633 31.5622 0.678633 30.8979 0.713593 30.273C0.713593 29.0144 0.744184 27.7558 0.770405 26.4972C0.770405 25.6232 0.835956 24.7842 0.844696 23.9276C0.844696 22.9706 0.796625 22.0135 0.809735 21.0608C0.831586 19.3128 0.884027 17.5648 0.927728 15.8473C0.933625 15.5912 0.965842 15.3364 1.02387 15.0869C1.11155 14.7549 1.11759 14.4067 1.0415 14.0718C0.965398 13.737 0.809415 13.4256 0.586861 13.1641C0.219773 12.644 0.320285 11.7045 0.412057 10.979C0.576424 10.052 0.801235 9.13669 1.08505 8.23899C1.16497 7.74778 1.31202 7.26988 1.52206 6.81871C2.03336 5.94469 2.64954 5.16245 3.20892 4.33213C3.3366 4.12194 3.44905 3.90288 3.54541 3.67661C3.60222 3.55862 3.60222 3.37508 3.694 3.31827C4.19219 3.00799 4.72534 2.75015 5.22353 2.44425C5.98393 1.95917 6.68314 1.44787 7.42169 0.984636C7.67978 0.84809 7.95245 0.741075 8.23452 0.66562C8.50547 0.578218 8.89004 0.595698 9.03862 0.412154C9.18016 0.253891 9.36098 0.135796 9.56279 0.0698051C9.7646 0.00381405 9.98025 -0.00773456 10.188 0.0363264C11.3941 0.132468 12.6658 0.0712871 13.7802 0.412154C14.1756 0.557866 14.5965 0.621393 15.0173 0.598851C15.4381 0.576309 15.8499 0.468171 16.2274 0.281052C16.2529 0.272394 16.2806 0.272394 16.3061 0.281052C17.7963 0.836053 19.3127 0.062547 20.8335 0.403414C21.788 0.625212 22.7789 0.640113 23.7396 0.447115C24.5612 0.287474 25.3991 0.228771 26.2349 0.272311C26.7537 0.338758 27.2764 0.370875 27.7994 0.368453C29.1105 0.22424 30.3996 0.70058 31.7325 0.259201C32.3531 0.0450666 33.1266 0.307272 33.8302 0.289792C34.5337 0.272311 35.3466 0.582588 36.0152 0.0275862C36.1157 -0.0510755 36.3823 0.0581769 36.5658 0.110618C38.4493 0.630659 40.3416 0.329123 42.247 0.22424C43.4135 0.173382 44.5822 0.211366 45.743 0.337863C47.1152 0.473336 48.47 0.774872 49.51 1.77125C49.8344 2.11682 50.1393 2.4801 50.4234 2.85941ZM2.53155 45.4503C2.39171 45.8349 2.09454 46.2195 2.19505 46.4642C2.53155 47.3775 2.28246 48.2341 2.09891 49.0862C1.96344 49.7112 2.19505 50.0433 2.81998 50.0171C3.65904 49.9777 4.49809 49.969 5.33278 49.9209C6.55641 49.851 7.77566 49.6981 8.99929 49.6937C10.3933 49.6937 11.783 49.8379 13.1771 49.8685C14.3832 49.8685 15.5894 49.7811 16.7868 49.8379C17.9842 49.8947 19.0199 49.4621 20.1998 49.7199C21.5852 50.0258 23.0317 49.2479 24.4476 49.7986C24.4476 49.7986 24.5 49.7986 24.5219 49.768C25.4396 48.9901 26.5408 49.5801 27.4804 49.5844C28.5555 49.5844 29.6655 49.3572 30.8017 49.5844C32.3531 49.886 34.0312 49.5844 35.6525 49.497C36.4435 49.4621 37.2345 49.3485 38.0211 49.3747C39.1573 49.414 40.2935 49.6107 41.4297 49.615C42.3606 49.615 43.3351 49.3572 44.2179 49.4402C45.1006 49.5233 46.0446 48.8153 46.9317 49.5101C47.0584 49.6063 47.4255 49.3484 47.6921 49.3179C48.033 49.2742 48.4831 49.4271 48.7059 49.2567C49.0293 49.0076 49.4008 48.6361 49.0031 48.068C48.8676 47.8801 49.0556 47.4562 49.1167 47.1459C49.1878 46.9508 49.2376 46.7486 49.2653 46.5429C49.2347 45.966 49.1255 45.3979 49.0949 44.821C49.025 43.6149 48.9463 42.4087 48.9507 41.2026C48.9507 39.743 49.0381 38.2834 49.0861 36.8325C49.1211 35.7487 48.7759 34.6824 49.1167 33.5724C49.2653 33.0961 48.9463 32.493 48.9332 31.9424C48.9332 31.1033 48.9856 30.2555 49.0075 29.4121C49.0075 28.9751 49.0075 28.5381 49.0075 28.1011L49.2478 28.053L48.6579 27.6815L48.8982 27.6335C48.8982 26.4055 48.8982 25.1818 48.8982 23.9538C48.8982 22.6428 48.8196 21.3624 48.7934 20.0645C48.7671 18.8802 48.754 17.6915 48.7409 16.4897C48.8942 16.121 48.9757 15.7265 48.9813 15.3273C48.8798 14.7763 48.868 14.2126 48.9463 13.6579C49.1211 12.3469 48.907 10.9878 48.9026 9.65053C48.9026 8.54053 48.9813 7.42615 48.9813 6.31615C48.9813 5.20615 49.2959 4.06555 48.47 3.11287C48.199 2.79822 47.8057 2.57972 47.5654 2.23885C47.1283 1.65326 46.7569 1.51779 46.0883 1.93732C45.8778 2.0562 45.646 2.13244 45.406 2.16169C45.1661 2.19093 44.9227 2.1726 44.6898 2.10775C43.3351 1.64452 41.9847 1.86303 40.6256 1.91984C39.9483 1.94606 39.2141 2.0859 38.6067 1.87614C38.3074 1.74774 37.9782 1.70548 37.6563 1.75412C37.3343 1.80276 37.0323 1.94038 36.7843 2.15145C36.0865 2.01717 35.3819 1.92088 34.6736 1.86303C33.651 1.82806 32.6633 2.09464 31.5883 1.97665C29.6227 1.81708 27.6481 1.79955 25.6799 1.92421C24.2169 2.0422 22.7467 2.0422 21.2836 1.92421C21.0365 1.94141 20.7948 2.00517 20.5713 2.11212C20.3659 2.17767 20.1343 2.33937 19.9595 2.29129C19.078 1.98995 18.1399 1.89136 17.2151 2.00287C15.8691 2.25196 14.5056 1.3255 13.1771 2.08153C13.1258 2.10538 13.0698 2.11774 13.0132 2.11774C12.9566 2.11774 12.9007 2.10538 12.8493 2.08153C11.7219 1.45224 10.5856 1.75377 9.48437 2.08153C8.57465 2.35142 7.69581 2.71614 6.86231 3.16968C6.29233 3.53993 5.78116 3.99365 5.34589 4.51567C4.69038 5.21926 4.06982 5.9578 3.47549 6.70072C3.14773 7.13773 2.72384 7.57474 2.65391 8.0773C2.54305 9.11053 2.51091 10.1507 2.55777 11.1888C2.55777 12.0104 2.69325 12.832 2.7151 13.6579C2.7151 14.3309 2.66702 15.0126 2.63643 15.69C2.61458 16.6077 2.54029 17.4817 2.53592 18.3558C2.53592 18.666 2.75443 18.9807 2.74132 19.2866C2.66265 20.9691 2.54029 22.6472 2.43541 24.3297C2.36549 25.4353 2.53155 26.5409 2.40919 27.6597C2.34361 28.7366 2.34361 29.8166 2.40919 30.8936C2.40919 31.8288 2.5097 32.7683 2.47911 33.7035C2.39608 35.6744 2.17757 37.6279 2.21691 39.5813C2.21691 40.6957 1.96344 41.845 2.39171 42.9506C2.47037 43.156 2.54903 43.4925 2.44415 43.6149C1.86293 44.3141 2.28246 44.9084 2.53155 45.4503ZM46.4029 60.4529C45.9135 59.5788 45.4721 58.8184 45.0482 58.0362C45.0065 57.9099 45.0065 57.7736 45.0482 57.6473C45.2885 56.3843 45.4852 55.1126 45.7955 53.8628C45.9385 53.4551 46.1531 53.0763 46.4291 52.744C46.6607 52.4075 46.9754 52.1278 47.1939 51.7826C47.242 51.6996 47.0409 51.3194 46.9404 51.3106C46.1975 51.2669 45.4546 51.2626 44.7161 51.28C43.842 51.28 42.9899 51.3543 42.129 51.398C41.6526 51.398 41.1763 51.4679 40.6956 51.4723C40.0663 51.4723 39.4326 51.4723 38.799 51.4723H36.6139C36.1769 51.4723 35.7705 51.4723 35.3553 51.4723C35.1674 51.4723 34.9839 51.4723 34.7959 51.4985C34.1492 51.4985 33.4849 51.551 32.8513 51.5685C31.7762 51.5947 30.6968 51.5685 29.6261 51.6471C29.1891 51.6821 28.822 51.9661 28.4462 51.516C28.3806 51.4417 28.0791 51.5597 27.8912 51.5903C27.7165 51.6347 27.538 51.6625 27.358 51.6733C26.921 51.6427 26.5234 51.5422 26.1038 51.5379C24.9545 51.5379 23.7921 51.6559 22.6689 51.4942C22.044 51.4024 21.725 51.4286 21.572 52.1235C21.1044 51.0484 20.2348 51.6865 19.6011 51.5073C18.9675 51.3281 18.1372 51.5073 17.4161 51.5073C16.695 51.5073 16.0264 51.6034 15.3316 51.6559C14.9388 51.5004 14.5215 51.4161 14.0992 51.4068C12.3861 51.433 10.6643 51.5816 8.95559 51.516C7.83247 51.4767 6.72684 51.752 5.57751 51.4942C4.62193 51.352 3.65125 51.3432 2.69325 51.4679C2.53913 51.4911 2.39324 51.5524 2.26884 51.6463C2.14443 51.7401 2.04546 51.8636 1.98092 52.0055C1.77533 52.822 1.68704 53.6637 1.71871 54.5052C1.8469 55.8585 2.46922 57.1171 3.46675 58.0406C3.97805 58.5256 4.45439 59.0501 4.97443 59.5264C5.61684 60.1033 6.04511 60.951 7.02838 61.1084C7.66204 61.2089 8.27385 61.4492 8.90752 61.5192C10.002 61.6565 11.1039 61.7265 12.2069 61.7289C12.7357 61.7289 13.1946 61.2657 13.8195 61.4143C14.5155 61.5783 15.2283 61.6604 15.9434 61.659C17.6259 61.659 19.3127 61.5672 20.9996 61.5366C21.5458 61.5366 22.0965 61.6066 22.6471 61.6066C23.5998 61.6066 24.5568 61.5541 25.5051 61.576C25.9989 61.576 26.5146 61.9693 26.9298 61.3924C26.9298 61.3924 27.0653 61.4361 27.1352 61.4449C27.4957 61.5104 27.8613 61.544 28.2277 61.5454C29.5387 61.4667 30.8497 61.3575 32.1214 61.2482C33.1397 61.1608 34.1492 61.0516 35.1805 60.9642C35.3138 60.9741 35.4427 61.0161 35.5563 61.0865C35.9338 61.2179 36.3425 61.2301 36.7271 61.1215C37.1117 61.0128 37.4536 60.7885 37.7064 60.4791C38.1487 60.7811 38.6509 60.9843 39.1788 61.0748C39.7067 61.1653 40.2479 61.141 40.7655 61.0035C40.9621 60.9467 41.2025 60.6976 41.3118 60.75C42.8413 61.4361 44.314 60.2824 45.8261 60.6408C45.9703 60.6626 46.1713 60.5228 46.4029 60.4529Z" fill="#064149"/>
<path d="M36.701 37.812C36.3252 37.7261 35.9633 37.5878 35.626 37.4012C35.3721 37.1977 35.1886 36.9194 35.1016 36.6059C35.0177 35.9879 34.8096 35.3932 34.4898 34.8578C34.0265 34.163 33.9173 33.2365 33.6158 32.4193C33.3011 31.4972 32.9646 30.5839 32.6194 29.6705C32.5757 29.5482 32.462 29.3952 32.3528 29.3734C31.7482 29.2311 31.1351 29.1275 30.5174 29.0631C28.7125 28.9276 26.9033 28.8096 25.0941 28.7353C24.456 28.7091 23.8093 28.897 23.1712 28.8752C21.9563 28.8359 20.7415 28.6916 19.5266 28.6436C19.3835 28.6491 19.2431 28.6837 19.1138 28.7453C18.9846 28.8069 18.8693 28.8942 18.7749 29.0019C18.389 29.4821 18.0509 29.9987 17.7654 30.5446C17.3896 31.2744 17.0924 32.0391 16.7516 32.7864C16.4311 33.4652 16.1062 34.1412 15.777 34.8141C15.4231 35.5221 15.056 36.2213 14.6889 36.9162C14.5097 37.2527 14.3087 37.576 14.0946 37.9388C13.7144 37.7902 13.439 37.7465 13.6881 37.1958C14.1514 36.1689 14.4791 35.0807 14.8943 34.0319C15.3925 32.7602 15.8863 31.4841 16.4413 30.2343C17.1405 28.6611 17.9315 27.1272 18.6263 25.5539C18.843 24.9582 19.0168 24.3477 19.1464 23.7272C19.1726 23.6311 19.177 23.4912 19.2469 23.4475C19.9199 23.0105 19.8194 22.3375 19.9461 21.765C20.2433 21.1358 20.5448 20.5108 20.8201 19.8772C21.2003 19.0469 21.5456 18.1991 21.9476 17.3818C22.5026 16.2631 23.4597 15.1968 23.5864 14.0518C23.7393 12.6403 24.7139 11.9017 25.2995 10.866C25.7365 10.1406 26.2696 10.2062 26.6105 10.9578C27.1786 12.1858 27.6724 13.4488 28.2012 14.6942C28.5814 15.5683 28.9922 16.4423 29.3374 17.36C29.6827 18.2777 29.923 19.3353 30.36 20.2486C30.797 21.162 30.9718 22.1584 31.6711 22.9668C32.0076 23.3514 31.9857 24.0375 32.1561 24.575C32.5932 25.9866 33.0302 27.4112 33.5589 28.7878C34.0746 30.0988 34.7345 31.3443 35.3332 32.6204C35.3769 32.7165 35.4862 32.8126 35.4818 32.9088C35.4162 34.3203 36.4694 35.3342 36.7928 36.6103C36.8231 37.0132 36.7922 37.4184 36.701 37.812ZM31.5356 27.2714C31.0199 25.4272 30.0847 24.0375 29.7089 22.4249C29.3331 20.8124 28.4809 19.2916 27.8691 17.7227C27.2573 16.1538 26.6935 14.6025 26.0861 12.9986C25.6363 13.503 25.2395 14.0521 24.9018 14.6374C24.1545 16.3024 23.5034 18.0068 22.8216 19.698C22.4152 20.7119 22.2448 21.9355 21.5587 22.6915C20.8726 23.4475 20.6584 24.4395 20.1253 25.2393C19.8569 25.7388 19.6289 26.2591 19.4435 26.795C21.6024 26.9611 23.6039 27.1752 25.6141 27.232C27.5238 27.3325 29.4948 27.2714 31.5356 27.2714Z" fill="#064149"/>
</svg>
