<svg width="131" height="140" viewBox="0 0 131 140" fill="none" xmlns="http://www.w3.org/2000/svg">
<path d="M51.6158 195.692C51.6158 194.71 51.6726 193.723 51.6158 192.741C51.5549 191.929 51.3437 191.153 51.2098 190.357C51.1568 190.182 51.1498 189.996 51.1895 189.817C51.8878 188.047 51.2747 186.192 51.5427 184.446C51.7782 182.911 51.36 181.604 51.2098 180.167C51.161 179.716 51.5589 179.225 51.5427 178.762C51.5021 177.723 51.291 176.695 51.2341 175.66C51.2547 175.069 51.3253 174.481 51.4452 173.902L51.0392 173.663C51.632 173.05 51.8878 172.522 51.4777 171.633C51.226 171.08 51.3194 170.179 51.4534 169.383C51.5873 168.588 52.0055 167.65 51.4534 166.683C51.1773 166.196 51.5143 165.372 51.5508 164.698C51.5995 163.756 51.6401 162.81 51.6564 161.856C51.6564 160.764 51.6564 159.676 51.6564 158.588L51.9487 158.567L51.3234 157.82H51.6361C51.7051 156.801 51.8512 155.79 51.8188 154.759C51.8188 153.996 51.5021 153.293 51.6564 152.449C51.8553 151.349 51.6564 150.171 51.6279 149.026C51.5955 147.963 51.4818 146.891 51.5508 145.831C51.5914 145.267 52.0461 144.844 51.904 144.11C51.7303 142.855 51.6868 141.585 51.7741 140.322C51.8066 138.633 51.9162 136.948 51.9568 135.259C51.9104 134.96 51.8187 134.669 51.6848 134.398C51.6564 134.313 51.5955 134.167 51.6239 134.142C52.578 133.42 51.9933 132.352 52.1923 131.467C52.2909 130.753 52.2621 130.027 52.107 129.323C51.9121 127.979 52.4075 126.668 52.3263 125.385C52.2711 124.213 52.3474 123.039 52.5536 121.885C52.6876 121.012 52.3547 120.082 52.3587 119.181C52.3587 118.089 52.5333 117.005 52.5983 115.933C52.6429 115.21 52.8094 114.439 52.6226 113.769C52.2166 112.372 52.7566 111.085 52.8622 109.754C52.8906 109.38 53.0205 108.852 52.8297 108.653C51.8594 107.634 52.6835 106.623 52.7282 105.612C52.7211 105.196 52.6858 104.781 52.6226 104.37C52.5915 104.251 52.5819 104.127 52.5942 104.005C53.1545 102.011 52.8135 99.9893 52.915 97.9917C52.9515 97.2284 52.3506 96.1322 53.3535 95.3771L52.8541 94.9386V91.1384C53.4874 90.371 53.6214 89.2383 53.1505 87.8904C52.919 87.2164 53.1504 86.376 53.187 85.6127C53.3007 83.2538 53.6783 80.8665 53.4428 78.5442C53.3517 77.2821 53.4892 76.014 53.8488 74.8008C53.9584 74.3502 53.4996 73.7899 53.5118 73.2864C53.5443 71.6299 53.7026 69.9775 53.7595 68.321C53.7595 67.7201 53.5402 67.103 53.5849 66.5103C53.6742 65.211 53.93 63.92 53.9909 62.6207C53.9796 62.0213 53.902 61.4249 53.7595 60.8424C53.9343 60.0525 54.0483 59.2503 54.1005 58.443C54.1005 57.6066 53.6336 57.1275 52.6876 56.957C51.2747 56.6972 49.9065 56.1978 48.518 55.808C48.351 55.7342 48.1659 55.7116 47.9861 55.743C46.5773 56.3277 45.3877 55.471 44.1169 55.1787C43.9748 55.1422 43.8286 55.0001 43.7109 55.0244C42.0869 55.3086 40.6253 54.6387 39.1271 54.1678C38.8591 54.0866 38.4937 54.3099 38.3679 54.3464L35.9765 53.307C35.9765 53.3679 35.9765 53.4288 35.9765 53.4938C35.6192 53.4694 35.128 53.5872 34.929 53.3964C34.0886 52.5843 33.0655 52.4991 32.0017 52.3935C31.0639 52.2961 30.1382 52.0971 29.2084 51.9185C28.1934 51.7236 27.1784 51.5531 26.1715 51.2851C24.6125 50.8588 23.094 50.3026 21.5309 49.9128C19.5496 49.4175 17.5602 48.8207 15.5424 48.6948C14.2188 48.6055 13.1876 47.7001 11.8599 47.8098C11.393 47.8463 10.8977 47.5662 10.4389 47.6189C8.40891 47.8544 6.59002 46.608 4.6412 46.6648C3.60995 46.6932 2.67615 46.1533 1.6246 46.4496C0.983114 46.6323 -0.0278337 45.2641 0.000586488 44.4196C0.106147 42.4668 0.195468 40.5139 0.305089 38.561C0.42283 36.4741 0.991234 34.6471 2.95223 33.486C3.52875 33.1409 3.9307 32.5034 4.4179 32.0081C4.57218 31.8538 4.7427 31.7158 4.90916 31.5737C5.35403 31.1242 5.83921 30.7165 6.35859 30.3557C7.70246 29.5477 8.84333 28.3663 10.7191 28.825C12.5948 29.2838 14.6492 29.3732 16.6021 29.7223C18.7417 30.1283 20.8407 30.8104 22.9885 30.9972C24.7911 31.1514 26.4192 31.9553 28.2665 31.9513C29.7687 31.9513 31.2669 32.6983 32.7853 33.0515C33.3529 33.166 33.9336 33.2016 34.5108 33.1571C35.2907 33.1086 36.065 33.3168 36.7154 33.7499C37.2432 34.0868 38.0471 33.9813 38.7455 34.0868C39.4438 34.1924 40.0934 34.4929 40.7065 34.3792C41.8717 34.168 42.6756 34.9882 43.6784 35.1668C44.803 35.3658 45.9317 35.5728 47.0645 35.7027C47.9455 35.8164 48.859 35.7433 49.7157 35.9423C51.2341 36.2914 52.7201 36.7868 54.474 37.2983C54.474 36.665 54.271 35.9707 54.5187 35.5444C54.9815 34.7324 54.1127 33.8757 54.8191 33.153C54.9166 33.0515 54.7663 32.7024 54.7176 32.475C54.6933 32.3776 54.5674 32.2639 54.5918 32.203C55.0465 31.1555 54.8151 30.104 54.7663 29.0159C54.6973 27.3147 55.0424 25.6014 54.6445 23.8962C54.5901 23.6519 54.6056 23.3972 54.6892 23.1613C54.8922 22.6213 55.4322 22.1057 54.6527 21.5738C54.5796 21.5251 54.6527 21.2166 54.6933 21.0582C55.1518 19.9449 55.2401 18.7136 54.945 17.5463C54.6851 16.5475 55.2901 15.7112 55.3023 14.7652C55.3023 13.7055 55.5337 12.6377 54.9896 11.8013C56.1508 9.25164 54.4212 6.706 55.5865 3.89646C56.975 3.22656 58.8994 2.32117 60.8036 1.36706C61.5791 0.961059 62.2733 0.433255 63.0569 0.0678527C63.2347 0.0078309 63.4234 -0.0127287 63.6099 0.00760531C63.7964 0.0279393 63.9762 0.0886782 64.1369 0.185594C64.9124 0.729638 66.1344 0.636257 66.4714 1.80961C67.2428 1.6066 67.7869 2.04915 68.4162 2.39425C69.6504 3.06377 70.9189 3.66819 72.2163 4.20502C72.663 4.39179 73.2273 4.29434 73.7186 4.40397C74.356 4.54607 75.0827 4.62321 75.5618 4.99673C75.7511 5.19582 75.8979 5.43126 75.9936 5.68877C76.0892 5.94628 76.1315 6.22052 76.118 6.49488C76.118 6.93336 75.712 7.37185 75.5009 7.82251L76.5362 8.13107L75.3182 8.50866C75.6284 9.18613 75.8732 9.89173 76.049 10.6158C76.1343 11.1599 75.8501 11.7526 75.7973 12.3291C75.6836 13.604 75.6268 14.887 75.5253 16.1659C75.436 17.3189 75.3913 18.5004 75.3263 19.621C75.2127 21.5414 74.7742 23.4739 74.9609 25.3862C75.1802 27.6152 74.9244 29.7913 74.8107 31.9959C74.7376 33.356 74.4656 34.838 74.8107 36.1047C75.0705 37.075 74.1814 38.0657 75.0787 38.9467C75.2451 39.1132 74.7052 39.8521 74.7823 40.2743C74.8256 40.5108 74.921 40.7348 75.0614 40.93C75.2018 41.1252 75.3838 41.2867 75.5943 41.403C76.8732 41.809 78.213 41.9795 79.5163 42.2922C80.9251 42.6251 82.3177 43.0352 83.7306 43.364C84.3761 43.5142 85.0501 43.5305 85.7038 43.636C87.2912 43.8959 88.8909 44.107 90.4581 44.448C92.4231 44.8744 94.3598 45.4143 96.3086 45.9015C98.1072 46.3481 99.9017 46.8353 101.712 47.217C103.032 47.4971 104.388 47.623 105.716 47.8341C106.471 47.9681 107.202 48.2401 107.957 48.366C109.224 48.5527 110.506 48.6258 111.773 48.8045C112.179 48.8613 112.585 49.2917 112.959 49.2348C114.27 49.0318 115.318 49.8885 116.54 49.9859C117.193 50.0346 117.859 49.9859 118.505 50.1037C119.215 50.2174 119.91 50.4407 120.608 50.6193C121.395 50.8223 122.179 51.0578 122.975 51.2161C123.598 51.3751 124.24 51.4448 124.883 51.4232C125.89 51.3298 126.71 52.02 127.689 51.9672C127.831 51.9672 128.026 52.1256 128.119 52.0728C129.41 51.3907 129.816 52.5072 130.149 53.2421C130.319 53.6034 129.84 54.2896 129.613 54.8052C129.552 54.9392 129.207 54.9919 129.207 55.0934C129.138 56.1166 129.065 57.1235 129.097 58.1669C129.122 59.0236 129.333 59.8721 129.361 60.7288C129.39 61.6504 129.195 62.5801 129.276 63.4896C129.386 64.6832 129.105 65.2841 128.058 65.7429C127.698 65.9611 127.368 66.2244 127.075 66.5265C126.142 67.2735 125.196 68.0084 124.286 68.7798C124.1 68.9927 123.947 69.2322 123.832 69.4903C122.987 70.0465 122.094 70.6474 121.176 71.2118C120.914 71.4188 120.589 71.5304 120.255 71.5284C118.826 71.2158 117.413 70.8058 115.992 70.4607C115.484 70.3348 114.96 70.2861 114.323 70.1846L114.112 70.5459C113.985 70.4692 113.865 70.3808 113.755 70.282C113.458 69.9532 113.206 69.47 112.719 70.0912C112.67 70.1602 112.427 70.1521 112.313 70.0912C110.933 69.3117 110.933 69.3279 109.353 69.2792C109.178 69.2784 109.005 69.2419 108.845 69.1721C108.684 69.1023 108.54 69.0006 108.42 68.8732C107.75 67.8825 106.718 68.6012 105.915 68.2682C104.473 67.6755 102.74 68.1505 101.408 67.0502C101.164 66.8513 100.637 67.0502 100.263 66.9406C99.313 66.7173 98.3792 66.2585 97.421 66.2382C96.3828 66.2691 95.3477 66.1081 94.3679 65.7632C94.2664 65.7226 94.039 65.9865 93.9294 66.0636C93.661 65.8919 93.3752 65.749 93.0768 65.6373C91.3432 65.1583 89.6014 64.7035 87.8596 64.2569C87.3724 64.1311 86.8406 63.8875 86.3818 63.9768C85.2328 64.196 84.2503 63.8387 83.2515 63.3921C82.2093 62.8737 81.0308 62.6948 79.8817 62.8806C79.362 62.974 78.6637 62.3162 78.1927 62.4746C77.0275 62.8319 76.3901 61.5164 75.3263 61.76C75.2127 61.7884 75.0503 61.5814 74.9203 61.488C74.4088 61.1551 74.0312 61.2525 73.9703 61.894C73.8404 63.2257 73.2963 64.5899 74.2383 65.8647C74.2834 65.9725 74.3021 66.0895 74.2929 66.206C74.2837 66.3225 74.2469 66.4352 74.1855 66.5346C73.41 67.6674 73.4384 69.0112 73.6942 70.1886C73.9297 71.2605 73.6252 72.1943 73.6292 73.189C73.6292 74.0538 73.7916 74.9592 73.5968 75.7793C73.276 77.1069 74.2179 78.3777 73.5968 79.7135C73.3978 80.1438 73.5968 80.7731 73.6455 81.3903C73.6983 81.3903 73.5683 81.3903 73.6455 81.3903C73.548 81.8734 73.4709 82.2266 73.4019 82.5839C73.3653 82.7829 73.341 82.9899 73.3126 83.1889C73.2365 83.4962 73.1916 83.8104 73.1786 84.1267C73.219 84.3964 73.2898 84.6606 73.3897 84.9144C73.3613 85.3204 73.3369 85.6777 73.3085 86.0431C73.2393 86.4452 73.2108 86.8532 73.2232 87.2611C73.3816 88.3776 73.0202 89.5347 73.479 90.6268C73.5034 90.6837 73.3694 90.7933 73.341 90.8907C73.1096 91.7027 72.8375 92.4782 73.073 93.4323C73.3085 94.3864 73.0446 95.4055 73.0121 96.4002C72.9796 97.3949 72.9796 98.4627 72.9269 99.4899C72.8984 100.095 72.7401 100.708 72.7523 101.301C72.8116 101.704 72.925 102.097 73.0893 102.47C73.1258 102.584 73.2395 102.697 73.2273 102.795C73.1258 103.461 73.1339 104.183 72.8619 104.768C72.33 105.901 72.8051 106.989 72.7969 108.093C72.7969 108.597 72.6711 109.092 72.667 109.591C72.667 111.081 72.732 112.575 72.667 114.057C72.6224 115.304 72.3991 116.542 72.3503 117.784C72.3178 118.674 72.5696 119.591 72.4478 120.456C72.3686 121.236 72.4125 122.024 72.5777 122.79C72.7239 123.692 72.1473 124.682 72.058 125.632C71.9403 126.968 71.9687 128.32 71.9849 129.664C71.9849 129.802 72.3097 129.94 72.4843 130.07C71.8469 130.882 71.7576 132.664 72.3869 133.554C71.4693 134.094 71.9809 134.682 72.1067 135.251L71.851 141.816L71.8916 141.84C71.8266 142.246 71.6114 142.701 71.7251 143.058C71.9971 143.911 71.1364 144.824 71.924 145.628C71.9827 145.715 72.0193 145.814 72.0306 145.918C72.042 146.022 72.0277 146.128 71.989 146.225C71.181 147.378 71.4449 148.596 71.851 149.814C71.8977 149.945 71.8977 150.089 71.851 150.22C71.2907 151.215 71.3759 152.25 71.5992 153.302C71.6642 153.63 71.4734 154.008 71.4409 154.365C71.2907 156.079 71.1526 157.792 71.0105 159.505C71.0105 159.578 70.9537 159.688 70.9862 159.72C72.1717 160.845 70.8968 162.006 71.0471 163.139C71.1768 163.792 71.269 164.452 71.3231 165.116C71.3231 165.494 70.9618 165.867 70.9171 166.253C70.8238 167.946 70.7913 169.643 70.7385 171.34C70.7385 171.519 70.8238 171.746 70.7385 171.868C69.8778 172.989 70.8847 173.939 70.7385 174.913C70.6167 175.64 70.2594 176.432 70.434 177.081C70.6248 177.808 70.84 178.36 70.3975 179.071C70.2066 179.379 70.3122 179.883 70.3122 180.289C70.3122 182.014 70.5274 183.768 70.2716 185.453C70.0231 186.666 70.001 187.914 70.2066 189.135C70.2119 189.17 70.2099 189.206 70.2008 189.24C70.1917 189.274 70.1757 189.306 70.1539 189.334C69.4068 190.02 70.0239 190.849 69.9143 191.596C69.7969 192.1 69.7128 192.611 69.6626 193.126C69.6342 194.978 69.687 196.833 69.6382 198.689C69.6382 199.066 69.3215 199.436 69.0698 200C68.2578 198.274 68.3918 196.683 68.5136 195.087C68.5664 194.381 68.607 193.674 68.611 192.964C68.611 191.121 68.5583 189.277 68.611 187.434C68.672 185.315 68.879 183.2 68.9318 181.076C68.9602 179.952 68.7247 178.823 68.7207 177.694C68.7166 176.566 68.8749 175.494 68.9237 174.389C68.9602 173.614 68.9237 172.838 68.9237 172.059C68.9237 171.068 68.8993 170.074 68.879 169.083C68.879 168.234 68.7978 167.39 68.8222 166.541C68.8628 165.234 69.082 163.923 68.9967 162.623C68.9305 161.111 69.0781 159.596 69.4352 158.125C69.5327 157.678 69.0536 157.138 69.0292 156.635C69.0811 156.013 69.1747 155.396 69.3094 154.788C69.3884 154.159 69.4209 153.525 69.4068 152.891C69.3743 152.079 69.1998 151.267 69.1876 150.455C69.1754 149.643 69.3256 148.831 69.3256 148.04C69.3256 146.416 69.2038 144.759 69.2607 143.119C69.2972 141.933 69.7763 140.728 69.6301 139.583C69.4515 138.223 70.0808 136.846 69.3987 135.494C69.2119 135.117 69.557 134.487 69.5976 133.968C69.5879 133.61 69.5431 133.253 69.4637 132.904C69.6927 132.603 69.8509 132.255 69.9265 131.885C69.9509 130.817 69.8169 129.749 69.7682 128.677C69.7857 128.396 69.8251 128.116 69.8859 127.841C69.9509 127.216 70.2188 126.513 70.028 125.978C69.6788 125.019 70.2838 124.195 70.1498 123.306C70.0605 122.717 69.9346 122.133 69.8494 121.662C69.9427 121.085 70.2554 120.395 70.0605 120.062C69.4109 119.055 70.0605 118.199 70.1742 117.305C70.3041 116.319 70.8847 115.356 70.0239 114.423C69.9902 114.36 69.9725 114.291 69.9725 114.22C69.9725 114.149 69.9902 114.079 70.0239 114.017C70.7426 113.184 70.5274 112.271 70.3447 111.321C70.2635 110.895 70.4705 110.415 70.4746 109.961C70.4818 109.514 70.3786 109.071 70.1742 108.674C70.3163 108.268 70.4543 107.862 70.5802 107.484L70.1742 107.46C71.3922 106.067 69.6545 104.281 70.702 102.738C70.702 102.738 70.4259 102.498 70.434 102.486C71.1526 101.589 70.5761 100.554 70.7344 99.6036C70.775 99.3721 70.6492 99.1123 70.6735 98.8728C70.7507 97.9674 70.909 97.066 70.9415 96.1607C70.9902 94.7884 70.9983 93.408 70.9415 92.0357C70.909 90.9029 70.499 89.7864 71.1973 88.6618C71.4571 88.2558 71.2663 87.5453 71.2582 86.9769C71.2582 85.8685 71.2135 84.7642 71.2054 83.6558C71.2054 82.3931 71.1648 81.1304 71.2054 79.8718C71.2298 79.0598 71.4125 78.2762 71.4368 77.4723C71.4693 76.5507 71.3962 75.621 71.3962 74.6953C71.3962 73.4773 71.3962 72.2593 71.449 71.0412C71.4896 70.1521 71.7738 69.2508 71.6886 68.3819C71.5708 67.2207 71.4896 66.1205 72.0255 65.0283C72.1514 64.7726 72.0255 64.395 72.0052 64.0742C71.8834 62.1823 71.6561 60.2903 71.6561 58.3902C71.6561 56.8068 71.9768 55.2234 72.0296 53.6399C72.058 52.8279 71.7373 52.0403 71.717 51.2405C71.717 50.6071 72.0174 50.2985 72.7888 50.53C74.5306 51.0537 76.3089 51.4638 78.0669 51.9226L79.8573 52.3854C80.4501 52.5356 81.0388 52.9741 81.6072 52.2271C81.7006 52.1053 82.3258 52.3245 82.675 52.4625C83.1622 52.6493 83.6047 52.9416 84.0919 53.1324C84.831 53.4567 85.5921 53.728 86.3696 53.9445C86.8726 54.0541 87.3932 54.0541 87.8962 53.9445C88.2323 53.8434 88.5883 53.8277 88.9321 53.8986C89.2758 53.9694 89.5965 54.1247 89.8653 54.3505C90.2822 54.6856 90.7725 54.9173 91.2961 55.0267C91.8196 55.136 92.3617 55.12 92.8778 54.9798C93.3082 54.8661 93.8523 55.2518 94.311 55.1787C94.9322 55.0853 94.916 54.9879 94.9485 55.3452C95.9838 55.6862 96.877 56.0557 97.7905 56.2587C98.972 56.5226 100.194 56.5957 101.38 56.8514C102.5 57.091 103.576 57.566 104.701 57.7325C105.472 57.8461 106.248 57.7122 106.832 58.4064C106.938 58.5323 107.36 58.5932 107.441 58.5039C108.355 57.501 109.041 58.1953 109.764 58.7597C109.973 58.8866 110.194 58.9914 110.425 59.0723L110.827 58.4633C112.329 59.8234 114.161 59.7341 115.967 59.7625C116.147 59.7972 116.307 59.8969 116.418 60.0426C117.153 60.883 118.111 60.81 119.102 60.8546C119.751 60.879 120.38 61.285 121.022 61.5042C121.205 61.5651 121.505 61.6829 121.578 61.6057C122.272 60.9034 122.914 61.5083 123.446 61.76C124.883 62.4421 126.328 62.9455 127.786 62.8603C127.786 60.6151 127.721 58.3942 127.814 56.2099C127.851 55.3573 128.103 54.5453 127.205 54.0054C127.003 53.8897 126.784 53.8075 126.556 53.7618C125.744 53.5872 124.887 53.441 124.059 53.2583C123.101 53.0512 122.159 52.7873 121.197 52.5965C119.873 52.3286 118.493 51.7845 117.218 51.9469C115.943 52.1093 115.159 50.5746 113.836 51.3501C113.552 51.5166 112.898 50.9685 112.39 50.8467C110.429 50.3676 108.464 49.8966 106.487 49.4906C104.51 49.0846 102.496 48.8045 100.511 48.3863C99.2156 48.1143 97.9488 47.692 96.6699 47.3469C96.492 47.3035 96.309 47.2844 96.1259 47.2901C95.2164 47.2901 94.3516 47.5986 93.4868 46.7298C93.0808 46.2994 91.944 46.608 91.1564 46.4781C90.0724 46.2994 89.0127 45.9746 87.9084 45.796C87.1451 45.6701 86.3412 45.7594 85.582 45.6173C84.8837 45.4328 84.1976 45.205 83.5276 44.9352C82.1512 44.4886 80.7871 43.7781 79.3823 43.6888C77.6893 43.5792 76.2114 42.8768 74.6077 42.5439C73.751 42.3774 72.9106 42.1379 71.9037 41.8537C72.0743 41.2812 72.2691 40.6357 72.464 39.9455C72.5046 39.8074 72.5939 39.6572 72.5615 39.5395C71.9768 37.1725 72.8213 34.7892 72.5249 32.4507C72.3828 31.322 73.2517 30.2095 72.3788 29.0484C72.1352 28.7235 72.7848 27.8019 72.87 27.132C72.8633 26.6872 72.7059 26.2577 72.4234 25.914C72.5736 25.4024 73.2354 24.9355 72.5615 24.1763C72.4559 24.0545 72.736 23.6282 72.7929 23.3359C73.0487 22.0312 73.0112 20.6861 72.6833 19.3977C72.5087 18.6709 72.7766 17.8345 72.8457 17.0469C72.9796 15.4716 73.341 13.8882 72.6264 12.3494C72.6021 12.3048 72.6264 12.2114 72.6711 12.1546C73.4831 10.7742 73.276 9.3775 72.9228 7.88747C72.5168 6.12136 72.2326 5.89806 70.2026 5.40679C68.9034 5.09417 67.7057 4.37149 66.4633 3.82744C65.8705 3.5676 65.2859 3.29964 64.5348 2.95859C64.6038 4.65975 64.6972 6.20662 64.7215 7.76973C64.7215 8.43152 64.5104 9.09736 64.551 9.75103C64.5916 10.4047 64.9367 10.969 64.957 11.5699C64.9424 12.2953 64.8855 13.0192 64.7865 13.738C64.6485 16.0116 64.4779 18.2852 64.4333 20.5588C64.4333 21.0054 64.9042 21.4642 65.1884 21.9758C64.7824 22.532 64.1897 23.1938 64.8677 24.0708C64.8848 24.1026 64.8937 24.1382 64.8937 24.1743C64.8937 24.2104 64.8848 24.246 64.8677 24.2778C64.0232 25.2888 64.9448 26.4946 64.5185 27.5705C64.4495 27.741 64.8474 28.0983 65.0748 28.4434C64.4292 28.6586 64.0435 29.0483 64.4861 29.9091C64.6485 30.2258 64.3277 30.7576 64.3399 31.1839C64.3521 31.6102 63.9704 32.2883 64.8921 32.2517C64.8921 32.4831 64.9976 32.7876 64.8921 32.9297C64.6914 33.1889 64.5439 33.4851 64.4582 33.8015C64.3725 34.1178 64.3502 34.448 64.3927 34.773C64.5185 36.531 64.5145 38.293 64.5632 40.051C64.5632 40.9199 64.0029 40.863 63.4386 40.7453C62.4114 40.5017 61.4086 40.1119 60.3773 39.9333C58.7086 39.6653 57.0237 39.5273 55.3469 39.3405C54.5349 39.2512 53.5768 39.4501 52.9109 39.0847C51.7822 38.4473 50.3856 38.9832 49.3624 38.0535C49.1635 37.8708 48.6195 38.1266 48.2622 38.0535C46.1834 37.611 44.125 37.0426 42.0341 36.6893C40.1908 36.3808 38.3801 35.8773 36.5855 35.5444C36.0049 35.4429 35.4244 35.1384 34.7869 35.1384C34.1495 35.1384 33.4837 34.842 32.8259 34.7324C32.5454 34.6998 32.262 34.6998 31.9814 34.7324C31.7147 34.789 31.4408 34.804 31.1694 34.7771C30.122 34.4523 29.1029 34.0138 28.0392 33.7336C27.6097 33.6939 27.1767 33.731 26.7602 33.8432C26.2357 33.5824 25.6929 33.3599 25.1362 33.1774C23.7558 32.8242 22.3592 32.5237 20.9625 32.2274C18.4981 31.7077 16.0296 31.2245 13.5651 30.6967C12.5826 30.4856 11.6245 30.1486 10.6338 29.9984C10.3334 29.9537 9.69188 30.3476 9.6797 30.5668C9.54495 32.0976 9.55446 33.6378 9.70812 35.1668C9.83608 35.9247 9.83608 36.6988 9.70812 37.4567C9.5579 38.3012 10.8165 38.9223 11.7381 38.5245C12.2286 38.2947 12.7637 38.1756 13.3053 38.1756C13.847 38.1756 14.382 38.2947 14.8725 38.5245C15.5667 38.833 16.4478 38.6909 17.2273 38.8371C18.3966 39.0523 19.5415 39.4258 20.7189 39.5801C21.5918 39.6937 22.4363 39.6694 23.2199 40.2419C23.5366 40.4733 24.1781 40.2419 24.6734 40.2419C25.6566 40.1999 26.6345 40.408 27.5154 40.8468C27.8849 41.0417 28.4289 40.8752 28.8796 40.9524C29.4511 41.0556 30.0164 41.1912 30.5726 41.3584C31.2019 41.5329 31.819 41.74 32.4443 41.9146C33.4552 42.1947 34.4743 42.5195 35.4893 42.7266C37.1133 43.0473 38.7373 43.2057 40.3614 43.563C41.9854 43.9202 43.6094 44.4562 45.2334 44.9068C45.5075 44.9809 45.7872 45.0325 46.0698 45.0611C47.5192 45.2073 48.9808 45.2925 50.418 45.5037C50.9174 45.5767 51.3559 46.003 51.8553 46.1695C52.2178 46.2287 52.587 46.2355 52.9515 46.1898L53.1545 46.7501C54.3928 46.1086 55.5093 46.6283 56.6461 47.0952C57.2258 47.3417 57.8282 47.5307 58.4447 47.6595C59.9266 47.9478 61.4126 48.1792 62.9108 48.4269C63.7837 48.573 64.1612 48.9019 64.1288 49.9575C64.0232 51.9875 64.2303 54.05 64.2384 56.1003C64.2384 56.9123 63.9988 57.6878 63.9704 58.4876C63.9298 59.5189 64.0435 60.5582 63.9907 61.5895C63.938 62.6207 63.7512 63.5667 63.6172 64.6183L64.4292 64.6589C64.4292 64.7401 64.4292 64.8456 64.4292 64.87C63.735 65.3734 63.6172 65.8972 63.808 66.8148C63.9989 67.7323 64.6647 68.7595 63.808 69.8395C63.5117 70.2089 63.8446 71.0818 63.8974 71.8289H64.1247C64.0191 72.7505 63.8852 73.6478 63.8283 74.5491C63.7817 75.3185 63.7817 76.0899 63.8283 76.8593C63.9026 77.2925 64.0168 77.7179 64.1694 78.1301C63.9962 78.395 63.8775 78.6917 63.8202 79.003C63.7146 80.221 63.2071 81.4146 63.605 82.7423C63.8365 83.5299 63.5076 84.4799 63.4264 85.361C63.4264 85.5437 63.2843 85.767 63.3533 85.8969C64.0151 87.1474 63.398 88.3613 63.3533 89.5996C63.3086 90.838 63.6944 91.9869 63.7593 93.1887C63.7959 93.8018 63.1665 94.358 63.5157 95.0766C63.6288 95.473 63.6888 95.8825 63.6944 96.2946C62.655 97.066 63.5766 98.3246 63.467 99.4615C63.3046 101.11 63.3086 102.77 63.2396 104.443C63.3289 104.646 63.5725 104.938 63.5522 105.206C63.4792 106.055 63.2721 106.891 63.199 107.744C63.2161 108.109 63.2858 108.47 63.4061 108.816C63.3533 109.409 63.3289 110.034 63.2356 110.614C63.0813 111.613 63.6091 112.677 62.8945 113.639C62.7687 113.801 63.0732 114.244 63.0975 114.565C63.1625 115.462 63.2071 116.359 63.2112 117.257C63.2112 117.76 63.0813 118.259 63.065 118.763C63.0285 119.924 63.065 121.089 63.0082 122.254C62.9717 123.566 62.8702 124.881 62.8499 126.197C62.8499 126.838 62.9635 127.48 62.9757 128.121C62.9757 128.235 62.7199 128.357 62.5697 128.495L63.2437 129.242C63.1178 129.343 62.8661 129.453 62.862 129.571C62.8174 130.602 62.8174 131.637 62.8011 132.673C62.8209 133.31 62.8059 133.949 62.7565 134.585C62.655 135.429 62.3302 136.209 62.9026 137.086C63.1828 137.52 62.9026 138.361 62.7808 138.998C62.5941 139.972 62.1475 140.927 62.7808 141.897C62.8489 142.021 62.8663 142.166 62.8296 142.303C62.5789 143.334 62.6584 144.417 63.0569 145.401C63.1284 145.57 63.1454 145.757 63.1056 145.937C62.2936 148.068 62.6022 150.261 62.6509 152.433C62.6875 154.146 62.4479 155.863 62.387 157.577C62.387 157.873 62.6347 158.178 62.793 158.511L62.4236 158.852C62.5008 159.459 62.5428 160.07 62.5494 160.683C62.4763 162.063 62.0094 163.443 62.6834 164.816C62.7808 165.007 62.5494 165.392 62.4114 165.66C62.115 166.245 61.9688 166.769 62.8174 167.028C62.2693 167.816 61.9201 168.519 62.2612 169.509C62.4926 170.183 62.2612 171.007 62.2855 171.762C62.3498 172.112 62.4575 172.451 62.6063 172.773C62.4601 173.062 62.1556 173.399 62.1394 173.748C62.0622 175.161 62.0785 176.59 62.0541 177.991C62.0541 179.209 61.8633 180.427 62.0297 181.608C62.2409 183.118 61.8511 184.543 61.7537 186.005C61.6968 186.817 61.4004 187.796 61.7537 188.413C62.3748 189.549 61.847 190.674 62.0947 191.783C62.2003 192.258 61.7455 192.83 61.7212 193.362C61.6603 194.864 61.7212 196.366 61.6603 197.868C61.6603 198.157 61.2543 198.433 61.0594 198.717C60.7671 198.473 60.3002 198.274 60.223 197.974C60.0484 197.292 59.61 196.541 60.2717 195.859C59.5328 194.742 60.3935 193.561 60.1175 192.375C59.7845 190.954 60.0687 189.48 60.3611 188.015C60.5681 186.967 60.1824 185.814 60.1459 184.706C60.089 182.911 60.1134 181.113 60.089 179.318C60.0687 177.954 59.9875 176.594 60.0078 175.23C60.0078 174.194 60.3732 173.114 60.1662 172.14C59.8495 170.622 60.3529 169.152 60.089 167.629C59.8779 166.411 60.1987 165.104 60.2393 163.833C60.2393 163.245 60.1621 162.656 60.1418 162.067C60.1154 161.676 60.1154 161.284 60.1418 160.894C60.2717 159.619 60.6087 158.36 60.1418 157.073C60.0322 156.769 60.2717 156.355 60.2677 155.993C60.2433 153.898 60.8645 151.811 60.2677 149.696C60.0931 149.055 60.3042 148.312 60.3205 147.617C60.3454 147.074 60.3114 146.53 60.219 145.993C60.3408 144.727 60.495 143.464 60.5722 142.193C60.6331 141.223 60.5965 140.244 60.6087 139.266C60.6087 139.128 60.6534 138.99 60.6493 138.86C60.629 137.459 60.7752 136.018 60.5397 134.666C60.223 132.827 60.9457 131.15 60.9944 129.388C61.0147 128.637 60.5884 127.874 60.3042 126.907C60.5153 126.522 60.8604 125.88 61.0959 125.442L60.7549 124.199C60.7549 124.163 60.7549 124.118 60.7549 124.09C59.9916 122.758 60.8483 121.467 60.8523 120.155C60.8523 119.185 60.8848 118.215 60.8523 117.244C60.8523 117.106 60.5681 116.98 60.6168 117.025C60.7804 116.255 60.897 115.475 60.966 114.691C61.0074 113.657 60.9694 112.621 60.8523 111.593C60.7102 110.436 61.165 109.295 60.6168 108.089C60.3123 107.423 60.9254 106.388 60.7589 105.592C60.5925 104.796 61.4248 103.988 60.5235 103.323C60.4707 103.282 60.7955 102.835 60.8158 102.571C60.9214 101.057 61.2665 99.4858 60.9863 98.0364C60.7549 96.8468 61.0472 95.7384 60.9173 94.5854C60.7981 92.9965 60.7846 91.4014 60.8767 89.8108C60.8767 89.4778 61.2218 89.1571 61.2218 88.8282C61.2218 88.0934 61.0716 87.3585 61.0594 86.6196C61.0594 85.6695 61.1487 84.7154 61.1365 83.7776C61.1365 82.6042 61.0147 81.4309 61.0066 80.2575C61.0398 79.8357 61.1795 79.4292 61.4126 79.076C61.4126 78.3655 60.4098 77.7565 61.2137 76.9039C60.4463 75.8443 61.5182 74.8739 61.3598 73.8467C61.3441 73.536 61.2769 73.23 61.1609 72.9413C60.8564 72.3973 60.9619 71.9426 61.1609 71.3782C61.3598 70.8139 61.4695 69.9856 61.1852 69.5959C60.7792 69.0315 61.2583 68.7839 61.2705 68.4185C61.3538 67.5611 61.3538 66.6977 61.2705 65.8403C61.1934 65.3653 60.8645 64.9918 61.5222 64.732C61.2299 64.2854 61.847 63.8428 61.3517 63.2216C60.966 62.7466 61.2949 61.6869 61.3517 60.8871C61.3883 60.1482 61.4654 59.4093 61.5141 58.6703C61.5715 58.1717 61.5986 57.67 61.5953 57.1681C61.5526 56.2451 61.4427 55.3265 61.2664 54.4195C61.4726 53.8349 61.4726 53.1974 61.2664 52.6128C60.6615 50.1443 58.6071 50.4163 56.9912 49.7707C56.2198 49.4703 55.3185 49.7707 54.6039 48.9587C54.2629 48.5812 53.3129 48.7842 52.647 48.6705C51.6442 48.5081 50.6495 48.2848 49.6466 48.1224C49.5005 48.1224 49.3218 48.2929 49.1229 48.4066C48.7859 47.3672 48.0307 47.6189 47.1822 48.0412C47.1578 47.7895 47.1416 47.5986 47.1375 47.5824C45.3227 47.1277 43.585 46.6364 41.823 46.2669C40.7186 46.0396 39.5737 46.0233 38.4531 45.8609C38.238 45.8325 38.0877 45.4549 37.8644 45.394C36.8291 45.1423 35.7776 44.9434 34.7301 44.7444C34.2307 44.647 33.7191 44.6023 33.2157 44.5089C32.3509 44.3425 31.4902 44.1679 30.6295 43.973C29.6591 43.7578 28.7009 43.4818 27.7265 43.2909C27.2497 43.2492 26.7702 43.2492 26.2933 43.2909C26.0457 42.8849 25.5179 42.7307 24.7871 42.6657C23.4912 42.4892 22.2072 42.2343 20.9422 41.9024C20.2236 41.7481 19.5131 41.5492 18.7904 41.4111C17.5724 41.1797 16.3544 41.0417 15.1364 40.7534C14.3094 40.5029 13.4963 40.2089 12.7004 39.8724C11.661 39.4989 10.6703 39.1091 9.49294 39.5801C9.04227 39.7628 8.20185 39.8074 8.23839 38.7924C8.23839 38.699 7.93795 38.5935 7.88923 38.561C7.1503 36.4295 8.65251 34.1721 7.48322 31.732C6.8661 32.2314 6.39513 32.6293 5.89981 33.0069C5.41716 33.443 4.87769 33.8117 4.2961 34.1031C2.51375 34.8095 2.26608 36.332 2.18894 37.9073C2.14022 39.0807 2.36758 40.2622 2.35134 41.4396C2.35134 41.9714 1.98188 42.483 1.89256 43.023C1.85043 43.4984 1.85043 43.9767 1.89256 44.4521C2.57059 44.6429 3.16335 44.8581 3.77235 44.9718C4.12319 45.0678 4.49337 45.0678 4.8442 44.9718C6.17183 44.4805 7.37766 44.9028 8.64845 45.2601C9.91924 45.6173 11.4052 45.6661 12.7328 46.0152C13.8412 46.3238 14.9009 46.6364 16.0499 46.3197C16.1108 46.3197 16.2204 46.4415 16.2975 46.5146C17.1096 47.3266 18.1083 47.3997 19.2208 47.3591C19.9922 47.3307 20.7717 47.7651 21.5593 47.96C22.347 48.1549 23.2564 48.0696 23.9182 48.4472C25.2134 49.182 26.5613 49.0887 27.9295 49.1252C28.1041 49.1252 28.4086 49.1252 28.433 49.2023C28.7456 50.1524 29.245 48.8775 29.651 49.3241C29.9758 49.6774 30.532 50.1605 30.869 50.0874C32.0545 49.8316 32.9599 50.6558 34.0399 50.7127C34.3966 50.7603 34.7504 50.8281 35.0996 50.9157C35.2782 50.9482 35.5056 50.8791 35.6355 50.9685C37.3772 52.1865 39.4316 52.1012 41.3723 52.5478C42.5091 52.8117 43.6703 52.897 44.799 53.169C47.3974 53.7942 50.0283 54.2936 52.5861 55.0447C53.2726 55.2428 53.9828 55.3466 54.6973 55.3533C54.8968 55.3522 55.0946 55.3908 55.2791 55.4667C55.4636 55.5427 55.6311 55.6546 55.772 55.7959C55.9129 55.9371 56.0243 56.105 56.0998 56.2897C56.1753 56.4744 56.2133 56.6722 56.2117 56.8717C56.2361 57.834 56.0493 58.8368 56.2645 59.7503C56.5934 61.1591 56.2117 62.5233 56.2929 63.9037C56.3741 65.2841 56.7761 66.7457 56.4066 67.9637C56.0371 69.1817 56.8857 70.3348 56.1427 71.4675C55.9762 71.7193 56.3741 72.3405 56.5771 72.9941C56.2807 73.4935 55.5621 74.0863 56.2361 75.3165C56.6664 76.1041 56.2686 77.3465 56.2645 78.3777C56.2645 80.0951 55.3753 81.8531 56.4634 83.538C56.4844 83.6071 56.4879 83.6804 56.4738 83.7512C56.4596 83.822 56.4282 83.8883 56.3822 83.944C55.3956 85.0849 55.9762 86.514 55.7895 87.7848C55.5621 89.2424 56.1549 90.8095 56.1589 92.332C56.1589 92.9776 56.4269 93.7815 55.8017 94.4027C55.7032 94.5278 55.6333 94.6729 55.5968 94.8279C55.5603 94.9829 55.5582 95.144 55.5905 95.2999C55.9722 96.7859 55.5296 98.2394 55.5093 99.7051C55.485 101.276 55.554 102.852 55.623 104.423C55.6636 105.413 55.8017 106.404 55.8423 107.395C55.8423 107.577 55.5987 107.776 55.4362 107.996L55.9925 108.605H54.945L55.688 109.522C54.876 110.428 54.876 110.704 55.6068 111.552C55.5053 112.624 55.4281 113.485 55.3388 114.346C55.2211 115.458 55.0221 116.57 54.9937 117.687C54.9937 118.15 55.2901 118.637 55.4931 119.092C55.6576 119.356 55.8495 119.602 56.0655 119.827L55.2535 119.741C55.148 120.935 54.7257 122.202 55.0181 123.274C55.3956 124.658 54.9003 125.904 54.9978 127.2C55.0302 127.671 55.3347 128.121 55.6068 128.824C55.3956 129.786 55.1033 131.126 54.7948 132.547H55.3226C55.1236 133.83 54.9166 135.169 54.7217 136.505C54.7217 136.627 54.7217 136.822 54.7785 136.875C55.4606 137.37 55.0302 137.898 54.9166 138.47C54.7663 139.201 54.34 140.094 55.3226 140.456C55.1033 141.511 54.7623 142.53 54.7095 143.566C54.6648 144.438 55.0627 145.324 55.0627 146.205C55.0627 147.086 54.6892 147.881 54.7095 148.714C54.7298 149.412 54.133 150.139 54.9003 150.902C55.1561 151.158 54.6283 152.12 54.5593 152.778C54.3806 154.495 53.8569 156.188 54.3847 157.95C54.5268 158.433 54.2588 159.026 54.2345 159.574C54.2124 160.01 54.2931 160.446 54.47 160.845C54.2467 161.897 53.5483 162.932 54.5715 164.012C54.068 164.523 53.8731 164.917 54.2061 165.693C54.4659 166.294 54.0274 167.183 53.9462 167.95C53.8528 168.884 53.8082 169.826 53.7432 170.764C53.7432 170.8 53.7229 170.845 53.7432 170.873C54.3725 172.274 53.4062 173.776 53.8082 175.035C54.2994 176.578 53.187 177.784 53.5321 179.302C53.8407 180.674 53.2641 182.229 53.2479 183.707C53.2479 184.872 52.9678 186.05 53.0124 187.138C53.0478 188.182 53.0139 189.228 52.9109 190.268C52.8094 191.356 52.5861 192.485 52.7607 193.516C52.9353 194.547 52.7282 195.181 52.0827 195.786L51.6158 195.692ZM87.1329 62.0605C87.5389 62.1092 87.9449 62.162 88.3225 62.2026C88.5793 62.1976 88.8361 62.2153 89.0898 62.2553C90.1657 62.5517 91.2214 62.9171 92.3094 63.1729C92.8088 63.2947 93.3813 63.112 93.8726 63.246C95.2367 63.6276 96.5644 64.1473 97.9326 64.5168C98.7162 64.7279 99.6134 64.5939 100.348 64.8944C101.359 65.3004 102.277 65.82 103.361 65.1745C103.41 65.1461 103.535 65.1745 103.56 65.1745C104.372 66.3113 105.712 65.8891 106.775 66.2626C108.4 66.8071 110.076 67.1866 111.777 67.3953C112.347 67.4132 112.914 67.4935 113.466 67.6349C114.319 67.9313 115.31 67.8095 116.195 68.0409C117.08 68.2723 117.819 68.9381 118.61 68.9463C119.715 68.9463 120.92 69.9247 121.996 68.6215C122.699 67.7729 123.673 67.1396 124.554 66.4453C125.045 66.0393 125.602 65.751 126.125 65.41L126.052 65.0771C123.775 65.276 121.732 63.8063 119.556 64.2001C117.595 63.1891 115.537 63.1648 113.385 62.8319C113.259 62.1295 112.532 62.1944 111.798 62.1376C111.063 62.0808 110.255 61.8778 109.337 61.7316C108.968 62.1782 108.481 62.1863 107.872 61.5164C107.21 60.7815 105.614 60.676 104.839 61.216C104.222 59.8802 102.809 60.1157 101.769 59.9005C100.73 59.6853 99.6946 59.2387 98.4645 59.527C97.6159 59.73 96.5481 59.0845 95.6021 58.7475C95.2564 58.5512 94.9406 58.3065 94.6643 58.0207C93.629 58.4633 93.2595 58.4267 92.1146 57.7203C91.911 57.6216 91.6906 57.5623 91.465 57.5457C90.3606 57.3752 89.0614 57.5132 88.2169 56.957C87.543 56.5185 86.9055 56.5145 86.2559 56.2993C85.6714 56.0714 85.0664 55.9001 84.4492 55.7877C83.7144 55.6862 82.9633 55.739 82.2162 55.7024C81.9712 55.7125 81.7282 55.6549 81.5138 55.536C80.7384 54.9595 79.9751 54.9432 79.4838 55.3127L74.2058 53.6521C74.3722 54.3545 74.5793 54.7768 74.5468 55.1828C74.4697 56.2384 74.2667 57.2818 74.1611 58.3374C74.1327 58.6257 74.1855 59.1169 74.3519 59.1981C74.9783 59.456 75.6246 59.6624 76.2845 59.8153C76.3215 59.7501 76.3501 59.6805 76.3698 59.6082C77.5878 59.9046 78.8058 60.1644 79.9791 60.477C81.1525 60.7897 82.4151 61.1794 83.6616 61.5326C84.9283 60.2091 85.8784 62.8359 87.1329 62.0645V62.0605ZM61.3192 33.0312L61.5994 32.95C61.575 32.5928 61.5588 32.2314 61.5263 31.8701C61.5263 31.6914 61.4248 31.3585 61.441 31.3545C62.724 31.0175 61.8146 30.0349 61.774 29.568C61.6501 27.6824 61.7153 25.7891 61.9688 23.9165C62.115 22.6457 61.5019 21.3221 61.9688 19.9579C62.1438 19.1982 62.1864 18.4139 62.0947 17.6397C62.0663 16.8277 61.9364 16.0157 61.8552 15.2361C62.3545 11.3101 62.2612 7.38403 62.2855 3.1819L60.9335 4.14818C60.6446 4.30928 60.3323 4.42434 60.0078 4.48923C59.6626 4.66518 59.3026 4.81054 58.9319 4.92365C58.6888 4.92773 58.4543 5.01434 58.2669 5.16927C58.0795 5.3242 57.9504 5.53824 57.9007 5.77626C57.6703 6.56802 57.4833 7.37174 57.3404 8.18385C57.2971 8.75598 57.3066 9.33087 57.3688 9.90125C57.4054 10.7782 57.6896 11.7404 57.4175 12.5078C57.1378 13.1246 57.0832 13.8199 57.2633 14.4728C57.3706 14.9151 57.417 15.37 57.4013 15.8248C57.4013 16.8723 57.4013 17.9198 57.4013 18.9673C57.446 19.2434 57.1699 19.5276 57.1536 19.828C57.1361 20.5828 57.1632 21.3379 57.2348 22.0895C57.2633 22.4955 57.5312 23.0151 57.3648 23.275C56.7517 24.2291 56.8613 25.1751 57.0968 26.182C57.1059 26.4509 57.0603 26.7188 56.9628 26.9696C56.8498 27.2775 56.7827 27.6004 56.7639 27.9278C56.841 28.6058 57.0237 29.2676 57.1699 29.9578C57.1699 30.0106 57.0521 30.0755 57.0237 30.1486C56.9148 30.3654 56.8422 30.5986 56.8085 30.8388C56.8085 31.5047 56.8654 32.1705 56.8654 32.8404C56.8654 33.2464 56.7598 33.6524 56.7801 34.0341C56.841 35.1506 56.9425 36.2671 57.0521 37.7287L61.3964 38.4067C61.5304 37.2902 61.912 36.3199 61.6684 35.5647C61.5545 35.2278 61.5206 34.869 61.5692 34.5167C61.6178 34.1644 61.7477 33.8282 61.9485 33.5347L61.3192 33.0312Z" fill="white"/>
</svg>
