<svg width="63" height="65" viewBox="0 0 63 65" fill="none" xmlns="http://www.w3.org/2000/svg">
<path d="M53.154 9.92114C51.6025 11.2949 50.1576 12.5352 48.7572 13.8289C47.6504 14.781 46.623 15.8218 45.6853 16.9409C45.1207 17.6744 44.7339 17.5455 44.1204 17.2121C43.1191 16.6164 42.0795 16.0877 41.0084 15.6294C39.6302 15.1048 38.2388 14.5802 36.705 14.6069C35.2868 14.638 33.8242 14.309 32.4549 14.5535C30.4002 14.8988 28.3913 15.476 26.4666 16.274C24.9128 16.9668 23.4843 17.9116 22.2388 19.0703C20.6471 20.4718 19.2318 22.0617 18.0242 23.805C17.0935 25.3142 16.4176 26.9664 16.0237 28.6952C15.534 30.6397 15.2362 32.6276 15.1346 34.6302C15.1176 35.9043 15.3191 37.1719 15.7303 38.3779C16.2949 40.2584 16.8639 42.2012 17.8375 43.8772C18.7981 45.6335 20.121 47.1656 21.7186 48.3718C23.4969 49.6611 25.3063 50.7903 27.4313 51.4171C29.8165 52.111 32.3089 52.3612 34.7845 52.1551C36.0932 52.024 37.3797 51.7252 38.6122 51.2659C41.2706 50.3767 43.7283 48.9734 45.8453 47.1359C48.1889 45.061 49.9678 42.4255 51.0156 39.476C51.2024 38.9781 51.0468 38.7558 50.4866 38.7514C47.468 38.7247 44.4449 38.6447 41.4219 38.6402C39.3591 38.6402 37.2963 38.7158 35.2335 38.8003C34.6911 38.8003 34.5577 38.6447 34.5533 38.1423C34.5222 35.2704 34.4555 32.4029 34.4332 29.531C34.4656 29.4098 34.5283 29.2989 34.6154 29.2087C34.7025 29.1184 34.8112 29.0519 34.9312 29.0153C37.6252 28.9753 40.3238 28.9887 43.0223 28.9709C44.476 28.9709 45.9298 28.8997 47.3835 28.8953C49.7219 28.8953 52.0604 28.9309 54.3943 28.8953C55.568 28.8953 56.7417 28.7664 57.9153 28.7486C59.4446 28.7219 60.9784 28.7486 62.7567 28.7486C62.7567 29.6377 62.7167 30.4513 62.7567 31.2471C62.9328 34.7292 62.5592 38.2174 61.6497 41.5833C61.3741 42.6458 60.9162 43.6549 60.5516 44.6952C59.498 47.6827 57.7375 50.2835 55.897 52.8086C54.8043 54.1801 53.5738 55.4359 52.2249 56.5563C51.103 57.5921 49.8904 58.525 48.6016 59.3438C46.5566 60.6019 44.476 61.8422 42.0887 62.3668C40.1593 62.8114 38.2432 63.3226 36.3093 63.576C34.3755 63.8294 32.3927 64.0206 30.4144 63.5271C28.436 63.0337 26.4132 62.8336 24.4749 62.2823C22.4573 61.746 20.5442 60.8743 18.8156 59.7038C17.1751 58.5435 15.5124 57.4099 13.9787 56.1162C12.8823 55.1762 11.8951 54.1159 11.0356 52.9553C9.81162 51.3734 8.69474 49.7115 7.69249 47.9806C6.93228 46.6202 6.46548 45.0998 5.88754 43.6416C5.61191 42.9525 5.35851 42.259 5.14956 41.5477C4.54629 39.5804 4.1967 37.5441 4.10927 35.4882C3.99901 33.9407 3.97526 32.3882 4.03814 30.8381C4.22041 28.6152 4.3938 26.3657 5.18068 24.2318C5.70527 22.8225 6.06982 21.3554 6.64331 19.9639C7.09265 18.934 7.60334 17.9319 8.17262 16.9631C9.35926 14.7759 10.8567 12.7723 12.6183 11.0148C14.6946 8.84409 17.0758 6.98709 19.6869 5.50213C22.4329 4.09403 25.3456 3.03799 28.356 2.35904C29.6763 2.06884 31.029 1.95375 32.3793 2.01672C34.4212 2.04009 36.4596 2.18856 38.4833 2.46129C39.8703 2.6569 41.2085 3.20372 42.5644 3.60383C44.4958 4.17915 46.3355 5.02639 48.0281 6.12008C49.144 6.84028 50.1887 7.66273 51.2557 8.45406C51.847 8.85862 52.4116 9.33875 53.154 9.92114Z" fill="#BFEDE6"/>
<path d="M46.8508 38.727C43.3743 38.727 40.0089 38.727 36.6258 38.727C35.0564 38.727 33.4871 38.6247 31.9178 38.6069C31.1798 38.6069 30.8508 38.2824 30.8553 37.54C30.8553 35.0326 30.8553 32.5252 30.882 30.0179C30.882 29.3555 30.882 28.6842 30.8553 28.0262C30.8197 27.2527 31.2198 26.9904 31.9356 26.9859C34.4252 26.9859 36.9192 26.9859 39.4088 26.9415C41.9873 26.9059 44.5613 26.8437 47.1398 26.7948C50.3585 26.7414 53.5771 26.6658 56.7958 26.6481C57.8228 26.6481 58.8497 26.8303 59.7744 26.1724C59.8367 26.1279 60.2946 26.4213 60.3257 26.6169C60.6591 28.6219 61.157 30.618 60.9081 32.6808C60.6458 34.8281 60.508 36.9931 60.1434 39.1226C59.8195 41.2055 59.1746 43.2256 58.2318 45.111C57.2982 46.8892 56.3868 48.7208 55.3243 50.4458C54.6797 51.4994 53.6527 52.3174 53.017 53.371C52.4835 54.2602 51.6522 54.7803 50.9942 55.4961C48.7369 57.9113 45.9886 59.8152 42.9342 61.0798C41.6323 61.7 40.2965 62.2462 38.9331 62.7159C37.4527 63.1604 35.8878 63.3116 34.3807 63.6806C32.0734 64.2496 29.735 63.9695 27.4232 63.8584C25.8361 63.7828 24.2579 63.2182 22.693 62.8136C21.7214 62.5688 20.7702 62.2493 19.8478 61.8578C18.2098 61.1858 16.6112 60.4214 15.0598 59.5683C13.713 58.8079 12.4572 57.8965 11.3165 56.852C9.74382 55.4043 8.29124 53.8313 6.9731 52.1485C5.57358 50.3237 4.32044 48.3913 3.22539 46.3691C2.48741 45.0087 2.10508 43.4438 1.60716 41.959C1.18927 40.6964 0.811387 39.422 0.473515 38.1357C0.380156 37.7934 0.580212 37.3755 0.50019 37.0287C-0.144434 34.2324 -0.073303 31.4094 0.197883 28.613C0.419206 25.8317 1.09189 23.1049 2.18955 20.5397C2.75415 19.2727 3.11425 17.9078 3.74109 16.6719C4.35191 15.5207 5.05672 14.4219 5.84834 13.3866C6.965 11.7648 8.18412 10.2161 9.49824 8.74975C10.6651 7.61535 11.943 6.60109 13.3126 5.72224C14.7886 4.69529 16.3313 3.75725 17.8917 2.85922C18.6445 2.49978 19.418 2.18507 20.2079 1.91674C22.3868 1.05593 24.6716 0.492198 27.0009 0.240715C30.5378 -0.23438 34.1338 -0.00471914 37.5816 0.916459C39.6081 1.52215 41.5848 2.28314 43.4944 3.19265C44.7112 3.7477 45.8786 4.40506 46.9842 5.15764C47.98 5.8156 48.8825 6.62027 49.825 7.38048C50.1495 7.63833 50.4741 7.90062 50.8119 8.14069C50.9435 8.20832 51.0569 8.30668 51.1423 8.42743C51.2278 8.54818 51.2829 8.68775 51.303 8.83433C51.3231 8.98091 51.3075 9.13016 51.2576 9.26944C51.2077 9.40873 51.125 9.53393 51.0164 9.63444C49.8428 10.8659 48.6469 12.0707 47.4599 13.2666C45.9039 14.8092 44.3479 16.3785 42.7341 17.8412C42.5636 17.9398 42.3727 17.998 42.1761 18.0111C41.9795 18.0242 41.7826 17.9919 41.6005 17.9167C40.5691 17.441 39.6044 16.8187 38.5863 16.3118C36.7796 15.4571 34.8057 15.0137 32.8069 15.0137C31.5952 14.9755 30.3826 15.0469 29.1837 15.2271C26.912 15.5961 24.738 16.2629 22.8664 17.6989C21.5905 18.6769 20.1679 19.5038 19.0431 20.6286C16.6348 23.0214 14.9427 26.0393 14.1573 29.3421C13.4353 32.0347 13.3849 34.8634 14.0106 37.58C14.7949 40.8778 16.579 43.8528 19.1187 46.0979C20.9194 47.6773 23.0303 48.8629 25.316 49.5789C28.3773 50.6391 31.7062 50.6391 34.7675 49.5789C36.0123 49.1343 37.3326 48.792 38.4307 48.0985C39.9813 47.0623 41.466 45.931 42.8764 44.7108C44.5346 43.3771 45.6549 41.5989 46.6019 39.7095C46.6641 39.585 46.7486 39.4694 46.7975 39.3405C46.83 39.1375 46.8478 38.9325 46.8508 38.727ZM50.3185 9.06539C49.576 8.483 49.0114 8.01621 48.4202 7.57609C47.3532 6.78476 46.3085 5.9623 45.1926 5.2421C43.4999 4.14842 41.6602 3.30117 39.7289 2.72585C38.3952 2.32574 37.0348 1.77892 35.6477 1.58331C33.6241 1.31058 31.5856 1.16211 29.5438 1.13874C28.1935 1.07577 26.8407 1.19086 25.5205 1.48106C22.5101 2.16001 19.5974 3.21605 16.8514 4.62416C14.2388 6.11592 11.8576 7.98047 9.78277 10.159C8.0212 11.9165 6.52373 13.9201 5.33709 16.1073C4.76749 17.079 4.2568 18.0841 3.80778 19.1171C3.24762 20.5086 2.86974 21.9756 2.34515 23.3849C1.55826 25.51 1.38488 27.755 1.20261 29.9823C1.13973 31.5325 1.16348 33.085 1.27374 34.6325C1.36304 36.6809 1.71261 38.7096 2.31403 40.6697C2.52297 41.381 2.75859 42.0746 3.05201 42.7636C3.62995 44.2218 4.09674 45.7422 4.85696 47.1026C5.84883 48.8357 6.9553 50.5006 8.16899 52.0862C9.02983 53.2471 10.0185 54.3074 11.1165 55.2471C12.6502 56.5408 14.3129 57.6744 15.9534 58.8348C17.682 60.0053 19.5951 60.8769 21.6127 61.4133C23.551 61.9645 25.5916 62.169 27.5521 62.6581C29.5127 63.1471 31.4999 62.9559 33.4471 62.707C35.3943 62.458 37.3149 61.9245 39.2265 61.4977C41.6138 60.9731 43.6722 59.7195 45.7394 58.4747C47.0282 57.6559 48.2408 56.723 49.3626 55.6872C50.7116 54.5668 51.9421 53.311 53.0348 51.9395C54.8753 49.4144 56.6358 46.8137 57.6894 43.8262C58.0539 42.7859 58.5119 41.7767 58.7875 40.7142C59.697 37.3483 60.0706 33.8601 59.8945 30.378C59.8456 29.5822 59.8945 28.782 59.8945 27.8795C58.1162 27.8795 56.5824 27.8795 55.0531 27.8795C53.8795 27.8795 52.7058 28.0173 51.5321 28.0262C49.1982 28.0262 46.8597 27.9995 44.5213 28.0262C43.0676 28.0262 41.6138 28.0929 40.1601 28.1018C37.4616 28.1018 34.763 28.1018 32.069 28.1462C31.9492 28.1814 31.8403 28.2463 31.7524 28.3349C31.6646 28.4235 31.6006 28.533 31.5666 28.653C31.5666 31.525 31.6555 34.3924 31.6866 37.2643C31.6866 37.7667 31.8244 37.9445 32.3668 37.9223C34.4296 37.8378 36.4924 37.7622 38.5552 37.7622C41.5783 37.7622 44.6013 37.8467 47.6199 37.8734C48.1801 37.8734 48.3357 38.1001 48.149 38.598C47.1012 41.5476 45.3223 44.1831 42.9786 46.2579C40.8616 48.0954 38.404 49.4987 35.7455 50.388C34.513 50.8472 33.2266 51.146 31.9178 51.2771C29.4422 51.4832 26.9499 51.2331 24.5646 50.5391C22.4396 49.9123 20.6347 48.7609 18.852 47.4938C17.2544 46.2876 15.9314 44.7556 14.9709 42.9993C14.0062 41.3455 13.4371 39.4027 12.8947 37.5222C12.5002 36.3042 12.3182 35.0275 12.3568 33.7478C12.4585 31.7452 12.7563 29.7573 13.246 27.8128C13.6398 26.084 14.3157 24.4318 15.2465 22.9226C16.4541 21.1792 17.8693 19.5893 19.461 18.1879C20.7066 17.0292 22.1351 16.0843 23.6889 15.3916C25.6135 14.5936 27.6225 14.0164 29.6772 13.6711C31.0464 13.4266 32.5091 13.7556 33.9272 13.7245C35.461 13.6978 36.8525 14.2224 38.2307 14.747C39.3018 15.2053 40.3414 15.734 41.3426 16.3296C41.9561 16.6631 42.3429 16.7742 42.9075 16.0584C43.8453 14.9394 44.8727 13.8986 45.9795 12.9465C47.3221 11.6794 48.7669 10.4391 50.3185 9.06539Z" fill="#064149"/>
</svg>
