<svg width="342" height="69" viewBox="0 0 342 69" fill="none" xmlns="http://www.w3.org/2000/svg">
<g clip-path="url(#clip0_6469_1389)">
<path d="M175.745 59.2239C176.707 59.5081 177.646 59.8919 178.673 59.8919C178.673 60.395 179.242 60.0567 179.259 60.2017C179.336 60.9151 179.7 60.4177 179.948 60.3978C180.232 60.5485 180.622 60.4689 180.844 60.7787C180.924 61.0032 180.961 61.2875 181.319 61.1027L181.456 61.2477C181.612 61.3159 181.672 61.7991 181.948 61.3642L182.6 61.3784C182.756 61.6911 182.816 62.1743 183.357 61.7366C183.547 61.5802 183.715 61.8332 183.894 61.8872C184.287 62.0038 184.546 62.5523 185.064 62.2766L187.841 63.2459L187.918 63.4875L188.071 63.2857C188.088 63.3043 188.11 63.3176 188.134 63.3242C188.158 63.3307 188.184 63.3302 188.208 63.3226C188.703 63.4989 189.141 64.0105 189.733 63.5671C189.901 63.6694 190.04 63.7547 190.265 63.6125C190.363 63.5494 190.483 63.5277 190.597 63.5522C190.711 63.5767 190.811 63.6454 190.874 63.7433C191.079 64.1412 191.275 64.1526 191.628 63.911C191.83 63.7717 192.066 63.8684 192.132 64.164C192.093 64.1825 192.059 64.2113 192.035 64.2473C192.011 64.2833 191.998 64.3251 191.996 64.3683C191.994 64.4115 192.003 64.4545 192.024 64.4926C192.044 64.5307 192.075 64.5625 192.112 64.5846C192.342 64.704 192.499 64.4738 192.658 64.3345C192.98 64.5932 193.389 64.4312 193.739 64.5619C193.976 64.7012 194.178 64.7495 194.223 64.38C194.715 64.0787 194.792 64.5477 194.974 64.7921L194.889 64.866L194.98 64.8859L194.957 64.7836L195.142 64.7495C195.543 65.0082 195.942 65.3691 196.386 64.812L196.832 64.8518C197.379 65.2725 198.025 64.8945 198.608 65.0707C198.773 65.119 198.893 64.9968 198.875 64.7864L199.029 64.7467C199.029 64.8348 198.986 64.9655 199.114 64.9712C199.186 64.9712 199.262 64.866 199.336 64.8092C199.541 64.7836 199.621 64.9485 199.735 65.0678C200.193 65.48 202.011 65.5198 202.444 65.1275C202.457 65.1345 202.472 65.1382 202.488 65.1382C202.503 65.1382 202.518 65.1345 202.532 65.1275C202.581 65.2276 202.653 65.3153 202.741 65.3842C202.829 65.4532 202.931 65.5017 203.04 65.5262C203.149 65.5508 203.262 65.5506 203.371 65.5259C203.48 65.5012 203.582 65.4525 203.67 65.3834L204.421 65.426L204.558 65.5141L204.578 65.3919V65.3663C204.683 65.3009 204.922 65.8268 204.916 65.2896C205.662 65.4999 206.481 65.156 207.193 65.5738C207.383 65.8808 207.563 65.858 208.009 65.4231C208.314 65.679 208.817 65.48 209.059 65.8808C209.301 66.2815 209.557 66.5402 210.018 66.165C210.049 66.2247 210.078 66.2872 210.106 66.3498L210.166 66.1565C210.317 66.1281 210.451 66.1565 210.513 66.31V66.4208L210.616 66.3071V66.2929C210.823 66.3611 211.042 66.5061 211.239 66.4777C211.523 66.4379 211.956 66.6425 212.024 66.1167C212.277 66.1991 212.482 66.4919 212.801 66.1337C213.12 65.7756 213.398 66.3384 213.729 66.3299C213.825 66.6539 214.107 66.6141 214.349 66.6312C214.54 66.8131 214.744 66.9154 214.986 66.7164L215.234 66.6567C215.262 66.8159 215.345 66.941 215.518 66.9069C215.56 66.8996 215.6 66.882 215.634 66.8557C215.668 66.8293 215.694 66.7951 215.711 66.7559C215.729 66.7168 215.736 66.674 215.732 66.6314C215.729 66.5888 215.715 66.5477 215.692 66.5118C215.828 66.688 216.028 66.6283 216.207 66.6567C216.378 67.2906 216.614 66.941 216.844 66.6994L217.152 66.8102C217.317 66.8415 217.317 66.7392 217.3 66.6255C218.054 66.799 218.828 66.8726 219.602 66.8443C220.014 67.0376 220.404 67.0746 220.74 66.6795L221.309 66.6397C221.841 67.0604 222.956 66.9836 223.528 66.4834C223.813 66.5999 224.08 66.6852 224.328 66.364C224.46 66.2113 224.643 66.1105 224.843 66.0797C226.402 65.8666 227.825 65.1958 229.327 64.8007C229.403 64.7889 229.479 64.7813 229.555 64.7779C229.674 64.8234 229.777 64.9854 229.922 64.8234C230.027 64.7069 229.95 64.6102 229.885 64.5136L230.169 64.4368C230.371 64.4536 230.575 64.425 230.764 64.3532C230.954 64.2814 231.125 64.1682 231.265 64.0219C231.532 64.073 231.578 63.7035 231.834 63.7376C232.064 64.2833 232.289 63.8542 232.514 63.7376C232.773 63.7689 232.912 63.4051 233.2 63.5301C233.2 63.5728 233.166 63.6438 233.177 63.6495C233.274 63.6978 233.291 63.6353 233.288 63.5557C233.658 63.118 234.244 63.3368 234.682 63.1009C234.819 63.1436 234.873 63.0867 234.861 62.9531C235.115 63.0128 235.285 62.8536 235.468 62.7286C235.977 62.7939 236.381 62.4671 236.845 62.3647C237.129 62.649 237.269 62.2482 237.491 62.2482L237.752 62.1715C237.826 62.3392 237.903 62.3932 237.983 62.1715C238.197 61.9943 238.465 61.8942 238.743 61.8872C239.349 61.8389 239.847 61.495 240.39 61.2448C241.395 60.7844 242.342 60.0425 243.543 60.1647C243.717 60.1823 243.892 60.1647 244.059 60.1129C244.226 60.0611 244.38 59.9763 244.513 59.8634C244.702 59.6912 244.932 59.5702 245.181 59.512C245.43 59.4537 245.69 59.4603 245.936 59.5309C246.374 59.6531 246.485 59.2154 246.852 59.1557C248.172 58.9454 249.47 58.5872 250.776 58.303C250.904 58.482 251.026 58.536 251.14 58.303C251.379 58.1609 251.576 57.9988 251.465 57.6777L251.891 57.4304C252.236 57.6578 252.478 57.4702 252.705 57.2286C252.901 57.1234 252.867 57.0239 252.705 56.9273L253.146 57.0722C253.175 57.1689 253.084 57.3224 253.334 57.2627C254.153 57.0276 255.03 57.1014 255.798 57.4702C256.131 57.6379 256.561 57.7999 256.877 57.3593L257.352 57.3849C257.52 57.4161 257.5 57.2257 257.594 57.1717C257.639 57.1259 257.695 57.0929 257.757 57.0759C257.819 57.0589 257.884 57.0587 257.946 57.0751C258.911 57.3991 259.913 57.3792 260.909 57.3877C261.057 57.36 261.2 57.3061 261.33 57.2286C261.532 57.8198 261.867 57.3707 262.152 57.3366H262.459C262.573 57.3678 262.695 57.4076 262.758 57.257C262.768 57.2357 262.773 57.2125 262.774 57.189C262.774 57.1655 262.769 57.1422 262.76 57.1207C262.75 57.0992 262.737 57.0799 262.719 57.0642C262.702 57.0485 262.681 57.0367 262.658 57.0296C262.735 56.5492 263.017 56.8249 263.202 56.9045C263.319 56.9722 263.451 57.0078 263.586 57.0078C263.721 57.0078 263.853 56.9722 263.97 56.9045C264.397 57.3195 265.379 57.2257 265.726 56.7368L266.136 56.7596C266.42 57.0438 266.616 56.7965 266.818 56.6231L267.265 56.5975C267.487 56.7141 267.769 57.0211 267.783 56.4412H268.033C268.016 56.8818 268.216 56.6203 268.361 56.5407C268.375 56.5566 268.392 56.5686 268.412 56.5756C268.432 56.5825 268.454 56.5842 268.474 56.5805C268.5 56.6544 268.492 56.7681 268.608 56.751C268.642 56.751 268.665 56.6402 268.694 56.5805C269.365 56.3787 270.005 56.086 270.597 55.7107C271.07 55.8045 271.451 55.4975 271.861 55.3981C272.216 55.7477 272.672 55.2701 272.967 55.4833C273.428 55.813 273.383 55.4293 273.482 55.1991C273.645 55.1763 273.83 55.1991 273.935 55.0314L274.239 54.9063C274.598 55.2332 274.675 54.4231 275.025 54.7102C275.247 54.9149 275.34 54.8381 275.338 54.5652C275.35 54.5635 275.361 54.5594 275.371 54.5531C275.382 54.5468 275.391 54.5385 275.397 54.5287C275.404 54.5188 275.409 54.5076 275.412 54.4958C275.414 54.484 275.414 54.4719 275.412 54.4601C276.137 54.443 276.743 53.8916 277.497 53.9911C278.103 54.2099 278.317 53.8148 278.49 53.3572C278.514 53.3763 278.543 53.389 278.573 53.3942C278.766 53.6187 278.9 53.3942 279.054 53.3288L279.207 53.289C279.606 53.2094 280.178 53.6244 280.346 52.8825L280.772 52.7006C281.341 52.7774 281.891 52.7347 282.272 52.2117C282.457 52.0924 282.611 52.2999 282.787 52.2629C283.174 52.4988 283.513 52.5955 283.578 51.9787C284.224 52.2629 284.617 51.5068 285.24 51.5694C285.461 51.5861 285.682 51.5571 285.891 51.4841L286.022 51.7229C286.395 51.2226 287.143 51.4074 287.513 50.9014L287.752 50.8502C287.986 50.9989 288.267 51.0554 288.541 51.0086C288.814 50.9619 289.061 50.8153 289.232 50.5973C289.371 50.6484 289.553 50.7707 289.656 50.6229C290.259 49.7474 291.295 49.9719 292.109 49.6337C292.654 49.4306 293.244 49.3796 293.816 49.4859C294.231 49.5456 294.433 49.1846 294.761 49.0823C294.846 49.2642 295.145 49.3921 295.176 49.3665C295.554 48.943 296.166 49.2272 296.556 48.8862L296.491 48.8464C296.491 48.6446 296.641 48.7497 296.724 48.7156C297.316 49.3438 297.646 48.8123 298.007 48.4314C298.083 48.3534 298.179 48.2976 298.284 48.2701C298.389 48.2425 298.5 48.2443 298.605 48.275C298.679 48.8435 298.918 48.3859 299.091 48.3518C299.177 48.3944 299.225 48.3518 299.259 48.275C299.643 48.2982 300.02 48.1719 300.312 47.9226C300.312 47.3541 300.881 47.6383 300.938 47.6753C301.635 48.0647 302.221 47.5048 302.782 47.3626C303.146 47.2904 303.521 47.2798 303.889 47.3314C304.202 47.5048 304.486 47.5446 304.665 47.1495C305.061 46.9278 305.613 47.1949 305.934 46.743L306.381 46.6435L306.689 46.6606C306.825 46.8482 306.919 46.8283 306.973 46.6037C307.09 46.5753 307.223 46.7487 307.332 46.5781C307.451 46.5781 307.573 46.5781 307.616 46.4332L307.915 46.3792C308.148 46.5526 308.279 46.4332 308.379 46.2172L308.663 46.0409C309.571 46.3252 310.314 45.9017 311.053 45.4725C311.22 45.3525 311.41 45.2692 311.611 45.228C311.812 45.1869 312.02 45.1888 312.22 45.2337C312.701 45.3048 313.242 44.9722 313.759 44.8329C313.916 44.7903 314.044 44.5942 314.246 44.7476C314.863 44.9438 315.293 44.6084 315.709 44.2332C316.024 44.5686 316.457 44.2957 316.611 44.182C317.069 43.8381 317.649 43.8722 318.116 43.5283C318.457 43.2753 319.021 43.5283 319.538 43.3805C319.965 43.2469 320.392 43.1957 320.773 42.9001C321.155 42.6045 321.69 42.812 322.136 42.6812L322.262 42.9285L322.338 42.6585L322.503 42.5277C322.816 42.8376 323.001 42.7324 323.101 42.3458H323.727C324.037 42.2861 324.35 42.2407 324.655 42.1639C324.959 42.0872 325.281 42.0588 325.181 41.6125C325.534 42.0559 325.858 41.5898 326.194 41.567C326.455 41.5129 326.706 41.423 326.942 41.2998C327.13 41.5329 327.315 41.7432 327.474 41.2799L327.611 41.1264C327.673 41.162 327.742 41.1829 327.813 41.1874C327.884 41.1918 327.955 41.1799 328.02 41.1523C328.086 41.1248 328.144 41.0825 328.191 41.0287C328.237 40.9749 328.27 40.9111 328.288 40.8422C328.687 40.8422 329.022 40.4727 329.31 40.4841C330.303 40.521 331.176 40.0179 332.087 39.944C333.486 39.8673 334.864 39.5689 336.17 39.06C336.915 38.7502 337.743 38.3352 338.643 38.6451C338.907 38.736 339.3 38.7758 339.326 39.0373C339.351 39.2988 339.041 39.421 338.714 39.3983C338.199 39.3613 337.903 39.8587 337.456 40.0463C336.701 40.3925 335.926 40.6915 335.134 40.9417C334.229 41.189 333.347 41.5102 332.425 41.7035C332.186 41.4761 332.195 41.7774 332.098 41.8541C332.059 41.8659 332.019 41.8735 331.979 41.8768L331.848 41.783C331.848 41.82 331.822 41.8598 331.808 41.8967C331.563 42.0275 331.387 41.7973 331.176 41.7575C330.761 41.6722 330.567 41.7575 330.576 42.198C330.028 42.4501 329.441 42.605 328.84 42.6557C327.962 42.8027 327.103 43.0477 326.279 43.3861C325.64 43.6081 324.979 43.7633 324.307 43.8495C323.892 43.9262 323.474 43.9461 323.195 44.327C323.161 44.3811 323.116 44.4266 323.061 44.4597C323.007 44.4928 322.945 44.5126 322.882 44.5174C321.368 44.6353 319.883 45.0021 318.489 45.6032C317.763 45.8874 316.935 45.9585 316.155 46.1234C315.649 46.2314 315.139 46.3195 314.644 46.4588C314.539 46.49 314.479 46.6947 314.4 46.8197C313.324 46.851 312.351 47.2859 311.344 47.5815C310.732 47.3513 310.584 47.3797 310.43 47.7663C310.183 48.1329 309.861 48.0988 309.491 47.9738C309.281 47.8998 309.079 47.7663 308.857 47.9396C308.461 47.7776 308.071 47.627 307.926 48.2239C307.662 48.1301 307.502 48.1727 307.565 48.5081L307.34 48.6701C307.161 48.4598 306.982 48.1017 306.811 48.6701C306.77 48.6634 306.731 48.6539 306.691 48.6417C306.501 48.3916 306.364 48.5934 306.216 48.6986C306.007 48.6564 305.79 48.6939 305.607 48.8037C305.346 48.5707 305.183 48.6843 305.07 48.9572L304.663 48.9714C304.543 48.9515 304.483 49.0112 304.463 49.1221C303.798 49.0368 303.246 49.665 302.554 49.4262L302.409 49.1903L302.321 49.4489C302.276 49.4566 302.232 49.4699 302.19 49.4887C302.165 49.4684 302.135 49.454 302.104 49.4467C302.073 49.4393 302.04 49.4392 302.008 49.4463C301.977 49.4534 301.947 49.4676 301.922 49.4877C301.897 49.5079 301.877 49.5335 301.863 49.5626L301.413 49.7531C301.129 49.3722 301.086 49.8099 300.935 49.8895C300.628 49.6763 300.466 50.1738 300.178 50.043C299.581 49.682 299.325 50.1112 299.04 50.5234C297.822 50.3415 296.764 50.8417 295.677 51.2681C295.649 51.284 295.618 51.2939 295.586 51.2972C295.554 51.3005 295.522 51.2971 295.491 51.2871C295.461 51.2772 295.433 51.2611 295.409 51.2397C295.385 51.2183 295.366 51.1921 295.352 51.1629C295.352 51.0435 295.475 50.836 295.185 50.944L294.886 51.0037C294.718 50.89 294.547 50.7707 294.564 51.126H294.117C293.582 51.1007 293.054 51.2536 292.615 51.5608C291.998 51.5949 291.557 52.2743 290.865 52.0355C290.623 51.8252 290.424 51.9161 290.239 52.1179L289.923 52.0952C289.479 52.1947 288.936 52.1691 288.987 52.8655C288.516 52.9282 288.053 53.0465 287.61 53.2179C286.89 53.4766 286.054 53.4084 285.268 53.4794C284.984 53.3004 284.713 53.3089 284.54 53.6528C283.717 53.7211 283.171 54.3151 282.517 54.7017C282.269 54.4004 281.009 54.3094 280.809 54.588C280.758 54.659 280.784 54.7869 280.775 54.8864C280.442 54.9268 280.133 55.0816 279.902 55.3242C279.634 55.5112 279.328 55.6347 279.005 55.6851C278.251 55.9211 277.358 55.7988 276.729 56.4327C276.251 56.2195 275.764 55.9523 275.389 56.5947C275.104 56.805 274.857 57.1916 274.404 56.9159C274.069 56.7112 273.793 56.9756 273.488 57.0296L273.42 56.9955C273.42 56.9955 273.397 57.0097 273.386 57.0182H273.497C273.366 57.1888 273.48 57.365 273.48 57.5384C273.178 57.6975 272.834 57.4133 272.535 57.6208C272.074 57.6833 271.351 57.1006 271.277 58.1267C271.104 58.104 271.05 57.9534 270.964 57.8425L270.93 57.7288L270.791 57.8056H270.737L270.683 57.8283C270.236 57.8283 269.778 57.8056 269.45 58.2063L268.881 58.1779L268.898 58.0784C268.898 58.0955 268.864 58.1125 268.864 58.1296C268.864 58.1466 268.887 58.1609 268.898 58.1779L268.671 58.2291C268.406 58.2717 268.139 58.3143 268.033 58.6242C267.513 58.9084 266.938 58.8942 266.366 58.9084C266.333 58.8203 266.295 58.7339 266.252 58.6497C265.618 58.8516 264.921 58.7634 264.314 59.0875C263.851 59.281 263.33 59.2891 262.86 59.1102C262.479 58.9482 262.195 59.3262 261.836 59.2609C261.706 59.1937 261.557 59.1735 261.414 59.2035C261.271 59.2336 261.143 59.3121 261.051 59.4257L260.766 59.3888C260.706 59.2381 260.644 59.2239 260.576 59.3888C260.551 59.3886 260.527 59.3945 260.506 59.4059C260.485 59.4173 260.467 59.4339 260.453 59.4541C260.169 59.4541 259.733 58.8857 259.651 59.6645L259.235 59.6929C258.968 59.2495 258.649 59.1585 258.259 59.5508C257.562 59.6389 256.936 59.2665 256.268 59.2495C255.798 59.0733 255.223 59.4655 254.794 58.9652C254.754 58.9198 254.688 59.0932 254.705 59.1955C254.136 59.1585 253.636 59.511 252.953 59.3177C252.27 59.1244 251.337 59.0335 250.676 59.6531C250.497 59.8208 250.349 59.6929 250.187 59.7526C248.986 60.1903 247.779 60.6082 246.565 61.0061C246.241 61.0879 245.907 61.1167 245.575 61.0914C244.859 61.0756 244.162 61.3178 243.611 61.7735C243.476 61.8458 243.323 61.8783 243.17 61.8673C242.392 61.9703 241.657 62.2817 241.042 62.7684C240.695 63.0185 240.262 62.8138 239.978 63.118C239.75 63.1038 239.556 63.1464 239.505 63.4022C239.488 63.5898 239.306 63.5386 239.221 63.6097C239.007 63.5045 238.876 63.5415 238.876 63.8087C238.307 63.6438 237.869 64.0929 237.314 64.0929C236.665 64.136 236.03 64.2979 235.439 64.5704C234.722 64.8547 233.951 64.687 233.308 65.0821C233.202 65.0646 233.094 65.0831 233 65.1347C232.906 65.1862 232.832 65.2678 232.79 65.3663C232.221 65.5084 231.638 65.6193 231.165 66.0087L231.057 65.8381L230.946 65.9973L230.844 65.9689C230.431 65.8353 230.084 65.8751 229.888 66.3242C229.843 66.3364 229.797 66.3459 229.751 66.3526C229.023 66.3526 228.511 66.7761 228.044 67.2565C227.785 67.5095 227.532 67.0717 227.273 67.2565C226.877 67.0035 226.67 67.6118 226.3 67.4697C225.924 67.9983 225.4 68.1007 224.803 67.9955C224.733 67.9369 224.651 67.8958 224.562 67.8756C224.473 67.8555 224.381 67.8569 224.293 67.8797C224.205 67.9026 224.124 67.9462 224.056 68.0069C223.988 68.0676 223.936 68.1436 223.904 68.2286C223.722 68.6862 223.309 68.4872 223.05 68.4531C222.456 68.3978 221.857 68.4675 221.292 68.6578C220.942 68.7629 220.54 68.8852 220.199 68.6095C220.096 68.5309 219.974 68.4806 219.845 68.4637C219.716 68.4467 219.585 68.4636 219.465 68.5128C218.099 68.979 216.702 68.2996 215.322 68.6663C215.037 68.7402 214.753 68.0978 214.269 68.1547C214.044 68.0097 213.82 67.8051 213.62 68.1859C213.575 68.1919 213.53 68.2064 213.49 68.2286C213.296 68.1092 213.128 68.1092 213.014 68.3366C212.818 68.2542 212.642 68.0524 212.397 68.2002C211.981 67.8107 211.686 68.3593 211.316 68.3394C211.253 68.2996 211.162 68.2115 211.128 68.2286C210.237 68.6919 209.421 68.4929 208.584 68.041C208.459 67.9728 208.146 68.0808 207.921 68.041C207.392 67.2963 206.692 67.6573 206.035 67.7567C205.978 67.6175 205.858 67.5919 205.73 67.5777C205.42 67.4071 205.107 67.2366 204.908 67.7169C204.463 67.6973 204.023 67.6238 203.596 67.4981C203.302 67.399 202.991 67.36 202.682 67.3834C202.372 67.4069 202.071 67.4923 201.795 67.6345C201.712 67.68 201.564 67.7368 201.51 67.6999C200.91 67.1911 200.199 67.6772 199.519 67.4924C199.186 67.3986 198.634 67.7454 198.15 67.5663C197.464 67.0433 196.588 67.2821 195.837 66.9978C195.791 66.9808 195.671 67.1627 195.586 67.2536C195.27 67.1456 194.977 66.8671 194.647 67.302C194.479 67.5237 194.451 67.2252 194.394 67.1144C194.241 66.9378 194.044 66.8046 193.824 66.7283C193.603 66.6519 193.366 66.6351 193.136 66.6795L193 66.6482C192.94 66.4919 192.869 66.472 192.781 66.6255C192.564 66.7107 192.408 66.4009 192.149 66.5686C191.6 66.9296 191.045 66.6539 190.499 66.5004C190.083 65.8296 189.451 66.4066 188.948 66.2304C188.825 66.0996 188.589 66.2304 188.492 66.0343C188.578 65.9092 188.726 65.75 188.492 65.679C188.086 65.5653 187.639 65.2128 187.258 65.7244C186.358 65.3436 185.471 64.9428 184.463 64.9172C184.27 64.9172 184.059 64.7125 183.894 64.5591C183.442 64.1327 182.813 64.2578 182.304 64.019C182.284 63.8968 182.272 63.6666 182.244 63.6666C181.732 63.589 181.23 63.4546 180.747 63.2658C180.463 63.1748 180.275 63.3908 180.249 63.6978C179.797 63.6722 179.319 63.7262 179.228 63.0668C179.191 62.7826 178.875 62.8934 178.716 62.9417C178.491 63.0043 178.337 63.0299 178.243 62.7854C177.996 62.6518 178.055 61.8361 177.475 62.4415H177.219C177.176 62.035 176.971 61.8247 176.542 61.873C176.283 61.7764 176.109 62.3249 175.816 61.9697C175.762 61.5916 175.463 61.4296 175.165 61.3074C174.914 61.2022 174.553 60.8753 174.482 61.495C173.844 61.188 173.508 60.4632 172.715 60.3268C172.478 60.287 172.299 59.7583 172.262 59.366C172.507 58.7578 171.935 58.6327 171.653 58.3371C171.454 58.0926 170.922 58.0159 171.272 57.4844C171.355 57.3593 171.11 57.149 171.005 57.2001C170.452 57.3963 169.994 57.0012 169.477 57.004C168.759 57.004 168.133 56.535 167.405 56.5663C167.18 56.0603 166.788 55.9978 166.31 56.1484C166.253 56.0831 166.199 56.0177 166.142 55.9552C166.142 55.9125 166.122 55.8727 166.113 55.8329L165.977 55.9381C165.336 55.7505 164.87 55.2758 164.332 54.9234C163.254 54.2128 162.312 53.2521 160.917 53.1412C160.789 52.6068 160.331 52.6523 159.942 52.5727C159.088 52.3993 158.052 52.4534 157.381 52.0043C156.339 51.2937 154.84 51.4585 154.12 50.2249C154.1 50.188 154.029 50.1794 153.983 50.1595C153.815 50.0373 153.699 49.8071 153.414 49.9236C153.401 49.9084 153.384 49.8968 153.365 49.8899C153.346 49.8829 153.326 49.8808 153.306 49.8838C153.226 49.736 153.144 49.7218 153.061 49.8838C152.956 49.8071 152.993 49.5996 152.811 49.5996C152.774 49.3779 152.771 49.1334 152.481 49.0624C152.076 48.7216 151.65 48.4083 151.203 48.1244C150.264 47.6042 150.577 46.419 149.9 45.7851C150.213 45.4838 149.715 45.0035 150.142 44.7164C150.239 44.651 150.375 44.4577 150.355 44.4321C149.897 43.8466 150.458 43.4515 150.717 43.1616C150.976 42.8717 151.217 42.5931 151.217 42.1554C151.217 42.0815 151.192 41.9081 151.354 41.9564C151.923 42.1184 151.835 41.5841 152.284 41.243C151.064 41.4619 150.902 40.4841 150.33 40.0606C150.045 39.8389 149.832 39.6058 149.376 39.7763C149.809 38.8326 148.83 38.6195 148.523 38.6394C147.629 38.736 147.518 37.9288 147.1 37.5706C146.394 36.9652 145.609 36.8458 144.792 36.7776C144.625 36.7634 144.46 37.1244 144.508 36.6412C144.508 36.5928 144.38 36.482 144.36 36.4905C143.757 36.8259 143.247 36.3683 142.695 36.3001C142.306 36.2518 141.842 36.3626 141.728 35.797C141.708 35.6918 141.631 35.6861 141.563 35.7117C140.738 36.0357 140.351 35.291 139.79 34.9784C139.426 34.7737 139.178 34.4099 138.615 34.6373C138.413 34.7226 137.981 34.3189 137.682 34.1029C137.621 34.0469 137.544 34.0131 137.462 34.0069C137.379 34.0007 137.298 34.0225 137.229 34.0688C137.892 34.7965 138.296 35.6463 138.979 36.3655C139.548 36.9624 140.26 37.4143 140.749 38.1391C141.344 39.1005 141.998 40.0242 142.707 40.9047C143.338 41.6857 144.089 42.362 144.932 42.9086C145.216 43.0706 145.364 43.7358 145.672 43.9546C146.548 44.5743 146.67 45.6601 147.379 46.3678C148.211 47.2626 149.2 47.9968 150.298 48.5337C150.363 48.5712 150.415 48.6265 150.449 48.6929C150.837 49.384 151.435 49.9336 152.156 50.2619C152.236 50.296 152.142 50.7934 152.441 50.9725C152.395 51.1686 152.543 51.2283 152.677 51.2965C152.708 51.7285 153.246 51.811 153.317 52.2203C153.44 52.7234 153.471 53.2606 153.886 53.6415C154.393 54.6477 153.502 56.5322 152.41 56.7027C152.07 56.7859 151.742 56.9079 151.431 57.0665C150.891 57.2919 150.294 57.3416 149.724 57.2087H148.472C147.376 57.3963 146.397 56.8221 145.342 56.7368C145.342 56.3019 145.094 56.518 144.909 56.5805C144.865 56.5553 144.818 56.5353 144.77 56.5208C144.451 56.1655 144.258 56.0831 143.95 56.1712C143.62 56.2279 143.28 56.1884 142.971 56.0575C142.86 55.6027 142.468 55.58 142.118 55.489C142.104 55.4751 142.088 55.4641 142.07 55.4567C142.051 55.4494 142.032 55.4459 142.013 55.4464C141.924 55.2844 141.859 55.3327 141.802 55.4691C141.421 54.8779 140.576 54.7443 140.348 54.0053C140.009 52.9081 138.843 52.695 138.183 51.9559C137.801 51.5267 137.073 51.3732 137.079 50.6257C136.774 50.2533 136.538 49.773 135.918 49.9009C135.198 49.8469 135.164 49.0993 134.811 48.7042C134.336 48.1699 133.673 48.0221 133.175 47.5673C132.924 47.3399 132.606 47.2376 132.537 46.8396C132.43 46.3649 132.145 45.949 131.741 45.6771C130.975 45.0575 130.195 44.452 129.422 43.8409C129.362 43.659 129.336 43.4288 129.043 43.5794C129.029 43.5646 129.012 43.5536 128.992 43.5476C128.973 43.5416 128.952 43.5408 128.932 43.5453C128.878 43.1588 128.591 43.0451 128.263 42.9768C127.293 42.937 126.73 42.2066 125.987 41.7262C125.21 41.2174 124.593 40.214 123.403 40.5892C123.048 40.7001 122.997 40.2339 122.726 40.1799C122.055 40.0435 121.38 39.5802 120.794 39.6115C120.017 39.6541 119.371 39.367 118.7 39.2107C117.53 38.9264 116.341 38.9264 115.172 38.7929C114.136 38.6621 113.043 38.9435 111.982 39.0941C110.772 39.2659 109.598 39.6346 108.508 40.1856C108.087 40.396 107.449 40.1202 107.019 40.4471C106.274 41.0156 105.329 40.7712 104.487 41.1122C103.779 41.3965 102.959 41.6296 102.179 41.8683C101.67 42.0275 101.041 41.8683 100.472 41.9678C99.2515 42.181 97.9995 42.2236 96.7874 42.5363C96.5796 42.65 96.1955 42.306 96.1272 42.7836L95.8427 42.8404C95.6406 42.7011 95.4585 42.6386 95.3646 42.9541H95.3191H95.2451C94.9947 42.8802 94.8951 42.9939 94.8951 43.2383C93.9135 43.0991 92.9688 43.5226 91.99 43.4402L91.8278 43.4259L91.216 43.4402C90.7949 43.4259 90.3624 43.2781 89.9555 43.5112C89.3999 43.674 88.8113 43.6887 88.2482 43.5538C87.3149 43.3776 86.3361 43.4487 85.3801 43.3634C84.7085 43.3009 84.0427 43.1502 83.3883 43.0337C83.2944 43.0166 83.1549 42.9086 83.1208 42.937C82.398 43.5851 81.6981 42.9996 80.9697 42.937C79.9567 42.8575 79.0689 42.3885 78.1242 42.1241C77.3047 41.8996 76.5109 41.5926 75.7085 41.3368C74.8321 41.0525 73.876 40.8564 73.1305 40.2396C72.9745 40.0745 72.8388 39.8913 72.7265 39.6939C72.5813 39.1624 72.1403 39.4409 71.8301 39.3699L71.6879 39.3329C71.611 39.0742 71.6281 38.6536 71.1842 39.0487H71.1188H71.0562C70.915 38.9612 70.7543 38.91 70.5885 38.8996C70.4227 38.8891 70.2569 38.9199 70.1058 38.989H70.0347L69.9664 39.006C69.97 38.9824 69.9647 38.9583 69.9516 38.9384C69.9384 38.9184 69.9184 38.9041 69.8953 38.898C69.6107 38.9577 69.6619 37.8378 69.1811 38.7104C68.5455 38.7567 67.907 38.6805 67.3002 38.4859C66.7055 38.2528 66.2133 38.7388 65.6413 38.7957C65.1272 38.8903 64.6047 38.9322 64.0821 38.9208C63.8702 38.8741 63.651 38.8715 63.438 38.913C63.2251 38.9546 63.023 39.0395 62.8443 39.1624C62.648 39.3158 62.1984 39.3016 61.8256 39.2675C60.7102 39.1595 59.6034 39.0686 58.4709 39.3926C57.5433 39.6598 56.5275 39.6228 55.5515 39.7195C55.3893 39.6115 55.2925 39.6797 55.2328 39.8389C53.5995 39.7877 51.9549 39.9213 50.3415 39.5404C50.0257 39.4665 49.8578 39.927 49.5106 39.7991C49.3585 39.703 49.1754 39.6686 48.9987 39.7029C48.8221 39.7373 48.6652 39.8378 48.5603 39.9838C47.681 40.2368 46.7193 40.0947 45.8856 40.5779C45.6437 40.7171 45.4246 40.3846 45.1657 40.3874C44.9039 40.3476 44.5738 40.0662 44.4828 40.5921C44.4529 40.5779 44.4213 40.5674 44.3889 40.5608C44.2381 40.3988 44.147 40.4954 44.0702 40.6376C44.0446 40.6376 44.0133 40.6148 43.9962 40.6376C43.2223 41.1066 42.289 40.8621 41.4809 41.206C41.0967 40.9389 40.7154 41.0469 40.3427 41.2202C39.6194 41.5521 38.8274 41.707 38.0322 41.6722C37.4631 41.0355 37.2497 41.7205 36.894 41.9564L36.3079 41.8484C36.0233 41.8058 35.6677 41.4647 35.5254 42.0303C35.0331 42.2975 34.3701 41.8456 33.9433 42.4027L33.4852 42.0332L33.4539 41.9223L33.3202 42.0076L32.5804 42.1639C32.3385 41.9252 32.2361 42.1639 32.1052 42.306L31.6755 42.3231L31.8007 42.0843C31.6385 42.0843 31.4678 42.0246 31.3341 42.1668C31.1292 42.2179 30.9357 42.3657 30.7166 42.2208C30.6901 42.2003 30.6592 42.1862 30.6263 42.1795C30.5934 42.1728 30.5595 42.1738 30.527 42.1823C30.4946 42.1908 30.4646 42.2067 30.4392 42.2286C30.4139 42.2506 30.3939 42.278 30.3809 42.3089C30.2244 42.3089 30.0423 42.2151 29.9199 42.3998L29.1573 42.6386C28.9951 42.6784 28.8073 42.6613 28.7078 42.8432C28.4431 42.9001 28.1387 42.6386 27.9025 42.9257C27.885 42.9121 27.8635 42.9047 27.8413 42.9047C27.8192 42.9047 27.7976 42.9121 27.7801 42.9257H27.598C27.4444 42.9712 27.2509 42.758 27.1371 42.974C27.1239 43.0025 27.1169 43.0335 27.1166 43.0649C27.1163 43.0963 27.1227 43.1274 27.1353 43.1562C27.148 43.1849 27.1666 43.2107 27.19 43.2317C27.2133 43.2527 27.2409 43.2685 27.2708 43.2781C27.1627 43.4998 27.046 43.7102 26.7899 43.4288C26.7165 43.3366 26.6125 43.2736 26.4967 43.2512C26.3809 43.2288 26.2609 43.2484 26.1583 43.3066C25.2648 43.9234 24.2661 43.6988 23.3128 43.7187C23.2389 43.5823 23.1734 43.5567 23.1193 43.7187L22.5161 43.8637C22.1405 43.5794 21.8588 43.8097 21.5714 44.0285L21.2698 44.0797C21.0991 44.0314 20.9284 43.9887 20.8373 44.2076C20.089 44.3781 19.4146 44.7022 18.561 44.7135C17.7073 44.7249 16.6944 44.6993 15.8237 45.1029C15.4708 44.7192 15.2261 44.8841 15.027 45.2621C14.5518 45.2621 14.0396 45.1882 13.6896 45.5805C13.425 45.8789 13.2429 45.4071 13.0266 45.5805C12.7849 45.5299 12.535 45.533 12.2946 45.5895C12.0541 45.6459 11.8291 45.7544 11.6352 45.9073C11.4244 45.8673 11.2061 45.9046 11.0206 46.0125C10.5995 45.7737 10.2865 46.1404 9.91658 46.2029C9.11986 46.6321 8.20933 46.4502 7.37846 46.6037C6.8951 46.6655 6.4088 46.7015 5.92161 46.7117C5.89884 46.7117 5.87039 46.7544 5.85901 46.7487C4.70377 46.1546 3.44324 46.7799 2.27377 46.436C1.98923 46.3536 1.65916 46.2058 1.63925 45.8675C1.63925 45.5833 1.92379 45.4924 2.15427 45.3843C2.5197 45.171 2.92982 45.0454 3.35219 45.0177C3.70218 45.5236 4.12045 45.0376 4.50459 45.1001L4.78913 45.1456L4.90864 45.2223V45.1086C5.52609 44.6169 6.27729 44.7931 6.94596 44.8244C7.2305 44.8244 7.50082 44.759 7.77682 44.796C8.34591 45.2309 8.7585 44.8841 9.16539 44.5117C9.57229 44.1394 10.0446 44.0484 10.5881 44.0712C10.8726 44.0712 11.2027 44.2332 11.4417 43.9262C11.5868 44.2104 11.7092 44.1081 11.8259 43.9006C12.3428 43.9341 12.8616 43.8783 13.3595 43.7358C13.4534 43.767 13.5331 43.8722 13.6441 43.7926L14.1278 43.7443C14.6314 43.8551 14.3896 43.46 14.4437 43.2753C14.5802 43.3265 14.7424 43.4515 14.8505 43.4146C15.7241 43.1445 16.6403 43.1872 17.5281 43.0166C17.7889 43.0671 18.0584 43.0467 18.3086 42.9578C18.5588 42.8688 18.7806 42.7144 18.9508 42.5107L20.4247 42.3743C20.6032 42.4912 20.8191 42.5371 21.0298 42.5029C21.2404 42.4687 21.4307 42.3569 21.5629 42.1895C21.5828 42.1184 21.6767 42.0474 21.5629 41.9763H21.58C22.0337 42.0549 22.4957 42.0741 22.9543 42.0332C23.2815 42.0872 23.6799 42.3458 23.7766 41.7489H24.0327C24.0327 41.8626 24.0327 42.0047 24.2035 42.0104C24.3742 42.0161 24.4538 41.8996 24.5136 41.7603C24.8437 41.8257 25.1197 41.6097 25.4327 41.5869C25.74 41.9081 25.868 41.5556 26.0587 41.4277C26.1077 41.4206 26.1576 41.4206 26.2066 41.4277C26.6021 41.874 26.6306 41.3027 26.8298 41.206H26.9863C27.5952 41.4562 27.9992 41.2657 28.2013 40.6376C28.6935 40.1146 29.2825 40.558 29.8203 40.4983C30.3581 40.4386 30.8731 40.4983 31.3255 40.1885C31.6471 39.9611 31.9458 40.1032 32.256 40.1885C32.5662 40.2737 32.9787 40.5381 33.2405 40.0407L33.4824 40.0264C33.9263 40.3107 34.262 40.2084 34.4897 39.7422C34.9335 39.4978 35.4514 39.6626 35.8839 39.6626C36.4633 39.6614 37.0407 39.5956 37.6054 39.4665C38.2399 39.3244 38.9541 39.5518 39.6342 39.6115C39.7577 39.6152 39.8813 39.6104 40.0041 39.5972C40.4992 39.8104 40.7695 39.7109 40.6756 39.114C41.037 39.4295 41.3898 39.4295 41.8451 39.2419C42.2548 39.0742 42.8837 39.1453 43.1625 39.0032C43.7515 38.6991 44.3007 39.0544 44.8185 38.8128C45.0746 39.0316 45.2397 38.9378 45.3478 38.6564C45.8779 38.482 46.4455 38.4554 46.9896 38.5797C47.2058 38.5285 47.5814 38.6394 47.3908 38.1789C47.6526 38.3836 47.8262 38.2841 47.9599 38.014L48.2444 37.9742C48.694 38.4461 49.209 38.0226 49.6216 37.9742C50.3899 37.8606 51.1638 37.6332 51.9321 37.69C52.8113 37.7668 53.7646 37.852 54.5186 38.2585C55.4206 38.7332 56.1206 38.3324 56.8718 38.1107C57.1563 38.0283 57.3896 37.8492 57.7254 37.906C58.7839 38.0908 59.7741 37.7696 60.8013 37.5706C61.4724 37.4753 62.1525 37.4601 62.8272 37.5252C63.1118 37.5934 63.3764 37.6218 63.476 37.2409C63.5193 37.2308 63.5649 37.2368 63.604 37.258C64.0564 37.727 64.415 37.5564 64.7422 37.0903C64.8361 36.9226 65.004 36.9425 65.1576 36.9282L65.2202 37.0448L65.3454 36.9311C65.4792 36.9766 65.6129 37.059 65.7523 36.9311C65.8832 37.0874 66.0141 37.1301 66.145 36.9311C66.1658 36.9334 66.1869 36.9304 66.2063 36.9225C66.2257 36.9145 66.2428 36.9019 66.256 36.8856C66.825 36.9652 67.3742 37.0931 67.801 36.5644C68.3222 36.5424 68.8443 36.5585 69.3632 36.6127C69.9749 36.7236 70.305 35.8766 69.7701 35.2825C69.4058 34.8732 69.7245 34.714 69.7871 34.4497C69.8298 34.2791 69.9778 34.2251 70.1428 34.3587C70.3847 34.552 70.8826 34.5549 70.6578 35.0892C70.6322 35.1461 70.7403 35.2626 70.7859 35.3507C70.692 35.6151 70.8485 35.7401 71.0704 35.8339C71.0704 35.9334 71.0704 36.0301 71.0704 36.1182C71.0015 36.2882 70.9951 36.4772 71.0524 36.6515C71.1097 36.8258 71.227 36.9742 71.3834 37.0704C71.466 37.1776 71.5726 37.2641 71.6946 37.3228C71.8167 37.3816 71.9508 37.4109 72.0862 37.4086C72.2051 37.6066 72.3814 37.7638 72.5918 37.8593C72.8023 37.9547 73.0368 37.9839 73.2642 37.943C73.9128 38.5022 74.653 38.9454 75.4524 39.2533C76.2206 39.5774 76.9633 39.9525 77.7287 40.2766C78.147 40.4556 78.5823 40.72 79.1059 40.6319C80.079 40.4642 80.9526 41.0412 81.9115 41.0753C82.0907 41.0753 82.2757 41.1577 82.3924 41.0042C82.509 40.8507 82.418 40.72 82.3212 40.5807C82.0993 40.2794 82.0737 39.8985 81.8489 39.5774C81.5359 39.1283 82.0765 38.7246 82.1334 38.2585C82.1477 38.1334 82.3838 38.1761 82.3696 38.3494C82.3383 38.7559 82.8049 39.0202 82.6541 39.4864C82.6422 39.5584 82.6465 39.6321 82.6667 39.7023C82.687 39.7724 82.7228 39.8371 82.7713 39.8916C82.8199 39.9461 82.8801 39.9891 82.9474 40.0173C83.0148 40.0456 83.0876 40.0584 83.1606 40.0549C83.7866 40.089 83.7468 40.8109 83.9943 41.2373C83.7525 41.4704 83.9147 41.5215 84.1338 41.5215L84.7484 41.496C84.8622 41.5358 84.902 41.496 84.8992 41.3766C85.6902 41.351 86.4955 41.4818 87.258 41.1492C87.3007 41.1293 87.3775 41.0867 87.3861 41.098C88.1885 42.0701 89.2299 41.3197 90.1461 41.4647C91.1563 41.6267 92.1721 41.351 93.1794 41.2231C93.5692 41.1719 93.9846 41.0213 93.4639 40.5438C93.3379 40.4209 93.2573 40.2591 93.2351 40.0847C93.2128 39.9103 93.2504 39.7335 93.3415 39.583C93.4411 39.3841 93.9106 39.637 93.9903 39.6171C94.8951 39.4352 94.8155 40.3107 94.8439 40.5892C94.8752 41.0952 95.1143 40.8735 95.3191 40.8962L95.3789 41.1606L95.635 40.7655L95.7915 40.7115C96.0049 40.9957 96.204 40.7456 96.4118 40.6972C96.9808 40.5807 97.4731 40.1487 98.1048 40.2879C98.2499 40.3533 98.2556 40.2425 98.2812 40.1544C98.3694 40.1316 98.4775 40.1202 98.4121 39.981C98.3865 39.7422 98.6739 39.6143 98.6056 39.3443C98.5723 39.2488 98.5613 39.147 98.5733 39.0466C98.5853 38.9463 98.62 38.8499 98.6749 38.765C98.7298 38.68 98.8033 38.6087 98.8899 38.5564C98.9765 38.5041 99.0739 38.4722 99.1747 38.4631C99.721 38.3807 99.775 39.1112 99.7637 39.2533C99.684 40.2283 100.227 39.9213 100.748 39.8559C102.325 39.6598 103.83 39.0714 105.44 39.0487C105.799 39.0487 106.152 38.7644 106.507 38.6053C106.869 38.4944 107.361 38.7985 107.594 38.2812L108.354 38.0766C108.565 38.1448 108.684 38.051 108.744 37.852C109.313 37.5678 109.822 37.1244 110.508 37.0135C110.861 36.9567 111.077 36.3313 111.578 36.7549C112.079 37.1784 112.542 36.7833 113.023 36.8515C113.877 36.4365 114.731 36.7577 115.584 36.8515C116.485 36.9632 117.391 37.0183 118.299 37.0164C118.765 37.0164 119.11 37.2637 119.528 37.3432C120.692 37.5678 121.887 37.7753 122.997 38.0879C124.397 38.4985 125.725 39.1258 126.932 39.9469C127.666 40.4386 128.485 40.7996 129.08 41.4817C129.365 41.8172 130.042 41.5244 130.232 41.9564C130.691 42.9939 131.516 43.6192 132.469 44.0939C133.28 44.4975 133.607 45.3474 134.25 45.8789C134.251 45.9213 134.26 45.963 134.278 46.0016C134.295 46.0401 134.321 46.0746 134.352 46.1029C134.384 46.1312 134.421 46.1527 134.461 46.166C134.501 46.1793 134.544 46.1841 134.586 46.1802C134.626 46.4787 134.87 46.5753 135.087 46.7146C135.095 46.7254 135.105 46.7343 135.117 46.7407C135.129 46.7471 135.142 46.7508 135.155 46.7515L135.642 47.0358C135.829 47.6213 136.379 47.8544 136.817 48.1585C137.392 48.5425 137.924 48.9865 138.405 49.4831C138.749 49.8526 139.281 49.8042 139.631 50.2988C140.2 51.1231 140.803 51.973 141.719 52.5727C142.903 53.3316 144.073 54.0735 145.433 54.4743C145.877 54.6256 146.292 54.8525 146.659 55.1451C147.402 55.6965 148.204 55.7136 149.018 55.7988C149.294 55.8354 149.561 55.9252 149.803 56.0632C150.031 56.1769 150.167 56.0262 150.236 55.8699C150.347 55.6169 150.082 55.7136 149.985 55.6425C149.001 54.9404 147.769 54.6391 146.946 53.6528C146.195 52.749 146.229 51.9275 147.197 51.1999C147.45 51.0094 147.646 50.7593 147.908 50.566C148.415 50.1937 148.54 49.8213 147.854 49.3523C146.958 48.7384 146.474 47.7293 145.862 46.8425C144.939 45.4366 143.826 44.1653 142.553 43.065C141.731 42.36 140.798 41.6438 140.49 40.4755C140.547 40.1458 140.206 40.1487 140.072 39.9895C140.071 39.9076 140.053 39.8268 140.021 39.7518C139.988 39.6768 139.94 39.6091 139.881 39.5527C139.822 39.4963 139.751 39.4523 139.675 39.4233C139.598 39.3944 139.516 39.381 139.435 39.3841C138.786 39.0202 138.456 38.3182 137.861 37.8975C137.793 37.8707 137.721 37.8572 137.648 37.8577C137.759 37.673 137.853 37.491 137.585 37.3518C137.451 37.1727 137.446 36.8344 137.081 36.9425V36.9084C137.13 36.7975 137.19 36.6582 137.01 36.6469C136.885 36.6469 136.928 36.7918 136.908 36.8799C136.293 37.0647 135.829 37.5223 135.337 37.8748C134.845 38.2272 134.199 38.2528 133.707 38.5854C133.991 37.6417 134.725 37.1869 135.494 36.7691C135.778 36.6071 136.125 36.445 136.159 36.121C136.179 35.9164 135.861 35.7714 135.639 35.635C135.235 35.3877 135.115 35.7515 134.896 35.9192C134.513 36.2091 134.113 36.4758 133.698 36.7179C134.808 35.0608 134.808 34.9329 133.698 33.9494C133.428 33.7164 133.186 33.4179 132.762 33.506C132.529 33.4236 132.748 32.9148 132.31 33.0285C131.92 32.3975 131.92 32.3975 131.524 32.5851C130.54 32.4003 129.945 31.5732 129.126 31.1241C128.446 30.7517 127.865 30.1719 127.051 30.0667C126.713 30.0241 126.576 29.7086 126.334 29.5381C125.335 28.8331 124.396 28.0799 123.287 27.5057C122.491 27.1405 121.823 26.5467 121.366 25.8003C121.112 25.4464 120.748 25.1865 120.33 25.0613C119.078 24.615 118.293 23.6913 117.63 22.6225C117.513 22.4378 117.448 22.1791 117.775 22.0541C118.171 21.9034 118.586 21.6419 118.913 22.1592C119.317 22.813 119.707 23.461 120.39 23.8902C121.414 24.5298 122.262 25.4649 123.292 26.0334C124.123 26.4939 124.823 27.2926 125.885 27.3722C126.129 27.3892 126.363 27.6933 126.585 27.8838C126.758 28.0287 126.869 28.2277 127.137 28.2618C127.99 28.3755 128.537 29.0662 129.239 29.4641C129.365 29.9559 129.837 29.7711 130.136 29.9246L130.383 29.9701C130.523 30.2742 130.71 30.4732 131.078 30.3027C132.102 30.3027 132.591 31.2577 133.402 31.6443C133.553 31.7351 133.724 31.7869 133.9 31.7949C135.018 31.7636 136.06 32.136 137.133 32.3634C138.06 32.5453 138.92 32.8835 139.824 33.0996C141.361 33.4634 142.88 33.9125 144.397 34.3644C145.31 34.6487 146.246 34.7822 146.878 35.5895C146.907 35.6264 146.964 35.6776 147.003 35.6748C148.409 35.5611 149.026 36.752 149.971 37.4228C150.774 37.9913 151.678 38.4376 152.512 38.952C153.528 39.5717 154.769 39.7763 155.642 40.72C155.987 41.0197 156.416 41.2054 156.871 41.2515C157.241 41.3325 157.586 41.5022 157.876 41.7461C158.16 42.09 158.47 42.4425 159.014 42.1753C159.162 42.2094 159.392 42.1923 159.441 42.2805C159.771 42.866 160.374 42.829 160.889 43.0507C162.443 43.7187 164.178 43.9774 165.527 45.1399C166.075 45.544 166.704 45.8251 167.371 45.9642C168 46.1376 168.384 46.7203 168.93 47.0613C169.372 47.3612 169.871 47.5673 170.396 47.6668C171.391 47.8288 172.35 47.8714 173.241 47.32C173.388 47.2496 173.513 47.1398 173.601 47.0028C173.69 46.8658 173.738 46.707 173.742 46.544C173.708 46.1518 173.355 46.2172 173.073 46.22C172.847 46.2201 172.623 46.169 172.419 46.0706C172.215 45.9721 172.036 45.8289 171.895 45.6515C171.124 44.6823 170.071 44.1763 168.981 43.7215C168.091 43.3492 167.61 41.7319 168.188 40.9588C168.395 40.7017 168.585 40.4311 168.757 40.1487C168.916 39.8644 168.703 39.8644 168.503 39.8644C168.293 39.4068 167.934 39.4551 167.55 39.5802C166.438 39.2562 165.624 38.3182 164.466 38.0794C164.44 38.0794 164.44 37.9373 164.426 37.8634C164.298 37.366 164.195 36.8231 163.498 37.3404C163.288 37.2523 163.404 37.0732 163.384 36.9339C163.407 36.9197 163.436 36.914 163.45 36.8941C163.455 36.8844 163.457 36.8737 163.457 36.8629C163.457 36.852 163.455 36.8413 163.45 36.8316C163.359 36.6802 163.239 36.5487 163.096 36.4451C162.954 36.3415 162.791 36.268 162.619 36.229C162.625 36.2143 162.624 36.198 162.618 36.1836C162.611 36.1693 162.6 36.158 162.585 36.1523C162.585 36.0471 162.568 35.9675 162.44 35.9732C162.283 35.689 162.195 35.8879 162.096 36.0187C161.768 35.8908 161.774 35.3934 161.361 35.3621C161.077 34.8789 161.077 34.8789 160.707 35.0381L160.28 34.8931C160.28 34.6089 160.132 34.5009 159.913 34.6401C159.694 34.7794 159.566 34.9983 159.836 35.2342C159.862 35.9021 159.5 36.4735 159.361 37.0959C159.264 37.5337 158.832 37.5763 158.616 37.8776C158.473 38.0794 158.331 37.7298 158.288 37.6189C158.166 37.1556 157.916 36.7009 158.098 36.1978C158.448 36.0983 158.439 35.7373 158.607 35.5014L158.658 35.4502C158.943 35.3337 158.829 35.1091 158.806 34.9102C159.375 34.1711 159.375 33.958 158.285 33.5202C157.105 33.0512 156.328 32.0507 155.249 31.4822C154.006 30.8257 153.178 29.6262 151.835 29.0463C151.317 28.8246 150.495 28.4977 150.233 27.7275C150.162 27.52 149.926 27.4745 149.715 27.4432C149.638 27.0026 149.633 26.4796 148.927 26.7326C148.819 26.5665 148.692 26.4138 148.548 26.2778C147.863 25.7833 147.621 25.8998 147.49 26.7213C147.345 27.6251 146.821 28.3272 146.204 28.9667C146.172 28.9865 146.137 28.9994 146.1 29.0048C146.064 29.0102 146.026 29.0079 145.99 28.998C145.931 28.998 145.888 28.9468 145.939 28.8417C146.406 27.9008 146.429 26.7895 147.063 25.9112C147.254 25.9851 147.473 26.0476 147.555 25.8032C147.578 25.7161 147.568 25.6238 147.526 25.544C147.484 25.4643 147.415 25.4027 147.331 25.3711C147.08 25.3285 146.884 25.0073 146.585 25.2119C145.956 25.0897 145.655 25.4962 145.461 25.9737C145.177 26.707 144.69 27.3324 144.343 28.0032C144.044 26.6616 144.186 25.482 145.675 24.7913C144.875 24.6179 144.332 24.0324 143.515 23.8476C142.593 23.6401 141.671 23.3161 140.758 23.0148C139.301 22.5344 137.887 21.8636 136.322 21.7386C135.969 21.7101 135.619 21.6419 135.266 21.5907C135.323 21.3065 135.172 21.2838 134.959 21.3065H134.646C134.506 21.1416 134.361 21.0223 134.168 21.2383L133.994 21.1132C133.994 21.0734 133.994 21.0365 133.98 20.9967L133.843 21.0706C132.662 21.0251 131.598 20.5021 130.471 20.2463C129.746 20.0758 129.006 19.9621 128.275 19.8228C127.583 19.7297 126.927 19.4616 126.368 19.044C126.263 18.9587 126.027 18.899 126.144 18.7114C126.189 18.6513 126.248 18.6026 126.316 18.5691C126.383 18.5356 126.458 18.5181 126.533 18.5181C127.448 18.5888 128.357 18.7217 129.254 18.9161C131.638 19.5442 133.994 20.2548 136.467 20.5249C137.096 20.5931 137.784 20.8091 138.385 20.8091C139.406 20.8489 140.191 21.9091 141.278 21.3776C141.446 22.0853 142.132 21.7158 142.499 21.946C142.866 22.1763 143.313 22.1962 143.737 22.2843C144.303 22.434 144.851 22.6466 145.37 22.9181C147.148 23.7225 148.728 24.8709 150.463 25.7406C151.115 26.0675 151.377 26.852 151.952 27.3494C152.67 27.9685 153.422 28.5474 154.205 29.0833C154.567 29.3334 154.677 29.8365 155.204 29.899C156.567 30.0639 157.304 31.4197 158.681 31.7011C159.372 31.8432 160.078 32.4259 160.647 32.9972C160.824 33.4833 161.051 33.8499 161.635 33.435L162.158 33.8386C162.374 34.4326 162.386 34.4412 163.034 34.4326C163.527 34.751 163.922 35.1688 164.489 35.4275C164.975 35.6492 165.265 36.3001 165.644 36.7605C166.032 37.1728 166.523 37.4749 167.066 37.636C167.101 37.6583 167.142 37.6711 167.183 37.673C167.718 38.1647 168.301 38.5427 169.081 38.4404C170.455 38.9897 171.799 39.6141 173.104 40.3107C173.654 40.5949 174.664 40.6859 174.729 41.6921C174.741 41.7336 174.761 41.7723 174.789 41.8058C174.816 41.8393 174.85 41.867 174.888 41.8872C174.926 41.9073 174.968 41.9196 175.011 41.9232C175.054 41.9268 175.098 41.9216 175.139 41.9081C175.367 41.8172 175.406 41.9564 175.423 42.1241C175.495 43.0053 176.485 43.5112 177.131 42.9143C177.482 42.6027 177.884 42.3537 178.32 42.1781C178.767 41.9905 178.67 41.7347 178.405 41.6097C177.751 41.2998 177.222 40.8138 176.638 40.4102C175.33 39.5034 173.861 38.6792 173.861 36.7577C173.852 36.4066 173.979 36.0654 174.216 35.8062C174.454 35.5469 174.782 35.3897 175.133 35.3678C175.381 35.3507 175.759 35.4076 175.813 35.1518C175.867 34.8959 175.583 34.751 175.278 34.6742C174.883 34.5719 174.709 34.1342 174.334 33.9238C172.795 33.0822 171.338 32.0982 169.983 30.9848C169.67 30.7176 169.212 30.7006 168.89 30.3822C168.725 30.2174 168.392 30.3595 168.279 30.6665C168.24 30.8389 168.183 31.0066 168.108 31.1667C168.052 31.2653 167.968 31.3451 167.867 31.3957C167.765 31.4464 167.651 31.4656 167.539 31.451C167.223 31.3856 167.368 31.1213 167.379 30.9479C167.408 30.7074 167.453 30.4691 167.513 30.2344C167.772 30.2685 167.857 30.1293 167.846 29.8962C167.835 29.6631 167.721 29.5921 167.507 29.6347L167.2 29.6631C167.18 29.5552 167.123 29.4576 167.039 29.387C166.955 29.3164 166.849 29.2774 166.739 29.2766C166.514 29.2766 166.455 29.5608 166.386 29.7853C166.053 31.0218 166.253 30.6381 165.194 31.775C165.012 31.6585 165.268 31.5675 165.217 31.4652C164.736 30.5101 165.299 29.8393 165.863 29.1913C166.059 28.9639 165.823 28.9298 165.749 28.8758C165.052 28.3118 164.317 27.7961 163.549 27.3324C163.18 27.122 162.696 26.8094 162.155 26.7866C161.902 26.7866 161.504 26.292 161.435 26.0902C161.299 25.6923 160.991 25.661 160.772 25.5758C159.276 25.0073 158.166 23.8106 156.763 23.0773C156.408 22.8897 156.356 22.2871 155.884 22.0654C155.412 21.8437 155.141 21.5822 154.771 22.2672C154.433 22.8982 154.023 23.5946 153.223 23.8618C153.149 23.2052 153.932 21.9404 154.646 21.5083C154.592 21.3008 154.362 21.3037 154.245 21.1957C153.98 20.9768 153.676 20.4481 153.482 20.5789C153.111 20.8772 152.827 21.27 152.66 21.7158C152.552 21.983 152.506 22.2843 152.114 22.3639C151.889 22.4179 151.75 22.4719 151.596 22.2814C151.903 22.091 151.237 21.8125 151.701 21.5595C152.233 21.2752 152.344 20.6187 152.626 20.1184C152.646 20.0931 152.661 20.0635 152.668 20.0319C152.675 20.0003 152.676 19.9674 152.668 19.9357C152.661 19.904 152.647 19.8744 152.627 19.8489C152.607 19.8235 152.581 19.8029 152.552 19.7887C151.772 19.3936 151.004 18.9729 150.202 18.6517C149.96 18.5494 149.598 18.6205 149.843 19.1179C150.008 19.4561 149.559 19.422 149.411 19.5329C149.375 19.5646 149.33 19.5834 149.283 19.586C149.236 19.5887 149.189 19.5752 149.15 19.5476C149.112 19.5201 149.084 19.4802 149.071 19.4346C149.059 19.389 149.062 19.3404 149.081 19.2969C149.365 18.1088 148.511 18.0548 147.715 17.8473C146.105 17.4213 144.467 17.1136 142.812 16.9264C142.363 16.8809 142.041 16.4688 141.583 16.3039C140.314 15.8491 138.994 15.8321 137.699 15.7099C136.404 15.5876 135.292 15.1613 134.145 14.7179C133.067 14.3 132.122 13.561 130.935 13.4104C130.688 13.3791 130.83 13.1915 130.861 13.1631C131.049 12.9755 131.097 12.569 131.524 12.7339C132.719 13.1915 133.912 13.6491 135.115 14.084C135.815 14.337 136.538 14.7463 137.244 14.7179C138.241 14.6785 139.24 14.7471 140.223 14.9225C141.001 15.0941 141.757 15.3505 142.479 15.6871C143.182 15.9714 143.956 16.3778 144.755 16.4318C146.89 16.5739 148.844 17.3584 150.856 17.9695C151.815 18.2538 152.543 18.9161 153.494 19.2344C154.254 19.4902 153.795 18.5352 154.327 18.8592C154.356 18.9219 154.37 18.9907 154.366 19.0596C154.362 19.1285 154.341 19.1954 154.305 19.2543C153.878 19.945 154.487 20.2207 154.874 20.3088C155.784 20.5192 156.447 21.0592 157.133 21.6163C157.819 22.1734 158.468 22.9238 159.264 23.174C160.289 23.498 160.886 24.4331 161.879 24.6918C162.164 24.2853 161.976 23.7822 162.218 23.3843C162.295 23.2564 162.374 23.0318 162.502 23.1001C162.58 23.131 162.649 23.1795 162.704 23.2417C162.759 23.3038 162.799 23.3779 162.821 23.4582C162.945 23.9908 163.015 24.5346 163.029 25.0812C163.034 25.3161 163.127 25.5405 163.291 25.7093C163.454 25.878 163.676 25.9786 163.911 25.9908C164.261 26.0476 164.577 26.0732 164.833 26.3546C165.243 26.8065 165.797 26.4654 166.284 26.582C167.771 26.9694 169.285 27.2412 170.814 27.3949C171.496 27.4116 172.177 27.3155 172.828 27.1107C174.001 26.8264 174.297 25.482 173.816 24.5866C173.618 24.1944 173.332 23.8537 172.979 23.5917C172.626 23.3296 172.217 23.1535 171.784 23.0773C170.931 22.9125 170.361 22.1393 169.508 22.0796C168.939 22.037 168.58 21.4572 168.227 21.4259C167.297 21.3378 167.118 20.4993 166.52 20.1383C166.088 19.8739 165.533 19.8114 165.038 19.6522C164.543 19.4931 163.848 19.4732 163.615 19.2969C162.813 18.6944 161.908 18.6602 161.031 18.4442C160.408 18.2794 159.893 17.7336 159.142 17.9781C158.886 18.0605 158.618 17.8018 158.425 17.5091C158.172 17.1339 157.856 16.6166 157.332 17.2931C157.423 17.2703 157.546 17.2334 157.446 17.1225C157.346 17.0117 157.298 17.1367 157.258 17.2192C156.518 16.446 155.414 16.5313 154.515 16.0623C152.583 15.0561 150.426 14.5388 148.386 13.7628C147.609 13.4786 146.744 13.4786 146.025 12.9414C145.74 12.731 145.171 12.9414 144.852 12.8362C144.155 12.6173 143.449 12.9726 142.761 12.6571C142.461 12.5806 142.154 12.5377 141.845 12.5292C140.661 12.3274 139.469 11.921 138.302 11.9835C137.335 12.0375 136.327 11.6993 135.383 12.137C135.323 12.1654 135.229 12.1995 135.189 12.1711C134.128 11.4747 133.044 11.9437 131.96 12.0801C131.567 12.0834 131.176 12.0404 130.793 11.9522C130.432 11.8442 130.067 11.7504 129.712 11.6253C129.547 11.5506 129.361 11.5382 129.189 11.5905C129.016 11.6428 128.868 11.7563 128.773 11.9096C128.07 11.7135 127.364 11.4804 126.656 11.8954C125.944 11.1677 124.983 11.469 124.183 11.452C122.76 11.415 121.531 10.3434 120.054 10.7328C119.844 10.5623 119.707 10.6902 119.582 10.8551L119.135 10.9489C118.982 10.8494 118.828 10.7584 118.817 11.0626L118.504 11.037C118.02 10.8409 117.65 11.1052 117.257 11.3212C116.609 11.4122 115.948 11.3667 115.308 11.4406C114.201 11.5713 113.08 11.4036 111.985 11.6452C111.666 11.6083 111.35 11.3326 111.032 11.6452C109.928 12.0574 108.738 11.9522 107.597 12.1313C106.803 12.2564 105.958 12.5918 105.102 12.3217C105.028 12.2956 104.948 12.2967 104.875 12.3249C104.803 12.3531 104.743 12.4065 104.706 12.4752L104.476 12.4553C104.353 12.4724 104.314 12.5434 104.348 12.66H104.316C103.912 12.3757 103.463 12.6003 103.07 12.6202C101.884 12.677 100.649 12.6685 99.5303 12.9414C98.6369 13.1574 97.7206 13.1176 96.8272 13.3791C96.1665 13.5313 95.4906 13.6076 94.8126 13.6065C94.1212 13.6349 93.4241 13.6065 92.7355 13.8509C92.3912 13.976 91.9274 13.7742 91.5176 13.7202C91.2007 13.6754 90.8776 13.7076 90.5758 13.814L89.9669 13.9618C89.7279 13.7799 89.6823 13.9447 89.6397 14.138H89.1958L89.0763 14.0101L89.0393 14.1494L88.8885 14.2204C88.6779 14.1807 88.4645 14.1437 88.4047 14.4393C87.5511 14.4905 86.6747 14.2773 85.8154 14.7008C85.2463 14.985 84.6289 14.7008 84.0712 14.4393C83.65 14.1551 83.3513 14.5985 82.9814 14.6127L82.2302 14.5502C81.8916 14.1352 81.5643 14.3881 81.2343 14.5502C80.8757 14.4677 80.5087 14.246 80.1815 14.6297C80.153 14.6667 80.079 14.7093 80.0506 14.6951C79.2994 14.3569 78.4799 14.8401 77.7287 14.5047C77.6462 14.4677 77.5068 14.4422 77.4442 14.4848C76.8381 15.0135 76.2719 14.4848 75.6885 14.4308C75.5235 14.2176 75.3386 14.0755 75.0654 14.2546H75.0113H74.9544L74.8036 14.1664L74.7809 14.2858C74.6898 14.4905 74.5931 14.3484 74.4963 14.2858C74.115 13.6804 73.8902 14.2091 73.6171 14.4024C72.5643 13.8737 71.3663 14.0499 70.2737 13.723C70.1143 13.5184 69.9493 13.5752 69.7814 13.723C69.6762 13.6804 69.5709 13.6264 69.4656 13.723C69.3432 13.5184 69.1811 13.5212 69.0103 13.6491C68.3303 13.561 67.6474 13.5838 66.9616 13.453C66.4161 13.3537 65.8584 13.3393 65.3084 13.4104C64.6747 13.4685 64.0356 13.4068 63.4248 13.2285C63.0947 13.0039 62.7618 12.7822 62.335 12.9897C61.9679 12.9897 61.5639 13.4246 61.2395 12.9016L61.2082 12.7964L61.0858 12.8874C60.9379 12.7879 60.8013 12.8533 60.6391 12.8874C60.6009 12.8414 60.5531 12.8045 60.499 12.7791C60.4449 12.7538 60.3859 12.7406 60.3261 12.7406C60.2663 12.7406 60.2073 12.7538 60.1532 12.7791C60.0991 12.8045 60.0513 12.8414 60.0131 12.8874C59.2192 12.9755 58.4197 12.8334 57.6372 12.8874C56.4819 12.9698 55.3836 12.5605 54.2227 12.6571C53.7007 12.6932 53.1772 12.6146 52.689 12.4269C51.9008 12.1256 51.1439 12.6173 50.387 12.4127C49.5846 12.1967 48.8221 12.4127 48.0453 12.5321C47.7607 12.3473 47.5245 12.0176 47.129 12.3104L46.6453 12.3615C46.412 12.1199 46.1929 12.029 46.0307 12.4326L45.4616 12.5804C45.1771 12.1455 44.7133 12.3956 44.349 12.2734C44.3478 12.2644 44.3444 12.2558 44.3391 12.2484C44.3339 12.241 44.3269 12.2349 44.3188 12.2308C44.3107 12.2266 44.3018 12.2244 44.2927 12.2244C44.2836 12.2244 44.2746 12.2266 44.2665 12.2308C44.2007 12.152 44.1164 12.0907 44.021 12.0525C43.9257 12.0143 43.8223 12.0003 43.7202 12.0119C43.4691 11.9415 43.2048 11.9317 42.9491 11.9835C42.8467 11.8868 42.7442 11.6993 42.6446 11.9835L42.3487 11.938C41.7995 11.5202 41.35 11.7021 40.9459 12.1682L40.5362 11.7902C40.135 11.3297 39.7025 11.2843 39.2358 11.6907C38.7712 11.8698 38.2545 11.8576 37.7989 11.6566C37.2298 11.4406 36.4928 11.631 35.8298 11.6424C35.5083 11.577 35.1555 11.3042 34.9136 11.776C34.1909 11.5486 33.4625 11.6879 32.7767 11.867C32.4523 11.9522 32.3869 11.83 32.2475 11.668C31.9828 11.1706 31.7125 11.5486 31.4422 11.668C30.6341 11.668 29.8374 12.0119 29.0179 11.7533C28.8078 11.6227 28.5734 11.5363 28.3288 11.4992C28.0842 11.462 27.8346 11.475 27.5952 11.5372C26.3592 11.6546 25.1125 11.5807 23.899 11.3184C23.734 11.0967 23.5718 10.8636 23.2645 11.1421C23.23 11.1593 23.192 11.168 23.1535 11.1677L23.0368 10.9233L22.923 11.1649H22.6755C22.3397 10.4315 22.0011 10.8266 21.6596 11.1649C21.4097 11.2086 21.1523 11.1675 20.9284 11.0483C20.6694 10.9602 20.439 10.5055 20.1373 10.9887L19.8528 11.054C19.7475 11.0313 19.6735 11.054 19.6821 11.1819C19.554 11.1961 19.3975 11.1592 19.352 11.3383C18.7402 11.3212 18.1199 11.4065 17.5196 11.2104C17.2179 10.8721 16.9505 11.091 16.6944 11.2701V11.0597C16.8196 10.9119 16.6944 10.9034 16.5948 10.8778C15.9147 11.2615 15.2091 10.9233 14.529 10.9716C13.2742 11.0626 12.1104 10.4344 10.8698 10.6277C10.4629 10.693 10.4544 10.1445 10.0873 10.2042C10.0524 10.1759 10.0122 10.155 9.96913 10.1425C9.92601 10.1301 9.88084 10.1264 9.83627 10.1317C9.79171 10.137 9.74866 10.1512 9.70967 10.1734C9.67068 10.1956 9.63654 10.2254 9.60928 10.261L8.53371 10.4031C8.47964 10.1388 8.32599 10.0819 8.09551 10.1899C7.84275 10.3049 7.56183 10.3434 7.28741 10.3008C6.63458 10.1501 5.96548 10.0814 5.29561 10.0961C4.7749 9.684 4.33955 9.7778 3.99241 10.3804C3.19285 9.74369 2.18272 9.81191 1.26649 9.56462C0.96488 9.48219 0.626275 9.48788 0.378723 9.25764C0.131171 9.02741 -0.17898 8.89098 0.116944 8.52715C0.333196 8.25712 0.384414 7.83077 0.970571 8.05247C1.62217 8.30544 2.33068 8.4902 3.0335 8.14059C3.04753 8.19494 3.07333 8.24556 3.10908 8.28887C3.14482 8.33218 3.18965 8.36713 3.24039 8.39125C3.29113 8.41537 3.34654 8.42808 3.40273 8.42848C3.45893 8.42888 3.51452 8.41696 3.5656 8.39356L4.02656 8.29123C4.1859 8.46178 4.34524 8.51294 4.51028 8.29123C5.2757 8.19459 6.04396 8.54989 6.80938 8.29123C6.85775 8.27418 6.94311 8.25712 6.95734 8.27702C7.33009 8.8455 7.90487 8.44472 8.36583 8.56126L8.42558 8.67496L8.54793 8.56694C8.57 8.55998 8.59327 8.55764 8.61629 8.56009C8.6393 8.56253 8.66156 8.56971 8.68167 8.58116C9.04873 9.03594 9.50115 8.81423 9.9365 8.74033C10.6621 8.75454 11.4076 9.15816 12.1047 8.61242C12.136 8.58968 12.2726 8.69485 12.358 8.74033C12.5685 9.16669 13.0494 9.02457 13.3766 9.20364C13.5303 9.28891 13.6754 9.0871 13.6868 8.88529C13.9713 9.0132 14.1449 9.35428 14.5205 9.21217C14.5518 9.6101 14.9501 9.42819 15.1294 9.59305C15.192 9.59305 15.2887 9.62147 15.3115 9.59305C15.3343 9.56462 15.2944 9.48503 15.2261 9.46514C15.2303 9.43115 15.2303 9.39679 15.2261 9.36281H15.5107C15.5904 9.47651 15.6444 9.6641 15.8294 9.47651C17.1127 9.36565 18.3903 9.29175 19.6735 9.07005C20.7121 8.89098 21.7763 8.81139 22.8035 9.16669C22.8206 9.39692 22.9429 9.30312 23.0511 9.24912L23.4124 9.4225L23.8876 9.48219C24.3656 9.48219 24.7953 9.23206 25.2847 9.21785C25.4449 9.22785 25.6016 9.26938 25.7457 9.34007C26.2778 9.5163 26.8668 9.43387 27.1029 9.14963C27.3448 8.95635 27.3875 9.20932 27.4871 9.32302C27.5383 9.62431 27.6692 9.72095 27.9224 9.48219L28.2297 9.63C28.7533 9.97677 28.7675 9.47367 28.9269 9.21217L30.2016 9.19227C30.25 9.50777 30.4861 9.4964 30.7109 9.47651C30.7536 9.57031 30.4975 9.76075 30.7309 9.76075C31.4081 9.78633 32.091 9.76075 32.7682 9.74369C32.8132 9.73904 32.8567 9.72504 32.8959 9.70259C32.9352 9.68014 32.9693 9.64974 32.9961 9.61333C33.0229 9.57693 33.0418 9.53533 33.0515 9.49121C33.0613 9.44709 33.0617 9.40141 33.0527 9.35713C33.3799 9.26617 33.5933 9.50493 33.8437 9.64137L33.8921 9.9256C34.6405 9.37702 35.5311 9.9256 36.3107 9.6101C37.0989 9.53051 37.8956 9.32586 38.6696 9.40545C39.3525 9.46514 40.0496 9.66979 40.7354 9.67263C41.3044 9.67263 41.7939 10.1047 42.3288 9.98245C42.7926 9.87444 42.9576 10.406 43.43 10.3036C43.9023 10.2013 44.4515 10.4117 44.9921 10.2184C45.306 10.1086 45.6435 10.0847 45.9697 10.1492C46.296 10.2137 46.599 10.3641 46.8473 10.585C47.2855 10.8693 47.4904 10.3889 47.8119 10.3008H48.0737C48.1875 10.5708 48.4891 10.3292 48.6428 10.5111H48.6656C48.8249 10.6049 48.9643 10.8607 49.1777 10.5794L49.6558 10.5595C49.7952 10.8096 49.9631 10.8607 50.1708 10.6334L50.7256 10.5481C51.2947 10.7385 51.8638 10.9261 52.4329 10.6078L52.8483 10.622C53.0845 11.0512 53.5455 10.9375 53.904 10.9943C54.0605 11.0199 53.9865 10.6533 54.032 10.4685C54.4617 10.8835 55.0763 10.6447 55.5486 10.8977C55.9413 11.4662 56.4819 10.9858 56.9372 11.0995C56.971 11.102 57.005 11.0971 57.0368 11.0853C57.6059 11.5401 58.2262 11.4548 58.8579 11.2644H59.0371C59.131 11.3894 59.2249 11.4434 59.3217 11.2644C59.3354 11.2726 59.3511 11.277 59.3672 11.277C59.3832 11.277 59.399 11.2726 59.4127 11.2644C59.4412 11.5202 59.6716 11.4122 59.8025 11.4832C61.8797 11.4662 63.9654 11.0228 66.034 11.5713C66.0457 11.6367 66.0749 11.6976 66.1185 11.7477C66.162 11.7977 66.2184 11.835 66.2816 11.8556C66.9218 12.0545 67.5905 11.5912 68.2222 11.9494L68.2734 11.7277L69.0416 11.7078C69.5595 11.7078 70.0717 12.0858 70.5981 11.7447C70.6412 11.7224 70.689 11.7107 70.7375 11.7106C71.022 12.1796 71.5911 12.0602 71.998 12.2592C72.2114 12.3644 72.1175 12.1285 72.1517 12.0375C72.2626 12.0005 72.3565 12.245 72.4789 12.0631C73.435 12.3473 74.3967 12.6088 75.4125 12.4241H75.8678C76.0015 12.5832 76.0101 12.4241 76.0556 12.3502L76.2576 12.3928C76.4141 12.5577 76.6161 12.4582 76.7983 12.4866L76.8694 12.7367L76.9633 12.4923C77.0116 12.4894 77.0601 12.4894 77.1084 12.4923C77.4612 12.7595 77.7913 12.569 78.1271 12.4468C78.5994 12.2677 79.1144 12.6486 79.5782 12.3388C80.0193 12.8845 80.5058 12.5207 80.981 12.4098C81.5501 12.6713 82.0993 12.3104 82.6598 12.353C83.0781 12.7339 83.5135 12.9044 83.9431 12.3843C84.1395 12.6685 84.4524 12.2962 84.6602 12.515C84.7484 12.6685 84.8195 12.6372 84.8849 12.498L85.1695 12.5321C85.2065 12.5789 85.2548 12.6155 85.3099 12.6384C85.3651 12.6614 85.4252 12.6698 85.4845 12.663C85.5438 12.6561 85.6004 12.6342 85.6488 12.5994C85.6973 12.5645 85.736 12.5179 85.7613 12.4639C85.841 12.3757 85.9378 12.1967 85.9975 12.2109C87.3775 12.4951 88.7974 12.3132 90.1177 12.1228C91.3554 11.9437 92.5733 12.1881 93.8167 11.9295C95.2537 11.6452 96.7617 11.6794 98.1589 11.1109C98.8844 11.5742 99.6982 11.1308 100.307 10.9943C101.349 10.7641 102.322 11.398 103.292 10.9602C103.369 11.1222 103.46 11.1251 103.577 10.9887C105.346 10.7982 107.128 10.6646 108.878 10.3179C109.253 10.2468 109.629 10.1871 110.016 10.1246L110.744 10.2582H111.066L111.404 10.1956L111.706 10.1672L111.828 10.2638L111.865 10.1473L115.564 9.57883C116.082 10.1757 116.35 9.32302 116.771 9.37134C118.331 9.12959 119.917 9.10758 121.483 9.30596C122.564 9.4623 123.64 9.7579 124.744 9.87444C124.812 10.0251 124.883 10.0336 124.957 9.87444C125.526 10.0393 126.127 9.8915 126.704 9.87444C128.127 9.81475 129.55 10.3008 130.938 10.1018C131.914 9.9654 132.822 10.244 133.761 10.2582C134.597 10.2582 135.423 9.85454 136.253 10.1843C136.472 10.1843 136.717 10.2525 136.862 9.99951C137.728 10.0874 138.602 10.051 139.457 9.89149C139.457 10.2923 139.608 10.4202 139.978 10.2098L140.411 10.1899C140.578 10.3946 140.741 10.315 140.903 10.1899L141.512 10.2951C141.697 10.3633 141.879 10.4088 142.01 10.1985C142.61 10.2667 143.165 10.5339 143.794 10.5396C144.312 10.5396 144.667 11.0455 145.185 11.2132C145.854 11.4321 146.565 11.56 147.191 11.8215C148.213 12.2478 149.283 12.4724 150.304 12.8561C151.101 13.1403 151.94 13.1887 152.763 13.3365C153.144 14.3285 153.969 13.6406 154.569 13.8111C155.187 14.4592 156.12 14.3029 156.846 14.7008C156.846 15.1982 157.241 15.0618 157.517 15.1186L157.802 15.167C157.899 15.3091 157.995 15.4512 158.129 15.1982C159.142 15.7667 160.311 15.8662 161.401 16.1959C161.797 16.3181 162.147 16.6535 162.605 16.5683C162.847 17.0316 163.106 16.9946 163.373 16.591C163.524 17.1453 164.275 16.9292 164.463 17.4437L164.366 17.5716L164.486 17.5915C164.77 17.5432 164.961 17.8758 165.254 17.7848C165.402 18.0321 165.635 17.9838 165.863 17.9582C166.418 18.123 166.981 18.2424 167.519 18.467C167.807 18.5749 168.06 18.7597 168.25 19.0013C168.62 19.4533 169.326 19.4192 169.918 19.4789C170.103 20.3316 170.805 20.2548 171.428 20.3316C172.015 20.7494 172.723 20.9 173.361 21.1843C173.374 21.2855 173.408 21.383 173.46 21.4712C173.512 21.5593 173.581 21.6364 173.662 21.6979C173.744 21.7595 173.837 21.8043 173.936 21.8298C174.035 21.8553 174.138 21.861 174.24 21.8466C174.282 22 174.393 22.0114 174.524 21.9915C174.558 22.182 174.573 22.3923 174.866 22.2957C175.182 23.299 176.149 23.9442 176.405 24.9334C176.559 25.5189 176.738 26.1784 176.559 26.8264C176.546 26.8732 176.525 26.917 176.495 26.9552C176.465 26.9933 176.428 27.0249 176.385 27.0481C175.193 27.8241 174.154 28.9014 172.686 29.1572C172.052 29.268 171.38 29.5267 170.714 29.2282C170.211 28.5347 169.531 29.0548 168.933 28.944C169.502 29.2282 169.986 29.7228 170.68 29.7058C171.377 30.8171 172.698 31.1895 173.554 32.1275C173.839 32.4515 174.356 32.5794 174.766 32.7983C174.669 32.9603 174.766 32.9375 174.871 32.912C174.959 32.9856 175.061 33.0404 175.17 33.0732C175.28 33.1059 175.395 33.1159 175.509 33.1024C175.694 33.3184 175.793 33.6083 176.121 33.6879C176.163 33.7505 176.195 33.8471 176.254 33.8698C177.276 34.2735 177.925 35.2001 178.849 35.7231C179.055 35.8212 179.227 35.9769 179.345 36.1713C179.464 36.3656 179.523 36.5901 179.515 36.8174C179.515 37.3859 179.882 37.3859 180.241 37.15C180.452 36.9834 180.702 36.8733 180.967 36.83C181.232 36.7868 181.504 36.8118 181.757 36.9027C181.781 36.9565 181.815 37.0049 181.859 37.0446C181.902 37.0844 181.953 37.1146 182.009 37.1333C182.065 37.1521 182.124 37.1589 182.183 37.1535C182.241 37.148 182.298 37.1304 182.349 37.1016C182.736 36.8828 183.166 36.9169 183.564 36.7918C183.926 36.7407 184.293 36.5701 184.637 36.843C185.01 37.2779 185.382 37.3461 185.758 36.843C186.64 37.2807 187.625 37.005 188.564 37.2381C189.408 37.4699 190.28 37.5913 191.156 37.5991C191.366 37.7383 191.574 37.5308 191.785 37.5991L191.85 37.7866L191.916 37.5991C192.095 37.528 192.32 37.6644 192.485 37.4711C192.342 37.8236 192.63 37.8719 192.843 37.9714C193.045 38.1903 193.219 38.0084 193.412 37.9316C193.757 38.3608 194.169 38.3125 194.604 38.1022C195.304 38.6877 196.15 38.2642 196.909 38.429C198.188 38.984 199.591 39.1899 200.975 39.0259L201.414 39.1112C201.869 38.9918 202.355 39.6797 202.794 39.06C202.879 39.2277 202.998 39.1993 203.127 39.1169L203.26 39.1936C203.597 39.4103 203.968 39.5671 204.359 39.6569C204.683 39.6569 205.053 39.9071 205.306 39.4921C205.889 39.8616 206.555 39.5603 207.161 39.7252C207.54 40.0094 207.938 40.1743 208.402 39.9298C209.31 40.1041 210.245 40.0789 211.142 39.8559C211.711 39.6882 212.297 39.2164 212.881 38.8867C213.342 38.6252 213.837 38.4631 214.303 38.2016C214.444 38.208 214.583 38.1714 214.703 38.0968C214.822 38.0222 214.916 37.913 214.972 37.7838C215.466 37.4357 216.039 37.2159 216.639 37.1443C216.787 37.1784 216.864 37.1443 216.833 36.968C216.859 36.8686 216.884 36.7719 216.907 36.6838C217.086 36.3825 217.459 36.1807 217.393 35.7515C217.678 35.183 217.985 34.6316 218.29 34.0773C218.46 33.7675 218.313 33.6567 218.045 33.5089C216.907 32.8608 215.666 32.9091 214.44 32.7812C213.268 32.659 212.095 33.0342 210.9 32.5424C210.163 32.2383 209.116 32.5965 208.447 32.2241C207.454 31.6556 206.493 32.153 205.548 31.9171C204.669 31.6983 203.764 32.0109 202.831 31.6329C202.276 31.4027 201.496 31.1753 200.79 31.3657C200.492 31.4453 200.315 31.2406 200.079 31.1866C199.601 31.0815 199.149 30.8001 198.619 31.0587C198.261 31.2321 198.275 30.7148 198.016 30.6636C198.036 30.3794 197.982 30.2543 197.706 30.476H197.421C197.31 30.3197 197.199 30.2998 197.094 30.476H196.85C196.815 30.2685 196.716 30.1435 196.482 30.1918C196.027 30.0611 195.657 29.7768 195.06 29.9474C194.75 30.0383 194.3 29.4045 193.853 29.1629C193.407 28.9213 193.062 28.5375 192.527 28.4949C192.2 28.4665 192.257 28.2561 192.3 28.0486L192.402 27.9207L192.274 27.9008L192.129 27.7161C191.873 27.537 192.018 26.9799 191.5 27.051C191.053 26.3887 190.621 25.7037 190.962 24.8709C191.085 24.5866 190.695 24.4075 190.891 24.1546C191.475 23.7595 191.176 23.1626 191.235 22.6453C191.298 22.5344 191.469 22.4605 191.364 22.29C191.364 22.2388 191.349 22.1876 191.341 22.1336C191.605 21.6504 191.714 21.1161 192.075 20.6414C192.399 20.2179 192.929 20.1468 193.187 19.7233C193.603 20.144 193.873 19.5329 194.041 19.4391C195.063 18.9473 195.973 19.4618 196.921 19.5243C196.935 19.9081 197.182 19.8086 197.404 19.7546C197.783 19.8228 198.173 19.8967 198.432 19.5044C198.605 19.2429 198.827 19.3481 199.04 19.3993C199.914 19.6068 200.77 19.9137 201.69 19.8029C201.777 19.7897 201.867 19.7999 201.949 19.8323C202.032 19.8647 202.104 19.9183 202.159 19.9876C202.361 20.4879 202.685 20.1809 202.976 20.1127L203.417 19.9763C203.488 20.0985 203.559 20.1241 203.644 19.9763L203.997 20.1411C204.088 20.5448 204.305 20.4254 204.532 20.2719C204.549 20.2796 204.568 20.2836 204.586 20.2836C204.605 20.2836 204.623 20.2796 204.64 20.2719C204.746 20.5249 204.879 20.7039 205.164 20.4566C205.704 20.6897 206.274 20.4964 206.769 20.5305C207.474 20.5789 208.311 20.5305 209.011 20.9541C209.248 21.0321 209.498 21.0658 209.748 21.0535C209.887 21.3548 210.143 21.3747 210.425 21.3378L210.71 21.3605C210.943 21.9631 211.173 21.605 211.407 21.3605H211.649C211.734 21.7272 212.095 21.7386 212.346 21.7926C212.462 21.821 213.031 21.9148 212.815 21.369C213.242 21.5538 213.723 21.2298 214.135 21.5112C214.278 22.0512 214.659 21.7386 214.952 21.7386C215.313 22.1422 215.749 21.6959 216.13 21.8409C216.509 22.3354 216.85 22.3354 217.163 21.8409C217.906 21.9404 218.691 22.2274 219.38 22.0768C219.926 21.9546 220.35 22.0768 220.828 22.1479C221.067 22.2798 221.347 22.3174 221.613 22.253C221.949 22.4 222.322 22.4444 222.683 22.3809C222.945 22.4292 223.19 22.6652 223.471 22.4406L224.706 22.5543C224.811 22.5742 224.871 22.5543 224.848 22.4293L225.016 22.2957C225.213 22.4804 225.341 22.4833 225.349 22.1706L225.634 22.1507C225.714 22.2144 225.809 22.2575 225.91 22.2763C226.011 22.295 226.115 22.2889 226.214 22.2583C226.312 22.2278 226.401 22.1738 226.473 22.1011C226.546 22.0283 226.6 21.939 226.63 21.8409C226.914 22.361 227.443 22.1251 227.828 22.1251C228.55 22.1251 229.33 21.9915 229.996 22.1024C230.662 22.2132 231.239 21.9489 231.837 22.1592C232.121 22.3355 232.432 22.6311 232.631 22.0654L232.944 22.0882C233.339 22.4605 233.814 22.4292 234.292 22.3326C234.344 22.3326 234.352 22.1081 234.381 21.9887L237.693 22.1876C237.744 22.1845 237.794 22.173 237.841 22.1535C238.088 22.5685 238.41 22.3951 238.709 22.253C239.875 22.4378 241.107 22.128 242.228 22.6964C242.433 22.8187 242.627 23.046 242.866 22.7448L244.004 22.7959C244.26 22.9324 244.527 23.0574 244.772 23.2137C245.017 23.3701 245.02 23.245 245.031 23.0631H245.151L245.287 23.1768L245.33 23.0432C245.697 22.7249 246.058 23.1114 246.183 23.2422C246.396 23.48 246.655 23.6724 246.944 23.8077C247.233 23.943 247.546 24.0184 247.865 24.0295C248.46 24.0747 249.021 24.326 249.45 24.7401C249.45 25.3455 249.874 25.0243 250.136 25.0528C250.568 25.4706 251.123 25.7662 251.376 26.3574C251.465 26.5621 251.678 26.5706 251.883 26.6417C252.586 26.8406 253.072 27.3807 253.59 27.8667C253.636 27.9094 253.664 28.0373 253.684 28.0316C254.447 27.9151 254.95 28.3812 255.502 28.7848C256.313 29.3732 257.315 29.2225 258.231 29.3931C258.473 29.4386 258.729 29.7541 258.999 29.4414C259.122 29.4414 259.241 29.4073 259.284 29.2766C260.402 29.0918 261.529 28.9923 262.63 29.3277C263.236 29.5153 263.714 29.1344 264.263 29.0946C264.408 29.0946 264.531 29.1941 264.664 29.1202C264.655 29.1769 264.662 29.2351 264.683 29.2884C264.705 29.3416 264.741 29.388 264.787 29.4226C264.833 29.4571 264.887 29.4784 264.944 29.4842C265.001 29.49 265.059 29.4802 265.111 29.4556C265.382 29.3505 265.575 29.5068 265.803 29.5267C265.951 29.6716 266.104 29.5977 266.258 29.5267C266.542 29.7882 266.827 29.8109 267.043 29.43C267.837 29.9303 268.702 29.3107 269.513 29.5778C270.082 29.8393 270.535 29.6148 270.97 29.2766C270.976 29.2807 270.983 29.2835 270.99 29.2849C270.997 29.2863 271.005 29.2862 271.012 29.2846C271.019 29.283 271.026 29.2799 271.032 29.2756C271.038 29.2713 271.043 29.2658 271.047 29.2595C271.186 29.2766 271.252 29.521 271.434 29.3931C271.616 29.2652 271.485 29.1742 271.434 29.0634L271.735 28.944L271.767 29.0236L271.826 28.9269C274.174 28.4068 276.288 27.1561 278.655 26.7127C278.869 26.7127 279.122 26.8236 279.139 26.4626C279.262 26.4626 279.395 26.4853 279.452 26.3262C279.868 26.2352 280.237 25.9737 280.684 25.9908C281.105 25.8714 281.555 25.8088 281.822 25.4223C283.054 25.3256 283.843 24.2427 284.924 23.9528C285.928 23.6685 286.751 22.9693 287.809 22.9125C288.227 23.1285 288.472 22.7902 288.768 22.614C288.812 22.6103 288.854 22.5956 288.89 22.5714C288.971 22.5974 289.056 22.6072 289.14 22.6002C289.224 22.5933 289.307 22.5697 289.382 22.5308C289.457 22.492 289.524 22.4386 289.578 22.3739C289.632 22.3091 289.673 22.2342 289.699 22.1535C289.73 22.1024 289.764 22.0541 289.798 22.0057C290.492 22.0057 291.047 21.5709 291.676 21.3634C291.931 21.28 292.193 21.2182 292.459 21.1786C293.085 21.3321 293.161 20.6101 293.597 20.4652C294.45 20.0246 295.495 20.0957 296.257 19.4277C296.476 19.2344 296.772 19.3282 297.037 19.2259C297.784 18.9247 298.512 18.5772 299.216 18.1856C299.589 17.9866 299.976 18.5721 300.224 18.0463C300.412 18.3106 300.46 18.0861 300.534 17.9553C300.577 17.9718 300.622 17.9814 300.668 17.9838C301.405 18.1373 301.806 17.6199 302.275 17.2021L302.927 16.9179C303.422 17.2845 303.709 16.9406 304 16.6052C304.779 16.1362 305.678 15.9458 306.444 15.3887C306.839 15.1044 307.582 15.3119 308.117 14.9623C308.438 14.9793 308.76 14.9793 309.082 14.9623C309.366 14.9367 309.514 14.7974 309.227 14.5416C309.71 14.1608 310.59 14.5615 310.849 13.6889C310.905 13.4956 311.278 13.8538 311.529 13.7657C311.789 13.7619 312.045 13.6934 312.272 13.5664C312.5 13.4394 312.692 13.2578 312.832 13.038L313.239 12.8447C313.398 12.9584 313.572 13.4132 313.691 12.8163C313.745 12.6216 313.815 12.4316 313.899 12.2478L314.089 12.2848C314.243 12.6316 314.505 12.5889 314.75 12.4269C314.994 12.2649 314.781 12.0943 314.687 11.9409C314.872 11.9409 315.063 11.8385 315.256 11.9409C315.495 12.2251 315.768 12.1654 316.047 11.7817L316.491 11.6168C316.983 11.8527 317.091 11.4036 317.316 11.1564H317.555L317.683 11.4946C317.817 11.4179 317.803 11.2899 317.8 11.1677C317.818 11.1756 317.837 11.1796 317.857 11.1796C317.876 11.1796 317.896 11.1756 317.914 11.1677C318.213 11.0512 318.517 10.9517 318.804 10.8153C319.092 10.6788 319.493 10.693 319.516 10.2468L320.062 10.1018C320.708 10.3861 321.021 9.93129 321.34 9.50209L321.658 9.33723C321.818 9.24912 321.84 9.161 321.658 9.07289C322.079 9.12121 322.447 9.10415 322.754 8.70622C322.889 8.55944 323.062 8.45281 323.254 8.39813C323.445 8.34345 323.649 8.34285 323.841 8.3964C324.066 8.4362 324.233 8.48452 324.305 8.21165L324.376 7.95867C324.726 7.93594 325.118 8.01836 325.283 7.56643C325.38 7.63464 325.457 7.78529 325.605 7.64601C325.759 7.56658 325.924 7.511 326.094 7.48115C326.749 7.4641 326.868 7.08038 326.789 6.53748C327.685 5.99174 328.755 5.85531 329.634 5.16745C330.114 4.74458 330.708 4.47265 331.341 4.3858L331.472 4.49665L331.521 4.36874C331.572 4.37568 331.623 4.37568 331.674 4.36874C332.354 3.90259 333.179 3.8429 333.931 3.56719C334.144 3.49045 334.215 3.31706 334.357 3.17494C334.89 3.05556 335.513 3.06409 335.874 2.60647C336.492 1.8305 337.641 1.97261 338.216 1.16822C338.743 0.96094 339.209 0.62356 339.57 0.187597H339.9L339.949 0.306977C339.997 0.275711 340.045 0.244445 340.091 0.210336L340.449 0.0881139C340.76 0.324032 341.019 0.0625324 341.303 0C342.023 0.0767444 342.228 0.403619 341.812 0.969253C341.445 1.47235 341.087 1.97546 340.324 2.0721C339.846 2.11181 339.386 2.27286 338.988 2.53998C338.589 2.8071 338.266 3.17144 338.048 3.59846C337.664 3.00724 337.561 3.8827 337.194 3.76047C337.109 3.73334 337.018 3.72353 336.929 3.73163C336.839 3.73973 336.752 3.76557 336.673 3.80764C336.593 3.84971 336.523 3.90717 336.466 3.97667C336.409 4.04616 336.366 4.12631 336.341 4.21241C335.773 4.59143 335.153 4.88542 334.5 5.08502C334.118 5.22714 333.993 5.89226 333.427 5.59665L333.293 5.49149L333.233 5.60234L333.077 5.73309C332.761 5.60234 332.647 5.78994 332.579 6.04859C332.56 6.04812 332.54 6.05196 332.523 6.05982C332.505 6.06769 332.489 6.07939 332.477 6.09407C332.215 6.00596 332.095 6.19924 331.959 6.35841C331.94 6.3553 331.92 6.35704 331.901 6.3635C331.883 6.36995 331.867 6.38091 331.853 6.39536C331.495 6.45505 331.099 6.44084 330.895 6.83593C330.821 6.97478 330.715 7.09442 330.587 7.18525C330.458 7.27607 330.31 7.33556 330.155 7.35893C329.614 7.31345 329.651 7.84782 329.404 8.09795C328.796 8.57352 328.106 8.93469 327.369 9.16385C326.305 9.56462 325.286 10.0848 324.171 10.369C323.602 10.5111 323.155 10.9204 322.711 11.2985C322.649 11.1905 322.56 11.0142 322.444 11.0825C321.892 11.3468 321.24 11.4406 320.842 11.9806H320.532C320.426 11.9806 320.349 11.9806 320.404 12.1171L320.219 12.2649C319.982 12.046 319.962 12.2791 319.894 12.4184L319.61 12.5946C319.302 12.569 318.93 12.3729 318.83 12.8788C317.954 13.1587 317.126 13.5709 316.374 14.1011C315.839 13.1716 315.598 14.0527 315.236 14.283L311.978 15.6416L311.802 15.8037L311.218 15.8463C310.88 15.7269 310.544 15.6132 310.433 16.1305C310.211 16.9349 309.449 16.6166 308.945 16.8212C308.06 17.1822 307.127 17.4323 306.211 17.7194C305.866 17.8274 305.442 17.6228 305.161 17.9866C305.099 17.9804 305.038 17.9921 304.983 18.0204C304.929 18.0487 304.883 18.0922 304.853 18.1458C304.64 18.1799 304.409 18.1628 304.241 18.3391C303.573 18.268 303.217 18.7086 302.879 19.1747C302.78 19.0902 302.658 19.0377 302.529 19.024C302.4 19.0103 302.27 19.0361 302.156 19.098C301.567 19.5869 300.733 19.4646 300.164 19.9507C300.001 20.0775 299.802 20.1501 299.595 20.1582C298.871 20.17 298.164 20.3836 297.555 20.775C296.806 21.244 295.847 21.1246 295.088 21.5851C294.684 21.7556 294.132 21.5197 293.85 22.0313C293.07 22.4262 292.231 22.693 291.366 22.8215C290.982 23.1057 290.336 22.8215 290.108 23.4184C289.343 23.8277 288.529 24.1432 287.815 24.6492C287.732 24.5989 287.64 24.5669 287.544 24.5552C287.448 24.5436 287.351 24.5526 287.258 24.5817C287.166 24.6108 287.081 24.6592 287.009 24.7238C286.938 24.7884 286.88 24.8676 286.842 24.9561C286.719 24.9561 286.6 24.9561 286.54 25.1011H286.384C286.125 25.0641 285.903 25.084 285.883 25.4223L285.47 25.4905C284.836 25.3285 284.847 25.7946 284.787 26.1897C284.54 26.1273 284.28 26.1338 284.035 26.2084C283.791 26.2831 283.572 26.4231 283.402 26.6132C283.174 26.8634 282.909 26.8065 282.642 26.8094C282.628 26.7184 282.642 26.5706 282.508 26.6076C282.374 26.6445 282.295 26.8122 282.298 26.9771L282.152 27.1163C281.697 27.2073 281.697 27.2073 281.828 27.4603C281.017 27.5313 280.26 27.8355 279.481 28.0287C278.527 28.2703 277.406 28.3443 276.703 28.9156C276.16 29.359 275.585 29.1771 275.07 29.5096C274.491 29.8896 273.826 30.1174 273.135 30.1719C272.23 30.1719 271.849 31.1326 271.001 31.0474C270.654 30.7631 270.452 31.0843 270.21 31.2378L269.974 31.3657C269.792 31.4424 269.53 31.3657 269.448 31.6499C269.237 31.6499 269.026 31.758 268.813 31.6499L268.719 31.5192L268.659 31.6329C268.123 31.5119 267.561 31.595 267.083 31.866C266.615 31.9743 266.123 31.8968 265.712 31.6499C265.751 31.4055 265.603 31.3401 265.401 31.3259L263.552 31.2065C263.354 31.3246 263.132 31.3968 262.903 31.418C262.673 31.4391 262.442 31.4086 262.226 31.3288C261.202 31.0104 260.154 30.8455 259.124 30.6011C258.427 30.4362 257.875 30.9479 257.201 30.7517C256.968 30.6835 256.794 30.8996 257.056 31.2463C257.648 32.0308 258.282 32.821 258.672 33.7078C259.278 35.0892 259.81 36.5303 259.486 38.1334C259.247 37.3404 258.786 36.6724 258.561 35.8595C258.281 34.6831 257.768 33.5746 257.053 32.5993C256.609 32.0308 256.484 31.2492 255.798 30.8939C255.736 30.6409 255.693 30.3254 255.317 30.5016C255.149 30.5812 254.984 30.7859 255.334 30.891C255.491 30.9791 255.3 31.1269 255.388 31.2179C255.957 31.8034 256.094 32.5424 256.242 33.3156C256.35 33.9352 256.777 34.4525 256.572 35.1916C256.404 35.797 257.042 36.2432 257.426 36.6326C258.442 37.636 258.709 38.844 258.817 40.2084C258.951 42.0189 258.813 43.8392 258.407 45.6089C258.362 45.8135 258.222 46.075 258.083 46.0551C257.798 46.0154 257.921 45.7112 257.941 45.5321C258.159 43.8483 258.217 42.1476 258.114 40.4528C258 39.0686 257.67 37.7071 256.561 36.6838C256.097 36.2574 255.969 35.6293 255.821 35.0381C255.625 34.2593 255.536 33.4634 255.206 32.7102C254.902 32.0195 254.139 31.8233 253.815 31.1497C253.484 30.4992 253.051 29.9061 252.532 29.3931C252.06 28.9471 251.532 28.5648 250.961 28.2561C250.785 28.1818 250.631 28.0634 250.514 27.9122C250.207 27.4461 249.888 27.0595 249.18 27.0595C248.895 27.0595 248.568 26.4626 248.167 26.2466C247.913 25.5957 247.353 25.6156 246.798 25.6212C246.383 25.5985 246.229 25.175 245.885 25.0329C245.543 24.7486 245.216 24.6946 244.917 25.0897C244.177 24.7515 243.455 24.3138 242.612 24.3678C241.713 24.4274 240.82 23.984 239.906 24.3962C239.702 24.4871 239.403 24.1119 239.087 24.2001C238.566 23.6316 237.917 23.7851 237.28 23.8789C237.205 23.943 237.116 23.9886 237.02 24.0118C236.924 24.035 236.824 24.0352 236.728 24.0125C236.478 23.7453 236.185 24.2455 235.911 23.9528C235.55 23.5662 235.422 23.9528 235.266 24.1915L233.462 23.9073C233.066 24.0778 232.471 23.444 232.227 24.2143L232.067 24.0721C232.067 23.9585 232.01 23.9187 231.905 23.9386L231.45 23.805C230.852 23.6259 230.152 23.9243 230.152 24.3564C229.936 24.4019 229.777 24.2427 229.583 24.2057C229.324 24.1574 228.943 23.5378 228.789 24.3223C228.648 24.331 228.505 24.3166 228.368 24.2796C227.856 24.1262 227.352 23.8874 226.806 24.1603C226.613 23.5747 226.368 23.876 226.123 24.1205C225.463 24.4417 224.834 23.8703 224.18 24.0523L224.097 23.93L223.964 24.0608H223.679C223.224 23.8902 222.757 23.6231 222.379 24.1972C221.596 23.8931 220.782 24.1603 219.988 24.0608C219.943 23.6913 219.647 23.714 219.38 23.6401C218.577 23.4127 217.812 23.8675 217.018 23.7424L216.992 23.8846C216.099 23.7595 215.185 23.7168 214.352 23.3161L214.409 23.2251C214.392 23.2251 214.357 23.245 214.357 23.2535C214.365 23.2745 214.374 23.2945 214.386 23.3132C214.261 23.4809 214.101 23.4582 213.913 23.4212C213.879 23.2649 213.649 23.137 213.652 23.2109C213.652 23.7197 213.165 23.3161 213.06 23.5634H212.75C212.499 22.9039 211.859 23.4497 211.415 23.0432C211.589 23.3019 211.7 23.4497 211.782 23.6117C211.526 23.4411 211.179 23.4411 210.968 23.1825C210.539 23.1683 210.197 22.614 209.708 22.9807C208.906 23.0063 208.194 22.56 207.4 22.5373C207.133 22.1592 206.857 22.0825 206.569 22.5202L206.382 22.4946C205.909 22.2786 205.454 21.9858 204.899 22.2104C204.535 22.29 204.33 21.8949 203.98 21.9091C203.696 21.6021 203.616 21.9091 203.488 22.074C203.457 22.067 203.425 22.067 203.394 22.074C202.981 21.8721 202.586 21.4799 202.119 21.9773C201.334 21.6448 200.455 21.7613 199.666 21.46C199.449 21.2604 199.162 21.1521 198.867 21.1574C198.571 21.1627 198.289 21.2812 198.079 21.4884C197.954 21.4685 197.794 21.5055 197.749 21.3292C197.197 20.9143 196.63 21.4316 196.073 21.3292C196.073 21.3292 196.03 21.514 196.01 21.6135C195.964 21.6408 195.911 21.6545 195.857 21.6531C195.804 21.6517 195.752 21.6352 195.707 21.6055C195.663 21.5758 195.627 21.5341 195.605 21.4852C195.583 21.4363 195.576 21.3823 195.583 21.3292C195.583 21.2184 195.583 21.136 195.441 21.2298L195.008 21.0365C195.008 20.9995 195.04 20.9626 195.054 20.9285C195.034 20.9285 195.003 20.9541 195 20.9739C194.997 20.9938 195.017 21.0166 195.026 21.0393H194.986L195.003 21.0791C194.553 21.0317 194.099 21.0982 193.683 21.2724C193.512 21.3321 193.344 21.3861 193.429 21.6249C193.372 21.73 193.429 21.9091 193.276 21.9517C192.707 22.0626 192.829 22.5515 192.755 22.9324V23.1029C192.658 23.2791 192.396 23.3644 192.45 23.6088C192.45 23.6429 192.681 23.6316 192.803 23.6401C192.872 24.038 192.519 23.9073 192.351 23.9954L192.229 24.0352L192.325 24.129C192.146 24.4132 192.505 24.5099 192.533 24.7202C192.52 24.7363 192.511 24.7553 192.507 24.7756C192.503 24.7959 192.505 24.8168 192.511 24.8365C192.517 24.8562 192.528 24.8741 192.543 24.8885C192.558 24.9029 192.576 24.9135 192.596 24.9192C192.644 25.2489 192.513 25.6468 192.937 25.8344C193.483 26.9344 194.035 28.0231 195.529 27.9946C195.64 27.9946 195.751 28.097 195.862 28.1481C195.845 28.5233 196.05 28.3528 196.209 28.2902C196.175 28.6711 196.329 28.7791 196.673 28.6086C196.832 28.6512 196.995 28.9269 197.148 28.6086C197.221 28.7001 197.313 28.7744 197.418 28.826C197.522 28.8776 197.637 28.9053 197.754 28.907C198.383 28.944 198.893 29.3277 199.487 29.4926C199.549 29.55 199.621 29.5939 199.701 29.6213C199.78 29.6487 199.864 29.6591 199.948 29.6517C201.055 29.8848 202.105 30.3879 203.263 30.3481C203.471 30.3481 203.579 30.2572 203.735 30.4902C203.777 30.5451 203.829 30.591 203.889 30.6251C203.948 30.6593 204.014 30.681 204.083 30.689C204.151 30.697 204.22 30.691 204.286 30.6715C204.352 30.652 204.414 30.6194 204.467 30.5755C204.774 30.3652 204.586 30.0781 204.498 29.8791C204.217 29.285 204.026 28.6529 203.929 28.0032C203.81 26.6814 203.869 25.3496 204.105 24.0437C204.134 23.8476 204.216 23.7595 204.39 23.7822C204.489 23.7959 204.58 23.8448 204.646 23.92C204.711 23.9952 204.748 24.0916 204.748 24.1915C204.805 24.7145 204.828 25.2432 204.837 25.7719C204.818 27.1817 204.981 28.588 205.323 29.9559C205.426 30.3254 205.648 30.3851 206.06 30.5016C207.048 30.7859 208.089 30.5244 209.059 31.0246C209.748 31.3828 210.63 31.2008 211.427 31.3373C212.078 31.4538 212.77 31.3373 213.453 31.4794C213.996 31.5959 214.357 31.2861 214.394 30.7063C214.452 29.6617 214.67 28.6322 215.04 27.6536C215.138 27.4473 215.278 27.2634 215.45 27.1135C215.663 26.8918 215.894 27.0311 216.079 27.1533C216.363 27.3352 215.994 27.3892 215.971 27.5256C215.777 28.6939 215.313 29.774 214.864 30.8598C214.73 31.1781 214.599 31.4652 215.237 31.3657C215.874 31.2662 216.511 31.2634 216.998 31.8546C217.123 32.0052 217.567 32.1161 217.672 32.0251C218.256 31.5021 218.591 32.0251 218.89 32.3264C219.169 32.6602 219.349 33.0646 219.411 33.4946C219.727 34.7652 218.782 35.4616 218.273 36.3171C217.681 37.3098 216.81 38.1065 215.769 38.6081C214.801 39.09 213.86 39.6233 212.949 40.2055C212.001 40.8081 210.912 41.5187 209.566 41.2743C208.832 41.144 208.086 41.0897 207.341 41.1122C206.882 41.1122 206.359 40.9559 205.918 41.2174C205.633 40.8479 205.3 40.9076 204.945 41.0724C204.347 40.9474 203.735 40.7882 203.161 41.1151C202.853 41.2885 202.802 40.9389 202.592 40.9104C201.416 40.7655 200.247 40.5665 199.072 40.8223C199.044 40.834 199.015 40.8397 198.985 40.8392C198.956 40.8386 198.926 40.8318 198.9 40.8192C198.873 40.8066 198.849 40.7885 198.829 40.766C198.81 40.7435 198.796 40.7172 198.787 40.6887C198.545 40.2169 198.167 40.5125 197.845 40.521C197.814 40.521 197.626 40.6006 197.7 40.7314C198.295 41.8228 197.291 42.6358 197.185 43.6107C197.154 43.9234 196.929 44.2133 197.185 44.5231C197.242 44.5907 197.273 44.6763 197.273 44.7647C197.273 44.8531 197.242 44.9387 197.185 45.0063C196.739 45.5918 196.978 46.4474 196.408 46.9704C196.28 47.0898 196.366 47.1665 196.408 47.2006C196.978 47.519 196.835 48.2011 197.185 48.6446C197.818 49.41 198.142 50.3843 198.093 51.3761C198.076 51.6774 198.173 51.7683 198.48 51.7882C199.14 51.8309 199.672 52.2231 200.187 52.5756C201.166 53.2407 201.877 54.2526 203.101 54.6306C203.422 54.7301 203.69 55.1991 204.159 55.2161C204.273 55.4606 204.444 55.4322 204.637 55.3128C205.329 55.6766 206.077 55.3696 206.8 55.4947C207.873 55.6823 208.55 56.3304 209.136 57.166C209.722 58.0017 209.87 58.9795 210.246 59.8805C210.374 60.1846 210.027 60.5456 210.348 60.9009C209.384 60.5627 209.17 59.7469 208.749 59.0164C208.217 58.0955 207.821 56.9216 206.51 56.6857C206.431 56.6594 206.347 56.6491 206.264 56.6554C206.181 56.6618 206.1 56.6846 206.026 56.7226C204.714 57.5441 203.642 56.6459 202.498 56.2366C202.156 56.1115 201.812 55.9523 201.428 56.0859C200.93 55.5174 200.446 55.9495 199.957 56.103C199.237 56.6714 198.48 57.1291 197.507 57.041C197.362 57.0267 197.18 57.004 197.157 57.2257C197.134 57.4474 197.305 57.5099 197.441 57.6123C198.087 58.0408 198.619 58.6179 198.995 59.295C199.23 59.7284 199.353 60.2134 199.353 60.7062C199.353 61.199 199.23 61.6841 198.995 62.1175C198.79 61.4321 198.548 60.7584 198.269 60.0994C197.985 59.4769 197.658 58.8345 197.034 58.4394C196.929 57.8709 196.465 57.8255 195.95 57.6464C196.147 58.0017 196.209 58.3143 196.519 58.4479C196.608 58.7606 196.693 59.0704 196.778 59.3746C195.882 59.2211 195.526 58.4195 195.051 57.8141C194.576 57.2087 194.129 57.2001 193.574 57.4872C193.31 57.6236 193.116 57.6777 192.892 57.473C192.678 57.0523 192.322 57.0125 191.93 57.1404C191.096 56.8988 190.268 57.0722 189.437 57.1859C189.414 57.1859 189.377 57.1859 189.366 57.2087C188.928 57.8709 188.512 57.8823 188.074 57.1944C187.981 57.2079 187.894 57.244 187.818 57.2996C187.792 57.3177 187.77 57.3409 187.753 57.3678C187.736 57.3948 187.725 57.4249 187.72 57.4563C187.715 57.4877 187.717 57.5197 187.725 57.5505C187.733 57.5812 187.747 57.61 187.767 57.635C188.367 58.6952 188.032 59.818 187.983 60.9208C187.978 60.9968 187.944 61.0679 187.889 61.1205C187.833 61.173 187.761 61.2031 187.684 61.205C187.499 61.205 187.417 61.1368 187.329 60.9379C187.013 60.25 187.081 59.4854 186.828 58.7862C186.686 58.3042 186.613 57.8048 186.609 57.3025C186.575 56.8278 186.04 56.5919 185.664 56.5862C185.285 56.5827 184.911 56.4982 184.568 56.3384C184.224 56.1785 183.919 55.9471 183.672 55.6596C183.277 55.2446 182.713 55.526 182.221 55.2133C181.578 54.804 180.716 54.7358 179.945 54.5226C179.785 54.48 179.945 54.0877 179.62 54.2384H179.16C179.171 54.1907 179.171 54.1411 179.16 54.0934C179.134 54.0309 179.054 53.9456 179.026 54.0678C178.972 54.2895 178.938 54.5055 178.696 54.6079C177.324 53.8319 175.227 54.1389 174.024 55.2929C173.915 55.3469 173.739 55.2929 173.708 55.4634C173.578 55.4607 173.451 55.5044 173.35 55.5868C173.249 55.6691 173.182 55.7846 173.159 55.9125C173.122 56.1143 173.269 56.1001 173.392 56.1143L173.324 56.589C173.17 56.7027 173.181 56.8335 173.167 57.0239C173.133 57.5213 173.736 57.6521 173.702 58.1097V58.1324V58.0955L174.012 58.1495L174.174 58.2831C174.56 58.7833 175.121 59.1194 175.745 59.2239ZM184.984 46.2427C184.287 46.1376 184.014 46.4787 184.233 47.0955C184.407 47.6735 184.462 48.2806 184.395 48.8805V48.8634C183.982 48.1898 183.911 47.3939 183.624 46.5156C183.365 47.1551 183.254 47.6042 183.442 48.1642C183.63 48.7241 183.442 49.2557 183.265 49.7815C183.222 49.8602 183.167 49.9313 183.1 49.9918C183.044 49.9151 182.952 49.844 182.933 49.7588C182.73 48.8577 182.474 47.9624 182.363 47.05C182.252 46.1376 181.772 45.7055 180.872 45.8818C180.685 45.9187 180.759 46.2257 180.568 46.1404C179.697 45.7595 178.727 46.0836 177.865 45.7681C177.273 45.5492 176.59 45.8107 176.101 45.4838C175.549 45.1228 175.378 45.5691 175.344 45.7993C175.278 46.2029 175.29 46.581 174.877 46.8027C175.028 46.9363 174.593 47.1637 174.991 47.2973C176.052 47.6469 177.102 48.0306 178.181 48.3347C178.548 48.4399 178.869 48.2637 179.194 48.4314C180.568 49.1306 181.874 49.9691 183.485 50.1368C183.911 50.1794 184.432 50.1539 184.811 50.421C185.62 50.9516 186.549 51.2711 187.514 51.3505C188.396 51.4528 189.292 51.413 190.174 51.504C190.635 51.5552 191.105 51.6461 191.489 51.3931C192.223 50.9071 193.128 50.9867 193.805 51.0918C194.781 51.2425 195.751 50.8787 196.69 51.2311C196.832 51.2851 197.037 51.1345 196.975 50.9696C196.67 50.2107 196.602 49.375 196.093 48.6758C195.78 48.2466 195.524 47.9823 194.954 48.1358C194.309 48.3092 193.64 47.8515 192.983 48.1557C192.254 47.4024 191.187 47.8373 190.322 47.3797C189.605 47.0045 188.649 47.1438 187.81 47.0216C186.842 46.8823 185.906 46.5128 184.964 46.2399C184.936 46.2115 185.024 46.0722 184.882 46.1518L184.984 46.2427ZM188.868 55.4265C189.523 55.4265 190.186 55.3099 190.823 55.5942C190.959 55.6539 191.107 55.5658 191.073 55.3554V55.3753C191.15 55.3753 191.258 55.3185 191.298 55.3526C192.109 56.0348 193.224 55.3043 194.041 55.941C194.061 55.958 194.132 55.8926 194.175 55.8983C194.818 55.9893 195.452 55.6624 196.03 55.7136C197.31 55.8329 198.369 55.2417 199.501 54.9063C199.837 54.8068 200.09 54.4515 200.534 54.5681C200.716 54.6164 200.714 54.3265 200.682 54.3265C200.113 54.3123 200.213 53.6159 199.749 53.4539C199.328 53.3061 198.895 53.2634 198.483 53.1327C197.874 52.9826 197.304 52.7055 196.81 52.3198C196.485 52.0355 196.033 52.3027 195.598 52.1918C194.784 51.9787 193.828 52.1918 192.954 52.2913C192.081 52.3908 191.187 52.5244 190.333 52.3112C189.955 52.2174 190.268 52.8797 189.881 52.5699C189.38 52.1663 188.714 52.2856 188.137 52.1236C187.889 52.0497 187.804 52.1094 187.761 52.4391C187.707 52.8797 188.009 53.3714 187.662 53.7381C187.505 53.903 187.869 54.227 187.525 54.173C187.383 54.157 187.25 54.0945 187.147 53.9953C187.044 53.8961 186.977 53.7657 186.956 53.6244C186.72 52.7717 186.484 51.7939 185.286 51.6347C184.825 51.5665 184.204 51.6347 183.98 51.5324C183.257 51.18 182.494 51.2794 181.777 51.0776C181.12 50.89 180.488 50.7451 179.953 50.2647C179.653 49.9738 179.274 49.7763 178.864 49.6962C177.842 49.574 176.843 49.4546 176.018 48.7668C175.842 48.622 175.638 48.5161 175.418 48.4558C175.199 48.3956 174.969 48.3824 174.743 48.4172C174.285 48.5138 174.041 48.7611 173.992 48.0647C173.969 47.7805 173.659 47.9709 173.594 48.0647C173.472 48.2485 173.413 48.467 173.426 48.6872C173.55 49.6466 173.358 50.6203 172.88 51.4614C172.88 50.7707 172.612 49.935 172.88 49.088C172.928 48.9373 172.843 48.5365 172.51 48.6616C172.177 48.7867 171.872 48.6616 171.554 48.7384C170.515 48.9544 169.539 48.6588 168.609 48.2438C167.989 47.9438 167.387 47.6098 166.805 47.2433C166.284 46.9334 165.561 47.0187 165.157 46.6236C164.588 46.0722 163.84 45.8334 163.288 45.2905C162.918 44.9267 162.286 45.0575 161.953 44.7675C161.541 44.4094 161.02 44.5629 160.639 44.2673C160.397 44.6794 160.243 44.2673 160.149 44.1706C159.537 43.5283 158.655 43.4146 157.941 42.9797C157.6 42.7722 157.187 42.9001 156.849 42.6585C156.392 42.3391 155.917 42.0468 155.426 41.783C155.173 41.6409 154.874 41.5898 154.683 41.8911C154.524 42.1182 154.315 42.3065 154.073 42.4419C153.83 42.5772 153.56 42.6561 153.283 42.6727C152.98 42.7052 152.694 42.8256 152.458 43.0191C152.223 43.2126 152.05 43.4706 151.96 43.7613C151.818 44.111 151.795 44.4947 151.567 44.8301C151.498 44.9234 151.464 45.0382 151.471 45.1543C151.478 45.2703 151.527 45.38 151.607 45.4639C152.1 46.1774 152.321 47.121 153.198 47.4849C153.81 47.7378 153.858 48.4598 154.464 48.6986C155.554 49.1306 156.627 49.6394 157.779 49.8355C158.51 49.9663 159.077 50.404 159.734 50.6484C160.303 50.8758 160.937 50.7053 161.543 51.1743C162.061 51.5694 162.79 51.8621 163.359 52.2572C163.834 52.5841 164.432 52.7689 164.782 53.272C165.319 54.0252 166.489 54.0167 166.859 54.9916C166.859 55.0087 166.907 55.0229 166.927 55.0172C167.803 54.7955 168.469 55.5857 169.326 55.5032C169.616 55.4564 169.913 55.4779 170.194 55.5658C171.178 55.958 171.221 56.0092 171.736 55.1621C172.151 54.4771 172.939 54.1048 173.269 53.4738C173.482 53.0398 173.825 52.6832 174.25 52.4542C174.676 52.2252 175.163 52.1355 175.643 52.1975C176.92 52.4221 178.229 51.9133 179.484 52.5386C180.107 52.8484 181.049 52.3908 181.516 53.2634C181.516 53.2634 181.601 53.2634 181.646 53.235C182.361 53.0105 182.927 53.4027 183.541 53.6557C184.034 53.8575 184.574 54.426 184.927 54.3293C185.954 54.0451 186.452 55.0627 187.343 55.0939C187.727 55.1081 188.071 55.6027 188.504 55.0939C188.632 54.9433 188.603 55.2503 188.703 55.2872C188.682 55.3005 188.665 55.3179 188.652 55.3384C188.638 55.3589 188.63 55.382 188.626 55.4062C188.622 55.4304 188.623 55.455 188.63 55.4786C188.636 55.5022 188.648 55.5241 188.663 55.543C188.78 55.6283 188.805 55.472 188.868 55.4265ZM197.439 40.7086C196.938 40.5438 196.3 40.5068 195.933 40.2794C194.986 39.6797 193.964 39.7109 192.954 39.512C192.1 39.35 191.176 39.458 190.393 38.9947C190.056 38.8264 189.679 38.7527 189.303 38.7815C188.706 38.7673 188.188 39.2249 187.508 38.8923C186.703 38.4972 185.747 38.8525 184.853 38.5484C183.823 38.2016 182.756 38.5484 181.703 38.7531C181.009 38.8895 180.446 38.898 180.787 39.8616C180.853 40.076 180.867 40.3028 180.83 40.5239C180.431 42.0843 179.427 43.1275 178.007 43.8239C177.819 43.9148 177.623 43.804 177.498 43.8892C177.304 44.0365 177.137 44.2164 177.006 44.4208C177.074 44.5107 177.155 44.591 177.245 44.6595C177.839 44.1991 178.408 44.7533 178.992 44.7476C179.475 44.7476 179.905 44.3554 180.283 44.5288C181.348 45.0205 182.472 44.6936 183.553 44.8756C183.738 44.9068 183.997 44.8983 183.974 44.4606C183.917 43.244 183.974 42.0218 183.974 40.7996C183.974 40.5693 183.917 40.3221 184.29 40.3221C184.429 40.3221 184.557 40.2112 184.574 40.4699C184.651 41.3226 185.067 40.9616 185.428 40.6859C185.693 41.0867 185.289 41.4704 185.428 41.8228C185.755 42.6557 185.676 43.4771 185.547 44.3213C185.476 44.7789 185.217 45.5321 186.21 44.9921C186.324 44.9296 186.393 45.1029 186.461 45.1086C187.314 45.1768 187.932 45.9045 188.857 45.8505C189.229 45.8278 189.767 45.7453 190.063 45.9699C190.632 46.3962 191.261 46.2939 191.861 46.4303C192.547 46.5838 193.284 46.6492 193.754 47.2831C193.828 47.3797 193.867 47.3484 193.89 47.3001C194.129 46.7714 194.388 47.3285 194.633 47.2859C194.798 47.2575 195.023 47.5843 195.088 47.3342C195.228 46.8197 195.683 46.4502 195.728 45.913C195.893 44.0569 196.596 42.3657 197.439 40.7058V40.7086ZM173.352 45.5719C173.895 45.5975 174.186 45.5435 174.445 45.0859C174.66 44.6984 174.745 44.2519 174.686 43.8125C174.482 42.7182 172.695 41.2032 171.525 41.081C171.355 41.0756 171.188 41.0365 171.033 40.9657C170.878 40.8949 170.739 40.794 170.623 40.6688C170.279 40.1174 169.943 40.4755 169.684 40.6177C168.962 41.0099 168.734 42.3231 169.337 42.7239C170.488 43.4742 171.575 44.3185 172.587 45.2479C172.8 45.4412 173.059 45.6515 173.352 45.5691V45.5719ZM152.634 54.6676C152.723 54.0593 152.262 53.6955 152.003 53.3174C151.314 52.3198 150.489 51.4187 149.712 50.475C149.641 50.3898 149.522 50.2135 149.428 50.3216C148.907 50.89 148.048 50.927 147.55 51.5893C147.052 52.2515 146.958 52.9252 147.598 53.4311C148.79 54.3748 150.227 54.8239 151.548 55.5004C152.026 55.7505 152.64 55.2048 152.634 54.659V54.6676ZM179.666 39.6029C179.407 39.0345 179.06 38.3637 178.73 37.7781C178.203 36.843 177.341 36.0954 176.613 35.2768C176.57 35.2285 176.388 35.1461 176.405 35.3251C176.448 35.7771 176.027 35.6833 175.836 35.7742C174.456 36.4479 174.28 37.1329 175.295 38.3125C176.249 39.421 177.458 40.2311 178.693 40.9843C179.094 41.2288 179.344 41.1378 179.581 40.5978C179.76 40.2084 179.347 39.9895 179.672 39.5944L179.666 39.6029ZM184.859 43.3662C184.717 43.8637 184.264 44.219 184.244 44.7391C184.244 45.0234 184.264 45.2621 184.651 45.1939C184.91 45.1513 185.206 45.1939 185.075 44.7391C184.976 44.2836 184.906 43.8222 184.865 43.3577L184.859 43.3662ZM254.973 30.368C255.001 30.2344 254.902 30.189 254.814 30.189C254.725 30.189 254.657 30.2913 254.666 30.3254C254.704 30.419 254.754 30.507 254.816 30.5869C254.797 30.4505 254.885 30.4135 254.979 30.3595L254.973 30.368ZM3.92981 8.638L3.95827 8.59821H3.92127L3.92981 8.638ZM86.0487 12.3331C86.0317 12.3331 86.0089 12.3047 85.9975 12.3075C85.9235 12.3359 85.9235 12.3701 85.9975 12.4013C85.9975 12.4013 86.0345 12.4013 86.0487 12.3786C86.063 12.3558 86.0459 12.3416 86.0487 12.3246V12.3331Z" fill="#064149"/>
<path d="M239.82 37.8425C240.07 37.9193 240.198 37.618 240.434 37.6436C240.54 37.6692 240.591 37.6436 240.58 37.5214C241.262 37.3082 241.945 37.0978 242.623 36.8761C242.84 36.8087 243.043 36.7028 243.223 36.5635C243.846 36.0746 244.646 36.0604 245.371 35.8216C245.499 35.779 245.656 35.8017 245.656 35.9609C245.656 36.0717 245.599 36.2451 245.519 36.2906C244.666 36.6061 244.196 37.4759 243.217 37.6919C242.463 37.8596 241.795 38.4508 240.967 38.5446C239.934 38.6612 239.026 39.1358 238.09 39.548C236.854 40.0832 235.587 40.5445 234.297 40.9294C232.923 41.3529 231.562 41.802 230.125 41.9697C229.985 42.0155 229.853 42.0868 229.738 42.18C229.383 42.0066 229.132 42.4074 228.797 42.3506C228.065 42.0862 227.482 42.757 226.742 42.6348C225.946 42.5126 225.115 42.6774 224.318 42.7513C223.348 42.8451 222.431 42.4984 221.51 42.6007C220.721 42.6888 220.053 42.4046 219.336 42.2653C219.114 42.2227 218.855 42.0578 218.9 41.8048C218.957 41.5206 219.185 41.6428 219.432 41.6542C220.88 41.7555 222.332 41.7659 223.78 41.6855C224.768 41.5973 225.772 41.5348 226.754 41.4495C227.92 41.35 229.03 41.0175 230.185 40.8811C231.093 40.7816 231.958 40.3694 232.854 40.1392C233.97 39.855 235.114 39.6816 236.175 39.2012C236.997 38.826 237.837 38.4849 238.653 38.0984C238.808 38.0156 238.982 37.9763 239.157 37.9847C239.242 38.1239 239.308 38.1239 239.353 37.9619C239.518 37.9761 239.712 38.0444 239.82 37.8425Z" fill="#064149"/>
<path d="M213.143 48.1866C214.609 48.8971 216.247 49.2496 217.411 50.5543C218.31 51.5548 219.366 52.4103 220.123 53.5501C220.445 54.0036 220.865 54.3786 221.352 54.6473C221.618 54.8191 221.838 55.0521 221.994 55.3266C222.151 55.6011 222.239 55.9092 222.251 56.2248C222.292 56.4878 222.415 56.7313 222.601 56.9212C222.175 56.9951 221.933 57.0093 221.748 56.5318C221.392 55.6535 220.536 55.1532 219.969 54.4341C219.073 53.3384 218.084 52.3219 217.013 51.3956C215.838 50.3411 214.407 49.7129 212.904 49.2667C212.453 49.1756 212.043 48.9401 211.738 48.5959C211.331 48.0899 210.622 48.0842 210.076 47.9364C209.088 47.6721 208.104 47.3679 207.162 47.0126C206.38 46.7284 205.802 45.9666 205.244 45.3072C204.86 44.8524 204.3 44.5142 204.154 43.886C204.109 43.6842 203.918 43.5137 204.129 43.2692C204.339 43.0248 204.482 43.2323 204.661 43.238C205.179 43.255 205.566 43.3488 205.591 43.9969C205.591 44.1674 205.933 44.2641 206.106 44.392C207.279 45.2447 208.465 46.1344 209.888 46.4612C210.716 46.6906 211.489 47.0819 212.164 47.6124C212.224 48.2576 212.93 47.8085 213.143 48.1866Z" fill="#064149"/>
<path d="M222.121 46.9996C223.228 47.2327 224.252 47.7159 225.354 48.0058C227.007 48.4407 228.614 48.0996 230.233 48.2133C231.298 48.2901 232.328 47.7898 233.272 47.2469V47.2299C233.085 48.0314 232.376 48.3867 231.767 48.651C230.89 49.0224 229.945 49.2045 228.993 49.1854C228.225 49.1655 227.465 49.5578 226.657 49.4554C225.553 49.3162 224.38 49.4554 223.419 48.7392C222.975 48.4134 222.453 48.2104 221.905 48.1508C220.482 48.1195 219.72 47.1105 218.741 46.4226C217.438 45.4776 216.244 44.3908 215.181 43.1823C215.03 43.049 214.922 42.8739 214.871 42.6792C214.837 42.5462 214.839 42.4062 214.88 42.2748C214.92 42.1433 214.996 42.0256 215.099 41.9345C215.397 41.7156 215.488 42.1619 215.614 42.2869C216.527 43.1994 217.588 43.9213 218.57 44.7371C219.091 45.1691 219.734 45.4846 220.166 46.0304C220.422 46.3544 220.918 46.2123 221.162 46.5534C221.211 47.2498 221.754 46.9399 222.121 46.9996Z" fill="#064149"/>
<path d="M114.333 16.1103C114.731 15.5901 115.209 15.7891 115.656 15.7464C116.336 15.6811 117.021 15.5958 117.696 15.4935C118.666 15.3457 119.372 16.0307 120.257 16.1245C120.356 16.1245 120.484 16.494 120.476 16.6929C120.467 16.8919 120.26 16.9374 120.052 16.909C119.577 16.8436 119.067 16.8749 118.629 16.7128C117.61 16.3376 116.586 16.349 115.539 16.4457C115.121 16.4855 114.762 16.2581 114.333 16.1103Z" fill="#064149"/>
<path d="M109.296 19.9339C110.354 19.1011 112.096 19.2318 112.904 20.1499C111.695 20.3063 110.559 20.1386 109.296 19.9339Z" fill="#064149"/>
<path d="M215.004 57.9134C214.241 57.6491 213.866 57.0465 213.482 56.4524C213.441 56.4026 213.413 56.344 213.399 56.2815C213.385 56.2189 213.386 56.1539 213.401 56.0917C213.417 56.0294 213.446 55.9716 213.488 55.9227C213.53 55.8739 213.582 55.8353 213.641 55.81C213.98 55.685 214.176 55.8839 214.349 56.1227C214.722 56.64 214.796 57.2682 215.004 57.9134Z" fill="#064149"/>
<path d="M137.68 37.852C136.982 38.6081 136.274 39.35 135.267 39.8417C135.358 39.0487 135.949 38.628 136.459 38.2414C136.743 38.0254 137.048 37.5507 137.571 37.7725C137.578 37.7957 137.593 37.8161 137.612 37.8304C137.632 37.8448 137.655 37.8524 137.68 37.852Z" fill="#064149"/>
<path d="M160.232 36.4485C160.007 36.0932 160.232 35.8999 160.517 35.88C160.742 35.8601 160.784 36.1159 160.742 36.3149C160.679 36.5991 160.668 37.0226 160.34 37.0283C160.064 37.0312 160.03 36.6958 160.232 36.4485Z" fill="#064149"/>
</g>
<defs>
<clipPath id="clip0_6469_1389">
<rect width="342" height="68.78" fill="white"/>
</clipPath>
</defs>
</svg>
