<svg width="20" height="20" viewBox="0 0 20 20" fill="none" xmlns="http://www.w3.org/2000/svg">
<path fill-rule="evenodd" clip-rule="evenodd" d="M6.22051 0.888984C7.19801 0.843984 7.50967 0.833984 9.99967 0.833984C12.4897 0.833984 12.8013 0.844818 13.778 0.888984C14.7547 0.933151 15.4213 1.08898 16.0047 1.31482C16.6155 1.54565 17.1697 1.90648 17.628 2.37315C18.0947 2.83065 18.4547 3.38398 18.6847 3.99565C18.9113 4.57898 19.0663 5.24565 19.1113 6.22065C19.1563 7.19982 19.1663 7.51148 19.1663 10.0007C19.1663 12.4906 19.1555 12.8023 19.1113 13.7798C19.0672 14.7548 18.9113 15.4215 18.6847 16.0048C18.4547 16.6166 18.0941 17.1708 17.628 17.629C17.1697 18.0956 16.6155 18.4557 16.0047 18.6857C15.4213 18.9123 14.7547 19.0673 13.7797 19.1123C12.8013 19.1573 12.4897 19.1673 9.99967 19.1673C7.50967 19.1673 7.19801 19.1565 6.22051 19.1123C5.24551 19.0681 4.57884 18.9123 3.99551 18.6857C3.38377 18.4556 2.82952 18.095 2.37134 17.629C1.90499 17.1712 1.5441 16.6172 1.31384 16.0056C1.08801 15.4223 0.933008 14.7556 0.888008 13.7806C0.843008 12.8015 0.833008 12.4898 0.833008 10.0007C0.833008 7.51065 0.843841 7.19898 0.888008 6.22232C0.932174 5.24565 1.08801 4.57898 1.31384 3.99565C1.54444 3.38405 1.90561 2.83008 2.37217 2.37232C2.82971 1.90607 3.3834 1.54519 3.99467 1.31482C4.57801 1.08898 5.24467 0.933984 6.21967 0.888984H6.22051ZM13.7038 2.53898C12.7372 2.49482 12.4472 2.48565 9.99967 2.48565C7.55217 2.48565 7.26217 2.49482 6.29551 2.53898C5.40134 2.57982 4.91634 2.72898 4.59301 2.85482C4.16551 3.02148 3.85967 3.21898 3.53884 3.53982C3.23471 3.83569 3.00066 4.19589 2.85384 4.59398C2.72801 4.91732 2.57884 5.40232 2.53801 6.29648C2.49384 7.26315 2.48467 7.55315 2.48467 10.0007C2.48467 12.4481 2.49384 12.7381 2.53801 13.7048C2.57884 14.599 2.72801 15.084 2.85384 15.4073C3.00051 15.8048 3.23467 16.1656 3.53884 16.4615C3.83467 16.7656 4.19551 16.9998 4.59301 17.1465C4.91634 17.2723 5.40134 17.4215 6.29551 17.4623C7.26217 17.5065 7.55134 17.5156 9.99967 17.5156C12.448 17.5156 12.7372 17.5065 13.7038 17.4623C14.598 17.4215 15.083 17.2723 15.4063 17.1465C15.8338 16.9798 16.1397 16.7823 16.4605 16.4615C16.7647 16.1656 16.9988 15.8048 17.1455 15.4073C17.2713 15.084 17.4205 14.599 17.4613 13.7048C17.5055 12.7381 17.5147 12.4481 17.5147 10.0007C17.5147 7.55315 17.5055 7.26315 17.4613 6.29648C17.4205 5.40232 17.2713 4.91732 17.1455 4.59398C16.9788 4.16648 16.7813 3.86065 16.4605 3.53982C16.1646 3.23571 15.8044 3.00166 15.4063 2.85482C15.083 2.72898 14.598 2.57982 13.7038 2.53898V2.53898ZM8.82884 12.8265C9.48272 13.0987 10.2108 13.1354 10.8888 12.9304C11.5667 12.7254 12.1525 12.2914 12.546 11.7025C12.9395 11.1136 13.1164 10.4064 13.0464 9.70157C12.9764 8.99677 12.6638 8.33813 12.1622 7.83815C11.8424 7.51855 11.4557 7.27383 11.03 7.12161C10.6042 6.96939 10.15 6.91345 9.70009 6.95783C9.25014 7.00221 8.81563 7.1458 8.42784 7.37826C8.04005 7.61072 7.70863 7.92627 7.45743 8.30219C7.20623 8.67812 7.0415 9.10506 6.9751 9.55228C6.90871 9.99951 6.9423 10.4559 7.07346 10.8886C7.20461 11.3213 7.43007 11.7195 7.73361 12.0546C8.03714 12.3897 8.41119 12.6533 8.82884 12.8265ZM6.66801 6.66898C7.10553 6.23146 7.62494 5.8844 8.19659 5.64762C8.76824 5.41083 9.38093 5.28896 9.99967 5.28896C10.6184 5.28896 11.2311 5.41083 11.8028 5.64762C12.3744 5.8844 12.8938 6.23146 13.3313 6.66898C13.7689 7.1065 14.1159 7.62592 14.3527 8.19757C14.5895 8.76921 14.7114 9.3819 14.7114 10.0007C14.7114 10.6194 14.5895 11.2321 14.3527 11.8037C14.1159 12.3754 13.7689 12.8948 13.3313 13.3323C12.4477 14.2159 11.2493 14.7123 9.99967 14.7123C8.75006 14.7123 7.55162 14.2159 6.66801 13.3323C5.78439 12.4487 5.28799 11.2503 5.28799 10.0007C5.28799 8.75103 5.78439 7.5526 6.66801 6.66898V6.66898ZM15.7563 5.99065C15.8648 5.88837 15.9516 5.76538 16.0116 5.62896C16.0716 5.49254 16.1037 5.34546 16.1059 5.19643C16.108 5.04739 16.0803 4.89944 16.0242 4.76133C15.9682 4.62321 15.885 4.49774 15.7796 4.39235C15.6742 4.28696 15.5488 4.20378 15.4107 4.14775C15.2726 4.09172 15.1246 4.06396 14.9756 4.06614C14.8265 4.06831 14.6795 4.10036 14.543 4.1604C14.4066 4.22043 14.2836 4.30723 14.1813 4.41565C13.9824 4.62651 13.8735 4.90659 13.8778 5.19643C13.882 5.48627 13.999 5.76305 14.204 5.96802C14.4089 6.17299 14.6857 6.29001 14.9756 6.29423C15.2654 6.29846 15.5455 6.18956 15.7563 5.99065V5.99065Z" fill="white"/>
</svg>
