<svg width="202" height="53" viewBox="0 0 202 53" fill="none" xmlns="http://www.w3.org/2000/svg">
<path d="M31.3001 31.0008L11.3001 32.8608C11.1281 32.875 10.9612 32.926 10.8107 33.0106C10.6602 33.0951 10.5298 33.2111 10.4282 33.3506C10.3266 33.4901 10.2564 33.6499 10.2222 33.8191C10.188 33.9883 10.1907 34.1628 10.2301 34.3308C10.4825 35.7472 11.2004 37.0388 12.2701 38.0008C13.5309 38.9686 15.1241 39.3966 16.7001 39.1908C18.007 39.1242 19.2536 38.6206 20.2401 37.7608C20.9266 37.1472 21.4345 36.3594 21.7101 35.4808C21.7816 35.2642 21.9139 35.0726 22.0912 34.929C22.2685 34.7854 22.4833 34.6958 22.7101 34.6708L30.8301 34.0008C31.0172 33.9815 31.2062 34.0064 31.3819 34.0735C31.5576 34.1406 31.715 34.2481 31.8415 34.3873C31.9681 34.5264 32.0601 34.6934 32.1102 34.8746C32.1603 35.0559 32.1672 35.2464 32.1301 35.4308C31.7755 37.1406 31.0966 38.7666 30.1301 40.2208C28.8574 42.1651 27.1444 43.7821 25.1301 44.9408C22.9238 46.2042 20.4647 46.9624 17.9301 47.1608C15.0031 47.4886 12.0408 47.0688 9.3201 45.9408C6.74227 44.8418 4.54447 43.0092 3.0001 40.6708C1.31312 38.096 0.314653 35.1316 0.100101 32.0608C-0.25666 29.0042 0.170056 25.9071 1.3401 23.0608C2.43113 20.506 4.25006 18.3289 6.5701 16.8008C9.04377 15.1869 11.8849 14.2238 14.8301 14.0008C17.7602 13.6657 20.7275 14.0715 23.4601 15.1808C25.9489 16.2203 28.0845 17.9565 29.6101 20.1808C31.212 22.5612 32.1635 25.3191 32.3701 28.1808C32.4107 28.7201 32.4107 29.2616 32.3701 29.8008C32.3718 30.0978 32.2634 30.3849 32.0658 30.6065C31.8681 30.8282 31.5953 30.9687 31.3001 31.0008ZM20.0701 23.0008C18.7709 22.0411 17.1535 21.6153 15.5501 21.8108C13.8957 21.9002 12.3371 22.6152 11.1901 23.8108C10.3271 24.7841 9.79493 26.006 9.6701 27.3008C9.6443 27.4828 9.66066 27.6683 9.71791 27.843C9.77516 28.0177 9.87177 28.1768 10.0003 28.3083C10.1288 28.4397 10.2858 28.5398 10.4591 28.6009C10.6325 28.6621 10.8176 28.6826 11.0001 28.6608L21.0001 27.7408C21.1628 27.7171 21.3188 27.6602 21.4586 27.5737C21.5984 27.4872 21.7189 27.3729 21.8126 27.2379C21.9064 27.1028 21.9714 26.95 22.0037 26.7888C22.0359 26.6276 22.0347 26.4615 22.0001 26.3008C21.7879 24.9997 21.1001 23.8237 20.0701 23.0008Z" fill="white"/>
<path d="M56.0002 21.7191C58.139 23.2935 59.7443 25.4851 60.6002 27.9991C60.6625 28.1759 60.6829 28.3648 60.6597 28.5508C60.6365 28.7368 60.5705 28.9149 60.4667 29.071C60.363 29.2271 60.2244 29.357 60.0618 29.4504C59.8993 29.5437 59.7173 29.5981 59.5302 29.6091L52.6802 30.0191C52.4353 30.0386 52.1906 29.9805 51.9806 29.853C51.7706 29.7256 51.606 29.5353 51.5102 29.3091C51.1526 28.4162 50.5449 27.6454 49.7602 27.0891C48.6906 26.3689 47.4036 26.0436 46.1202 26.1691C45.2066 26.161 44.3188 26.4722 43.6102 27.0491C43.3341 27.3211 43.1238 27.6526 42.9955 28.0183C42.8673 28.3841 42.8244 28.7743 42.8702 29.1591C42.9012 29.6546 43.0838 30.1286 43.3932 30.5168C43.7027 30.9049 44.1241 31.1886 44.6002 31.3291C46.2569 31.9067 47.9696 32.3089 49.7102 32.5291C51.804 32.8662 53.8747 33.3338 55.9102 33.9291C57.5436 34.4457 59.0196 35.3677 60.2002 36.6091C61.5248 38.093 62.2611 40.0101 62.2702 41.9991C62.3984 43.7512 61.9753 45.4995 61.0602 46.9991C60.0475 48.5744 58.6084 49.8297 56.9102 50.6191C54.827 51.6079 52.5645 52.1624 50.2602 52.2491C45.8935 52.5091 42.3335 51.7525 39.5802 49.9791C37.2324 48.4571 35.4971 46.1552 34.6802 43.4791C34.6218 43.3021 34.6047 43.1141 34.6302 42.9295C34.6557 42.7449 34.7232 42.5685 34.8275 42.4141C34.9318 42.2596 35.0701 42.131 35.2317 42.0383C35.3934 41.9456 35.5742 41.8911 35.7602 41.8791L42.8502 41.4591C43.1166 41.4436 43.3807 41.5165 43.6014 41.6667C43.822 41.8168 43.9869 42.0356 44.0702 42.2891C44.373 43.199 44.9852 43.9739 45.8002 44.4791C47.011 45.1765 48.4098 45.4772 49.8002 45.3391C50.7225 45.3466 51.6155 45.0157 52.3102 44.4091C52.5796 44.1303 52.7852 43.7964 52.9129 43.4304C53.0407 43.0644 53.0875 42.675 53.0502 42.2891C53.0355 41.7793 52.8646 41.2862 52.5606 40.8766C52.2565 40.4671 51.834 40.1608 51.3502 39.9991C49.6313 39.4317 47.8639 39.0233 46.0702 38.7791C44.0415 38.5049 42.036 38.0804 40.0702 37.5091C38.4841 37.0395 37.0427 36.176 35.8802 34.9991C34.5955 33.5676 33.8834 31.7127 33.8802 29.7891C33.7589 28.441 33.9563 27.0833 34.4566 25.8256C34.9569 24.5679 35.746 23.4455 36.7602 22.5491C38.8535 20.6091 41.9102 19.5225 45.9302 19.2891C49.9502 19.0558 53.3069 19.8658 56.0002 21.7191Z" fill="white"/>
<path d="M91.5 18.399C93.8019 20.6605 95.3073 23.6083 95.79 26.799C95.8196 26.9822 95.807 27.1697 95.7532 27.3473C95.6994 27.525 95.6057 27.688 95.4794 27.8239C95.3531 27.9599 95.1974 28.0653 95.0242 28.132C94.851 28.1987 94.6649 28.225 94.48 28.209L86.41 27.489C86.1754 27.4608 85.9546 27.3627 85.7763 27.2076C85.598 27.0525 85.4704 26.8474 85.41 26.619C85.1706 25.6157 84.6421 24.7047 83.89 23.999C82.9148 23.1078 81.6594 22.5844 80.34 22.519C79.517 22.4305 78.6847 22.5365 77.9101 22.8282C77.1355 23.12 76.4401 23.5895 75.88 24.199C74.4995 25.8213 73.7191 27.8693 73.67 29.999C73.3356 32.117 73.7418 34.2855 74.82 36.139C75.2644 36.8376 75.8673 37.4217 76.5796 37.8439C77.2919 38.2661 78.0937 38.5145 78.92 38.569C80.2285 38.737 81.5546 38.4435 82.67 37.739C83.5175 37.1665 84.181 36.3607 84.58 35.419C84.6844 35.1977 84.855 35.0143 85.0682 34.8943C85.2814 34.7743 85.5267 34.7235 85.77 34.749L93.84 35.459C94.0214 35.4813 94.1954 35.5442 94.3493 35.6428C94.5031 35.7415 94.6328 35.8734 94.7288 36.029C94.8248 36.1845 94.8846 36.3596 94.9039 36.5413C94.9231 36.723 94.9013 36.9068 94.84 37.079C93.8043 40.1312 91.8081 42.7659 89.15 44.589C85.9782 46.6771 82.1717 47.5801 78.4 47.139C75.4624 46.9388 72.6237 45.996 70.15 44.399C67.8301 42.8611 66.0063 40.683 64.9 38.129C63.6983 35.2911 63.2505 32.1909 63.6 29.129C63.7916 26.0517 64.7657 23.0744 66.43 20.479C67.9599 18.1591 70.1413 16.3431 72.7 15.259C75.426 14.1236 78.3932 13.6904 81.33 13.999C85.1334 14.2178 88.7364 15.7766 91.5 18.399Z" fill="white"/>
<path d="M112.82 20.6423C114.265 19.5983 115.92 18.8817 117.67 18.5423C117.838 18.5094 118.011 18.5122 118.178 18.5504C118.344 18.5887 118.501 18.6616 118.638 18.7643C118.775 18.8671 118.888 18.9975 118.971 19.1471C119.054 19.2966 119.105 19.4619 119.12 19.6323L119.82 27.7523C119.848 28.0719 119.748 28.3894 119.541 28.635C119.335 28.8807 119.04 29.0344 118.72 29.0623L117.09 29.2023C114.9 29.2431 112.787 30.0178 111.09 31.4023C109.74 32.6523 109.18 34.6023 109.41 37.2723L110.58 50.7723C110.608 51.0919 110.508 51.4094 110.301 51.655C110.095 51.9007 109.8 52.0544 109.48 52.0823L101.99 52.7323C101.671 52.7601 101.353 52.6598 101.107 52.4535C100.862 52.2472 100.708 51.9519 100.68 51.6323L98.0901 21.7323C98.0622 21.4143 98.1612 21.0982 98.3653 20.8529C98.5695 20.6075 98.8623 20.4528 99.1801 20.4223L106.68 19.7723C106.838 19.7586 106.997 19.7763 107.147 19.8242C107.298 19.8722 107.438 19.9495 107.559 20.0518C107.68 20.154 107.779 20.2791 107.852 20.42C107.924 20.5608 107.967 20.7145 107.98 20.8723L108.41 25.7523C109.443 23.7162 110.957 21.9623 112.82 20.6423Z" fill="white"/>
<path d="M124.59 1.41058C125.836 0.474979 127.358 -0.018292 128.916 0.00887769C130.474 0.0360473 131.978 0.582104 133.19 1.56058C133.706 2.04153 134.113 2.62814 134.382 3.28045C134.651 3.93275 134.777 4.63542 134.75 5.34058C134.751 6.0377 134.599 6.72653 134.305 7.35878C134.012 7.99102 133.583 8.55139 133.05 9.00058C131.843 10.004 130.296 10.5052 128.73 10.4006C127.158 10.4463 125.628 9.8921 124.45 8.85058C123.938 8.37918 123.533 7.80283 123.264 7.16084C122.995 6.51886 122.867 5.82635 122.89 5.13058C122.885 4.42412 123.035 3.72517 123.329 3.08261C123.622 2.44005 124.053 1.8694 124.59 1.41058ZM133.59 15.6506L133.06 45.6506C133.057 45.809 133.024 45.9654 132.96 46.1107C132.897 46.2559 132.805 46.3872 132.691 46.4969C132.577 46.6066 132.442 46.6926 132.294 46.7499C132.146 46.8071 131.988 46.8346 131.83 46.8306L124.31 46.7006C124.151 46.6993 123.994 46.6663 123.848 46.6034C123.702 46.5405 123.571 46.4491 123.461 46.3344C123.351 46.2198 123.265 46.0843 123.208 45.9359C123.151 45.7876 123.125 45.6293 123.13 45.4706L123.66 15.4706C123.668 15.1514 123.802 14.8483 124.032 14.6272C124.262 14.4062 124.571 14.2852 124.89 14.2906L132.41 14.4206C132.727 14.431 133.026 14.5662 133.243 14.7966C133.461 15.027 133.578 15.334 133.57 15.6506H133.59Z" fill="white"/>
<path d="M164.75 20.7223C166.986 22.0391 168.805 23.9591 170 26.2623C171.385 28.9711 172.134 31.9603 172.19 35.0023C172.386 38.0404 171.89 41.0834 170.74 43.9023C169.753 46.3098 168.107 48.3896 165.99 49.9023C163.896 51.3341 161.436 52.1358 158.9 52.2123C156.655 52.3656 154.414 51.8728 152.44 50.7923C151.753 50.4028 151.115 49.9328 150.54 49.3923C150.364 49.2342 150.145 49.1318 149.911 49.0979C149.677 49.064 149.438 49.1 149.224 49.2016C149.01 49.3031 148.831 49.4656 148.709 49.6685C148.588 49.8715 148.529 50.1059 148.54 50.3423V51.0323C148.551 51.3526 148.435 51.6643 148.218 51.9C148.001 52.1358 147.7 52.2767 147.38 52.2923L139.87 52.6123C139.711 52.619 139.552 52.5943 139.403 52.5396C139.254 52.4849 139.117 52.4013 138.999 52.2935C138.882 52.1858 138.788 52.056 138.721 51.9117C138.654 51.7673 138.616 51.6112 138.61 51.4523L136.9 10.9323C136.893 10.7733 136.918 10.6146 136.973 10.4653C137.027 10.3159 137.111 10.1788 137.219 10.0617C137.326 9.9447 137.456 9.85007 137.601 9.78324C137.745 9.71641 137.901 9.6787 138.06 9.67227L145.57 9.35227C145.89 9.34138 146.202 9.45695 146.438 9.67401C146.674 9.89107 146.814 10.1922 146.83 10.5123L147.31 21.7723C147.319 22.0096 147.398 22.2389 147.537 22.4312C147.677 22.6236 147.87 22.7703 148.093 22.8527C148.315 22.9351 148.557 22.9497 148.788 22.8944C149.019 22.8391 149.229 22.7166 149.39 22.5423C149.922 21.9624 150.52 21.4456 151.17 21.0023C153.04 19.7408 155.235 19.0463 157.49 19.0023C160.025 18.8627 162.547 19.46 164.75 20.7223ZM149.62 30.2123C148.287 31.8588 147.655 33.9636 147.86 36.0723C147.841 38.1806 148.649 40.2125 150.11 41.7323C151.526 43.0411 153.402 43.736 155.328 43.6647C157.255 43.5935 159.075 42.762 160.39 41.3523C161.692 39.6802 162.301 37.5711 162.09 35.4623C162.121 33.3433 161.333 31.2941 159.89 29.7423C159.205 29.0739 158.385 28.5609 157.484 28.2382C156.583 27.9155 155.623 27.7907 154.67 27.8723C153.71 27.8815 152.764 28.095 151.893 28.4984C151.022 28.9019 150.247 29.4861 149.62 30.2123Z" fill="white"/>
<path d="M185 5.00078V45.5708C185 45.89 184.874 46.1962 184.649 46.4229C184.424 46.6495 184.119 46.7781 183.8 46.7808H176.28C175.959 46.7808 175.651 46.6533 175.424 46.4264C175.198 46.1995 175.07 45.8917 175.07 45.5708V5.00078C175.073 4.68161 175.201 4.3764 175.428 4.15164C175.655 3.92688 175.961 3.80077 176.28 3.80078H183.8C184.118 3.80078 184.424 3.92721 184.649 4.15225C184.874 4.3773 185 4.68252 185 5.00078Z" fill="white"/>
<path d="M191.83 6.38079C193.142 5.538 194.697 5.15706 196.249 5.29835C197.802 5.43965 199.262 6.0951 200.4 7.16079C200.879 7.67016 201.241 8.27727 201.462 8.94024C201.683 9.60321 201.757 10.3062 201.68 11.0008C201.626 11.6999 201.419 12.3785 201.073 12.9885C200.728 13.5986 200.252 14.1251 199.68 14.5308C198.402 15.4483 196.818 15.8354 195.26 15.6108C193.69 15.5438 192.205 14.8783 191.11 13.7508C190.648 13.2504 190.3 12.6566 190.087 12.0096C189.875 11.3626 189.804 10.6775 189.88 10.0008C189.919 9.29109 190.114 8.59867 190.451 7.97293C190.788 7.34718 191.259 6.80354 191.83 6.38079ZM199.76 21.2408L197.05 51.1308C197.02 51.4485 196.865 51.7414 196.62 51.9455C196.374 52.1497 196.058 52.2486 195.74 52.2208L188.25 51.5408C188.091 51.5282 187.937 51.4842 187.795 51.4113C187.654 51.3384 187.528 51.2381 187.426 51.1162C187.323 50.9943 187.246 50.8532 187.199 50.7012C187.152 50.5492 187.135 50.3893 187.15 50.2308L189.87 20.3408C189.884 20.183 189.929 20.0294 190.002 19.889C190.076 19.7487 190.176 19.6242 190.298 19.5229C190.42 19.4215 190.561 19.3453 190.712 19.2986C190.863 19.2519 191.022 19.2357 191.18 19.2508L198.67 19.9308C198.988 19.9612 199.281 20.116 199.485 20.3614C199.689 20.6067 199.788 20.9228 199.76 21.2408Z" fill="white"/>
</svg>
